%TF.GenerationSoftware,KiCad,Pcbnew,9.0.1*%
%TF.CreationDate,2025-07-02T13:22:09+05:30*%
%TF.ProjectId,4. MCU data logger,342e204d-4355-4206-9461-7461206c6f67,1*%
%TF.SameCoordinates,Original*%
%TF.FileFunction,Legend,Bot*%
%TF.FilePolarity,Positive*%
%FSLAX46Y46*%
G04 Gerber Fmt 4.6, Leading zero omitted, Abs format (unit mm)*
G04 Created by KiCad (PCBNEW 9.0.1) date 2025-07-02 13:22:09*
%MOMM*%
%LPD*%
G01*
G04 APERTURE LIST*
%ADD10C,0.100000*%
%ADD11C,0.010000*%
G04 APERTURE END LIST*
D10*
X88342115Y-83438419D02*
X88342115Y-82438419D01*
X88342115Y-82438419D02*
X88008782Y-83152704D01*
X88008782Y-83152704D02*
X87675449Y-82438419D01*
X87675449Y-82438419D02*
X87675449Y-83438419D01*
X86627830Y-83343180D02*
X86675449Y-83390800D01*
X86675449Y-83390800D02*
X86818306Y-83438419D01*
X86818306Y-83438419D02*
X86913544Y-83438419D01*
X86913544Y-83438419D02*
X87056401Y-83390800D01*
X87056401Y-83390800D02*
X87151639Y-83295561D01*
X87151639Y-83295561D02*
X87199258Y-83200323D01*
X87199258Y-83200323D02*
X87246877Y-83009847D01*
X87246877Y-83009847D02*
X87246877Y-82866990D01*
X87246877Y-82866990D02*
X87199258Y-82676514D01*
X87199258Y-82676514D02*
X87151639Y-82581276D01*
X87151639Y-82581276D02*
X87056401Y-82486038D01*
X87056401Y-82486038D02*
X86913544Y-82438419D01*
X86913544Y-82438419D02*
X86818306Y-82438419D01*
X86818306Y-82438419D02*
X86675449Y-82486038D01*
X86675449Y-82486038D02*
X86627830Y-82533657D01*
X86199258Y-82438419D02*
X86199258Y-83247942D01*
X86199258Y-83247942D02*
X86151639Y-83343180D01*
X86151639Y-83343180D02*
X86104020Y-83390800D01*
X86104020Y-83390800D02*
X86008782Y-83438419D01*
X86008782Y-83438419D02*
X85818306Y-83438419D01*
X85818306Y-83438419D02*
X85723068Y-83390800D01*
X85723068Y-83390800D02*
X85675449Y-83343180D01*
X85675449Y-83343180D02*
X85627830Y-83247942D01*
X85627830Y-83247942D02*
X85627830Y-82438419D01*
X84389734Y-83438419D02*
X84389734Y-82438419D01*
X84389734Y-82438419D02*
X84151639Y-82438419D01*
X84151639Y-82438419D02*
X84008782Y-82486038D01*
X84008782Y-82486038D02*
X83913544Y-82581276D01*
X83913544Y-82581276D02*
X83865925Y-82676514D01*
X83865925Y-82676514D02*
X83818306Y-82866990D01*
X83818306Y-82866990D02*
X83818306Y-83009847D01*
X83818306Y-83009847D02*
X83865925Y-83200323D01*
X83865925Y-83200323D02*
X83913544Y-83295561D01*
X83913544Y-83295561D02*
X84008782Y-83390800D01*
X84008782Y-83390800D02*
X84151639Y-83438419D01*
X84151639Y-83438419D02*
X84389734Y-83438419D01*
X83437353Y-83152704D02*
X82961163Y-83152704D01*
X83532591Y-83438419D02*
X83199258Y-82438419D01*
X83199258Y-82438419D02*
X82865925Y-83438419D01*
X82675448Y-82438419D02*
X82104020Y-82438419D01*
X82389734Y-83438419D02*
X82389734Y-82438419D01*
X81818305Y-83152704D02*
X81342115Y-83152704D01*
X81913543Y-83438419D02*
X81580210Y-82438419D01*
X81580210Y-82438419D02*
X81246877Y-83438419D01*
X80437353Y-83438419D02*
X80913543Y-83438419D01*
X80913543Y-83438419D02*
X80913543Y-82438419D01*
X79913543Y-82438419D02*
X79723067Y-82438419D01*
X79723067Y-82438419D02*
X79627829Y-82486038D01*
X79627829Y-82486038D02*
X79532591Y-82581276D01*
X79532591Y-82581276D02*
X79484972Y-82771752D01*
X79484972Y-82771752D02*
X79484972Y-83105085D01*
X79484972Y-83105085D02*
X79532591Y-83295561D01*
X79532591Y-83295561D02*
X79627829Y-83390800D01*
X79627829Y-83390800D02*
X79723067Y-83438419D01*
X79723067Y-83438419D02*
X79913543Y-83438419D01*
X79913543Y-83438419D02*
X80008781Y-83390800D01*
X80008781Y-83390800D02*
X80104019Y-83295561D01*
X80104019Y-83295561D02*
X80151638Y-83105085D01*
X80151638Y-83105085D02*
X80151638Y-82771752D01*
X80151638Y-82771752D02*
X80104019Y-82581276D01*
X80104019Y-82581276D02*
X80008781Y-82486038D01*
X80008781Y-82486038D02*
X79913543Y-82438419D01*
X78532591Y-82486038D02*
X78627829Y-82438419D01*
X78627829Y-82438419D02*
X78770686Y-82438419D01*
X78770686Y-82438419D02*
X78913543Y-82486038D01*
X78913543Y-82486038D02*
X79008781Y-82581276D01*
X79008781Y-82581276D02*
X79056400Y-82676514D01*
X79056400Y-82676514D02*
X79104019Y-82866990D01*
X79104019Y-82866990D02*
X79104019Y-83009847D01*
X79104019Y-83009847D02*
X79056400Y-83200323D01*
X79056400Y-83200323D02*
X79008781Y-83295561D01*
X79008781Y-83295561D02*
X78913543Y-83390800D01*
X78913543Y-83390800D02*
X78770686Y-83438419D01*
X78770686Y-83438419D02*
X78675448Y-83438419D01*
X78675448Y-83438419D02*
X78532591Y-83390800D01*
X78532591Y-83390800D02*
X78484972Y-83343180D01*
X78484972Y-83343180D02*
X78484972Y-83009847D01*
X78484972Y-83009847D02*
X78675448Y-83009847D01*
X77532591Y-82486038D02*
X77627829Y-82438419D01*
X77627829Y-82438419D02*
X77770686Y-82438419D01*
X77770686Y-82438419D02*
X77913543Y-82486038D01*
X77913543Y-82486038D02*
X78008781Y-82581276D01*
X78008781Y-82581276D02*
X78056400Y-82676514D01*
X78056400Y-82676514D02*
X78104019Y-82866990D01*
X78104019Y-82866990D02*
X78104019Y-83009847D01*
X78104019Y-83009847D02*
X78056400Y-83200323D01*
X78056400Y-83200323D02*
X78008781Y-83295561D01*
X78008781Y-83295561D02*
X77913543Y-83390800D01*
X77913543Y-83390800D02*
X77770686Y-83438419D01*
X77770686Y-83438419D02*
X77675448Y-83438419D01*
X77675448Y-83438419D02*
X77532591Y-83390800D01*
X77532591Y-83390800D02*
X77484972Y-83343180D01*
X77484972Y-83343180D02*
X77484972Y-83009847D01*
X77484972Y-83009847D02*
X77675448Y-83009847D01*
X77056400Y-82914609D02*
X76723067Y-82914609D01*
X76580210Y-83438419D02*
X77056400Y-83438419D01*
X77056400Y-83438419D02*
X77056400Y-82438419D01*
X77056400Y-82438419D02*
X76580210Y-82438419D01*
X75580210Y-83438419D02*
X75913543Y-82962228D01*
X76151638Y-83438419D02*
X76151638Y-82438419D01*
X76151638Y-82438419D02*
X75770686Y-82438419D01*
X75770686Y-82438419D02*
X75675448Y-82486038D01*
X75675448Y-82486038D02*
X75627829Y-82533657D01*
X75627829Y-82533657D02*
X75580210Y-82628895D01*
X75580210Y-82628895D02*
X75580210Y-82771752D01*
X75580210Y-82771752D02*
X75627829Y-82866990D01*
X75627829Y-82866990D02*
X75675448Y-82914609D01*
X75675448Y-82914609D02*
X75770686Y-82962228D01*
X75770686Y-82962228D02*
X76151638Y-82962228D01*
D11*
%TO.C,REF\u002A\u002A*%
X52751406Y-66536949D02*
X52777127Y-66552647D01*
X52803778Y-66574227D01*
X52803778Y-67221684D01*
X52777127Y-67243264D01*
X52745767Y-67260739D01*
X52709966Y-67261575D01*
X52678528Y-67241082D01*
X52674652Y-67236416D01*
X52669186Y-67226949D01*
X52664979Y-67213267D01*
X52661867Y-67192748D01*
X52659687Y-67162768D01*
X52658276Y-67120704D01*
X52657471Y-67063932D01*
X52657107Y-66989830D01*
X52657022Y-66895773D01*
X52657022Y-66574227D01*
X52683673Y-66552647D01*
X52707386Y-66537877D01*
X52730400Y-66531067D01*
X52751406Y-66536949D01*
G36*
X52751406Y-66536949D02*
G01*
X52777127Y-66552647D01*
X52803778Y-66574227D01*
X52803778Y-67221684D01*
X52777127Y-67243264D01*
X52745767Y-67260739D01*
X52709966Y-67261575D01*
X52678528Y-67241082D01*
X52674652Y-67236416D01*
X52669186Y-67226949D01*
X52664979Y-67213267D01*
X52661867Y-67192748D01*
X52659687Y-67162768D01*
X52658276Y-67120704D01*
X52657471Y-67063932D01*
X52657107Y-66989830D01*
X52657022Y-66895773D01*
X52657022Y-66574227D01*
X52683673Y-66552647D01*
X52707386Y-66537877D01*
X52730400Y-66531067D01*
X52751406Y-66536949D01*
G37*
X59882137Y-66535463D02*
X59916291Y-66558776D01*
X59944000Y-66586485D01*
X59944000Y-66899537D01*
X59943959Y-66983567D01*
X59943701Y-67057789D01*
X59943030Y-67114541D01*
X59941752Y-67156512D01*
X59939673Y-67186389D01*
X59936599Y-67206861D01*
X59932334Y-67220614D01*
X59926684Y-67230337D01*
X59919455Y-67238717D01*
X59887991Y-67260181D01*
X59852826Y-67261947D01*
X59819822Y-67242267D01*
X59814516Y-67236398D01*
X59809066Y-67227314D01*
X59804900Y-67213973D01*
X59801846Y-67193757D01*
X59799732Y-67164049D01*
X59798386Y-67122232D01*
X59797638Y-67065689D01*
X59797314Y-66991802D01*
X59797245Y-66897956D01*
X59797284Y-66822294D01*
X59797539Y-66744385D01*
X59798183Y-66684375D01*
X59799387Y-66639648D01*
X59801324Y-66607585D01*
X59804164Y-66585571D01*
X59808079Y-66570987D01*
X59813242Y-66561218D01*
X59819822Y-66553645D01*
X59849006Y-66534623D01*
X59882137Y-66535463D01*
G36*
X59882137Y-66535463D02*
G01*
X59916291Y-66558776D01*
X59944000Y-66586485D01*
X59944000Y-66899537D01*
X59943959Y-66983567D01*
X59943701Y-67057789D01*
X59943030Y-67114541D01*
X59941752Y-67156512D01*
X59939673Y-67186389D01*
X59936599Y-67206861D01*
X59932334Y-67220614D01*
X59926684Y-67230337D01*
X59919455Y-67238717D01*
X59887991Y-67260181D01*
X59852826Y-67261947D01*
X59819822Y-67242267D01*
X59814516Y-67236398D01*
X59809066Y-67227314D01*
X59804900Y-67213973D01*
X59801846Y-67193757D01*
X59799732Y-67164049D01*
X59798386Y-67122232D01*
X59797638Y-67065689D01*
X59797314Y-66991802D01*
X59797245Y-66897956D01*
X59797284Y-66822294D01*
X59797539Y-66744385D01*
X59798183Y-66684375D01*
X59799387Y-66639648D01*
X59801324Y-66607585D01*
X59804164Y-66585571D01*
X59808079Y-66570987D01*
X59813242Y-66561218D01*
X59819822Y-66553645D01*
X59849006Y-66534623D01*
X59882137Y-66535463D01*
G37*
X59350562Y-61294850D02*
X59433313Y-61322053D01*
X59508406Y-61367484D01*
X59580298Y-61433302D01*
X59618846Y-61477567D01*
X59658256Y-61535961D01*
X59683446Y-61596586D01*
X59696861Y-61665865D01*
X59700948Y-61750222D01*
X59700669Y-61796307D01*
X59698460Y-61837450D01*
X59692894Y-61869582D01*
X59682586Y-61900122D01*
X59666148Y-61936489D01*
X59652200Y-61963728D01*
X59593665Y-62049429D01*
X59521619Y-62118617D01*
X59437947Y-62169741D01*
X59344531Y-62201250D01*
X59311434Y-62208225D01*
X59270960Y-62215094D01*
X59237999Y-62216919D01*
X59203698Y-62213947D01*
X59159200Y-62206426D01*
X59107934Y-62194002D01*
X59017434Y-62156112D01*
X58938345Y-62101836D01*
X58872528Y-62033770D01*
X58821840Y-61954511D01*
X58788140Y-61866654D01*
X58773286Y-61772795D01*
X58779136Y-61675530D01*
X58805399Y-61579220D01*
X58850418Y-61490494D01*
X58911373Y-61415419D01*
X58986184Y-61355641D01*
X59072768Y-61312809D01*
X59169043Y-61288571D01*
X59272928Y-61284576D01*
X59350562Y-61294850D01*
G36*
X59350562Y-61294850D02*
G01*
X59433313Y-61322053D01*
X59508406Y-61367484D01*
X59580298Y-61433302D01*
X59618846Y-61477567D01*
X59658256Y-61535961D01*
X59683446Y-61596586D01*
X59696861Y-61665865D01*
X59700948Y-61750222D01*
X59700669Y-61796307D01*
X59698460Y-61837450D01*
X59692894Y-61869582D01*
X59682586Y-61900122D01*
X59666148Y-61936489D01*
X59652200Y-61963728D01*
X59593665Y-62049429D01*
X59521619Y-62118617D01*
X59437947Y-62169741D01*
X59344531Y-62201250D01*
X59311434Y-62208225D01*
X59270960Y-62215094D01*
X59237999Y-62216919D01*
X59203698Y-62213947D01*
X59159200Y-62206426D01*
X59107934Y-62194002D01*
X59017434Y-62156112D01*
X58938345Y-62101836D01*
X58872528Y-62033770D01*
X58821840Y-61954511D01*
X58788140Y-61866654D01*
X58773286Y-61772795D01*
X58779136Y-61675530D01*
X58805399Y-61579220D01*
X58850418Y-61490494D01*
X58911373Y-61415419D01*
X58986184Y-61355641D01*
X59072768Y-61312809D01*
X59169043Y-61288571D01*
X59272928Y-61284576D01*
X59350562Y-61294850D01*
G37*
X52051767Y-66531068D02*
X52145890Y-66531158D01*
X52220405Y-66531498D01*
X52277811Y-66532239D01*
X52320611Y-66533535D01*
X52351304Y-66535537D01*
X52372391Y-66538396D01*
X52386373Y-66542266D01*
X52395750Y-66547298D01*
X52403022Y-66553645D01*
X52421828Y-66586362D01*
X52423275Y-66623939D01*
X52406917Y-66657178D01*
X52405557Y-66658631D01*
X52394354Y-66666992D01*
X52377252Y-66672547D01*
X52350082Y-66675840D01*
X52308678Y-66677418D01*
X52248873Y-66677822D01*
X52109511Y-66677822D01*
X52109511Y-66941589D01*
X52109436Y-67017417D01*
X52109028Y-67084083D01*
X52108046Y-67133867D01*
X52106250Y-67169784D01*
X52103399Y-67194850D01*
X52099253Y-67212081D01*
X52093571Y-67224492D01*
X52086114Y-67235100D01*
X52083824Y-67237906D01*
X52052646Y-67260548D01*
X52018266Y-67262112D01*
X51985334Y-67242267D01*
X51978355Y-67234191D01*
X51972883Y-67223593D01*
X51968863Y-67207749D01*
X51966072Y-67183773D01*
X51964288Y-67148774D01*
X51963289Y-67099864D01*
X51962852Y-67034154D01*
X51962756Y-66948756D01*
X51962756Y-66677822D01*
X51816820Y-66677822D01*
X51805720Y-66677821D01*
X51749202Y-66677596D01*
X51710358Y-66676457D01*
X51684965Y-66673657D01*
X51668804Y-66668450D01*
X51657652Y-66660089D01*
X51647289Y-66647826D01*
X51631441Y-66617138D01*
X51634543Y-66583358D01*
X51660187Y-66550822D01*
X51665129Y-66547105D01*
X51675338Y-66542269D01*
X51690764Y-66538506D01*
X51713886Y-66535683D01*
X51747183Y-66533670D01*
X51793137Y-66532333D01*
X51854228Y-66531542D01*
X51932935Y-66531163D01*
X52031740Y-66531067D01*
X52051767Y-66531068D01*
G36*
X52051767Y-66531068D02*
G01*
X52145890Y-66531158D01*
X52220405Y-66531498D01*
X52277811Y-66532239D01*
X52320611Y-66533535D01*
X52351304Y-66535537D01*
X52372391Y-66538396D01*
X52386373Y-66542266D01*
X52395750Y-66547298D01*
X52403022Y-66553645D01*
X52421828Y-66586362D01*
X52423275Y-66623939D01*
X52406917Y-66657178D01*
X52405557Y-66658631D01*
X52394354Y-66666992D01*
X52377252Y-66672547D01*
X52350082Y-66675840D01*
X52308678Y-66677418D01*
X52248873Y-66677822D01*
X52109511Y-66677822D01*
X52109511Y-66941589D01*
X52109436Y-67017417D01*
X52109028Y-67084083D01*
X52108046Y-67133867D01*
X52106250Y-67169784D01*
X52103399Y-67194850D01*
X52099253Y-67212081D01*
X52093571Y-67224492D01*
X52086114Y-67235100D01*
X52083824Y-67237906D01*
X52052646Y-67260548D01*
X52018266Y-67262112D01*
X51985334Y-67242267D01*
X51978355Y-67234191D01*
X51972883Y-67223593D01*
X51968863Y-67207749D01*
X51966072Y-67183773D01*
X51964288Y-67148774D01*
X51963289Y-67099864D01*
X51962852Y-67034154D01*
X51962756Y-66948756D01*
X51962756Y-66677822D01*
X51816820Y-66677822D01*
X51805720Y-66677821D01*
X51749202Y-66677596D01*
X51710358Y-66676457D01*
X51684965Y-66673657D01*
X51668804Y-66668450D01*
X51657652Y-66660089D01*
X51647289Y-66647826D01*
X51631441Y-66617138D01*
X51634543Y-66583358D01*
X51660187Y-66550822D01*
X51665129Y-66547105D01*
X51675338Y-66542269D01*
X51690764Y-66538506D01*
X51713886Y-66535683D01*
X51747183Y-66533670D01*
X51793137Y-66532333D01*
X51854228Y-66531542D01*
X51932935Y-66531163D01*
X52031740Y-66531067D01*
X52051767Y-66531068D01*
G37*
X51375734Y-66553645D02*
X51381366Y-66559835D01*
X51386456Y-66568041D01*
X51390543Y-66579817D01*
X51393721Y-66597276D01*
X51396087Y-66622530D01*
X51397738Y-66657690D01*
X51398769Y-66704869D01*
X51399277Y-66766177D01*
X51399359Y-66843727D01*
X51399109Y-66939631D01*
X51398625Y-67056000D01*
X51398557Y-67070175D01*
X51397971Y-67131937D01*
X51396648Y-67175620D01*
X51394103Y-67205001D01*
X51389848Y-67223855D01*
X51383396Y-67235959D01*
X51374262Y-67245089D01*
X51340804Y-67262506D01*
X51305856Y-67259604D01*
X51274953Y-67235100D01*
X51265944Y-67221897D01*
X51258492Y-67203361D01*
X51254124Y-67177333D01*
X51252069Y-67138787D01*
X51251556Y-67082700D01*
X51251556Y-66960045D01*
X50754845Y-66960045D01*
X50754845Y-67094871D01*
X50754772Y-67130662D01*
X50754009Y-67176992D01*
X50751833Y-67207526D01*
X50747536Y-67226557D01*
X50740412Y-67238374D01*
X50729755Y-67247271D01*
X50697504Y-67262341D01*
X50662217Y-67259673D01*
X50631486Y-67235100D01*
X50626831Y-67228845D01*
X50620895Y-67218321D01*
X50616364Y-67204391D01*
X50613048Y-67184317D01*
X50610759Y-67155360D01*
X50609308Y-67114780D01*
X50608505Y-67059840D01*
X50608162Y-66987799D01*
X50608089Y-66895920D01*
X50608089Y-66586485D01*
X50635798Y-66558776D01*
X50667177Y-66536533D01*
X50700406Y-66533844D01*
X50732267Y-66553645D01*
X50740553Y-66563415D01*
X50747965Y-66579307D01*
X50752302Y-66603275D01*
X50754338Y-66640148D01*
X50754845Y-66694756D01*
X50754845Y-66813289D01*
X51251556Y-66813289D01*
X51251556Y-66697776D01*
X51251994Y-66646078D01*
X51253958Y-66611554D01*
X51258474Y-66588978D01*
X51266567Y-66573126D01*
X51279265Y-66558776D01*
X51310643Y-66536533D01*
X51343872Y-66533844D01*
X51375734Y-66553645D01*
G36*
X51375734Y-66553645D02*
G01*
X51381366Y-66559835D01*
X51386456Y-66568041D01*
X51390543Y-66579817D01*
X51393721Y-66597276D01*
X51396087Y-66622530D01*
X51397738Y-66657690D01*
X51398769Y-66704869D01*
X51399277Y-66766177D01*
X51399359Y-66843727D01*
X51399109Y-66939631D01*
X51398625Y-67056000D01*
X51398557Y-67070175D01*
X51397971Y-67131937D01*
X51396648Y-67175620D01*
X51394103Y-67205001D01*
X51389848Y-67223855D01*
X51383396Y-67235959D01*
X51374262Y-67245089D01*
X51340804Y-67262506D01*
X51305856Y-67259604D01*
X51274953Y-67235100D01*
X51265944Y-67221897D01*
X51258492Y-67203361D01*
X51254124Y-67177333D01*
X51252069Y-67138787D01*
X51251556Y-67082700D01*
X51251556Y-66960045D01*
X50754845Y-66960045D01*
X50754845Y-67094871D01*
X50754772Y-67130662D01*
X50754009Y-67176992D01*
X50751833Y-67207526D01*
X50747536Y-67226557D01*
X50740412Y-67238374D01*
X50729755Y-67247271D01*
X50697504Y-67262341D01*
X50662217Y-67259673D01*
X50631486Y-67235100D01*
X50626831Y-67228845D01*
X50620895Y-67218321D01*
X50616364Y-67204391D01*
X50613048Y-67184317D01*
X50610759Y-67155360D01*
X50609308Y-67114780D01*
X50608505Y-67059840D01*
X50608162Y-66987799D01*
X50608089Y-66895920D01*
X50608089Y-66586485D01*
X50635798Y-66558776D01*
X50667177Y-66536533D01*
X50700406Y-66533844D01*
X50732267Y-66553645D01*
X50740553Y-66563415D01*
X50747965Y-66579307D01*
X50752302Y-66603275D01*
X50754338Y-66640148D01*
X50754845Y-66694756D01*
X50754845Y-66813289D01*
X51251556Y-66813289D01*
X51251556Y-66697776D01*
X51251994Y-66646078D01*
X51253958Y-66611554D01*
X51258474Y-66588978D01*
X51266567Y-66573126D01*
X51279265Y-66558776D01*
X51310643Y-66536533D01*
X51343872Y-66533844D01*
X51375734Y-66553645D01*
G37*
X56081133Y-67142396D02*
X56079163Y-67175175D01*
X56076235Y-67198095D01*
X56072158Y-67213897D01*
X56066743Y-67225319D01*
X56059803Y-67235100D01*
X56036406Y-67264845D01*
X55870714Y-67264251D01*
X55835918Y-67263953D01*
X55737435Y-67260522D01*
X55656473Y-67252839D01*
X55589379Y-67240282D01*
X55532496Y-67222227D01*
X55482169Y-67198052D01*
X55478810Y-67196135D01*
X55420998Y-67159417D01*
X55378644Y-67122451D01*
X55345828Y-67078966D01*
X55316628Y-67022689D01*
X55312346Y-67013073D01*
X55289769Y-66949887D01*
X55284034Y-66904333D01*
X55433279Y-66904333D01*
X55438892Y-66929061D01*
X55444618Y-66944939D01*
X55477548Y-67004847D01*
X55524886Y-67050600D01*
X55588652Y-67083736D01*
X55670861Y-67105790D01*
X55673655Y-67106292D01*
X55719940Y-67112255D01*
X55776336Y-67116483D01*
X55831274Y-67118089D01*
X55925156Y-67118089D01*
X55925156Y-66677822D01*
X55837667Y-66678270D01*
X55770747Y-66680746D01*
X55678349Y-66691998D01*
X55599034Y-66711537D01*
X55537060Y-66738511D01*
X55506120Y-66759240D01*
X55478000Y-66789006D01*
X55454660Y-66831434D01*
X55447533Y-66847400D01*
X55435709Y-66879902D01*
X55433279Y-66904333D01*
X55284034Y-66904333D01*
X55282797Y-66894509D01*
X55291399Y-66839483D01*
X55315541Y-66777351D01*
X55316337Y-66775658D01*
X55356788Y-66706236D01*
X55407473Y-66649638D01*
X55470198Y-66605070D01*
X55546774Y-66571741D01*
X55639009Y-66548861D01*
X55748712Y-66535636D01*
X55877691Y-66531275D01*
X55881263Y-66531270D01*
X55941283Y-66531410D01*
X55983214Y-66532446D01*
X56011328Y-66535040D01*
X56029897Y-66539853D01*
X56043194Y-66547544D01*
X56055491Y-66558776D01*
X56083200Y-66586485D01*
X56083200Y-66895920D01*
X56083175Y-66957526D01*
X56082950Y-67036311D01*
X56082332Y-67097021D01*
X56081775Y-67118089D01*
X56081133Y-67142396D01*
G36*
X56081133Y-67142396D02*
G01*
X56079163Y-67175175D01*
X56076235Y-67198095D01*
X56072158Y-67213897D01*
X56066743Y-67225319D01*
X56059803Y-67235100D01*
X56036406Y-67264845D01*
X55870714Y-67264251D01*
X55835918Y-67263953D01*
X55737435Y-67260522D01*
X55656473Y-67252839D01*
X55589379Y-67240282D01*
X55532496Y-67222227D01*
X55482169Y-67198052D01*
X55478810Y-67196135D01*
X55420998Y-67159417D01*
X55378644Y-67122451D01*
X55345828Y-67078966D01*
X55316628Y-67022689D01*
X55312346Y-67013073D01*
X55289769Y-66949887D01*
X55284034Y-66904333D01*
X55433279Y-66904333D01*
X55438892Y-66929061D01*
X55444618Y-66944939D01*
X55477548Y-67004847D01*
X55524886Y-67050600D01*
X55588652Y-67083736D01*
X55670861Y-67105790D01*
X55673655Y-67106292D01*
X55719940Y-67112255D01*
X55776336Y-67116483D01*
X55831274Y-67118089D01*
X55925156Y-67118089D01*
X55925156Y-66677822D01*
X55837667Y-66678270D01*
X55770747Y-66680746D01*
X55678349Y-66691998D01*
X55599034Y-66711537D01*
X55537060Y-66738511D01*
X55506120Y-66759240D01*
X55478000Y-66789006D01*
X55454660Y-66831434D01*
X55447533Y-66847400D01*
X55435709Y-66879902D01*
X55433279Y-66904333D01*
X55284034Y-66904333D01*
X55282797Y-66894509D01*
X55291399Y-66839483D01*
X55315541Y-66777351D01*
X55316337Y-66775658D01*
X55356788Y-66706236D01*
X55407473Y-66649638D01*
X55470198Y-66605070D01*
X55546774Y-66571741D01*
X55639009Y-66548861D01*
X55748712Y-66535636D01*
X55877691Y-66531275D01*
X55881263Y-66531270D01*
X55941283Y-66531410D01*
X55983214Y-66532446D01*
X56011328Y-66535040D01*
X56029897Y-66539853D01*
X56043194Y-66547544D01*
X56055491Y-66558776D01*
X56083200Y-66586485D01*
X56083200Y-66895920D01*
X56083175Y-66957526D01*
X56082950Y-67036311D01*
X56082332Y-67097021D01*
X56081775Y-67118089D01*
X56081133Y-67142396D01*
G37*
X63172817Y-66716427D02*
X63172870Y-66797041D01*
X63172622Y-66897956D01*
X63172583Y-66973617D01*
X63172328Y-67051526D01*
X63171684Y-67111536D01*
X63170480Y-67156264D01*
X63168543Y-67188326D01*
X63165703Y-67210340D01*
X63161788Y-67224924D01*
X63156626Y-67234694D01*
X63150045Y-67242267D01*
X63143077Y-67248501D01*
X63130079Y-67255801D01*
X63110931Y-67260554D01*
X63081528Y-67263292D01*
X63037762Y-67264545D01*
X62975528Y-67264845D01*
X62926582Y-67264469D01*
X62819722Y-67260041D01*
X62730494Y-67249953D01*
X62655696Y-67233365D01*
X62592125Y-67209435D01*
X62536579Y-67177321D01*
X62485854Y-67136182D01*
X62479866Y-67130330D01*
X62442999Y-67081821D01*
X62411899Y-67021013D01*
X62390417Y-66956769D01*
X62385136Y-66918026D01*
X62532353Y-66918026D01*
X62550635Y-66968961D01*
X62580305Y-67014878D01*
X62627002Y-67057287D01*
X62688392Y-67087090D01*
X62767538Y-67106226D01*
X62769028Y-67106464D01*
X62817999Y-67112256D01*
X62876693Y-67116396D01*
X62932734Y-67118004D01*
X63025867Y-67118089D01*
X63025867Y-66677822D01*
X62949667Y-66677808D01*
X62946639Y-66677817D01*
X62895519Y-66679782D01*
X62835416Y-66684507D01*
X62778708Y-66691035D01*
X62728750Y-66700331D01*
X62653998Y-66726600D01*
X62596489Y-66765899D01*
X62554988Y-66818933D01*
X62533771Y-66870200D01*
X62532353Y-66918026D01*
X62385136Y-66918026D01*
X62382400Y-66897956D01*
X62383679Y-66876739D01*
X62395991Y-66819323D01*
X62418520Y-66759413D01*
X62447750Y-66705363D01*
X62480167Y-66665532D01*
X62499708Y-66648510D01*
X62554420Y-66609322D01*
X62614723Y-66579193D01*
X62683919Y-66557232D01*
X62765311Y-66542550D01*
X62862200Y-66534259D01*
X62977889Y-66531467D01*
X63017371Y-66531066D01*
X63063082Y-66530653D01*
X63098883Y-66532457D01*
X63125974Y-66538739D01*
X63145556Y-66551759D01*
X63158830Y-66573778D01*
X63166998Y-66607055D01*
X63171260Y-66653851D01*
X63171857Y-66677822D01*
X63172817Y-66716427D01*
G36*
X63172817Y-66716427D02*
G01*
X63172870Y-66797041D01*
X63172622Y-66897956D01*
X63172583Y-66973617D01*
X63172328Y-67051526D01*
X63171684Y-67111536D01*
X63170480Y-67156264D01*
X63168543Y-67188326D01*
X63165703Y-67210340D01*
X63161788Y-67224924D01*
X63156626Y-67234694D01*
X63150045Y-67242267D01*
X63143077Y-67248501D01*
X63130079Y-67255801D01*
X63110931Y-67260554D01*
X63081528Y-67263292D01*
X63037762Y-67264545D01*
X62975528Y-67264845D01*
X62926582Y-67264469D01*
X62819722Y-67260041D01*
X62730494Y-67249953D01*
X62655696Y-67233365D01*
X62592125Y-67209435D01*
X62536579Y-67177321D01*
X62485854Y-67136182D01*
X62479866Y-67130330D01*
X62442999Y-67081821D01*
X62411899Y-67021013D01*
X62390417Y-66956769D01*
X62385136Y-66918026D01*
X62532353Y-66918026D01*
X62550635Y-66968961D01*
X62580305Y-67014878D01*
X62627002Y-67057287D01*
X62688392Y-67087090D01*
X62767538Y-67106226D01*
X62769028Y-67106464D01*
X62817999Y-67112256D01*
X62876693Y-67116396D01*
X62932734Y-67118004D01*
X63025867Y-67118089D01*
X63025867Y-66677822D01*
X62949667Y-66677808D01*
X62946639Y-66677817D01*
X62895519Y-66679782D01*
X62835416Y-66684507D01*
X62778708Y-66691035D01*
X62728750Y-66700331D01*
X62653998Y-66726600D01*
X62596489Y-66765899D01*
X62554988Y-66818933D01*
X62533771Y-66870200D01*
X62532353Y-66918026D01*
X62385136Y-66918026D01*
X62382400Y-66897956D01*
X62383679Y-66876739D01*
X62395991Y-66819323D01*
X62418520Y-66759413D01*
X62447750Y-66705363D01*
X62480167Y-66665532D01*
X62499708Y-66648510D01*
X62554420Y-66609322D01*
X62614723Y-66579193D01*
X62683919Y-66557232D01*
X62765311Y-66542550D01*
X62862200Y-66534259D01*
X62977889Y-66531467D01*
X63017371Y-66531066D01*
X63063082Y-66530653D01*
X63098883Y-66532457D01*
X63125974Y-66538739D01*
X63145556Y-66551759D01*
X63158830Y-66573778D01*
X63166998Y-66607055D01*
X63171260Y-66653851D01*
X63171857Y-66677822D01*
X63172817Y-66716427D01*
G37*
X58227893Y-66529892D02*
X58239301Y-66536029D01*
X58249850Y-66546691D01*
X58261136Y-66560811D01*
X58265589Y-66566772D01*
X58271588Y-66577268D01*
X58276167Y-66591093D01*
X58279519Y-66610998D01*
X58281833Y-66639732D01*
X58283301Y-66680045D01*
X58284113Y-66734687D01*
X58284460Y-66806407D01*
X58284534Y-66897956D01*
X58284511Y-66956486D01*
X58284292Y-67035573D01*
X58283683Y-67096516D01*
X58282492Y-67142062D01*
X58280529Y-67174963D01*
X58277603Y-67197968D01*
X58273523Y-67213826D01*
X58268097Y-67225286D01*
X58261136Y-67235100D01*
X58230708Y-67259493D01*
X58195765Y-67262372D01*
X58158784Y-67243282D01*
X58154600Y-67239807D01*
X58146424Y-67231279D01*
X58140364Y-67219728D01*
X58135981Y-67201896D01*
X58132839Y-67174524D01*
X58130502Y-67134354D01*
X58128531Y-67078128D01*
X58126489Y-67002589D01*
X58120845Y-66783458D01*
X57855556Y-67024099D01*
X57781722Y-67090875D01*
X57716542Y-67148991D01*
X57664348Y-67193949D01*
X57623273Y-67226871D01*
X57591455Y-67248879D01*
X57567026Y-67261094D01*
X57548124Y-67264639D01*
X57532883Y-67260636D01*
X57519439Y-67250207D01*
X57505927Y-67234474D01*
X57499682Y-67225991D01*
X57494050Y-67215413D01*
X57489839Y-67201255D01*
X57486887Y-67180803D01*
X57485032Y-67151342D01*
X57484113Y-67110161D01*
X57483968Y-67054544D01*
X57484435Y-66981779D01*
X57485352Y-66889151D01*
X57488667Y-66574199D01*
X57515318Y-66552633D01*
X57541383Y-66536441D01*
X57574241Y-66533670D01*
X57608772Y-66552623D01*
X57613084Y-66556208D01*
X57621216Y-66564737D01*
X57627245Y-66576329D01*
X57631606Y-66594235D01*
X57634734Y-66621706D01*
X57637063Y-66661994D01*
X57639029Y-66718351D01*
X57641067Y-66794029D01*
X57646711Y-67013878D01*
X57827334Y-66850084D01*
X57914072Y-66771451D01*
X57989843Y-66703058D01*
X58051980Y-66647708D01*
X58102078Y-66604338D01*
X58141735Y-66571881D01*
X58172548Y-66549273D01*
X58196114Y-66535448D01*
X58214030Y-66529343D01*
X58227893Y-66529892D01*
G36*
X58227893Y-66529892D02*
G01*
X58239301Y-66536029D01*
X58249850Y-66546691D01*
X58261136Y-66560811D01*
X58265589Y-66566772D01*
X58271588Y-66577268D01*
X58276167Y-66591093D01*
X58279519Y-66610998D01*
X58281833Y-66639732D01*
X58283301Y-66680045D01*
X58284113Y-66734687D01*
X58284460Y-66806407D01*
X58284534Y-66897956D01*
X58284511Y-66956486D01*
X58284292Y-67035573D01*
X58283683Y-67096516D01*
X58282492Y-67142062D01*
X58280529Y-67174963D01*
X58277603Y-67197968D01*
X58273523Y-67213826D01*
X58268097Y-67225286D01*
X58261136Y-67235100D01*
X58230708Y-67259493D01*
X58195765Y-67262372D01*
X58158784Y-67243282D01*
X58154600Y-67239807D01*
X58146424Y-67231279D01*
X58140364Y-67219728D01*
X58135981Y-67201896D01*
X58132839Y-67174524D01*
X58130502Y-67134354D01*
X58128531Y-67078128D01*
X58126489Y-67002589D01*
X58120845Y-66783458D01*
X57855556Y-67024099D01*
X57781722Y-67090875D01*
X57716542Y-67148991D01*
X57664348Y-67193949D01*
X57623273Y-67226871D01*
X57591455Y-67248879D01*
X57567026Y-67261094D01*
X57548124Y-67264639D01*
X57532883Y-67260636D01*
X57519439Y-67250207D01*
X57505927Y-67234474D01*
X57499682Y-67225991D01*
X57494050Y-67215413D01*
X57489839Y-67201255D01*
X57486887Y-67180803D01*
X57485032Y-67151342D01*
X57484113Y-67110161D01*
X57483968Y-67054544D01*
X57484435Y-66981779D01*
X57485352Y-66889151D01*
X57488667Y-66574199D01*
X57515318Y-66552633D01*
X57541383Y-66536441D01*
X57574241Y-66533670D01*
X57608772Y-66552623D01*
X57613084Y-66556208D01*
X57621216Y-66564737D01*
X57627245Y-66576329D01*
X57631606Y-66594235D01*
X57634734Y-66621706D01*
X57637063Y-66661994D01*
X57639029Y-66718351D01*
X57641067Y-66794029D01*
X57646711Y-67013878D01*
X57827334Y-66850084D01*
X57914072Y-66771451D01*
X57989843Y-66703058D01*
X58051980Y-66647708D01*
X58102078Y-66604338D01*
X58141735Y-66571881D01*
X58172548Y-66549273D01*
X58196114Y-66535448D01*
X58214030Y-66529343D01*
X58227893Y-66529892D01*
G37*
X59025150Y-66536179D02*
X59131157Y-66552494D01*
X59224969Y-66580545D01*
X59303765Y-66619452D01*
X59364719Y-66668334D01*
X59390789Y-66701195D01*
X59420297Y-66750394D01*
X59445568Y-66804252D01*
X59463218Y-66855419D01*
X59469858Y-66896544D01*
X59468298Y-66916259D01*
X59455357Y-66967592D01*
X59432194Y-67024118D01*
X59402302Y-67078035D01*
X59369173Y-67121539D01*
X59358977Y-67131887D01*
X59291892Y-67183662D01*
X59211766Y-67223554D01*
X59125556Y-67247956D01*
X59070592Y-67256068D01*
X58977139Y-67262673D01*
X58887358Y-67260586D01*
X58804869Y-67250340D01*
X58733286Y-67232470D01*
X58676228Y-67207508D01*
X58637311Y-67175988D01*
X58635936Y-67174012D01*
X58628848Y-67148786D01*
X58624609Y-67101535D01*
X58623200Y-67032071D01*
X58624060Y-66969838D01*
X58628780Y-66922456D01*
X58640470Y-66890353D01*
X58662239Y-66870800D01*
X58697198Y-66861070D01*
X58748456Y-66858433D01*
X58819123Y-66860161D01*
X58867743Y-66863173D01*
X58917939Y-66871366D01*
X58950433Y-66885419D01*
X58967892Y-66906654D01*
X58972983Y-66936394D01*
X58972877Y-66940936D01*
X58964175Y-66975730D01*
X58940165Y-66999147D01*
X58898900Y-67012347D01*
X58838431Y-67016489D01*
X58769956Y-67016489D01*
X58769956Y-67054841D01*
X58770006Y-67063976D01*
X58772227Y-67081227D01*
X58781494Y-67091521D01*
X58802875Y-67098459D01*
X58841436Y-67105641D01*
X58846910Y-67106575D01*
X58943860Y-67116478D01*
X59033852Y-67113559D01*
X59114760Y-67098829D01*
X59184459Y-67073299D01*
X59240824Y-67037978D01*
X59281729Y-66993879D01*
X59305051Y-66942012D01*
X59308663Y-66883388D01*
X59303145Y-66854494D01*
X59276461Y-66798604D01*
X59230273Y-66752945D01*
X59165291Y-66718108D01*
X59082229Y-66694690D01*
X59057555Y-66690241D01*
X58968226Y-66679742D01*
X58888419Y-66680971D01*
X58810326Y-66693906D01*
X58775183Y-66700696D01*
X58729745Y-66701713D01*
X58698430Y-66689182D01*
X58678277Y-66662395D01*
X58671893Y-66634148D01*
X58681379Y-66602924D01*
X58690708Y-66589499D01*
X58724943Y-66565967D01*
X58777565Y-66548095D01*
X58846081Y-66536599D01*
X58928000Y-66532192D01*
X59025150Y-66536179D01*
G36*
X59025150Y-66536179D02*
G01*
X59131157Y-66552494D01*
X59224969Y-66580545D01*
X59303765Y-66619452D01*
X59364719Y-66668334D01*
X59390789Y-66701195D01*
X59420297Y-66750394D01*
X59445568Y-66804252D01*
X59463218Y-66855419D01*
X59469858Y-66896544D01*
X59468298Y-66916259D01*
X59455357Y-66967592D01*
X59432194Y-67024118D01*
X59402302Y-67078035D01*
X59369173Y-67121539D01*
X59358977Y-67131887D01*
X59291892Y-67183662D01*
X59211766Y-67223554D01*
X59125556Y-67247956D01*
X59070592Y-67256068D01*
X58977139Y-67262673D01*
X58887358Y-67260586D01*
X58804869Y-67250340D01*
X58733286Y-67232470D01*
X58676228Y-67207508D01*
X58637311Y-67175988D01*
X58635936Y-67174012D01*
X58628848Y-67148786D01*
X58624609Y-67101535D01*
X58623200Y-67032071D01*
X58624060Y-66969838D01*
X58628780Y-66922456D01*
X58640470Y-66890353D01*
X58662239Y-66870800D01*
X58697198Y-66861070D01*
X58748456Y-66858433D01*
X58819123Y-66860161D01*
X58867743Y-66863173D01*
X58917939Y-66871366D01*
X58950433Y-66885419D01*
X58967892Y-66906654D01*
X58972983Y-66936394D01*
X58972877Y-66940936D01*
X58964175Y-66975730D01*
X58940165Y-66999147D01*
X58898900Y-67012347D01*
X58838431Y-67016489D01*
X58769956Y-67016489D01*
X58769956Y-67054841D01*
X58770006Y-67063976D01*
X58772227Y-67081227D01*
X58781494Y-67091521D01*
X58802875Y-67098459D01*
X58841436Y-67105641D01*
X58846910Y-67106575D01*
X58943860Y-67116478D01*
X59033852Y-67113559D01*
X59114760Y-67098829D01*
X59184459Y-67073299D01*
X59240824Y-67037978D01*
X59281729Y-66993879D01*
X59305051Y-66942012D01*
X59308663Y-66883388D01*
X59303145Y-66854494D01*
X59276461Y-66798604D01*
X59230273Y-66752945D01*
X59165291Y-66718108D01*
X59082229Y-66694690D01*
X59057555Y-66690241D01*
X58968226Y-66679742D01*
X58888419Y-66680971D01*
X58810326Y-66693906D01*
X58775183Y-66700696D01*
X58729745Y-66701713D01*
X58698430Y-66689182D01*
X58678277Y-66662395D01*
X58671893Y-66634148D01*
X58681379Y-66602924D01*
X58690708Y-66589499D01*
X58724943Y-66565967D01*
X58777565Y-66548095D01*
X58846081Y-66536599D01*
X58928000Y-66532192D01*
X59025150Y-66536179D01*
G37*
X57075803Y-66560811D02*
X57080752Y-66567495D01*
X57086596Y-66578066D01*
X57091057Y-66592153D01*
X57094321Y-66612478D01*
X57096574Y-66641765D01*
X57098002Y-66682737D01*
X57098792Y-66738117D01*
X57099129Y-66810628D01*
X57099200Y-66902994D01*
X57099171Y-66968911D01*
X57098939Y-67047228D01*
X57098319Y-67107496D01*
X57097126Y-67152393D01*
X57095179Y-67184602D01*
X57092294Y-67206800D01*
X57088288Y-67221669D01*
X57082979Y-67231889D01*
X57076183Y-67240138D01*
X57071668Y-67244795D01*
X57063438Y-67251282D01*
X57052078Y-67256194D01*
X57034810Y-67259749D01*
X57008855Y-67262167D01*
X56971436Y-67263667D01*
X56919773Y-67264467D01*
X56851089Y-67264787D01*
X56762606Y-67264845D01*
X56742931Y-67264838D01*
X56655906Y-67264572D01*
X56588254Y-67263806D01*
X56537299Y-67262392D01*
X56500367Y-67260180D01*
X56474783Y-67257022D01*
X56457871Y-67252769D01*
X56446957Y-67247271D01*
X56436464Y-67237285D01*
X56423203Y-67206168D01*
X56424386Y-67170280D01*
X56440550Y-67138733D01*
X56442739Y-67136457D01*
X56451427Y-67130189D01*
X56464769Y-67125523D01*
X56485752Y-67122227D01*
X56517363Y-67120068D01*
X56562590Y-67118814D01*
X56624420Y-67118231D01*
X56705839Y-67118089D01*
X56952445Y-67118089D01*
X56952445Y-66960045D01*
X56790006Y-66960045D01*
X56754338Y-66959964D01*
X56698568Y-66959167D01*
X56659430Y-66957162D01*
X56632976Y-66953521D01*
X56615259Y-66947812D01*
X56602329Y-66939607D01*
X56598686Y-66936423D01*
X56580278Y-66905448D01*
X56579644Y-66869112D01*
X56597183Y-66835493D01*
X56597245Y-66835424D01*
X56606916Y-66826798D01*
X56620209Y-66820742D01*
X56640917Y-66816811D01*
X56672828Y-66814556D01*
X56719734Y-66813531D01*
X56785424Y-66813289D01*
X56953571Y-66813289D01*
X56950186Y-66748378D01*
X56946800Y-66683467D01*
X56704723Y-66680414D01*
X56679707Y-66680086D01*
X56598087Y-66678606D01*
X56535768Y-66676222D01*
X56490154Y-66672227D01*
X56458652Y-66665913D01*
X56438667Y-66656574D01*
X56427604Y-66643503D01*
X56422869Y-66625992D01*
X56421867Y-66603335D01*
X56421873Y-66600970D01*
X56423027Y-66580939D01*
X56427824Y-66565146D01*
X56438632Y-66553090D01*
X56457817Y-66544267D01*
X56487745Y-66538175D01*
X56530783Y-66534311D01*
X56589299Y-66532174D01*
X56665657Y-66531260D01*
X56762226Y-66531067D01*
X57052406Y-66531067D01*
X57075803Y-66560811D01*
G36*
X57075803Y-66560811D02*
G01*
X57080752Y-66567495D01*
X57086596Y-66578066D01*
X57091057Y-66592153D01*
X57094321Y-66612478D01*
X57096574Y-66641765D01*
X57098002Y-66682737D01*
X57098792Y-66738117D01*
X57099129Y-66810628D01*
X57099200Y-66902994D01*
X57099171Y-66968911D01*
X57098939Y-67047228D01*
X57098319Y-67107496D01*
X57097126Y-67152393D01*
X57095179Y-67184602D01*
X57092294Y-67206800D01*
X57088288Y-67221669D01*
X57082979Y-67231889D01*
X57076183Y-67240138D01*
X57071668Y-67244795D01*
X57063438Y-67251282D01*
X57052078Y-67256194D01*
X57034810Y-67259749D01*
X57008855Y-67262167D01*
X56971436Y-67263667D01*
X56919773Y-67264467D01*
X56851089Y-67264787D01*
X56762606Y-67264845D01*
X56742931Y-67264838D01*
X56655906Y-67264572D01*
X56588254Y-67263806D01*
X56537299Y-67262392D01*
X56500367Y-67260180D01*
X56474783Y-67257022D01*
X56457871Y-67252769D01*
X56446957Y-67247271D01*
X56436464Y-67237285D01*
X56423203Y-67206168D01*
X56424386Y-67170280D01*
X56440550Y-67138733D01*
X56442739Y-67136457D01*
X56451427Y-67130189D01*
X56464769Y-67125523D01*
X56485752Y-67122227D01*
X56517363Y-67120068D01*
X56562590Y-67118814D01*
X56624420Y-67118231D01*
X56705839Y-67118089D01*
X56952445Y-67118089D01*
X56952445Y-66960045D01*
X56790006Y-66960045D01*
X56754338Y-66959964D01*
X56698568Y-66959167D01*
X56659430Y-66957162D01*
X56632976Y-66953521D01*
X56615259Y-66947812D01*
X56602329Y-66939607D01*
X56598686Y-66936423D01*
X56580278Y-66905448D01*
X56579644Y-66869112D01*
X56597183Y-66835493D01*
X56597245Y-66835424D01*
X56606916Y-66826798D01*
X56620209Y-66820742D01*
X56640917Y-66816811D01*
X56672828Y-66814556D01*
X56719734Y-66813531D01*
X56785424Y-66813289D01*
X56953571Y-66813289D01*
X56950186Y-66748378D01*
X56946800Y-66683467D01*
X56704723Y-66680414D01*
X56679707Y-66680086D01*
X56598087Y-66678606D01*
X56535768Y-66676222D01*
X56490154Y-66672227D01*
X56458652Y-66665913D01*
X56438667Y-66656574D01*
X56427604Y-66643503D01*
X56422869Y-66625992D01*
X56421867Y-66603335D01*
X56421873Y-66600970D01*
X56423027Y-66580939D01*
X56427824Y-66565146D01*
X56438632Y-66553090D01*
X56457817Y-66544267D01*
X56487745Y-66538175D01*
X56530783Y-66534311D01*
X56589299Y-66532174D01*
X56665657Y-66531260D01*
X56762226Y-66531067D01*
X57052406Y-66531067D01*
X57075803Y-66560811D01*
G37*
X61752734Y-66531083D02*
X61829831Y-66531275D01*
X61888777Y-66531860D01*
X61932364Y-66533051D01*
X61963383Y-66535064D01*
X61984625Y-66538112D01*
X61998882Y-66542409D01*
X62008945Y-66548172D01*
X62017606Y-66555612D01*
X62019391Y-66557293D01*
X62026635Y-66564832D01*
X62032277Y-66573850D01*
X62036517Y-66586984D01*
X62039556Y-66606872D01*
X62041594Y-66636151D01*
X62042830Y-66677458D01*
X62043465Y-66733431D01*
X62043700Y-66806707D01*
X62043734Y-66899923D01*
X62043697Y-66972713D01*
X62043448Y-67050889D01*
X62042812Y-67111103D01*
X62041615Y-67155982D01*
X62039684Y-67188152D01*
X62036846Y-67210239D01*
X62032927Y-67224870D01*
X62027755Y-67234670D01*
X62021156Y-67242267D01*
X62017822Y-67245444D01*
X62009300Y-67251554D01*
X61997298Y-67256229D01*
X61979087Y-67259659D01*
X61951940Y-67262036D01*
X61913129Y-67263552D01*
X61859924Y-67264398D01*
X61789598Y-67264765D01*
X61699422Y-67264845D01*
X61657314Y-67264833D01*
X61576167Y-67264651D01*
X61513675Y-67264098D01*
X61467109Y-67262982D01*
X61433741Y-67261113D01*
X61410844Y-67258298D01*
X61395688Y-67254346D01*
X61385546Y-67249066D01*
X61377689Y-67242267D01*
X61362963Y-67220667D01*
X61355111Y-67191467D01*
X61360610Y-67167560D01*
X61377689Y-67140667D01*
X61382668Y-67136059D01*
X61392443Y-67129772D01*
X61406559Y-67125146D01*
X61428054Y-67121930D01*
X61459968Y-67119870D01*
X61505342Y-67118712D01*
X61567213Y-67118202D01*
X61648622Y-67118089D01*
X61896978Y-67118089D01*
X61896978Y-66960045D01*
X61735801Y-66960045D01*
X61699983Y-66959899D01*
X61634359Y-66958176D01*
X61587118Y-66953741D01*
X61555383Y-66945637D01*
X61536277Y-66932906D01*
X61526923Y-66914592D01*
X61524445Y-66889738D01*
X61525242Y-66869482D01*
X61530494Y-66847656D01*
X61543288Y-66832304D01*
X61566628Y-66822309D01*
X61603517Y-66816553D01*
X61656959Y-66813919D01*
X61729958Y-66813289D01*
X61898105Y-66813289D01*
X61894719Y-66748378D01*
X61891334Y-66683467D01*
X61643617Y-66680418D01*
X61581026Y-66679539D01*
X61512565Y-66678095D01*
X61461661Y-66676164D01*
X61425408Y-66673514D01*
X61400901Y-66669910D01*
X61385235Y-66665121D01*
X61375506Y-66658913D01*
X61369491Y-66652510D01*
X61356482Y-66620828D01*
X61360043Y-66585142D01*
X61379818Y-66554084D01*
X61383069Y-66551161D01*
X61392049Y-66544810D01*
X61404153Y-66539957D01*
X61422159Y-66536403D01*
X61448847Y-66533946D01*
X61486997Y-66532385D01*
X61539386Y-66531518D01*
X61608794Y-66531146D01*
X61698001Y-66531067D01*
X61752734Y-66531083D01*
G36*
X61752734Y-66531083D02*
G01*
X61829831Y-66531275D01*
X61888777Y-66531860D01*
X61932364Y-66533051D01*
X61963383Y-66535064D01*
X61984625Y-66538112D01*
X61998882Y-66542409D01*
X62008945Y-66548172D01*
X62017606Y-66555612D01*
X62019391Y-66557293D01*
X62026635Y-66564832D01*
X62032277Y-66573850D01*
X62036517Y-66586984D01*
X62039556Y-66606872D01*
X62041594Y-66636151D01*
X62042830Y-66677458D01*
X62043465Y-66733431D01*
X62043700Y-66806707D01*
X62043734Y-66899923D01*
X62043697Y-66972713D01*
X62043448Y-67050889D01*
X62042812Y-67111103D01*
X62041615Y-67155982D01*
X62039684Y-67188152D01*
X62036846Y-67210239D01*
X62032927Y-67224870D01*
X62027755Y-67234670D01*
X62021156Y-67242267D01*
X62017822Y-67245444D01*
X62009300Y-67251554D01*
X61997298Y-67256229D01*
X61979087Y-67259659D01*
X61951940Y-67262036D01*
X61913129Y-67263552D01*
X61859924Y-67264398D01*
X61789598Y-67264765D01*
X61699422Y-67264845D01*
X61657314Y-67264833D01*
X61576167Y-67264651D01*
X61513675Y-67264098D01*
X61467109Y-67262982D01*
X61433741Y-67261113D01*
X61410844Y-67258298D01*
X61395688Y-67254346D01*
X61385546Y-67249066D01*
X61377689Y-67242267D01*
X61362963Y-67220667D01*
X61355111Y-67191467D01*
X61360610Y-67167560D01*
X61377689Y-67140667D01*
X61382668Y-67136059D01*
X61392443Y-67129772D01*
X61406559Y-67125146D01*
X61428054Y-67121930D01*
X61459968Y-67119870D01*
X61505342Y-67118712D01*
X61567213Y-67118202D01*
X61648622Y-67118089D01*
X61896978Y-67118089D01*
X61896978Y-66960045D01*
X61735801Y-66960045D01*
X61699983Y-66959899D01*
X61634359Y-66958176D01*
X61587118Y-66953741D01*
X61555383Y-66945637D01*
X61536277Y-66932906D01*
X61526923Y-66914592D01*
X61524445Y-66889738D01*
X61525242Y-66869482D01*
X61530494Y-66847656D01*
X61543288Y-66832304D01*
X61566628Y-66822309D01*
X61603517Y-66816553D01*
X61656959Y-66813919D01*
X61729958Y-66813289D01*
X61898105Y-66813289D01*
X61894719Y-66748378D01*
X61891334Y-66683467D01*
X61643617Y-66680418D01*
X61581026Y-66679539D01*
X61512565Y-66678095D01*
X61461661Y-66676164D01*
X61425408Y-66673514D01*
X61400901Y-66669910D01*
X61385235Y-66665121D01*
X61375506Y-66658913D01*
X61369491Y-66652510D01*
X61356482Y-66620828D01*
X61360043Y-66585142D01*
X61379818Y-66554084D01*
X61383069Y-66551161D01*
X61392049Y-66544810D01*
X61404153Y-66539957D01*
X61422159Y-66536403D01*
X61448847Y-66533946D01*
X61486997Y-66532385D01*
X61539386Y-66531518D01*
X61608794Y-66531146D01*
X61698001Y-66531067D01*
X61752734Y-66531083D01*
G37*
X53185702Y-66540478D02*
X53203663Y-66558989D01*
X53224263Y-66590071D01*
X53249095Y-66635756D01*
X53279750Y-66698078D01*
X53317820Y-66779071D01*
X53332454Y-66810454D01*
X53362203Y-66873638D01*
X53388297Y-66928244D01*
X53409292Y-66971290D01*
X53423739Y-66999793D01*
X53430191Y-67010770D01*
X53431550Y-67010189D01*
X53441542Y-66996242D01*
X53458833Y-66966704D01*
X53481430Y-66925087D01*
X53507338Y-66874903D01*
X53523311Y-66843414D01*
X53552261Y-66788061D01*
X53574749Y-66749044D01*
X53592965Y-66723566D01*
X53609096Y-66708831D01*
X53625330Y-66702042D01*
X53643857Y-66700400D01*
X53654360Y-66700875D01*
X53670476Y-66705082D01*
X53685790Y-66715946D01*
X53702388Y-66736219D01*
X53722357Y-66768654D01*
X53747783Y-66816004D01*
X53780752Y-66881022D01*
X53790485Y-66900277D01*
X53814943Y-66946946D01*
X53835178Y-66983109D01*
X53849311Y-67005497D01*
X53855460Y-67010845D01*
X53856827Y-67007573D01*
X53866202Y-66986664D01*
X53883062Y-66949725D01*
X53905979Y-66899874D01*
X53933520Y-66840226D01*
X53964255Y-66773898D01*
X53990970Y-66716677D01*
X54020593Y-66654688D01*
X54043664Y-66608949D01*
X54061643Y-66576908D01*
X54075990Y-66556014D01*
X54088166Y-66543718D01*
X54099632Y-66537466D01*
X54109042Y-66534574D01*
X54134147Y-66534425D01*
X54161290Y-66549768D01*
X54162590Y-66550753D01*
X54184674Y-66573388D01*
X54195723Y-66595613D01*
X54195769Y-66596253D01*
X54191228Y-66613915D01*
X54178364Y-66648481D01*
X54158605Y-66696826D01*
X54133381Y-66755825D01*
X54104119Y-66822355D01*
X54072250Y-66893291D01*
X54039201Y-66965507D01*
X54006401Y-67035880D01*
X53975280Y-67101285D01*
X53947265Y-67158597D01*
X53923786Y-67204692D01*
X53906272Y-67236446D01*
X53896151Y-67250733D01*
X53861743Y-67264102D01*
X53820046Y-67257741D01*
X53814681Y-67253044D01*
X53798852Y-67230893D01*
X53776650Y-67194132D01*
X53750233Y-67146415D01*
X53721760Y-67091393D01*
X53641986Y-66932150D01*
X53568799Y-67078742D01*
X53559103Y-67098032D01*
X53532125Y-67150380D01*
X53508096Y-67195170D01*
X53489332Y-67228154D01*
X53478146Y-67245089D01*
X53477000Y-67246332D01*
X53448879Y-67261619D01*
X53413817Y-67263302D01*
X53382776Y-67250733D01*
X53380350Y-67247884D01*
X53368090Y-67227259D01*
X53348352Y-67189708D01*
X53322448Y-67137880D01*
X53291685Y-67074423D01*
X53257375Y-67001985D01*
X53220825Y-66923216D01*
X53200585Y-66879093D01*
X53163812Y-66798365D01*
X53135355Y-66734687D01*
X53114331Y-66685752D01*
X53099854Y-66649257D01*
X53091039Y-66622895D01*
X53087004Y-66604361D01*
X53086862Y-66591352D01*
X53089730Y-66581561D01*
X53104387Y-66560678D01*
X53130990Y-66540377D01*
X53131745Y-66540035D01*
X53151335Y-66533034D01*
X53168790Y-66532504D01*
X53185702Y-66540478D01*
G36*
X53185702Y-66540478D02*
G01*
X53203663Y-66558989D01*
X53224263Y-66590071D01*
X53249095Y-66635756D01*
X53279750Y-66698078D01*
X53317820Y-66779071D01*
X53332454Y-66810454D01*
X53362203Y-66873638D01*
X53388297Y-66928244D01*
X53409292Y-66971290D01*
X53423739Y-66999793D01*
X53430191Y-67010770D01*
X53431550Y-67010189D01*
X53441542Y-66996242D01*
X53458833Y-66966704D01*
X53481430Y-66925087D01*
X53507338Y-66874903D01*
X53523311Y-66843414D01*
X53552261Y-66788061D01*
X53574749Y-66749044D01*
X53592965Y-66723566D01*
X53609096Y-66708831D01*
X53625330Y-66702042D01*
X53643857Y-66700400D01*
X53654360Y-66700875D01*
X53670476Y-66705082D01*
X53685790Y-66715946D01*
X53702388Y-66736219D01*
X53722357Y-66768654D01*
X53747783Y-66816004D01*
X53780752Y-66881022D01*
X53790485Y-66900277D01*
X53814943Y-66946946D01*
X53835178Y-66983109D01*
X53849311Y-67005497D01*
X53855460Y-67010845D01*
X53856827Y-67007573D01*
X53866202Y-66986664D01*
X53883062Y-66949725D01*
X53905979Y-66899874D01*
X53933520Y-66840226D01*
X53964255Y-66773898D01*
X53990970Y-66716677D01*
X54020593Y-66654688D01*
X54043664Y-66608949D01*
X54061643Y-66576908D01*
X54075990Y-66556014D01*
X54088166Y-66543718D01*
X54099632Y-66537466D01*
X54109042Y-66534574D01*
X54134147Y-66534425D01*
X54161290Y-66549768D01*
X54162590Y-66550753D01*
X54184674Y-66573388D01*
X54195723Y-66595613D01*
X54195769Y-66596253D01*
X54191228Y-66613915D01*
X54178364Y-66648481D01*
X54158605Y-66696826D01*
X54133381Y-66755825D01*
X54104119Y-66822355D01*
X54072250Y-66893291D01*
X54039201Y-66965507D01*
X54006401Y-67035880D01*
X53975280Y-67101285D01*
X53947265Y-67158597D01*
X53923786Y-67204692D01*
X53906272Y-67236446D01*
X53896151Y-67250733D01*
X53861743Y-67264102D01*
X53820046Y-67257741D01*
X53814681Y-67253044D01*
X53798852Y-67230893D01*
X53776650Y-67194132D01*
X53750233Y-67146415D01*
X53721760Y-67091393D01*
X53641986Y-66932150D01*
X53568799Y-67078742D01*
X53559103Y-67098032D01*
X53532125Y-67150380D01*
X53508096Y-67195170D01*
X53489332Y-67228154D01*
X53478146Y-67245089D01*
X53477000Y-67246332D01*
X53448879Y-67261619D01*
X53413817Y-67263302D01*
X53382776Y-67250733D01*
X53380350Y-67247884D01*
X53368090Y-67227259D01*
X53348352Y-67189708D01*
X53322448Y-67137880D01*
X53291685Y-67074423D01*
X53257375Y-67001985D01*
X53220825Y-66923216D01*
X53200585Y-66879093D01*
X53163812Y-66798365D01*
X53135355Y-66734687D01*
X53114331Y-66685752D01*
X53099854Y-66649257D01*
X53091039Y-66622895D01*
X53087004Y-66604361D01*
X53086862Y-66591352D01*
X53089730Y-66581561D01*
X53104387Y-66560678D01*
X53130990Y-66540377D01*
X53131745Y-66540035D01*
X53151335Y-66533034D01*
X53168790Y-66532504D01*
X53185702Y-66540478D01*
G37*
X60736853Y-66531936D02*
X60803100Y-66537366D01*
X60858400Y-66546964D01*
X60909283Y-66561825D01*
X60980595Y-66594958D01*
X61031752Y-66637640D01*
X61062575Y-66689705D01*
X61072889Y-66750983D01*
X61071952Y-66782232D01*
X61066160Y-66807029D01*
X61051353Y-66828699D01*
X61023380Y-66856049D01*
X61015402Y-66863378D01*
X60991692Y-66884281D01*
X60969298Y-66901251D01*
X60945265Y-66915205D01*
X60916637Y-66927056D01*
X60880460Y-66937720D01*
X60833780Y-66948111D01*
X60773641Y-66959146D01*
X60697090Y-66971738D01*
X60601171Y-66986804D01*
X60582808Y-66989838D01*
X60520478Y-67003458D01*
X60475260Y-67019192D01*
X60448976Y-67036263D01*
X60443447Y-67053897D01*
X60446068Y-67058168D01*
X60464000Y-67073233D01*
X60492126Y-67089867D01*
X60504926Y-67095857D01*
X60526224Y-67103050D01*
X60552610Y-67107827D01*
X60588454Y-67110646D01*
X60638128Y-67111964D01*
X60706000Y-67112237D01*
X60723785Y-67112164D01*
X60791406Y-67111053D01*
X60856345Y-67108828D01*
X60911970Y-67105762D01*
X60951651Y-67102127D01*
X60987162Y-67098059D01*
X61016415Y-67097276D01*
X61035315Y-67101876D01*
X61050429Y-67112551D01*
X61054085Y-67116144D01*
X61070427Y-67147918D01*
X61069107Y-67183572D01*
X61050150Y-67214190D01*
X61029780Y-67225796D01*
X60993796Y-67238491D01*
X60951372Y-67248541D01*
X60947922Y-67249140D01*
X60905252Y-67254356D01*
X60847866Y-67258730D01*
X60782849Y-67261818D01*
X60717289Y-67263177D01*
X60701057Y-67263218D01*
X60602744Y-67260741D01*
X60522692Y-67252735D01*
X60457513Y-67238203D01*
X60403817Y-67216149D01*
X60358216Y-67185576D01*
X60317323Y-67145486D01*
X60297202Y-67119259D01*
X60285576Y-67089712D01*
X60282667Y-67049995D01*
X60282808Y-67038026D01*
X60286681Y-67005345D01*
X60299065Y-66978819D01*
X60324230Y-66947971D01*
X60345442Y-66925831D01*
X60371838Y-66903285D01*
X60401555Y-66884917D01*
X60437785Y-66869661D01*
X60483717Y-66856449D01*
X60542544Y-66844214D01*
X60617456Y-66831889D01*
X60711645Y-66818406D01*
X60756957Y-66811396D01*
X60824911Y-66796837D01*
X60874047Y-66780337D01*
X60903614Y-66762439D01*
X60912864Y-66743685D01*
X60901048Y-66724615D01*
X60867416Y-66705771D01*
X60864370Y-66704557D01*
X60818011Y-66692479D01*
X60755361Y-66684279D01*
X60681927Y-66680119D01*
X60603217Y-66680161D01*
X60524739Y-66684569D01*
X60452000Y-66693505D01*
X60448073Y-66694154D01*
X60399257Y-66701861D01*
X60367005Y-66705473D01*
X60346008Y-66704876D01*
X60330954Y-66699954D01*
X60316534Y-66690596D01*
X60315364Y-66689725D01*
X60290847Y-66659351D01*
X60286054Y-66623850D01*
X60301860Y-66589269D01*
X60306406Y-66584813D01*
X60336020Y-66569673D01*
X60383002Y-66556550D01*
X60443306Y-66545750D01*
X60512888Y-66537581D01*
X60587703Y-66532351D01*
X60663706Y-66530367D01*
X60736853Y-66531936D01*
G36*
X60736853Y-66531936D02*
G01*
X60803100Y-66537366D01*
X60858400Y-66546964D01*
X60909283Y-66561825D01*
X60980595Y-66594958D01*
X61031752Y-66637640D01*
X61062575Y-66689705D01*
X61072889Y-66750983D01*
X61071952Y-66782232D01*
X61066160Y-66807029D01*
X61051353Y-66828699D01*
X61023380Y-66856049D01*
X61015402Y-66863378D01*
X60991692Y-66884281D01*
X60969298Y-66901251D01*
X60945265Y-66915205D01*
X60916637Y-66927056D01*
X60880460Y-66937720D01*
X60833780Y-66948111D01*
X60773641Y-66959146D01*
X60697090Y-66971738D01*
X60601171Y-66986804D01*
X60582808Y-66989838D01*
X60520478Y-67003458D01*
X60475260Y-67019192D01*
X60448976Y-67036263D01*
X60443447Y-67053897D01*
X60446068Y-67058168D01*
X60464000Y-67073233D01*
X60492126Y-67089867D01*
X60504926Y-67095857D01*
X60526224Y-67103050D01*
X60552610Y-67107827D01*
X60588454Y-67110646D01*
X60638128Y-67111964D01*
X60706000Y-67112237D01*
X60723785Y-67112164D01*
X60791406Y-67111053D01*
X60856345Y-67108828D01*
X60911970Y-67105762D01*
X60951651Y-67102127D01*
X60987162Y-67098059D01*
X61016415Y-67097276D01*
X61035315Y-67101876D01*
X61050429Y-67112551D01*
X61054085Y-67116144D01*
X61070427Y-67147918D01*
X61069107Y-67183572D01*
X61050150Y-67214190D01*
X61029780Y-67225796D01*
X60993796Y-67238491D01*
X60951372Y-67248541D01*
X60947922Y-67249140D01*
X60905252Y-67254356D01*
X60847866Y-67258730D01*
X60782849Y-67261818D01*
X60717289Y-67263177D01*
X60701057Y-67263218D01*
X60602744Y-67260741D01*
X60522692Y-67252735D01*
X60457513Y-67238203D01*
X60403817Y-67216149D01*
X60358216Y-67185576D01*
X60317323Y-67145486D01*
X60297202Y-67119259D01*
X60285576Y-67089712D01*
X60282667Y-67049995D01*
X60282808Y-67038026D01*
X60286681Y-67005345D01*
X60299065Y-66978819D01*
X60324230Y-66947971D01*
X60345442Y-66925831D01*
X60371838Y-66903285D01*
X60401555Y-66884917D01*
X60437785Y-66869661D01*
X60483717Y-66856449D01*
X60542544Y-66844214D01*
X60617456Y-66831889D01*
X60711645Y-66818406D01*
X60756957Y-66811396D01*
X60824911Y-66796837D01*
X60874047Y-66780337D01*
X60903614Y-66762439D01*
X60912864Y-66743685D01*
X60901048Y-66724615D01*
X60867416Y-66705771D01*
X60864370Y-66704557D01*
X60818011Y-66692479D01*
X60755361Y-66684279D01*
X60681927Y-66680119D01*
X60603217Y-66680161D01*
X60524739Y-66684569D01*
X60452000Y-66693505D01*
X60448073Y-66694154D01*
X60399257Y-66701861D01*
X60367005Y-66705473D01*
X60346008Y-66704876D01*
X60330954Y-66699954D01*
X60316534Y-66690596D01*
X60315364Y-66689725D01*
X60290847Y-66659351D01*
X60286054Y-66623850D01*
X60301860Y-66589269D01*
X60306406Y-66584813D01*
X60336020Y-66569673D01*
X60383002Y-66556550D01*
X60443306Y-66545750D01*
X60512888Y-66537581D01*
X60587703Y-66532351D01*
X60663706Y-66530367D01*
X60736853Y-66531936D01*
G37*
X56884711Y-62224033D02*
X56980268Y-62241523D01*
X57144558Y-62286564D01*
X57298589Y-62349656D01*
X57444509Y-62431915D01*
X57584466Y-62534457D01*
X57720608Y-62658399D01*
X57764473Y-62703661D01*
X57876758Y-62835865D01*
X57969972Y-62973832D01*
X58046719Y-63121750D01*
X58109603Y-63283803D01*
X58113420Y-63295391D01*
X58163507Y-63481392D01*
X58196899Y-63677521D01*
X58213584Y-63879568D01*
X58213551Y-64083325D01*
X58196791Y-64284581D01*
X58163292Y-64479128D01*
X58113044Y-64662756D01*
X58069190Y-64780053D01*
X57991348Y-64942951D01*
X57897828Y-65096866D01*
X57790822Y-65238671D01*
X57672519Y-65365239D01*
X57545111Y-65473441D01*
X57467606Y-65526120D01*
X57340725Y-65595750D01*
X57203243Y-65654468D01*
X57061716Y-65699587D01*
X56922702Y-65728422D01*
X56908597Y-65730106D01*
X56865153Y-65733434D01*
X56807723Y-65736275D01*
X56742122Y-65738373D01*
X56674167Y-65739468D01*
X56547378Y-65737140D01*
X56399673Y-65724136D01*
X56261779Y-65699133D01*
X56128014Y-65661318D01*
X56104562Y-65652889D01*
X56056612Y-65633408D01*
X56000140Y-65608473D01*
X55938379Y-65579722D01*
X55874563Y-65548790D01*
X55811926Y-65517315D01*
X55753703Y-65486934D01*
X55703127Y-65459283D01*
X55663433Y-65435999D01*
X55637854Y-65418718D01*
X55629625Y-65409079D01*
X55631076Y-65405984D01*
X55642250Y-65386079D01*
X55663134Y-65350420D01*
X55692265Y-65301459D01*
X55728181Y-65241646D01*
X55769420Y-65173433D01*
X55814517Y-65099271D01*
X55995785Y-64802008D01*
X56042315Y-64846539D01*
X56133723Y-64924865D01*
X56247334Y-64999439D01*
X56365122Y-65053474D01*
X56485559Y-65086290D01*
X56607117Y-65097211D01*
X56648585Y-65095868D01*
X56766080Y-65077612D01*
X56876089Y-65038617D01*
X56977430Y-64979670D01*
X57068921Y-64901557D01*
X57149380Y-64805064D01*
X57217627Y-64690978D01*
X57233908Y-64656724D01*
X57279982Y-64533240D01*
X57315106Y-64394918D01*
X57339197Y-64245561D01*
X57352173Y-64088973D01*
X57353949Y-63928956D01*
X57344443Y-63769314D01*
X57323572Y-63613850D01*
X57291252Y-63466366D01*
X57247399Y-63330667D01*
X57209982Y-63244076D01*
X57145185Y-63130688D01*
X57069772Y-63037070D01*
X56983418Y-62962959D01*
X56885795Y-62908094D01*
X56776577Y-62872212D01*
X56655439Y-62855051D01*
X56586038Y-62853880D01*
X56463168Y-62868141D01*
X56347664Y-62903241D01*
X56240953Y-62958682D01*
X56144464Y-63033964D01*
X56128720Y-63048440D01*
X56098150Y-63074962D01*
X56075809Y-63092138D01*
X56065691Y-63096787D01*
X56063706Y-63094597D01*
X56049241Y-63075721D01*
X56025400Y-63042397D01*
X55994029Y-62997380D01*
X55956974Y-62943425D01*
X55916083Y-62883285D01*
X55873202Y-62819718D01*
X55830178Y-62755476D01*
X55788857Y-62693315D01*
X55751086Y-62635991D01*
X55718712Y-62586257D01*
X55693582Y-62546868D01*
X55677542Y-62520580D01*
X55672439Y-62510147D01*
X55677050Y-62505941D01*
X55696267Y-62500933D01*
X55705838Y-62498386D01*
X55733809Y-62487249D01*
X55775448Y-62468802D01*
X55826995Y-62444725D01*
X55884690Y-62416699D01*
X55895957Y-62411154D01*
X56073687Y-62331889D01*
X56243490Y-62272385D01*
X56407430Y-62232245D01*
X56567571Y-62211071D01*
X56725977Y-62208466D01*
X56884711Y-62224033D01*
G36*
X56884711Y-62224033D02*
G01*
X56980268Y-62241523D01*
X57144558Y-62286564D01*
X57298589Y-62349656D01*
X57444509Y-62431915D01*
X57584466Y-62534457D01*
X57720608Y-62658399D01*
X57764473Y-62703661D01*
X57876758Y-62835865D01*
X57969972Y-62973832D01*
X58046719Y-63121750D01*
X58109603Y-63283803D01*
X58113420Y-63295391D01*
X58163507Y-63481392D01*
X58196899Y-63677521D01*
X58213584Y-63879568D01*
X58213551Y-64083325D01*
X58196791Y-64284581D01*
X58163292Y-64479128D01*
X58113044Y-64662756D01*
X58069190Y-64780053D01*
X57991348Y-64942951D01*
X57897828Y-65096866D01*
X57790822Y-65238671D01*
X57672519Y-65365239D01*
X57545111Y-65473441D01*
X57467606Y-65526120D01*
X57340725Y-65595750D01*
X57203243Y-65654468D01*
X57061716Y-65699587D01*
X56922702Y-65728422D01*
X56908597Y-65730106D01*
X56865153Y-65733434D01*
X56807723Y-65736275D01*
X56742122Y-65738373D01*
X56674167Y-65739468D01*
X56547378Y-65737140D01*
X56399673Y-65724136D01*
X56261779Y-65699133D01*
X56128014Y-65661318D01*
X56104562Y-65652889D01*
X56056612Y-65633408D01*
X56000140Y-65608473D01*
X55938379Y-65579722D01*
X55874563Y-65548790D01*
X55811926Y-65517315D01*
X55753703Y-65486934D01*
X55703127Y-65459283D01*
X55663433Y-65435999D01*
X55637854Y-65418718D01*
X55629625Y-65409079D01*
X55631076Y-65405984D01*
X55642250Y-65386079D01*
X55663134Y-65350420D01*
X55692265Y-65301459D01*
X55728181Y-65241646D01*
X55769420Y-65173433D01*
X55814517Y-65099271D01*
X55995785Y-64802008D01*
X56042315Y-64846539D01*
X56133723Y-64924865D01*
X56247334Y-64999439D01*
X56365122Y-65053474D01*
X56485559Y-65086290D01*
X56607117Y-65097211D01*
X56648585Y-65095868D01*
X56766080Y-65077612D01*
X56876089Y-65038617D01*
X56977430Y-64979670D01*
X57068921Y-64901557D01*
X57149380Y-64805064D01*
X57217627Y-64690978D01*
X57233908Y-64656724D01*
X57279982Y-64533240D01*
X57315106Y-64394918D01*
X57339197Y-64245561D01*
X57352173Y-64088973D01*
X57353949Y-63928956D01*
X57344443Y-63769314D01*
X57323572Y-63613850D01*
X57291252Y-63466366D01*
X57247399Y-63330667D01*
X57209982Y-63244076D01*
X57145185Y-63130688D01*
X57069772Y-63037070D01*
X56983418Y-62962959D01*
X56885795Y-62908094D01*
X56776577Y-62872212D01*
X56655439Y-62855051D01*
X56586038Y-62853880D01*
X56463168Y-62868141D01*
X56347664Y-62903241D01*
X56240953Y-62958682D01*
X56144464Y-63033964D01*
X56128720Y-63048440D01*
X56098150Y-63074962D01*
X56075809Y-63092138D01*
X56065691Y-63096787D01*
X56063706Y-63094597D01*
X56049241Y-63075721D01*
X56025400Y-63042397D01*
X55994029Y-62997380D01*
X55956974Y-62943425D01*
X55916083Y-62883285D01*
X55873202Y-62819718D01*
X55830178Y-62755476D01*
X55788857Y-62693315D01*
X55751086Y-62635991D01*
X55718712Y-62586257D01*
X55693582Y-62546868D01*
X55677542Y-62520580D01*
X55672439Y-62510147D01*
X55677050Y-62505941D01*
X55696267Y-62500933D01*
X55705838Y-62498386D01*
X55733809Y-62487249D01*
X55775448Y-62468802D01*
X55826995Y-62444725D01*
X55884690Y-62416699D01*
X55895957Y-62411154D01*
X56073687Y-62331889D01*
X56243490Y-62272385D01*
X56407430Y-62232245D01*
X56567571Y-62211071D01*
X56725977Y-62208466D01*
X56884711Y-62224033D01*
G37*
X53081994Y-64504711D02*
X53081268Y-64582158D01*
X53072689Y-64733594D01*
X53053833Y-64870283D01*
X53023837Y-64996276D01*
X52981836Y-65115625D01*
X52926969Y-65232381D01*
X52860167Y-65343179D01*
X52769363Y-65456739D01*
X52665708Y-65552211D01*
X52549887Y-65629073D01*
X52422586Y-65686797D01*
X52284489Y-65724858D01*
X52246793Y-65730666D01*
X52167752Y-65736396D01*
X52079629Y-65736583D01*
X51990236Y-65731539D01*
X51907384Y-65721578D01*
X51838887Y-65707012D01*
X51808035Y-65697364D01*
X51730730Y-65667123D01*
X51653679Y-65629617D01*
X51584200Y-65588614D01*
X51529615Y-65547879D01*
X51506916Y-65528505D01*
X51484201Y-65510662D01*
X51472779Y-65503778D01*
X51471537Y-65505424D01*
X51468728Y-65523205D01*
X51466776Y-65556370D01*
X51466045Y-65599733D01*
X51466045Y-65695689D01*
X50607896Y-65695689D01*
X50642161Y-65634974D01*
X50647355Y-65625868D01*
X50655715Y-65611249D01*
X50663288Y-65597173D01*
X50670112Y-65582540D01*
X50676227Y-65566249D01*
X50681673Y-65547198D01*
X50686487Y-65524286D01*
X50690708Y-65496413D01*
X50694377Y-65462478D01*
X50697531Y-65421379D01*
X50700211Y-65372015D01*
X50702454Y-65313286D01*
X50704299Y-65244090D01*
X50705787Y-65163326D01*
X50706955Y-65069894D01*
X50707844Y-64962692D01*
X50708491Y-64840620D01*
X50708936Y-64702576D01*
X50709218Y-64547459D01*
X50709375Y-64374168D01*
X50709448Y-64181603D01*
X50709474Y-63968662D01*
X50709485Y-63832530D01*
X51511200Y-63832530D01*
X51511200Y-64982721D01*
X51581756Y-65029089D01*
X51622417Y-65052791D01*
X51676546Y-65078639D01*
X51725689Y-65096829D01*
X51789165Y-65112551D01*
X51885331Y-65123541D01*
X51969900Y-65115365D01*
X52043219Y-65087805D01*
X52105637Y-65040642D01*
X52157502Y-64973658D01*
X52199160Y-64886633D01*
X52230962Y-64779350D01*
X52233545Y-64767009D01*
X52242000Y-64705772D01*
X52247663Y-64628692D01*
X52250576Y-64541002D01*
X52250783Y-64447934D01*
X52248330Y-64354720D01*
X52243261Y-64266594D01*
X52235619Y-64188788D01*
X52225448Y-64126533D01*
X52224167Y-64120666D01*
X52195126Y-64010121D01*
X52160610Y-63919575D01*
X52119456Y-63846953D01*
X52070499Y-63790181D01*
X52012574Y-63747184D01*
X51980620Y-63731615D01*
X51907784Y-63712722D01*
X51826443Y-63709465D01*
X51741319Y-63721389D01*
X51657133Y-63748040D01*
X51578608Y-63788962D01*
X51511200Y-63832530D01*
X50709485Y-63832530D01*
X50709493Y-63734245D01*
X50709689Y-62049378D01*
X51615017Y-62049378D01*
X51590585Y-62086067D01*
X51584318Y-62095647D01*
X51558208Y-62141981D01*
X51540469Y-62189102D01*
X51528908Y-62244251D01*
X51521331Y-62314667D01*
X51520839Y-62321650D01*
X51519062Y-62359641D01*
X51517444Y-62413576D01*
X51515999Y-62480703D01*
X51514740Y-62558271D01*
X51513680Y-62643528D01*
X51512829Y-62733724D01*
X51512203Y-62826107D01*
X51511812Y-62917925D01*
X51511670Y-63006427D01*
X51511790Y-63088862D01*
X51512183Y-63162479D01*
X51512862Y-63224526D01*
X51513841Y-63272251D01*
X51515132Y-63302904D01*
X51516747Y-63313733D01*
X51524957Y-63309333D01*
X51546647Y-63294362D01*
X51576014Y-63272448D01*
X51624879Y-63238236D01*
X51713125Y-63191714D01*
X51811916Y-63158046D01*
X51924510Y-63136231D01*
X52054164Y-63125265D01*
X52146670Y-63124219D01*
X52268011Y-63134014D01*
X52378099Y-63158174D01*
X52481389Y-63197785D01*
X52582338Y-63253932D01*
X52627503Y-63284883D01*
X52732911Y-63376115D01*
X52824538Y-63485106D01*
X52902332Y-63611726D01*
X52966241Y-63755845D01*
X53016214Y-63917332D01*
X53052198Y-64096059D01*
X53074143Y-64291895D01*
X53079900Y-64447934D01*
X53081994Y-64504711D01*
G36*
X53081994Y-64504711D02*
G01*
X53081268Y-64582158D01*
X53072689Y-64733594D01*
X53053833Y-64870283D01*
X53023837Y-64996276D01*
X52981836Y-65115625D01*
X52926969Y-65232381D01*
X52860167Y-65343179D01*
X52769363Y-65456739D01*
X52665708Y-65552211D01*
X52549887Y-65629073D01*
X52422586Y-65686797D01*
X52284489Y-65724858D01*
X52246793Y-65730666D01*
X52167752Y-65736396D01*
X52079629Y-65736583D01*
X51990236Y-65731539D01*
X51907384Y-65721578D01*
X51838887Y-65707012D01*
X51808035Y-65697364D01*
X51730730Y-65667123D01*
X51653679Y-65629617D01*
X51584200Y-65588614D01*
X51529615Y-65547879D01*
X51506916Y-65528505D01*
X51484201Y-65510662D01*
X51472779Y-65503778D01*
X51471537Y-65505424D01*
X51468728Y-65523205D01*
X51466776Y-65556370D01*
X51466045Y-65599733D01*
X51466045Y-65695689D01*
X50607896Y-65695689D01*
X50642161Y-65634974D01*
X50647355Y-65625868D01*
X50655715Y-65611249D01*
X50663288Y-65597173D01*
X50670112Y-65582540D01*
X50676227Y-65566249D01*
X50681673Y-65547198D01*
X50686487Y-65524286D01*
X50690708Y-65496413D01*
X50694377Y-65462478D01*
X50697531Y-65421379D01*
X50700211Y-65372015D01*
X50702454Y-65313286D01*
X50704299Y-65244090D01*
X50705787Y-65163326D01*
X50706955Y-65069894D01*
X50707844Y-64962692D01*
X50708491Y-64840620D01*
X50708936Y-64702576D01*
X50709218Y-64547459D01*
X50709375Y-64374168D01*
X50709448Y-64181603D01*
X50709474Y-63968662D01*
X50709485Y-63832530D01*
X51511200Y-63832530D01*
X51511200Y-64982721D01*
X51581756Y-65029089D01*
X51622417Y-65052791D01*
X51676546Y-65078639D01*
X51725689Y-65096829D01*
X51789165Y-65112551D01*
X51885331Y-65123541D01*
X51969900Y-65115365D01*
X52043219Y-65087805D01*
X52105637Y-65040642D01*
X52157502Y-64973658D01*
X52199160Y-64886633D01*
X52230962Y-64779350D01*
X52233545Y-64767009D01*
X52242000Y-64705772D01*
X52247663Y-64628692D01*
X52250576Y-64541002D01*
X52250783Y-64447934D01*
X52248330Y-64354720D01*
X52243261Y-64266594D01*
X52235619Y-64188788D01*
X52225448Y-64126533D01*
X52224167Y-64120666D01*
X52195126Y-64010121D01*
X52160610Y-63919575D01*
X52119456Y-63846953D01*
X52070499Y-63790181D01*
X52012574Y-63747184D01*
X51980620Y-63731615D01*
X51907784Y-63712722D01*
X51826443Y-63709465D01*
X51741319Y-63721389D01*
X51657133Y-63748040D01*
X51578608Y-63788962D01*
X51511200Y-63832530D01*
X50709485Y-63832530D01*
X50709493Y-63734245D01*
X50709689Y-62049378D01*
X51615017Y-62049378D01*
X51590585Y-62086067D01*
X51584318Y-62095647D01*
X51558208Y-62141981D01*
X51540469Y-62189102D01*
X51528908Y-62244251D01*
X51521331Y-62314667D01*
X51520839Y-62321650D01*
X51519062Y-62359641D01*
X51517444Y-62413576D01*
X51515999Y-62480703D01*
X51514740Y-62558271D01*
X51513680Y-62643528D01*
X51512829Y-62733724D01*
X51512203Y-62826107D01*
X51511812Y-62917925D01*
X51511670Y-63006427D01*
X51511790Y-63088862D01*
X51512183Y-63162479D01*
X51512862Y-63224526D01*
X51513841Y-63272251D01*
X51515132Y-63302904D01*
X51516747Y-63313733D01*
X51524957Y-63309333D01*
X51546647Y-63294362D01*
X51576014Y-63272448D01*
X51624879Y-63238236D01*
X51713125Y-63191714D01*
X51811916Y-63158046D01*
X51924510Y-63136231D01*
X52054164Y-63125265D01*
X52146670Y-63124219D01*
X52268011Y-63134014D01*
X52378099Y-63158174D01*
X52481389Y-63197785D01*
X52582338Y-63253932D01*
X52627503Y-63284883D01*
X52732911Y-63376115D01*
X52824538Y-63485106D01*
X52902332Y-63611726D01*
X52966241Y-63755845D01*
X53016214Y-63917332D01*
X53052198Y-64096059D01*
X53074143Y-64291895D01*
X53079900Y-64447934D01*
X53081994Y-64504711D01*
G37*
X55623755Y-64905467D02*
X55623261Y-64939363D01*
X55619632Y-65014202D01*
X55612022Y-65076401D01*
X55599688Y-65132984D01*
X55555313Y-65259076D01*
X55492400Y-65373679D01*
X55412238Y-65474568D01*
X55315740Y-65560924D01*
X55203822Y-65631932D01*
X55077397Y-65686776D01*
X54937378Y-65724638D01*
X54901149Y-65730351D01*
X54822155Y-65736313D01*
X54733841Y-65736646D01*
X54644075Y-65731659D01*
X54560722Y-65721666D01*
X54491651Y-65706978D01*
X54405187Y-65676749D01*
X54295286Y-65622057D01*
X54197956Y-65554543D01*
X54135867Y-65503556D01*
X54132605Y-65599622D01*
X54129343Y-65695689D01*
X53706450Y-65695689D01*
X53695543Y-65695686D01*
X53601056Y-65695380D01*
X53514331Y-65694616D01*
X53437837Y-65693451D01*
X53374043Y-65691942D01*
X53325418Y-65690147D01*
X53294433Y-65688121D01*
X53283556Y-65685922D01*
X53283578Y-65685463D01*
X53290614Y-65669910D01*
X53306434Y-65647071D01*
X53310734Y-65641638D01*
X53321777Y-65627606D01*
X53331311Y-65614186D01*
X53339461Y-65599722D01*
X53346352Y-65582556D01*
X53352111Y-65561034D01*
X53356862Y-65533498D01*
X53360731Y-65498292D01*
X53363844Y-65453760D01*
X53366325Y-65398246D01*
X53368300Y-65330093D01*
X53369894Y-65247645D01*
X53371234Y-65149246D01*
X53372444Y-65033239D01*
X53373649Y-64897968D01*
X53374595Y-64786586D01*
X54175378Y-64786586D01*
X54175378Y-64982462D01*
X54220048Y-65038973D01*
X54232785Y-65054212D01*
X54279604Y-65096844D01*
X54340255Y-65132672D01*
X54350897Y-65137850D01*
X54389676Y-65154745D01*
X54424692Y-65164909D01*
X54464722Y-65170325D01*
X54518541Y-65172978D01*
X54536648Y-65173383D01*
X54612011Y-65170540D01*
X54672743Y-65158620D01*
X54724452Y-65136037D01*
X54772746Y-65101211D01*
X54777803Y-65096798D01*
X54826272Y-65041160D01*
X54854459Y-64977333D01*
X54863752Y-64902282D01*
X54856520Y-64830693D01*
X54831796Y-64767645D01*
X54787249Y-64709758D01*
X54732319Y-64662808D01*
X54659894Y-64622961D01*
X54573340Y-64595263D01*
X54470670Y-64579096D01*
X54349894Y-64573842D01*
X54341007Y-64573857D01*
X54285660Y-64574655D01*
X54238736Y-64576488D01*
X54204953Y-64579111D01*
X54189028Y-64582274D01*
X54184943Y-64588741D01*
X54180572Y-64610875D01*
X54177604Y-64649988D01*
X54175914Y-64707939D01*
X54175378Y-64786586D01*
X53374595Y-64786586D01*
X53374975Y-64741778D01*
X53376228Y-64599012D01*
X53377651Y-64453942D01*
X53379176Y-64328027D01*
X53380933Y-64219436D01*
X53383051Y-64126334D01*
X53385660Y-64046891D01*
X53388890Y-63979273D01*
X53392869Y-63921649D01*
X53397728Y-63872185D01*
X53403597Y-63829050D01*
X53410604Y-63790410D01*
X53418880Y-63754434D01*
X53428554Y-63719289D01*
X53439756Y-63683142D01*
X53452616Y-63644161D01*
X53468090Y-63601091D01*
X53510994Y-63508871D01*
X53564735Y-63429099D01*
X53633576Y-63354965D01*
X53711185Y-63291405D01*
X53815761Y-63229725D01*
X53935244Y-63182202D01*
X54070508Y-63148567D01*
X54222426Y-63128552D01*
X54391872Y-63121889D01*
X54449890Y-63122287D01*
X54515398Y-63124335D01*
X54576693Y-63128704D01*
X54638097Y-63136035D01*
X54703932Y-63146969D01*
X54778520Y-63162147D01*
X54866184Y-63182209D01*
X54971245Y-63207797D01*
X54999806Y-63214820D01*
X55075054Y-63232776D01*
X55145388Y-63248820D01*
X55206567Y-63262028D01*
X55254354Y-63271474D01*
X55284511Y-63276231D01*
X55312783Y-63279910D01*
X55339060Y-63285187D01*
X55349059Y-63289942D01*
X55345952Y-63298781D01*
X55335194Y-63326072D01*
X55317864Y-63368906D01*
X55295126Y-63424425D01*
X55268147Y-63489772D01*
X55238090Y-63562089D01*
X55231493Y-63577879D01*
X55192907Y-63668484D01*
X55161768Y-63738217D01*
X55137917Y-63787405D01*
X55121198Y-63816374D01*
X55111454Y-63825452D01*
X55103766Y-63823405D01*
X55077415Y-63813760D01*
X55038982Y-63798190D01*
X54993822Y-63778815D01*
X54899293Y-63740814D01*
X54762480Y-63699780D01*
X54621289Y-63674612D01*
X54583314Y-63670611D01*
X54480059Y-63668447D01*
X54392952Y-63681622D01*
X54321129Y-63710756D01*
X54263731Y-63756466D01*
X54219896Y-63819372D01*
X54188762Y-63900092D01*
X54169470Y-63999245D01*
X54162050Y-64058224D01*
X54323936Y-64051445D01*
X54450495Y-64049813D01*
X54601951Y-64056194D01*
X54750396Y-64070777D01*
X54886578Y-64092882D01*
X54951245Y-64107821D01*
X55083490Y-64150741D01*
X55205762Y-64207340D01*
X55315685Y-64276017D01*
X55410883Y-64355170D01*
X55488980Y-64443196D01*
X55547599Y-64538493D01*
X55571595Y-64590864D01*
X55597232Y-64661590D01*
X55613478Y-64732812D01*
X55621822Y-64811712D01*
X55623690Y-64902282D01*
X55623755Y-64905467D01*
G36*
X55623755Y-64905467D02*
G01*
X55623261Y-64939363D01*
X55619632Y-65014202D01*
X55612022Y-65076401D01*
X55599688Y-65132984D01*
X55555313Y-65259076D01*
X55492400Y-65373679D01*
X55412238Y-65474568D01*
X55315740Y-65560924D01*
X55203822Y-65631932D01*
X55077397Y-65686776D01*
X54937378Y-65724638D01*
X54901149Y-65730351D01*
X54822155Y-65736313D01*
X54733841Y-65736646D01*
X54644075Y-65731659D01*
X54560722Y-65721666D01*
X54491651Y-65706978D01*
X54405187Y-65676749D01*
X54295286Y-65622057D01*
X54197956Y-65554543D01*
X54135867Y-65503556D01*
X54132605Y-65599622D01*
X54129343Y-65695689D01*
X53706450Y-65695689D01*
X53695543Y-65695686D01*
X53601056Y-65695380D01*
X53514331Y-65694616D01*
X53437837Y-65693451D01*
X53374043Y-65691942D01*
X53325418Y-65690147D01*
X53294433Y-65688121D01*
X53283556Y-65685922D01*
X53283578Y-65685463D01*
X53290614Y-65669910D01*
X53306434Y-65647071D01*
X53310734Y-65641638D01*
X53321777Y-65627606D01*
X53331311Y-65614186D01*
X53339461Y-65599722D01*
X53346352Y-65582556D01*
X53352111Y-65561034D01*
X53356862Y-65533498D01*
X53360731Y-65498292D01*
X53363844Y-65453760D01*
X53366325Y-65398246D01*
X53368300Y-65330093D01*
X53369894Y-65247645D01*
X53371234Y-65149246D01*
X53372444Y-65033239D01*
X53373649Y-64897968D01*
X53374595Y-64786586D01*
X54175378Y-64786586D01*
X54175378Y-64982462D01*
X54220048Y-65038973D01*
X54232785Y-65054212D01*
X54279604Y-65096844D01*
X54340255Y-65132672D01*
X54350897Y-65137850D01*
X54389676Y-65154745D01*
X54424692Y-65164909D01*
X54464722Y-65170325D01*
X54518541Y-65172978D01*
X54536648Y-65173383D01*
X54612011Y-65170540D01*
X54672743Y-65158620D01*
X54724452Y-65136037D01*
X54772746Y-65101211D01*
X54777803Y-65096798D01*
X54826272Y-65041160D01*
X54854459Y-64977333D01*
X54863752Y-64902282D01*
X54856520Y-64830693D01*
X54831796Y-64767645D01*
X54787249Y-64709758D01*
X54732319Y-64662808D01*
X54659894Y-64622961D01*
X54573340Y-64595263D01*
X54470670Y-64579096D01*
X54349894Y-64573842D01*
X54341007Y-64573857D01*
X54285660Y-64574655D01*
X54238736Y-64576488D01*
X54204953Y-64579111D01*
X54189028Y-64582274D01*
X54184943Y-64588741D01*
X54180572Y-64610875D01*
X54177604Y-64649988D01*
X54175914Y-64707939D01*
X54175378Y-64786586D01*
X53374595Y-64786586D01*
X53374975Y-64741778D01*
X53376228Y-64599012D01*
X53377651Y-64453942D01*
X53379176Y-64328027D01*
X53380933Y-64219436D01*
X53383051Y-64126334D01*
X53385660Y-64046891D01*
X53388890Y-63979273D01*
X53392869Y-63921649D01*
X53397728Y-63872185D01*
X53403597Y-63829050D01*
X53410604Y-63790410D01*
X53418880Y-63754434D01*
X53428554Y-63719289D01*
X53439756Y-63683142D01*
X53452616Y-63644161D01*
X53468090Y-63601091D01*
X53510994Y-63508871D01*
X53564735Y-63429099D01*
X53633576Y-63354965D01*
X53711185Y-63291405D01*
X53815761Y-63229725D01*
X53935244Y-63182202D01*
X54070508Y-63148567D01*
X54222426Y-63128552D01*
X54391872Y-63121889D01*
X54449890Y-63122287D01*
X54515398Y-63124335D01*
X54576693Y-63128704D01*
X54638097Y-63136035D01*
X54703932Y-63146969D01*
X54778520Y-63162147D01*
X54866184Y-63182209D01*
X54971245Y-63207797D01*
X54999806Y-63214820D01*
X55075054Y-63232776D01*
X55145388Y-63248820D01*
X55206567Y-63262028D01*
X55254354Y-63271474D01*
X55284511Y-63276231D01*
X55312783Y-63279910D01*
X55339060Y-63285187D01*
X55349059Y-63289942D01*
X55345952Y-63298781D01*
X55335194Y-63326072D01*
X55317864Y-63368906D01*
X55295126Y-63424425D01*
X55268147Y-63489772D01*
X55238090Y-63562089D01*
X55231493Y-63577879D01*
X55192907Y-63668484D01*
X55161768Y-63738217D01*
X55137917Y-63787405D01*
X55121198Y-63816374D01*
X55111454Y-63825452D01*
X55103766Y-63823405D01*
X55077415Y-63813760D01*
X55038982Y-63798190D01*
X54993822Y-63778815D01*
X54899293Y-63740814D01*
X54762480Y-63699780D01*
X54621289Y-63674612D01*
X54583314Y-63670611D01*
X54480059Y-63668447D01*
X54392952Y-63681622D01*
X54321129Y-63710756D01*
X54263731Y-63756466D01*
X54219896Y-63819372D01*
X54188762Y-63900092D01*
X54169470Y-63999245D01*
X54162050Y-64058224D01*
X54323936Y-64051445D01*
X54450495Y-64049813D01*
X54601951Y-64056194D01*
X54750396Y-64070777D01*
X54886578Y-64092882D01*
X54951245Y-64107821D01*
X55083490Y-64150741D01*
X55205762Y-64207340D01*
X55315685Y-64276017D01*
X55410883Y-64355170D01*
X55488980Y-64443196D01*
X55547599Y-64538493D01*
X55571595Y-64590864D01*
X55597232Y-64661590D01*
X55613478Y-64732812D01*
X55621822Y-64811712D01*
X55623690Y-64902282D01*
X55623755Y-64905467D01*
G37*
X63171614Y-62373792D02*
X63172059Y-62505011D01*
X63172362Y-62652216D01*
X63172548Y-62816349D01*
X63172642Y-62998352D01*
X63172671Y-63199165D01*
X63172661Y-63419732D01*
X63172636Y-63660992D01*
X63172622Y-63923889D01*
X63172622Y-63966040D01*
X63172646Y-64226668D01*
X63172685Y-64465796D01*
X63172708Y-64684360D01*
X63172687Y-64883295D01*
X63172593Y-65063535D01*
X63172395Y-65226015D01*
X63172063Y-65371670D01*
X63171569Y-65501434D01*
X63170883Y-65616243D01*
X63169976Y-65717030D01*
X63168817Y-65804730D01*
X63167378Y-65880279D01*
X63165629Y-65944611D01*
X63163540Y-65998661D01*
X63161083Y-66043363D01*
X63158227Y-66079652D01*
X63154943Y-66108463D01*
X63151202Y-66130731D01*
X63146974Y-66147390D01*
X63142229Y-66159375D01*
X63136939Y-66167621D01*
X63131073Y-66173062D01*
X63124602Y-66176634D01*
X63117497Y-66179270D01*
X63109728Y-66181906D01*
X63101266Y-66185477D01*
X63096908Y-66187145D01*
X63088395Y-66189111D01*
X63075694Y-66190911D01*
X63057885Y-66192555D01*
X63034049Y-66194047D01*
X63003266Y-66195397D01*
X62964617Y-66196611D01*
X62917182Y-66197697D01*
X62860043Y-66198661D01*
X62792279Y-66199511D01*
X62712971Y-66200253D01*
X62621199Y-66200897D01*
X62516044Y-66201447D01*
X62396587Y-66201913D01*
X62261908Y-66202300D01*
X62111088Y-66202616D01*
X61943206Y-66202869D01*
X61757345Y-66203066D01*
X61552583Y-66203213D01*
X61328002Y-66203318D01*
X61082682Y-66203389D01*
X60815704Y-66203432D01*
X60777321Y-66203437D01*
X60511922Y-66203480D01*
X60268050Y-66203525D01*
X60044783Y-66203548D01*
X59841196Y-66203524D01*
X59656367Y-66203430D01*
X59489373Y-66203243D01*
X59339290Y-66202939D01*
X59205196Y-66202494D01*
X59086166Y-66201885D01*
X58981279Y-66201089D01*
X58889610Y-66200080D01*
X58810237Y-66198837D01*
X58742237Y-66197335D01*
X58684686Y-66195551D01*
X58636662Y-66193461D01*
X58597240Y-66191042D01*
X58565499Y-66188270D01*
X58540514Y-66185121D01*
X58521364Y-66181572D01*
X58507123Y-66177598D01*
X58496871Y-66173178D01*
X58489682Y-66168286D01*
X58484635Y-66162900D01*
X58480805Y-66156996D01*
X58477271Y-66150549D01*
X58473108Y-66143537D01*
X58472025Y-66141687D01*
X58469813Y-66136180D01*
X58467786Y-66127868D01*
X58465938Y-66115809D01*
X58464261Y-66099063D01*
X58462745Y-66076687D01*
X58461383Y-66047740D01*
X58460167Y-66011280D01*
X58459089Y-65966367D01*
X58458140Y-65912057D01*
X58457312Y-65847410D01*
X58456597Y-65771484D01*
X58455987Y-65683338D01*
X58455942Y-65674493D01*
X58747378Y-65674493D01*
X58751260Y-65675765D01*
X58774520Y-65677791D01*
X58816874Y-65679626D01*
X58876132Y-65681227D01*
X58950107Y-65682549D01*
X59036610Y-65683548D01*
X59133452Y-65684180D01*
X59238445Y-65684400D01*
X59936651Y-65684400D01*
X61091090Y-65684400D01*
X61090456Y-65608200D01*
X61091574Y-65566160D01*
X61097304Y-65530334D01*
X61109890Y-65492772D01*
X61131568Y-65444577D01*
X61134789Y-65437897D01*
X61160188Y-65388359D01*
X61186996Y-65340369D01*
X61209917Y-65303466D01*
X61214485Y-65296834D01*
X61236516Y-65265593D01*
X61268693Y-65220654D01*
X61309457Y-65164147D01*
X61357245Y-65098204D01*
X61410498Y-65024957D01*
X61467655Y-64946536D01*
X61527155Y-64865072D01*
X61587437Y-64782698D01*
X61646940Y-64701544D01*
X61704105Y-64623742D01*
X61757370Y-64551423D01*
X61805174Y-64486718D01*
X61845957Y-64431759D01*
X61878158Y-64388676D01*
X61900216Y-64359602D01*
X61910571Y-64346667D01*
X61915044Y-64342351D01*
X61919236Y-64340312D01*
X61922643Y-64342926D01*
X61925325Y-64351986D01*
X61927341Y-64369285D01*
X61928748Y-64396614D01*
X61929605Y-64435765D01*
X61929970Y-64488533D01*
X61929903Y-64556707D01*
X61929460Y-64642082D01*
X61928702Y-64746449D01*
X61927685Y-64871600D01*
X61927308Y-64916300D01*
X61926169Y-65037395D01*
X61924972Y-65138688D01*
X61923636Y-65222262D01*
X61922077Y-65290204D01*
X61920215Y-65344599D01*
X61917966Y-65387532D01*
X61915248Y-65421089D01*
X61911979Y-65447355D01*
X61908078Y-65468416D01*
X61903461Y-65486357D01*
X61895192Y-65512770D01*
X61871583Y-65574772D01*
X61845685Y-65627573D01*
X61820535Y-65664645D01*
X61819339Y-65666075D01*
X61817168Y-65670424D01*
X61819328Y-65674026D01*
X61827644Y-65676951D01*
X61843940Y-65679269D01*
X61870041Y-65681051D01*
X61907771Y-65682367D01*
X61958956Y-65683286D01*
X62025420Y-65683878D01*
X62108987Y-65684215D01*
X62211483Y-65684365D01*
X62334732Y-65684400D01*
X62866296Y-65684400D01*
X62827523Y-65626783D01*
X62821432Y-65617893D01*
X62810976Y-65603069D01*
X62801579Y-65589422D01*
X62793183Y-65575765D01*
X62785733Y-65560911D01*
X62779173Y-65543670D01*
X62773446Y-65522855D01*
X62768495Y-65497280D01*
X62764266Y-65465755D01*
X62760701Y-65427093D01*
X62757744Y-65380107D01*
X62755340Y-65323608D01*
X62753431Y-65256409D01*
X62751962Y-65177322D01*
X62750876Y-65085160D01*
X62750118Y-64978734D01*
X62749630Y-64856857D01*
X62749358Y-64718341D01*
X62749243Y-64561999D01*
X62749231Y-64386642D01*
X62749265Y-64191082D01*
X62749289Y-63974133D01*
X62749280Y-63851513D01*
X62749243Y-63646447D01*
X62749227Y-63462116D01*
X62749288Y-63297334D01*
X62749484Y-63150916D01*
X62749870Y-63021674D01*
X62750505Y-62908422D01*
X62751444Y-62809975D01*
X62752745Y-62725144D01*
X62754464Y-62652744D01*
X62756659Y-62591589D01*
X62759385Y-62540492D01*
X62762701Y-62498267D01*
X62766662Y-62463727D01*
X62771325Y-62435686D01*
X62776747Y-62412958D01*
X62782986Y-62394356D01*
X62790097Y-62378693D01*
X62798138Y-62364784D01*
X62807166Y-62351441D01*
X62817236Y-62337479D01*
X62828407Y-62321711D01*
X62868197Y-62263867D01*
X61808314Y-62263867D01*
X61846311Y-62326966D01*
X61860993Y-62352005D01*
X61875531Y-62379586D01*
X61887627Y-62407700D01*
X61897532Y-62438551D01*
X61905494Y-62474344D01*
X61911761Y-62517283D01*
X61916582Y-62569574D01*
X61920206Y-62633419D01*
X61922881Y-62711025D01*
X61924857Y-62804594D01*
X61926382Y-62916333D01*
X61927704Y-63048445D01*
X61928613Y-63168434D01*
X61929020Y-63285063D01*
X61928767Y-63380531D01*
X61927857Y-63454556D01*
X61926293Y-63506855D01*
X61924079Y-63537149D01*
X61921220Y-63545156D01*
X61918161Y-63541858D01*
X61900006Y-63520408D01*
X61870275Y-63483889D01*
X61830639Y-63434442D01*
X61782771Y-63374207D01*
X61728343Y-63305327D01*
X61669027Y-63229943D01*
X61606495Y-63150196D01*
X61542421Y-63068228D01*
X61478475Y-62986180D01*
X61416331Y-62906194D01*
X61357661Y-62830411D01*
X61304137Y-62760973D01*
X61257430Y-62700021D01*
X61219214Y-62649696D01*
X61191161Y-62612140D01*
X61174943Y-62589495D01*
X61129635Y-62517212D01*
X61089661Y-62437463D01*
X61068130Y-62369188D01*
X61064827Y-62311844D01*
X61070116Y-62263867D01*
X59938356Y-62264117D01*
X59977867Y-62294722D01*
X59987248Y-62302089D01*
X60050183Y-62356438D01*
X60118997Y-62424259D01*
X60195596Y-62507516D01*
X60281888Y-62608178D01*
X60299052Y-62628847D01*
X60339833Y-62678409D01*
X60389588Y-62739326D01*
X60446955Y-62809898D01*
X60510569Y-62888424D01*
X60579069Y-62973204D01*
X60651090Y-63062537D01*
X60725270Y-63154722D01*
X60740517Y-63173702D01*
X60800246Y-63248060D01*
X60874653Y-63340848D01*
X60947131Y-63431388D01*
X61016314Y-63517978D01*
X61080841Y-63598918D01*
X61139347Y-63672506D01*
X61190470Y-63737044D01*
X61232847Y-63790829D01*
X61265115Y-63832162D01*
X61285910Y-63859342D01*
X61293869Y-63870668D01*
X61292111Y-63874771D01*
X61279230Y-63895334D01*
X61254885Y-63931561D01*
X61220247Y-63981824D01*
X61176486Y-64044492D01*
X61124775Y-64117936D01*
X61066284Y-64200527D01*
X61002184Y-64290636D01*
X60933646Y-64386631D01*
X60861843Y-64486885D01*
X60787944Y-64589768D01*
X60713121Y-64693650D01*
X60638545Y-64796901D01*
X60565387Y-64897892D01*
X60494819Y-64994994D01*
X60428011Y-65086577D01*
X60366135Y-65171011D01*
X60310361Y-65246667D01*
X60261862Y-65311916D01*
X60221807Y-65365128D01*
X60191369Y-65404673D01*
X60170944Y-65430026D01*
X60124899Y-65484295D01*
X60074612Y-65540775D01*
X60027815Y-65590669D01*
X59936651Y-65684400D01*
X59238445Y-65684400D01*
X59307356Y-65684349D01*
X59405607Y-65684091D01*
X59495030Y-65683637D01*
X59573333Y-65683010D01*
X59638223Y-65682235D01*
X59687411Y-65681335D01*
X59718604Y-65680334D01*
X59729511Y-65679257D01*
X59728322Y-65676037D01*
X59718176Y-65658452D01*
X59701040Y-65632158D01*
X59692540Y-65619691D01*
X59683329Y-65605622D01*
X59675233Y-65591351D01*
X59668185Y-65575479D01*
X59662117Y-65556609D01*
X59656961Y-65533341D01*
X59652651Y-65504278D01*
X59649119Y-65468021D01*
X59646297Y-65423170D01*
X59644118Y-65368328D01*
X59642514Y-65302097D01*
X59641419Y-65223077D01*
X59640765Y-65129871D01*
X59640484Y-65021079D01*
X59640509Y-64895303D01*
X59640772Y-64751145D01*
X59641206Y-64587207D01*
X59641745Y-64402089D01*
X59642279Y-64223232D01*
X59642805Y-64064374D01*
X59643350Y-63925316D01*
X59643945Y-63804665D01*
X59644619Y-63701028D01*
X59645403Y-63613011D01*
X59646326Y-63539223D01*
X59647419Y-63478269D01*
X59648712Y-63428757D01*
X59650235Y-63389293D01*
X59652019Y-63358484D01*
X59654092Y-63334938D01*
X59656486Y-63317260D01*
X59659230Y-63304059D01*
X59662356Y-63293940D01*
X59665892Y-63285511D01*
X59669791Y-63277375D01*
X59689438Y-63240544D01*
X59708225Y-63210391D01*
X59709272Y-63208908D01*
X59723602Y-63186659D01*
X59729511Y-63173702D01*
X59728504Y-63173249D01*
X59711305Y-63171803D01*
X59674656Y-63170480D01*
X59620962Y-63169316D01*
X59552630Y-63168347D01*
X59472064Y-63167611D01*
X59381670Y-63167142D01*
X59283853Y-63166978D01*
X58838195Y-63166978D01*
X58835120Y-64343845D01*
X58832045Y-65520711D01*
X58805407Y-65579622D01*
X58793485Y-65604183D01*
X58776246Y-65634434D01*
X58763074Y-65651560D01*
X58755076Y-65659591D01*
X58747378Y-65674493D01*
X58455942Y-65674493D01*
X58455474Y-65582029D01*
X58455050Y-65466617D01*
X58454706Y-65336160D01*
X58454434Y-65189716D01*
X58454227Y-65026344D01*
X58454076Y-64845101D01*
X58453972Y-64645048D01*
X58453908Y-64425241D01*
X58453876Y-64184739D01*
X58453867Y-63922602D01*
X58453867Y-61731031D01*
X58492249Y-61692649D01*
X58519355Y-61668911D01*
X58546253Y-61657111D01*
X58582560Y-61654267D01*
X58634489Y-61654267D01*
X58634489Y-61742206D01*
X58636427Y-61792102D01*
X58655199Y-61902523D01*
X58692217Y-62003987D01*
X58745369Y-62095152D01*
X58812546Y-62174673D01*
X58891638Y-62241205D01*
X58980534Y-62293406D01*
X59077125Y-62329930D01*
X59179300Y-62349434D01*
X59284950Y-62350573D01*
X59391964Y-62332005D01*
X59498232Y-62292384D01*
X59595219Y-62234516D01*
X59680293Y-62159684D01*
X59749015Y-62071615D01*
X59799918Y-61972616D01*
X59831535Y-61864993D01*
X59842400Y-61751054D01*
X59842400Y-61654267D01*
X61462753Y-61654267D01*
X61673897Y-61654280D01*
X61878020Y-61654330D01*
X62061686Y-61654430D01*
X62225991Y-61654592D01*
X62372029Y-61654829D01*
X62500894Y-61655153D01*
X62613683Y-61655575D01*
X62711488Y-61656109D01*
X62795404Y-61656767D01*
X62866527Y-61657561D01*
X62925950Y-61658504D01*
X62974768Y-61659608D01*
X63014077Y-61660884D01*
X63044969Y-61662347D01*
X63068541Y-61664007D01*
X63085886Y-61665878D01*
X63098099Y-61667972D01*
X63106275Y-61670300D01*
X63111508Y-61672876D01*
X63117504Y-61676445D01*
X63124279Y-61679978D01*
X63130478Y-61683488D01*
X63136126Y-61687918D01*
X63141247Y-61694208D01*
X63145869Y-61703301D01*
X63150015Y-61716139D01*
X63153713Y-61733662D01*
X63156987Y-61756813D01*
X63159863Y-61786534D01*
X63162367Y-61823765D01*
X63164524Y-61869449D01*
X63166360Y-61924527D01*
X63167900Y-61989941D01*
X63169170Y-62066633D01*
X63170195Y-62155544D01*
X63171001Y-62257617D01*
X63171034Y-62263867D01*
X63171614Y-62373792D01*
G36*
X63171614Y-62373792D02*
G01*
X63172059Y-62505011D01*
X63172362Y-62652216D01*
X63172548Y-62816349D01*
X63172642Y-62998352D01*
X63172671Y-63199165D01*
X63172661Y-63419732D01*
X63172636Y-63660992D01*
X63172622Y-63923889D01*
X63172622Y-63966040D01*
X63172646Y-64226668D01*
X63172685Y-64465796D01*
X63172708Y-64684360D01*
X63172687Y-64883295D01*
X63172593Y-65063535D01*
X63172395Y-65226015D01*
X63172063Y-65371670D01*
X63171569Y-65501434D01*
X63170883Y-65616243D01*
X63169976Y-65717030D01*
X63168817Y-65804730D01*
X63167378Y-65880279D01*
X63165629Y-65944611D01*
X63163540Y-65998661D01*
X63161083Y-66043363D01*
X63158227Y-66079652D01*
X63154943Y-66108463D01*
X63151202Y-66130731D01*
X63146974Y-66147390D01*
X63142229Y-66159375D01*
X63136939Y-66167621D01*
X63131073Y-66173062D01*
X63124602Y-66176634D01*
X63117497Y-66179270D01*
X63109728Y-66181906D01*
X63101266Y-66185477D01*
X63096908Y-66187145D01*
X63088395Y-66189111D01*
X63075694Y-66190911D01*
X63057885Y-66192555D01*
X63034049Y-66194047D01*
X63003266Y-66195397D01*
X62964617Y-66196611D01*
X62917182Y-66197697D01*
X62860043Y-66198661D01*
X62792279Y-66199511D01*
X62712971Y-66200253D01*
X62621199Y-66200897D01*
X62516044Y-66201447D01*
X62396587Y-66201913D01*
X62261908Y-66202300D01*
X62111088Y-66202616D01*
X61943206Y-66202869D01*
X61757345Y-66203066D01*
X61552583Y-66203213D01*
X61328002Y-66203318D01*
X61082682Y-66203389D01*
X60815704Y-66203432D01*
X60777321Y-66203437D01*
X60511922Y-66203480D01*
X60268050Y-66203525D01*
X60044783Y-66203548D01*
X59841196Y-66203524D01*
X59656367Y-66203430D01*
X59489373Y-66203243D01*
X59339290Y-66202939D01*
X59205196Y-66202494D01*
X59086166Y-66201885D01*
X58981279Y-66201089D01*
X58889610Y-66200080D01*
X58810237Y-66198837D01*
X58742237Y-66197335D01*
X58684686Y-66195551D01*
X58636662Y-66193461D01*
X58597240Y-66191042D01*
X58565499Y-66188270D01*
X58540514Y-66185121D01*
X58521364Y-66181572D01*
X58507123Y-66177598D01*
X58496871Y-66173178D01*
X58489682Y-66168286D01*
X58484635Y-66162900D01*
X58480805Y-66156996D01*
X58477271Y-66150549D01*
X58473108Y-66143537D01*
X58472025Y-66141687D01*
X58469813Y-66136180D01*
X58467786Y-66127868D01*
X58465938Y-66115809D01*
X58464261Y-66099063D01*
X58462745Y-66076687D01*
X58461383Y-66047740D01*
X58460167Y-66011280D01*
X58459089Y-65966367D01*
X58458140Y-65912057D01*
X58457312Y-65847410D01*
X58456597Y-65771484D01*
X58455987Y-65683338D01*
X58455942Y-65674493D01*
X58747378Y-65674493D01*
X58751260Y-65675765D01*
X58774520Y-65677791D01*
X58816874Y-65679626D01*
X58876132Y-65681227D01*
X58950107Y-65682549D01*
X59036610Y-65683548D01*
X59133452Y-65684180D01*
X59238445Y-65684400D01*
X59936651Y-65684400D01*
X61091090Y-65684400D01*
X61090456Y-65608200D01*
X61091574Y-65566160D01*
X61097304Y-65530334D01*
X61109890Y-65492772D01*
X61131568Y-65444577D01*
X61134789Y-65437897D01*
X61160188Y-65388359D01*
X61186996Y-65340369D01*
X61209917Y-65303466D01*
X61214485Y-65296834D01*
X61236516Y-65265593D01*
X61268693Y-65220654D01*
X61309457Y-65164147D01*
X61357245Y-65098204D01*
X61410498Y-65024957D01*
X61467655Y-64946536D01*
X61527155Y-64865072D01*
X61587437Y-64782698D01*
X61646940Y-64701544D01*
X61704105Y-64623742D01*
X61757370Y-64551423D01*
X61805174Y-64486718D01*
X61845957Y-64431759D01*
X61878158Y-64388676D01*
X61900216Y-64359602D01*
X61910571Y-64346667D01*
X61915044Y-64342351D01*
X61919236Y-64340312D01*
X61922643Y-64342926D01*
X61925325Y-64351986D01*
X61927341Y-64369285D01*
X61928748Y-64396614D01*
X61929605Y-64435765D01*
X61929970Y-64488533D01*
X61929903Y-64556707D01*
X61929460Y-64642082D01*
X61928702Y-64746449D01*
X61927685Y-64871600D01*
X61927308Y-64916300D01*
X61926169Y-65037395D01*
X61924972Y-65138688D01*
X61923636Y-65222262D01*
X61922077Y-65290204D01*
X61920215Y-65344599D01*
X61917966Y-65387532D01*
X61915248Y-65421089D01*
X61911979Y-65447355D01*
X61908078Y-65468416D01*
X61903461Y-65486357D01*
X61895192Y-65512770D01*
X61871583Y-65574772D01*
X61845685Y-65627573D01*
X61820535Y-65664645D01*
X61819339Y-65666075D01*
X61817168Y-65670424D01*
X61819328Y-65674026D01*
X61827644Y-65676951D01*
X61843940Y-65679269D01*
X61870041Y-65681051D01*
X61907771Y-65682367D01*
X61958956Y-65683286D01*
X62025420Y-65683878D01*
X62108987Y-65684215D01*
X62211483Y-65684365D01*
X62334732Y-65684400D01*
X62866296Y-65684400D01*
X62827523Y-65626783D01*
X62821432Y-65617893D01*
X62810976Y-65603069D01*
X62801579Y-65589422D01*
X62793183Y-65575765D01*
X62785733Y-65560911D01*
X62779173Y-65543670D01*
X62773446Y-65522855D01*
X62768495Y-65497280D01*
X62764266Y-65465755D01*
X62760701Y-65427093D01*
X62757744Y-65380107D01*
X62755340Y-65323608D01*
X62753431Y-65256409D01*
X62751962Y-65177322D01*
X62750876Y-65085160D01*
X62750118Y-64978734D01*
X62749630Y-64856857D01*
X62749358Y-64718341D01*
X62749243Y-64561999D01*
X62749231Y-64386642D01*
X62749265Y-64191082D01*
X62749289Y-63974133D01*
X62749280Y-63851513D01*
X62749243Y-63646447D01*
X62749227Y-63462116D01*
X62749288Y-63297334D01*
X62749484Y-63150916D01*
X62749870Y-63021674D01*
X62750505Y-62908422D01*
X62751444Y-62809975D01*
X62752745Y-62725144D01*
X62754464Y-62652744D01*
X62756659Y-62591589D01*
X62759385Y-62540492D01*
X62762701Y-62498267D01*
X62766662Y-62463727D01*
X62771325Y-62435686D01*
X62776747Y-62412958D01*
X62782986Y-62394356D01*
X62790097Y-62378693D01*
X62798138Y-62364784D01*
X62807166Y-62351441D01*
X62817236Y-62337479D01*
X62828407Y-62321711D01*
X62868197Y-62263867D01*
X61808314Y-62263867D01*
X61846311Y-62326966D01*
X61860993Y-62352005D01*
X61875531Y-62379586D01*
X61887627Y-62407700D01*
X61897532Y-62438551D01*
X61905494Y-62474344D01*
X61911761Y-62517283D01*
X61916582Y-62569574D01*
X61920206Y-62633419D01*
X61922881Y-62711025D01*
X61924857Y-62804594D01*
X61926382Y-62916333D01*
X61927704Y-63048445D01*
X61928613Y-63168434D01*
X61929020Y-63285063D01*
X61928767Y-63380531D01*
X61927857Y-63454556D01*
X61926293Y-63506855D01*
X61924079Y-63537149D01*
X61921220Y-63545156D01*
X61918161Y-63541858D01*
X61900006Y-63520408D01*
X61870275Y-63483889D01*
X61830639Y-63434442D01*
X61782771Y-63374207D01*
X61728343Y-63305327D01*
X61669027Y-63229943D01*
X61606495Y-63150196D01*
X61542421Y-63068228D01*
X61478475Y-62986180D01*
X61416331Y-62906194D01*
X61357661Y-62830411D01*
X61304137Y-62760973D01*
X61257430Y-62700021D01*
X61219214Y-62649696D01*
X61191161Y-62612140D01*
X61174943Y-62589495D01*
X61129635Y-62517212D01*
X61089661Y-62437463D01*
X61068130Y-62369188D01*
X61064827Y-62311844D01*
X61070116Y-62263867D01*
X59938356Y-62264117D01*
X59977867Y-62294722D01*
X59987248Y-62302089D01*
X60050183Y-62356438D01*
X60118997Y-62424259D01*
X60195596Y-62507516D01*
X60281888Y-62608178D01*
X60299052Y-62628847D01*
X60339833Y-62678409D01*
X60389588Y-62739326D01*
X60446955Y-62809898D01*
X60510569Y-62888424D01*
X60579069Y-62973204D01*
X60651090Y-63062537D01*
X60725270Y-63154722D01*
X60740517Y-63173702D01*
X60800246Y-63248060D01*
X60874653Y-63340848D01*
X60947131Y-63431388D01*
X61016314Y-63517978D01*
X61080841Y-63598918D01*
X61139347Y-63672506D01*
X61190470Y-63737044D01*
X61232847Y-63790829D01*
X61265115Y-63832162D01*
X61285910Y-63859342D01*
X61293869Y-63870668D01*
X61292111Y-63874771D01*
X61279230Y-63895334D01*
X61254885Y-63931561D01*
X61220247Y-63981824D01*
X61176486Y-64044492D01*
X61124775Y-64117936D01*
X61066284Y-64200527D01*
X61002184Y-64290636D01*
X60933646Y-64386631D01*
X60861843Y-64486885D01*
X60787944Y-64589768D01*
X60713121Y-64693650D01*
X60638545Y-64796901D01*
X60565387Y-64897892D01*
X60494819Y-64994994D01*
X60428011Y-65086577D01*
X60366135Y-65171011D01*
X60310361Y-65246667D01*
X60261862Y-65311916D01*
X60221807Y-65365128D01*
X60191369Y-65404673D01*
X60170944Y-65430026D01*
X60124899Y-65484295D01*
X60074612Y-65540775D01*
X60027815Y-65590669D01*
X59936651Y-65684400D01*
X59238445Y-65684400D01*
X59307356Y-65684349D01*
X59405607Y-65684091D01*
X59495030Y-65683637D01*
X59573333Y-65683010D01*
X59638223Y-65682235D01*
X59687411Y-65681335D01*
X59718604Y-65680334D01*
X59729511Y-65679257D01*
X59728322Y-65676037D01*
X59718176Y-65658452D01*
X59701040Y-65632158D01*
X59692540Y-65619691D01*
X59683329Y-65605622D01*
X59675233Y-65591351D01*
X59668185Y-65575479D01*
X59662117Y-65556609D01*
X59656961Y-65533341D01*
X59652651Y-65504278D01*
X59649119Y-65468021D01*
X59646297Y-65423170D01*
X59644118Y-65368328D01*
X59642514Y-65302097D01*
X59641419Y-65223077D01*
X59640765Y-65129871D01*
X59640484Y-65021079D01*
X59640509Y-64895303D01*
X59640772Y-64751145D01*
X59641206Y-64587207D01*
X59641745Y-64402089D01*
X59642279Y-64223232D01*
X59642805Y-64064374D01*
X59643350Y-63925316D01*
X59643945Y-63804665D01*
X59644619Y-63701028D01*
X59645403Y-63613011D01*
X59646326Y-63539223D01*
X59647419Y-63478269D01*
X59648712Y-63428757D01*
X59650235Y-63389293D01*
X59652019Y-63358484D01*
X59654092Y-63334938D01*
X59656486Y-63317260D01*
X59659230Y-63304059D01*
X59662356Y-63293940D01*
X59665892Y-63285511D01*
X59669791Y-63277375D01*
X59689438Y-63240544D01*
X59708225Y-63210391D01*
X59709272Y-63208908D01*
X59723602Y-63186659D01*
X59729511Y-63173702D01*
X59728504Y-63173249D01*
X59711305Y-63171803D01*
X59674656Y-63170480D01*
X59620962Y-63169316D01*
X59552630Y-63168347D01*
X59472064Y-63167611D01*
X59381670Y-63167142D01*
X59283853Y-63166978D01*
X58838195Y-63166978D01*
X58835120Y-64343845D01*
X58832045Y-65520711D01*
X58805407Y-65579622D01*
X58793485Y-65604183D01*
X58776246Y-65634434D01*
X58763074Y-65651560D01*
X58755076Y-65659591D01*
X58747378Y-65674493D01*
X58455942Y-65674493D01*
X58455474Y-65582029D01*
X58455050Y-65466617D01*
X58454706Y-65336160D01*
X58454434Y-65189716D01*
X58454227Y-65026344D01*
X58454076Y-64845101D01*
X58453972Y-64645048D01*
X58453908Y-64425241D01*
X58453876Y-64184739D01*
X58453867Y-63922602D01*
X58453867Y-61731031D01*
X58492249Y-61692649D01*
X58519355Y-61668911D01*
X58546253Y-61657111D01*
X58582560Y-61654267D01*
X58634489Y-61654267D01*
X58634489Y-61742206D01*
X58636427Y-61792102D01*
X58655199Y-61902523D01*
X58692217Y-62003987D01*
X58745369Y-62095152D01*
X58812546Y-62174673D01*
X58891638Y-62241205D01*
X58980534Y-62293406D01*
X59077125Y-62329930D01*
X59179300Y-62349434D01*
X59284950Y-62350573D01*
X59391964Y-62332005D01*
X59498232Y-62292384D01*
X59595219Y-62234516D01*
X59680293Y-62159684D01*
X59749015Y-62071615D01*
X59799918Y-61972616D01*
X59831535Y-61864993D01*
X59842400Y-61751054D01*
X59842400Y-61654267D01*
X61462753Y-61654267D01*
X61673897Y-61654280D01*
X61878020Y-61654330D01*
X62061686Y-61654430D01*
X62225991Y-61654592D01*
X62372029Y-61654829D01*
X62500894Y-61655153D01*
X62613683Y-61655575D01*
X62711488Y-61656109D01*
X62795404Y-61656767D01*
X62866527Y-61657561D01*
X62925950Y-61658504D01*
X62974768Y-61659608D01*
X63014077Y-61660884D01*
X63044969Y-61662347D01*
X63068541Y-61664007D01*
X63085886Y-61665878D01*
X63098099Y-61667972D01*
X63106275Y-61670300D01*
X63111508Y-61672876D01*
X63117504Y-61676445D01*
X63124279Y-61679978D01*
X63130478Y-61683488D01*
X63136126Y-61687918D01*
X63141247Y-61694208D01*
X63145869Y-61703301D01*
X63150015Y-61716139D01*
X63153713Y-61733662D01*
X63156987Y-61756813D01*
X63159863Y-61786534D01*
X63162367Y-61823765D01*
X63164524Y-61869449D01*
X63166360Y-61924527D01*
X63167900Y-61989941D01*
X63169170Y-62066633D01*
X63170195Y-62155544D01*
X63171001Y-62257617D01*
X63171034Y-62263867D01*
X63171614Y-62373792D01*
G37*
%TD*%
M02*
