%TF.GenerationSoftware,KiCad,Pcbnew,9.0.1*%
%TF.CreationDate,2025-07-02T13:22:08+05:30*%
%TF.ProjectId,4. MCU data logger,342e204d-4355-4206-9461-7461206c6f67,1*%
%TF.SameCoordinates,Original*%
%TF.FileFunction,Copper,L1,Top*%
%TF.FilePolarity,Positive*%
%FSLAX46Y46*%
G04 Gerber Fmt 4.6, Leading zero omitted, Abs format (unit mm)*
G04 Created by KiCad (PCBNEW 9.0.1) date 2025-07-02 13:22:08*
%MOMM*%
%LPD*%
G01*
G04 APERTURE LIST*
G04 Aperture macros list*
%AMRoundRect*
0 Rectangle with rounded corners*
0 $1 Rounding radius*
0 $2 $3 $4 $5 $6 $7 $8 $9 X,Y pos of 4 corners*
0 Add a 4 corners polygon primitive as box body*
4,1,4,$2,$3,$4,$5,$6,$7,$8,$9,$2,$3,0*
0 Add four circle primitives for the rounded corners*
1,1,$1+$1,$2,$3*
1,1,$1+$1,$4,$5*
1,1,$1+$1,$6,$7*
1,1,$1+$1,$8,$9*
0 Add four rect primitives between the rounded corners*
20,1,$1+$1,$2,$3,$4,$5,0*
20,1,$1+$1,$4,$5,$6,$7,0*
20,1,$1+$1,$6,$7,$8,$9,0*
20,1,$1+$1,$8,$9,$2,$3,0*%
G04 Aperture macros list end*
%TA.AperFunction,SMDPad,CuDef*%
%ADD10RoundRect,0.243750X-0.243750X-0.456250X0.243750X-0.456250X0.243750X0.456250X-0.243750X0.456250X0*%
%TD*%
%TA.AperFunction,SMDPad,CuDef*%
%ADD11RoundRect,0.162500X-0.650000X-0.162500X0.650000X-0.162500X0.650000X0.162500X-0.650000X0.162500X0*%
%TD*%
%TA.AperFunction,ComponentPad*%
%ADD12R,1.700000X1.700000*%
%TD*%
%TA.AperFunction,ComponentPad*%
%ADD13C,1.700000*%
%TD*%
%TA.AperFunction,SMDPad,CuDef*%
%ADD14RoundRect,0.068750X-0.666250X-0.206250X0.666250X-0.206250X0.666250X0.206250X-0.666250X0.206250X0*%
%TD*%
%TA.AperFunction,SMDPad,CuDef*%
%ADD15RoundRect,0.068750X-0.206250X-0.666250X0.206250X-0.666250X0.206250X0.666250X-0.206250X0.666250X0*%
%TD*%
%TA.AperFunction,SMDPad,CuDef*%
%ADD16RoundRect,0.250000X-0.250000X-0.475000X0.250000X-0.475000X0.250000X0.475000X-0.250000X0.475000X0*%
%TD*%
%TA.AperFunction,SMDPad,CuDef*%
%ADD17RoundRect,0.250000X0.250000X0.475000X-0.250000X0.475000X-0.250000X-0.475000X0.250000X-0.475000X0*%
%TD*%
%TA.AperFunction,SMDPad,CuDef*%
%ADD18RoundRect,0.250000X-0.262500X-0.450000X0.262500X-0.450000X0.262500X0.450000X-0.262500X0.450000X0*%
%TD*%
%TA.AperFunction,SMDPad,CuDef*%
%ADD19RoundRect,0.250000X0.262500X0.450000X-0.262500X0.450000X-0.262500X-0.450000X0.262500X-0.450000X0*%
%TD*%
%TA.AperFunction,SMDPad,CuDef*%
%ADD20R,2.400000X3.500000*%
%TD*%
%TA.AperFunction,SMDPad,CuDef*%
%ADD21RoundRect,0.073750X-0.911250X-0.221250X0.911250X-0.221250X0.911250X0.221250X-0.911250X0.221250X0*%
%TD*%
%TA.AperFunction,SMDPad,CuDef*%
%ADD22R,3.500000X2.400000*%
%TD*%
%TA.AperFunction,ViaPad*%
%ADD23C,0.600000*%
%TD*%
%TA.AperFunction,ViaPad*%
%ADD24C,0.700000*%
%TD*%
%TA.AperFunction,Conductor*%
%ADD25C,0.200000*%
%TD*%
%TA.AperFunction,Conductor*%
%ADD26C,0.300000*%
%TD*%
G04 APERTURE END LIST*
D10*
%TO.P,D2,1,K*%
%TO.N,Net-(D2-K)*%
X80416400Y-61315600D03*
%TO.P,D2,2,A*%
%TO.N,/VCC*%
X82291400Y-61315600D03*
%TD*%
D11*
%TO.P,U1,1,A0*%
%TO.N,/VCC*%
X53632600Y-68478400D03*
%TO.P,U1,2,A1*%
X53632600Y-69748400D03*
%TO.P,U1,3,A2*%
X53632600Y-71018400D03*
%TO.P,U1,4,GND*%
%TO.N,GND*%
X53632600Y-72288400D03*
%TO.P,U1,5,SDA*%
%TO.N,/SDA*%
X60807600Y-72288400D03*
%TO.P,U1,6,SCL*%
%TO.N,/SCK*%
X60807600Y-71018400D03*
%TO.P,U1,7,WP*%
%TO.N,GND*%
X60807600Y-69748400D03*
%TO.P,U1,8,VCC*%
%TO.N,/VCC*%
X60807600Y-68478400D03*
%TD*%
D12*
%TO.P,J4,1,Pin_1*%
%TO.N,/MISO*%
X90170000Y-66040000D03*
D13*
%TO.P,J4,2,Pin_2*%
%TO.N,/VCC*%
X92710000Y-66040000D03*
%TO.P,J4,3,Pin_3*%
%TO.N,/SCK*%
X90170000Y-68580000D03*
%TO.P,J4,4,Pin_4*%
%TO.N,/MOSI*%
X92710000Y-68580000D03*
%TO.P,J4,5,Pin_5*%
%TO.N,/RESET*%
X90170000Y-71120000D03*
%TO.P,J4,6,Pin_6*%
%TO.N,GND*%
X92710000Y-71120000D03*
%TD*%
D14*
%TO.P,U4,1,PD3*%
%TO.N,/D3*%
X66188000Y-68421600D03*
%TO.P,U4,2,PD4*%
%TO.N,/D4*%
X66188000Y-69221600D03*
%TO.P,U4,3,GND*%
%TO.N,GND*%
X66188000Y-70021600D03*
%TO.P,U4,4,VCC*%
%TO.N,/VCC*%
X66188000Y-70821600D03*
%TO.P,U4,5,GND*%
%TO.N,GND*%
X66188000Y-71621600D03*
%TO.P,U4,6,VCC*%
%TO.N,unconnected-(U4-VCC-Pad6)*%
X66188000Y-72421600D03*
%TO.P,U4,7,PB6*%
%TO.N,Net-(U4-PB6)*%
X66188000Y-73221600D03*
%TO.P,U4,8,PB7*%
%TO.N,Net-(U4-PB7)*%
X66188000Y-74021600D03*
D15*
%TO.P,U4,9,PD5*%
%TO.N,/D5*%
X67558000Y-75391600D03*
%TO.P,U4,10,PD6*%
%TO.N,/D6*%
X68358000Y-75391600D03*
%TO.P,U4,11,PD7*%
%TO.N,/D7*%
X69158000Y-75391600D03*
%TO.P,U4,12,PB0*%
%TO.N,/D8*%
X69958000Y-75391600D03*
%TO.P,U4,13,PB1*%
%TO.N,unconnected-(U4-PB1-Pad13)*%
X70758000Y-75391600D03*
%TO.P,U4,14,PB2*%
%TO.N,unconnected-(U4-PB2-Pad14)*%
X71558000Y-75391600D03*
%TO.P,U4,15,PB3*%
%TO.N,/MOSI*%
X72358000Y-75391600D03*
%TO.P,U4,16,PB4*%
%TO.N,/MISO*%
X73158000Y-75391600D03*
D14*
%TO.P,U4,17,PB5*%
%TO.N,/SCK*%
X74528000Y-74021600D03*
%TO.P,U4,18,AVCC*%
%TO.N,/VCC*%
X74528000Y-73221600D03*
%TO.P,U4,19,ADC6*%
%TO.N,unconnected-(U4-ADC6-Pad19)*%
X74528000Y-72421600D03*
%TO.P,U4,20,AREF*%
%TO.N,Net-(U4-AREF)*%
X74528000Y-71621600D03*
%TO.P,U4,21,GND*%
%TO.N,GND*%
X74528000Y-70821600D03*
%TO.P,U4,22,ADC7*%
%TO.N,unconnected-(U4-ADC7-Pad22)*%
X74528000Y-70021600D03*
%TO.P,U4,23,PC0*%
%TO.N,unconnected-(U4-PC0-Pad23)*%
X74528000Y-69221600D03*
%TO.P,U4,24,PC1*%
%TO.N,unconnected-(U4-PC1-Pad24)*%
X74528000Y-68421600D03*
D15*
%TO.P,U4,25,PC2*%
%TO.N,unconnected-(U4-PC2-Pad25)*%
X73158000Y-67051600D03*
%TO.P,U4,26,PC3*%
%TO.N,unconnected-(U4-PC3-Pad26)*%
X72358000Y-67051600D03*
%TO.P,U4,27,PC4*%
%TO.N,/SDA*%
X71558000Y-67051600D03*
%TO.P,U4,28,PC5*%
%TO.N,/SCK*%
X70758000Y-67051600D03*
%TO.P,U4,29,PC6/~{RESET}*%
%TO.N,/RESET*%
X69958000Y-67051600D03*
%TO.P,U4,30,PD0*%
%TO.N,/RX*%
X69158000Y-67051600D03*
%TO.P,U4,31,PD1*%
%TO.N,/TX*%
X68358000Y-67051600D03*
%TO.P,U4,32,PD2*%
%TO.N,/D2*%
X67558000Y-67051600D03*
%TD*%
D10*
%TO.P,D1,1,K*%
%TO.N,Net-(D1-K)*%
X86336900Y-61214000D03*
%TO.P,D1,2,A*%
%TO.N,/SCK*%
X88211900Y-61214000D03*
%TD*%
D16*
%TO.P,C2,1*%
%TO.N,/VCC*%
X79786400Y-80213200D03*
%TO.P,C2,2*%
%TO.N,GND*%
X81686400Y-80213200D03*
%TD*%
D11*
%TO.P,U2,1,A0*%
%TO.N,/VCC*%
X53531000Y-61061600D03*
%TO.P,U2,2,A1*%
%TO.N,GND*%
X53531000Y-62331600D03*
%TO.P,U2,3,A2*%
%TO.N,/VCC*%
X53531000Y-63601600D03*
%TO.P,U2,4,GND*%
%TO.N,GND*%
X53531000Y-64871600D03*
%TO.P,U2,5,SDA*%
%TO.N,/SDA*%
X60706000Y-64871600D03*
%TO.P,U2,6,SCL*%
%TO.N,/SCK*%
X60706000Y-63601600D03*
%TO.P,U2,7,WP*%
%TO.N,GND*%
X60706000Y-62331600D03*
%TO.P,U2,8,VCC*%
%TO.N,/VCC*%
X60706000Y-61061600D03*
%TD*%
D17*
%TO.P,C5,1*%
%TO.N,GND*%
X76591200Y-61264800D03*
%TO.P,C5,2*%
%TO.N,Net-(U4-PB7)*%
X74691200Y-61264800D03*
%TD*%
D18*
%TO.P,R4,1*%
%TO.N,/VCC*%
X79709000Y-72186800D03*
%TO.P,R4,2*%
%TO.N,/SDA*%
X81534000Y-72186800D03*
%TD*%
D12*
%TO.P,J1,1,Pin_1*%
%TO.N,GND*%
X92608400Y-76352400D03*
D13*
%TO.P,J1,2,Pin_2*%
%TO.N,/VCC*%
X92608400Y-78892400D03*
%TO.P,J1,3,Pin_3*%
%TO.N,/SDA*%
X92608400Y-81432400D03*
%TO.P,J1,4,Pin_4*%
%TO.N,/SCK*%
X92608400Y-83972400D03*
%TD*%
D18*
%TO.P,R5,1*%
%TO.N,/VCC*%
X84484200Y-68732400D03*
%TO.P,R5,2*%
%TO.N,/RESET*%
X86309200Y-68732400D03*
%TD*%
D19*
%TO.P,R7,1*%
%TO.N,Net-(D2-K)*%
X81534000Y-65328800D03*
%TO.P,R7,2*%
%TO.N,GND*%
X79709000Y-65328800D03*
%TD*%
D18*
%TO.P,R6,1*%
%TO.N,GND*%
X84482300Y-65430400D03*
%TO.P,R6,2*%
%TO.N,Net-(D1-K)*%
X86307300Y-65430400D03*
%TD*%
D20*
%TO.P,Y1,1,1*%
%TO.N,Net-(U5-X2)*%
X48107600Y-78486000D03*
%TO.P,Y1,2,2*%
%TO.N,Net-(U5-X1)*%
X48107600Y-73286000D03*
%TD*%
D12*
%TO.P,J2,1,Pin_1*%
%TO.N,GND*%
X78181200Y-86969600D03*
D13*
%TO.P,J2,2,Pin_2*%
%TO.N,/VCC*%
X80721200Y-86969600D03*
%TO.P,J2,3,Pin_3*%
%TO.N,/RX*%
X83261200Y-86969600D03*
%TO.P,J2,4,Pin_4*%
%TO.N,/TX*%
X85801200Y-86969600D03*
%TD*%
D12*
%TO.P,BT1,1,+*%
%TO.N,/VCC*%
X48209200Y-65786000D03*
D13*
%TO.P,BT1,2,-*%
%TO.N,GND*%
X48209200Y-68326000D03*
%TD*%
D16*
%TO.P,C4,1*%
%TO.N,GND*%
X79771200Y-77622400D03*
%TO.P,C4,2*%
%TO.N,Net-(U4-PB6)*%
X81671200Y-77622400D03*
%TD*%
D21*
%TO.P,U5,1,X1*%
%TO.N,Net-(U5-X1)*%
X54878200Y-76428600D03*
%TO.P,U5,2,X2*%
%TO.N,Net-(U5-X2)*%
X54878200Y-77698600D03*
%TO.P,U5,3,~{INTA}*%
%TO.N,Net-(U5-~{INTA})*%
X54878200Y-78968600D03*
%TO.P,U5,4,GND*%
%TO.N,GND*%
X54878200Y-80238600D03*
%TO.P,U5,5,SDA*%
%TO.N,/SDA*%
X59828200Y-80238600D03*
%TO.P,U5,6,SCL*%
%TO.N,/SCK*%
X59828200Y-78968600D03*
%TO.P,U5,7,SQW/~INT*%
%TO.N,Net-(U5-SQW{slash}~INT)*%
X59828200Y-77698600D03*
%TO.P,U5,8,VCC*%
%TO.N,/VCC*%
X59828200Y-76428600D03*
%TD*%
D16*
%TO.P,C1,1*%
%TO.N,/VCC*%
X64394000Y-61214000D03*
%TO.P,C1,2*%
%TO.N,GND*%
X66294000Y-61214000D03*
%TD*%
D18*
%TO.P,R2,1*%
%TO.N,/VCC*%
X58574300Y-83413600D03*
%TO.P,R2,2*%
%TO.N,Net-(U5-SQW{slash}~INT)*%
X60399300Y-83413600D03*
%TD*%
D12*
%TO.P,J3,1,Pin_1*%
%TO.N,/D2*%
X52070000Y-87172800D03*
D13*
%TO.P,J3,2,Pin_2*%
%TO.N,/D3*%
X54610000Y-87172800D03*
%TO.P,J3,3,Pin_3*%
%TO.N,/D4*%
X57150000Y-87172800D03*
%TO.P,J3,4,Pin_4*%
%TO.N,/D5*%
X59690000Y-87172800D03*
%TO.P,J3,5,Pin_5*%
%TO.N,/D6*%
X62230000Y-87172800D03*
%TO.P,J3,6,Pin_6*%
%TO.N,/D7*%
X64770000Y-87172800D03*
%TO.P,J3,7,Pin_7*%
%TO.N,/D8*%
X67310000Y-87172800D03*
%TO.P,J3,8,Pin_8*%
%TO.N,GND*%
X69850000Y-87172800D03*
%TO.P,J3,9,Pin_9*%
%TO.N,/VCC*%
X72390000Y-87172800D03*
%TD*%
D16*
%TO.P,C3,1*%
%TO.N,GND*%
X69204800Y-61214000D03*
%TO.P,C3,2*%
%TO.N,Net-(U4-AREF)*%
X71104800Y-61214000D03*
%TD*%
D22*
%TO.P,Y2,1,1*%
%TO.N,Net-(U4-PB7)*%
X72450000Y-80365600D03*
%TO.P,Y2,2,2*%
%TO.N,Net-(U4-PB6)*%
X67250000Y-80365600D03*
%TD*%
D18*
%TO.P,R3,1*%
%TO.N,/VCC*%
X79607400Y-68681600D03*
%TO.P,R3,2*%
%TO.N,/SCK*%
X81432400Y-68681600D03*
%TD*%
D19*
%TO.P,R1,1*%
%TO.N,/VCC*%
X54811300Y-83566000D03*
%TO.P,R1,2*%
%TO.N,Net-(U5-~{INTA})*%
X52986300Y-83566000D03*
%TD*%
D23*
%TO.N,GND*%
X82296000Y-81788000D03*
X73202800Y-70815200D03*
X76708000Y-64770000D03*
X84582000Y-61976000D03*
X58928000Y-70256400D03*
X56540400Y-79705200D03*
X64770000Y-69821600D03*
D24*
%TO.N,/VCC*%
X50698400Y-64465200D03*
X87176707Y-77665387D03*
D23*
X62788613Y-60768000D03*
X67513200Y-68935600D03*
D24*
X51866800Y-67614800D03*
D23*
X76200000Y-73253600D03*
D24*
X80670400Y-74015600D03*
X84785200Y-75528400D03*
D23*
X78536800Y-77317600D03*
X75946000Y-74676000D03*
X70020265Y-68597865D03*
X78079600Y-75539600D03*
D24*
X77825600Y-72542400D03*
D23*
X72136000Y-68529200D03*
%TO.N,Net-(U4-PB6)*%
X77774800Y-82550000D03*
X82854800Y-77927200D03*
%TO.N,Net-(U4-PB7)*%
X74676000Y-63093600D03*
X67716400Y-73202800D03*
%TO.N,/SCK*%
X90101335Y-79773865D03*
X87528400Y-70154800D03*
X88428435Y-67679965D03*
%TO.N,/SDA*%
X69799200Y-64262000D03*
X74472800Y-65836800D03*
X64262000Y-64465200D03*
X83362800Y-72390000D03*
X61569600Y-73406000D03*
X57759600Y-78943200D03*
X81483200Y-70612000D03*
X87579200Y-76860400D03*
%TO.N,/RX*%
X75082400Y-77673200D03*
X69410665Y-69207465D03*
%TO.N,/TX*%
X76047600Y-77470000D03*
X68681600Y-70002400D03*
%TO.N,/D6*%
X68681409Y-77063791D03*
X65379600Y-83413600D03*
%TO.N,/D8*%
X67310000Y-84531200D03*
X70140231Y-77574015D03*
%TO.N,/D5*%
X66801809Y-75184191D03*
X63906400Y-84886800D03*
%TO.N,/D7*%
X69342000Y-77520800D03*
X66040000Y-84531200D03*
%TO.N,/MISO*%
X76911200Y-75590400D03*
X89255600Y-75844400D03*
%TO.N,/RESET*%
X86055200Y-67756000D03*
X67462400Y-64312800D03*
%TD*%
D25*
%TO.N,GND*%
X69850000Y-87172800D02*
X71272400Y-85750400D01*
X53531000Y-64871600D02*
X54152800Y-64871600D01*
X74528000Y-70821600D02*
X73209200Y-70821600D01*
X66188000Y-71621600D02*
X65453000Y-71621600D01*
X64970000Y-70021600D02*
X64770000Y-69821600D01*
X54152800Y-64871600D02*
X56692800Y-62331600D01*
X64770000Y-70938600D02*
X64770000Y-69821600D01*
X84482300Y-65430400D02*
X84482300Y-62075700D01*
X71272400Y-85750400D02*
X76962000Y-85750400D01*
X66188000Y-70021600D02*
X64970000Y-70021600D01*
X48209200Y-68326000D02*
X52171600Y-72288400D01*
X65176400Y-62331600D02*
X66294000Y-61214000D01*
X81686400Y-80213200D02*
X81686400Y-81178400D01*
X76962000Y-85750400D02*
X78181200Y-86969600D01*
X56007000Y-80238600D02*
X56540400Y-79705200D01*
X52171600Y-72288400D02*
X53632600Y-72288400D01*
X73209200Y-70821600D02*
X73202800Y-70815200D01*
X53531000Y-62331600D02*
X56692800Y-62331600D01*
X56692800Y-62331600D02*
X60706000Y-62331600D01*
X60706000Y-62331600D02*
X65176400Y-62331600D01*
X53429400Y-64770000D02*
X53531000Y-64871600D01*
X79191400Y-65846400D02*
X79709000Y-65328800D01*
X54878200Y-80238600D02*
X56007000Y-80238600D01*
X81686400Y-80213200D02*
X79771200Y-78298000D01*
X48717200Y-68326000D02*
X52171600Y-64871600D01*
X60807600Y-69748400D02*
X59436000Y-69748400D01*
X79771200Y-78298000D02*
X79771200Y-77622400D01*
X65453000Y-71621600D02*
X64770000Y-70938600D01*
X52171600Y-64871600D02*
X53531000Y-64871600D01*
X76708000Y-64770000D02*
X77784400Y-65846400D01*
X84482300Y-62075700D02*
X84582000Y-61976000D01*
X76591200Y-62211000D02*
X79709000Y-65328800D01*
X81686400Y-81178400D02*
X82296000Y-81788000D01*
X66294000Y-61214000D02*
X69204800Y-61214000D01*
X59436000Y-69748400D02*
X58928000Y-70256400D01*
X76591200Y-61264800D02*
X76591200Y-62211000D01*
X48209200Y-68326000D02*
X48717200Y-68326000D01*
X77784400Y-65846400D02*
X79191400Y-65846400D01*
D26*
%TO.N,/VCC*%
X87176707Y-80464107D02*
X87176707Y-77665387D01*
X91936000Y-85223400D02*
X87176707Y-80464107D01*
D25*
X82777698Y-66066302D02*
X82397600Y-66446400D01*
X76098400Y-66446400D02*
X76098400Y-72386200D01*
D26*
X83667600Y-74015600D02*
X80670400Y-74015600D01*
X52171600Y-61608501D02*
X52171600Y-63601600D01*
X91421000Y-67329000D02*
X91421000Y-69098182D01*
X94640400Y-80924400D02*
X94640400Y-85445600D01*
D25*
X72990200Y-71466200D02*
X73442000Y-71918000D01*
X82397600Y-66446400D02*
X76098400Y-66446400D01*
D26*
X51562000Y-63601600D02*
X50698400Y-64465200D01*
D25*
X73685978Y-73047600D02*
X74528000Y-73047600D01*
X78536800Y-78963600D02*
X78536800Y-77317600D01*
D26*
X92608400Y-78892400D02*
X93859400Y-80143400D01*
D25*
X75996800Y-74726800D02*
X77266800Y-74726800D01*
D26*
X52718501Y-61061600D02*
X52171600Y-61608501D01*
D25*
X62788613Y-60198000D02*
X62707780Y-60117167D01*
X48209200Y-64840198D02*
X48209200Y-65786000D01*
D26*
X54811300Y-83566000D02*
X58421900Y-83566000D01*
X58574300Y-83413600D02*
X57241400Y-82080700D01*
X58421900Y-83566000D02*
X58574300Y-83413600D01*
X57241400Y-79416364D02*
X57058600Y-79233564D01*
X71139000Y-88423800D02*
X50819000Y-88423800D01*
X53632600Y-69748400D02*
X53632600Y-71018400D01*
X64140000Y-61468000D02*
X64394000Y-61214000D01*
D25*
X73442000Y-72003622D02*
X73459978Y-72021600D01*
D26*
X52769000Y-67614800D02*
X53632600Y-68478400D01*
X77825600Y-72542400D02*
X79353400Y-72542400D01*
X53531000Y-61061600D02*
X52718501Y-61061600D01*
X57058600Y-79233564D02*
X57058600Y-78095160D01*
D25*
X77266800Y-74726800D02*
X78079600Y-75539600D01*
X74560000Y-73253600D02*
X74528000Y-73221600D01*
D26*
X58227000Y-74827400D02*
X58227000Y-69966036D01*
X57058600Y-78095160D02*
X58725160Y-76428600D01*
X79607400Y-72085200D02*
X79709000Y-72186800D01*
X57241400Y-82080700D02*
X57241400Y-79416364D01*
D25*
X62707780Y-60117167D02*
X52932231Y-60117167D01*
X82291400Y-61315600D02*
X82777698Y-61801898D01*
D26*
X82753200Y-89001600D02*
X80721200Y-86969600D01*
X91084400Y-89001600D02*
X82753200Y-89001600D01*
D25*
X67513200Y-68935600D02*
X67513200Y-70093712D01*
D26*
X91421000Y-69098182D02*
X90688182Y-69831000D01*
X53531000Y-61061600D02*
X60706000Y-61061600D01*
D25*
X67457256Y-70149656D02*
X67457256Y-70821600D01*
X62788613Y-60768000D02*
X62788613Y-60198000D01*
X72933146Y-71466200D02*
X72990200Y-71466200D01*
X67457256Y-70821600D02*
X66188000Y-70821600D01*
D26*
X72390000Y-87172800D02*
X71139000Y-88423800D01*
D25*
X73442000Y-72039578D02*
X73442000Y-72803622D01*
D26*
X89589520Y-69831000D02*
X86814520Y-67056000D01*
D25*
X72136000Y-68529200D02*
X72136000Y-70612000D01*
X82777698Y-61801898D02*
X82777698Y-66066302D01*
D26*
X53531000Y-63601600D02*
X51562000Y-63601600D01*
X72390000Y-87172800D02*
X74168000Y-88950800D01*
X78740000Y-88950800D02*
X80721200Y-86969600D01*
X84484200Y-67458600D02*
X84484200Y-68732400D01*
X52171600Y-63601600D02*
X53531000Y-63601600D01*
X93859400Y-80143400D02*
X93859400Y-84490582D01*
X79607400Y-68681600D02*
X79607400Y-72085200D01*
D25*
X52932231Y-60117167D02*
X48209200Y-64840198D01*
D26*
X84785200Y-75133200D02*
X83667600Y-74015600D01*
X60706000Y-61061600D02*
X61112400Y-61468000D01*
D25*
X72551800Y-71084854D02*
X72933146Y-71466200D01*
D26*
X94640400Y-85445600D02*
X91084400Y-89001600D01*
D25*
X76098400Y-72386200D02*
X75263000Y-73221600D01*
D26*
X83332400Y-67580600D02*
X80708400Y-67580600D01*
X50819000Y-88423800D02*
X50819000Y-86087000D01*
X52239000Y-84667000D02*
X53710300Y-84667000D01*
X50819000Y-86087000D02*
X52239000Y-84667000D01*
X93126582Y-85223400D02*
X91936000Y-85223400D01*
X84785200Y-75528400D02*
X84785200Y-75133200D01*
X51866800Y-67614800D02*
X52769000Y-67614800D01*
X74168000Y-88950800D02*
X78740000Y-88950800D01*
D25*
X73442000Y-71918000D02*
X73442000Y-72003622D01*
X74528000Y-73047600D02*
X74528000Y-73221600D01*
D26*
X53632600Y-68478400D02*
X60807600Y-68478400D01*
X84886800Y-67056000D02*
X84484200Y-67458600D01*
D25*
X75946000Y-74676000D02*
X75996800Y-74726800D01*
D26*
X61112400Y-61468000D02*
X64140000Y-61468000D01*
X58725160Y-76428600D02*
X59828200Y-76428600D01*
X53710300Y-84667000D02*
X54811300Y-83566000D01*
X84484200Y-68732400D02*
X83332400Y-67580600D01*
D25*
X67513200Y-70093712D02*
X67457256Y-70149656D01*
D26*
X92710000Y-66040000D02*
X91421000Y-67329000D01*
X80708400Y-67580600D02*
X79607400Y-68681600D01*
D25*
X72551800Y-71027800D02*
X72551800Y-71084854D01*
D26*
X92608400Y-78892400D02*
X94640400Y-80924400D01*
X86814520Y-67056000D02*
X84886800Y-67056000D01*
X79353400Y-72542400D02*
X79709000Y-72186800D01*
X53632600Y-68478400D02*
X53632600Y-69748400D01*
X59828200Y-76428600D02*
X58227000Y-74827400D01*
X90688182Y-69831000D02*
X89589520Y-69831000D01*
D25*
X73442000Y-72803622D02*
X73685978Y-73047600D01*
X75263000Y-73221600D02*
X74528000Y-73221600D01*
X76200000Y-73253600D02*
X74560000Y-73253600D01*
X73459978Y-72021600D02*
X73442000Y-72039578D01*
D26*
X59714636Y-68478400D02*
X60807600Y-68478400D01*
D25*
X72136000Y-70612000D02*
X72551800Y-71027800D01*
D26*
X58227000Y-69966036D02*
X59714636Y-68478400D01*
X93859400Y-84490582D02*
X93126582Y-85223400D01*
D25*
X79786400Y-80213200D02*
X78536800Y-78963600D01*
%TO.N,Net-(U4-AREF)*%
X71104800Y-61214000D02*
X75564000Y-65673200D01*
X75564000Y-71262400D02*
X75204800Y-71621600D01*
X75564000Y-65673200D02*
X75564000Y-71262400D01*
X75204800Y-71621600D02*
X74528000Y-71621600D01*
%TO.N,Net-(U4-PB6)*%
X64465200Y-77580800D02*
X64465200Y-74004400D01*
X67250000Y-80365600D02*
X64465200Y-77580800D01*
X65248000Y-73221600D02*
X66188000Y-73221600D01*
X82854800Y-77927200D02*
X81976000Y-77927200D01*
X67250000Y-80365600D02*
X69434400Y-82550000D01*
X64465200Y-74004400D02*
X65248000Y-73221600D01*
X81976000Y-77927200D02*
X81671200Y-77622400D01*
X69434400Y-82550000D02*
X77774800Y-82550000D01*
%TO.N,Net-(U4-PB7)*%
X66188000Y-75418912D02*
X66188000Y-74021600D01*
X67716400Y-73202800D02*
X66897600Y-74021600D01*
X72450000Y-80365600D02*
X71134688Y-80365600D01*
X74691200Y-63078400D02*
X74676000Y-63093600D01*
X71134688Y-80365600D02*
X66188000Y-75418912D01*
X74691200Y-61264800D02*
X74691200Y-63078400D01*
X66897600Y-74021600D02*
X66188000Y-74021600D01*
%TO.N,/SCK*%
X88211900Y-61214000D02*
X88211900Y-66621900D01*
X70758000Y-67051600D02*
X70758000Y-66454288D01*
X71374000Y-68341600D02*
X71374000Y-71673456D01*
X82905600Y-70154800D02*
X87528400Y-70154800D01*
X81432400Y-68681600D02*
X80572500Y-69541500D01*
X59592500Y-65720098D02*
X61971100Y-68098698D01*
X58787680Y-77074600D02*
X60917432Y-77074600D01*
X60706000Y-63601600D02*
X60503510Y-63601600D01*
X73722144Y-74021600D02*
X74528000Y-74021600D01*
X89269965Y-67679965D02*
X90170000Y-68580000D01*
X61971100Y-70667399D02*
X61620099Y-71018400D01*
X70982000Y-67949600D02*
X71374000Y-68341600D01*
X88428435Y-67679965D02*
X89269965Y-67679965D01*
X70758000Y-67051600D02*
X70982000Y-67275600D01*
X81432400Y-68681600D02*
X82905600Y-70154800D01*
X67905312Y-63601600D02*
X60706000Y-63601600D01*
X90101335Y-81465335D02*
X90101335Y-79773865D01*
X61620099Y-71018400D02*
X60807600Y-71018400D01*
X70758000Y-66454288D02*
X67905312Y-63601600D01*
X92608400Y-83972400D02*
X90101335Y-81465335D01*
X59694100Y-72647390D02*
X59694100Y-71929410D01*
X59694100Y-71929410D02*
X60605110Y-71018400D01*
X59828200Y-78968600D02*
X58843200Y-78968600D01*
X60605110Y-71018400D02*
X60807600Y-71018400D01*
X59592500Y-64512610D02*
X59592500Y-65720098D01*
X88211900Y-66621900D02*
X90170000Y-68580000D01*
X61971100Y-68098698D02*
X61971100Y-70667399D01*
X60917432Y-77074600D02*
X61164200Y-76827832D01*
X58521600Y-77340680D02*
X58787680Y-77074600D01*
X80572500Y-69541500D02*
X80572500Y-72892670D01*
X70982000Y-67275600D02*
X70982000Y-67949600D01*
X71374000Y-71673456D02*
X73722144Y-74021600D01*
X79443570Y-74021600D02*
X74528000Y-74021600D01*
X61164200Y-74117490D02*
X59694100Y-72647390D01*
X61164200Y-76827832D02*
X61164200Y-74117490D01*
X80572500Y-72892670D02*
X79443570Y-74021600D01*
X60503510Y-63601600D02*
X59592500Y-64512610D01*
X58843200Y-78968600D02*
X58521600Y-78647000D01*
X58521600Y-78647000D02*
X58521600Y-77340680D01*
%TO.N,Net-(D1-K)*%
X86336900Y-65400800D02*
X86307300Y-65430400D01*
X86336900Y-61214000D02*
X86336900Y-65400800D01*
%TO.N,Net-(D2-K)*%
X80416400Y-61315600D02*
X80416400Y-64211200D01*
X80416400Y-64211200D02*
X81534000Y-65328800D01*
%TO.N,/SDA*%
X92608400Y-81432400D02*
X88036400Y-76860400D01*
X81737200Y-72390000D02*
X81534000Y-72186800D01*
X61569600Y-73050400D02*
X60807600Y-72288400D01*
X83362800Y-72390000D02*
X81737200Y-72390000D01*
X81483200Y-72136000D02*
X81534000Y-72186800D01*
X63550800Y-64871600D02*
X60706000Y-64871600D01*
X71558000Y-66020800D02*
X69799200Y-64262000D01*
X71558000Y-66454288D02*
X72175488Y-65836800D01*
X81483200Y-70612000D02*
X81483200Y-72136000D01*
X62372100Y-66537700D02*
X62372100Y-71536399D01*
X71558000Y-67051600D02*
X71558000Y-66454288D01*
X64262000Y-64465200D02*
X63957200Y-64465200D01*
X61620099Y-72288400D02*
X60807600Y-72288400D01*
X71558000Y-67051600D02*
X71558000Y-66020800D01*
X62372100Y-71536399D02*
X61620099Y-72288400D01*
X59828200Y-80238600D02*
X59055000Y-80238600D01*
X59055000Y-80238600D02*
X57759600Y-78943200D01*
X61569600Y-73406000D02*
X61569600Y-73050400D01*
X60706000Y-64871600D02*
X62372100Y-66537700D01*
X63957200Y-64465200D02*
X63550800Y-64871600D01*
X72175488Y-65836800D02*
X74472800Y-65836800D01*
X88036400Y-76860400D02*
X87579200Y-76860400D01*
%TO.N,/RX*%
X69158000Y-68954800D02*
X69158000Y-67051600D01*
X75082400Y-78790800D02*
X75082400Y-77673200D01*
X83261200Y-86969600D02*
X75082400Y-78790800D01*
X69410665Y-69207465D02*
X69158000Y-68954800D01*
%TO.N,/TX*%
X85801200Y-86969600D02*
X84963000Y-86969600D01*
X68358000Y-69678800D02*
X68358000Y-67051600D01*
X68681600Y-70002400D02*
X68358000Y-69678800D01*
X84963000Y-86969600D02*
X76047600Y-78054200D01*
X76047600Y-78054200D02*
X76047600Y-77470000D01*
%TO.N,/D6*%
X62230000Y-87172800D02*
X62746300Y-87172800D01*
X68681409Y-77063791D02*
X68358000Y-76740382D01*
X65379600Y-84539500D02*
X65379600Y-83413600D01*
X68358000Y-76740382D02*
X68358000Y-75391600D01*
X62746300Y-87172800D02*
X65379600Y-84539500D01*
%TO.N,/D8*%
X70140231Y-77574015D02*
X69958000Y-77391784D01*
X67310000Y-87172800D02*
X67310000Y-84531200D01*
X69958000Y-77391784D02*
X69958000Y-75391600D01*
%TO.N,/D2*%
X61767370Y-84683600D02*
X62992000Y-83458970D01*
X62992000Y-68021200D02*
X63961600Y-67051600D01*
X62992000Y-83458970D02*
X62992000Y-68021200D01*
X63961600Y-67051600D02*
X67558000Y-67051600D01*
X54559200Y-84683600D02*
X61767370Y-84683600D01*
X52070000Y-87172800D02*
X54559200Y-84683600D01*
%TO.N,/D3*%
X63393000Y-83625070D02*
X63393000Y-69245800D01*
X63393000Y-69245800D02*
X64217200Y-68421600D01*
X54610000Y-87172800D02*
X56698200Y-85084600D01*
X56698200Y-85084600D02*
X61933470Y-85084600D01*
X64217200Y-68421600D02*
X66188000Y-68421600D01*
X61933470Y-85084600D02*
X63393000Y-83625070D01*
%TO.N,/D4*%
X58837200Y-85485600D02*
X62099570Y-85485600D01*
X63855600Y-83729570D02*
X63855600Y-69596000D01*
X57150000Y-87172800D02*
X58837200Y-85485600D01*
X62099570Y-85485600D02*
X63855600Y-83729570D01*
X64230000Y-69221600D02*
X66188000Y-69221600D01*
X63855600Y-69596000D02*
X64230000Y-69221600D01*
%TO.N,/D5*%
X67350591Y-75184191D02*
X67558000Y-75391600D01*
X62771400Y-86021800D02*
X63906400Y-84886800D01*
X60841000Y-86021800D02*
X62771400Y-86021800D01*
X66801809Y-75184191D02*
X67350591Y-75184191D01*
X59690000Y-87172800D02*
X60841000Y-86021800D01*
%TO.N,/D7*%
X69158000Y-76473200D02*
X69158000Y-75391600D01*
X66040000Y-85902800D02*
X66040000Y-84531200D01*
X69342000Y-77520800D02*
X69342000Y-76657200D01*
X64770000Y-87172800D02*
X66040000Y-85902800D01*
X69342000Y-76657200D02*
X69158000Y-76473200D01*
%TO.N,/MOSI*%
X91559000Y-69731000D02*
X91559000Y-71358760D01*
X72358000Y-75988912D02*
X72358000Y-75391600D01*
X92710000Y-68580000D02*
X91559000Y-69731000D01*
X91559000Y-71358760D02*
X86362160Y-76555600D01*
X72924688Y-76555600D02*
X72358000Y-75988912D01*
X86362160Y-76555600D02*
X72924688Y-76555600D01*
%TO.N,/MISO*%
X76911200Y-75590400D02*
X76712400Y-75391600D01*
X93911000Y-71546760D02*
X89613360Y-75844400D01*
X89613360Y-75844400D02*
X89255600Y-75844400D01*
X93207471Y-64839000D02*
X93911000Y-65542529D01*
X90170000Y-66040000D02*
X91371000Y-64839000D01*
X91371000Y-64839000D02*
X93207471Y-64839000D01*
X93911000Y-65542529D02*
X93911000Y-71546760D01*
X76712400Y-75391600D02*
X73158000Y-75391600D01*
%TO.N,/RESET*%
X69958000Y-67051600D02*
X69958000Y-66454288D01*
X86055200Y-67756000D02*
X86055200Y-68478400D01*
X87782400Y-68732400D02*
X90170000Y-71120000D01*
X86309200Y-68732400D02*
X87782400Y-68732400D01*
X69958000Y-66454288D02*
X67816512Y-64312800D01*
X86055200Y-68478400D02*
X86309200Y-68732400D01*
X67816512Y-64312800D02*
X67462400Y-64312800D01*
%TO.N,Net-(U5-~{INTA})*%
X53893200Y-78968600D02*
X52986300Y-79875500D01*
X52986300Y-79875500D02*
X52986300Y-83566000D01*
X54878200Y-78968600D02*
X53893200Y-78968600D01*
%TO.N,Net-(U5-SQW{slash}~INT)*%
X60813200Y-77698600D02*
X61114200Y-77999600D01*
X59828200Y-77698600D02*
X60813200Y-77698600D01*
X61114200Y-77999600D02*
X61114200Y-82698700D01*
X61114200Y-82698700D02*
X60399300Y-83413600D01*
%TO.N,Net-(U5-X1)*%
X51735600Y-73286000D02*
X54878200Y-76428600D01*
X48107600Y-73286000D02*
X51735600Y-73286000D01*
%TO.N,Net-(U5-X2)*%
X48107600Y-78486000D02*
X48895000Y-77698600D01*
X48895000Y-77698600D02*
X54878200Y-77698600D01*
%TD*%
%TA.AperFunction,Conductor*%
%TO.N,/VCC*%
G36*
X92937468Y-59841209D02*
G01*
X92983358Y-59893896D01*
X92989324Y-59909592D01*
X93263299Y-60809797D01*
X93573961Y-61830542D01*
X94879500Y-61830542D01*
X94946539Y-61850227D01*
X94992294Y-61903031D01*
X95003500Y-61954542D01*
X95003500Y-86561492D01*
X94983815Y-86628531D01*
X94952316Y-86661860D01*
X92557962Y-88398940D01*
X92557961Y-88398943D01*
X92557961Y-89037500D01*
X92538276Y-89104539D01*
X92485472Y-89150294D01*
X92433961Y-89161500D01*
X48984564Y-89161500D01*
X48917525Y-89141815D01*
X48905630Y-89133132D01*
X46265566Y-86954031D01*
X46226394Y-86896174D01*
X46220500Y-86858399D01*
X46220500Y-86283154D01*
X47218500Y-86283154D01*
X47568079Y-86571696D01*
X47970500Y-86571696D01*
X48968500Y-86571696D01*
X49721500Y-86571696D01*
X49721500Y-86261552D01*
X49721545Y-86258228D01*
X49722084Y-86238127D01*
X49722217Y-86234807D01*
X49723649Y-86208120D01*
X49723871Y-86204811D01*
X49725481Y-86184818D01*
X49725792Y-86181515D01*
X49736962Y-86077625D01*
X49738029Y-86069957D01*
X49745936Y-86023771D01*
X49747481Y-86016181D01*
X49761826Y-85955470D01*
X49763842Y-85947991D01*
X49777450Y-85903128D01*
X49779929Y-85895788D01*
X49853587Y-85698298D01*
X49856975Y-85690118D01*
X49879233Y-85641381D01*
X49883195Y-85633467D01*
X49917372Y-85570877D01*
X49921890Y-85563263D01*
X49950854Y-85518196D01*
X49955902Y-85510926D01*
X50084886Y-85338627D01*
X50090439Y-85331736D01*
X50125519Y-85291251D01*
X50131551Y-85284772D01*
X50181972Y-85234351D01*
X50188451Y-85228319D01*
X50228936Y-85193239D01*
X50235827Y-85187686D01*
X50393440Y-85069696D01*
X48968500Y-85069696D01*
X48968500Y-86571696D01*
X47970500Y-86571696D01*
X47970500Y-85069696D01*
X47218500Y-85069696D01*
X47218500Y-86283154D01*
X46220500Y-86283154D01*
X46220500Y-84071696D01*
X47218500Y-84071696D01*
X47970500Y-84071696D01*
X48968500Y-84071696D01*
X50470500Y-84071696D01*
X50470500Y-82569696D01*
X48968500Y-82569696D01*
X48968500Y-84071696D01*
X47970500Y-84071696D01*
X47970500Y-82569696D01*
X47218500Y-82569696D01*
X47218500Y-84071696D01*
X46220500Y-84071696D01*
X46220500Y-80513294D01*
X46240185Y-80446255D01*
X46292989Y-80400500D01*
X46362147Y-80390556D01*
X46425703Y-80419581D01*
X46460682Y-80469962D01*
X46463801Y-80478326D01*
X46463806Y-80478335D01*
X46550052Y-80593544D01*
X46550055Y-80593547D01*
X46665264Y-80679793D01*
X46665271Y-80679797D01*
X46800117Y-80730091D01*
X46800116Y-80730091D01*
X46807044Y-80730835D01*
X46859727Y-80736500D01*
X49355472Y-80736499D01*
X49415083Y-80730091D01*
X49549931Y-80679796D01*
X49665146Y-80593546D01*
X49751396Y-80478331D01*
X49801691Y-80343483D01*
X49808100Y-80283873D01*
X49808099Y-78423099D01*
X49827784Y-78356061D01*
X49880587Y-78310306D01*
X49932099Y-78299100D01*
X53345479Y-78299100D01*
X53412518Y-78318785D01*
X53458273Y-78371589D01*
X53468217Y-78440747D01*
X53460041Y-78470548D01*
X53441919Y-78514301D01*
X53411515Y-78587701D01*
X53384635Y-78627928D01*
X52617586Y-79394978D01*
X52505781Y-79506782D01*
X52505775Y-79506790D01*
X52472176Y-79564987D01*
X52472176Y-79564989D01*
X52426723Y-79643714D01*
X52426723Y-79643715D01*
X52385799Y-79796443D01*
X52385799Y-79796445D01*
X52385799Y-79964546D01*
X52385800Y-79964559D01*
X52385800Y-82373491D01*
X52366115Y-82440530D01*
X52326898Y-82479029D01*
X52255144Y-82523287D01*
X52131089Y-82647342D01*
X52038987Y-82796663D01*
X52038985Y-82796668D01*
X52011149Y-82880670D01*
X51983801Y-82963203D01*
X51983801Y-82963204D01*
X51983800Y-82963204D01*
X51973300Y-83065983D01*
X51973300Y-84066001D01*
X51973301Y-84066019D01*
X51983800Y-84168796D01*
X51983801Y-84168799D01*
X52032210Y-84314886D01*
X52038986Y-84335334D01*
X52131088Y-84484656D01*
X52255144Y-84608712D01*
X52404466Y-84700814D01*
X52571003Y-84755999D01*
X52673791Y-84766500D01*
X53298808Y-84766499D01*
X53317668Y-84764572D01*
X53386359Y-84777340D01*
X53437244Y-84825220D01*
X53454166Y-84893010D01*
X53431752Y-84959186D01*
X53417951Y-84975611D01*
X52607582Y-85785981D01*
X52546259Y-85819466D01*
X52519901Y-85822300D01*
X51172129Y-85822300D01*
X51172123Y-85822301D01*
X51112516Y-85828708D01*
X50977671Y-85879002D01*
X50977664Y-85879006D01*
X50862455Y-85965252D01*
X50862452Y-85965255D01*
X50776206Y-86080464D01*
X50776202Y-86080471D01*
X50725908Y-86215317D01*
X50719501Y-86274916D01*
X50719500Y-86274935D01*
X50719500Y-88070670D01*
X50719501Y-88070676D01*
X50725908Y-88130283D01*
X50776202Y-88265128D01*
X50776206Y-88265135D01*
X50862452Y-88380344D01*
X50862455Y-88380347D01*
X50977664Y-88466593D01*
X50977671Y-88466597D01*
X51112517Y-88516891D01*
X51112516Y-88516891D01*
X51119444Y-88517635D01*
X51172127Y-88523300D01*
X52967872Y-88523299D01*
X53027483Y-88516891D01*
X53162331Y-88466596D01*
X53277546Y-88380346D01*
X53363796Y-88265131D01*
X53412810Y-88133716D01*
X53454681Y-88077784D01*
X53520145Y-88053366D01*
X53588418Y-88068217D01*
X53616673Y-88089369D01*
X53730213Y-88202909D01*
X53902179Y-88327848D01*
X53902181Y-88327849D01*
X53902184Y-88327851D01*
X54091588Y-88424357D01*
X54293757Y-88490046D01*
X54503713Y-88523300D01*
X54503714Y-88523300D01*
X54716286Y-88523300D01*
X54716287Y-88523300D01*
X54926243Y-88490046D01*
X55128412Y-88424357D01*
X55317816Y-88327851D01*
X55404138Y-88265135D01*
X55489786Y-88202909D01*
X55489788Y-88202906D01*
X55489792Y-88202904D01*
X55640104Y-88052592D01*
X55640106Y-88052588D01*
X55640109Y-88052586D01*
X55765048Y-87880620D01*
X55765047Y-87880620D01*
X55765051Y-87880616D01*
X55769514Y-87871854D01*
X55817488Y-87821059D01*
X55885308Y-87804263D01*
X55951444Y-87826799D01*
X55990486Y-87871856D01*
X55994951Y-87880620D01*
X56119890Y-88052586D01*
X56270213Y-88202909D01*
X56442179Y-88327848D01*
X56442181Y-88327849D01*
X56442184Y-88327851D01*
X56631588Y-88424357D01*
X56833757Y-88490046D01*
X57043713Y-88523300D01*
X57043714Y-88523300D01*
X57256286Y-88523300D01*
X57256287Y-88523300D01*
X57466243Y-88490046D01*
X57668412Y-88424357D01*
X57857816Y-88327851D01*
X57944138Y-88265135D01*
X58029786Y-88202909D01*
X58029788Y-88202906D01*
X58029792Y-88202904D01*
X58180104Y-88052592D01*
X58180106Y-88052588D01*
X58180109Y-88052586D01*
X58305048Y-87880620D01*
X58305047Y-87880620D01*
X58305051Y-87880616D01*
X58309514Y-87871854D01*
X58357488Y-87821059D01*
X58425308Y-87804263D01*
X58491444Y-87826799D01*
X58530486Y-87871856D01*
X58534951Y-87880620D01*
X58659890Y-88052586D01*
X58810213Y-88202909D01*
X58982179Y-88327848D01*
X58982181Y-88327849D01*
X58982184Y-88327851D01*
X59171588Y-88424357D01*
X59373757Y-88490046D01*
X59583713Y-88523300D01*
X59583714Y-88523300D01*
X59796286Y-88523300D01*
X59796287Y-88523300D01*
X60006243Y-88490046D01*
X60208412Y-88424357D01*
X60397816Y-88327851D01*
X60484138Y-88265135D01*
X60569786Y-88202909D01*
X60569788Y-88202906D01*
X60569792Y-88202904D01*
X60720104Y-88052592D01*
X60720106Y-88052588D01*
X60720109Y-88052586D01*
X60845048Y-87880620D01*
X60845047Y-87880620D01*
X60845051Y-87880616D01*
X60849514Y-87871854D01*
X60897488Y-87821059D01*
X60965308Y-87804263D01*
X61031444Y-87826799D01*
X61070486Y-87871856D01*
X61074951Y-87880620D01*
X61199890Y-88052586D01*
X61350213Y-88202909D01*
X61522179Y-88327848D01*
X61522181Y-88327849D01*
X61522184Y-88327851D01*
X61711588Y-88424357D01*
X61913757Y-88490046D01*
X62123713Y-88523300D01*
X62123714Y-88523300D01*
X62336286Y-88523300D01*
X62336287Y-88523300D01*
X62546243Y-88490046D01*
X62748412Y-88424357D01*
X62937816Y-88327851D01*
X63024138Y-88265135D01*
X63109786Y-88202909D01*
X63109788Y-88202906D01*
X63109792Y-88202904D01*
X63260104Y-88052592D01*
X63260106Y-88052588D01*
X63260109Y-88052586D01*
X63385048Y-87880620D01*
X63385047Y-87880620D01*
X63385051Y-87880616D01*
X63389514Y-87871854D01*
X63437488Y-87821059D01*
X63505308Y-87804263D01*
X63571444Y-87826799D01*
X63610486Y-87871856D01*
X63614951Y-87880620D01*
X63739890Y-88052586D01*
X63890213Y-88202909D01*
X64062179Y-88327848D01*
X64062181Y-88327849D01*
X64062184Y-88327851D01*
X64251588Y-88424357D01*
X64453757Y-88490046D01*
X64663713Y-88523300D01*
X64663714Y-88523300D01*
X64876286Y-88523300D01*
X64876287Y-88523300D01*
X65086243Y-88490046D01*
X65288412Y-88424357D01*
X65477816Y-88327851D01*
X65564138Y-88265135D01*
X65649786Y-88202909D01*
X65649788Y-88202906D01*
X65649792Y-88202904D01*
X65800104Y-88052592D01*
X65800106Y-88052588D01*
X65800109Y-88052586D01*
X65925048Y-87880620D01*
X65925047Y-87880620D01*
X65925051Y-87880616D01*
X65929514Y-87871854D01*
X65977488Y-87821059D01*
X66045308Y-87804263D01*
X66111444Y-87826799D01*
X66150486Y-87871856D01*
X66154951Y-87880620D01*
X66279890Y-88052586D01*
X66430213Y-88202909D01*
X66602179Y-88327848D01*
X66602181Y-88327849D01*
X66602184Y-88327851D01*
X66791588Y-88424357D01*
X66993757Y-88490046D01*
X67203713Y-88523300D01*
X67203714Y-88523300D01*
X67416286Y-88523300D01*
X67416287Y-88523300D01*
X67626243Y-88490046D01*
X67828412Y-88424357D01*
X68017816Y-88327851D01*
X68104138Y-88265135D01*
X68189786Y-88202909D01*
X68189788Y-88202906D01*
X68189792Y-88202904D01*
X68340104Y-88052592D01*
X68340106Y-88052588D01*
X68340109Y-88052586D01*
X68465048Y-87880620D01*
X68465047Y-87880620D01*
X68465051Y-87880616D01*
X68469514Y-87871854D01*
X68517488Y-87821059D01*
X68585308Y-87804263D01*
X68651444Y-87826799D01*
X68690486Y-87871856D01*
X68694951Y-87880620D01*
X68819890Y-88052586D01*
X68970213Y-88202909D01*
X69142179Y-88327848D01*
X69142181Y-88327849D01*
X69142184Y-88327851D01*
X69331588Y-88424357D01*
X69533757Y-88490046D01*
X69743713Y-88523300D01*
X69743714Y-88523300D01*
X69956286Y-88523300D01*
X69956287Y-88523300D01*
X70166243Y-88490046D01*
X70368412Y-88424357D01*
X70557816Y-88327851D01*
X70644138Y-88265135D01*
X70729786Y-88202909D01*
X70729788Y-88202906D01*
X70729792Y-88202904D01*
X70880104Y-88052592D01*
X70880106Y-88052588D01*
X70880109Y-88052586D01*
X70947515Y-87959807D01*
X71005051Y-87880616D01*
X71009793Y-87871308D01*
X71057763Y-87820511D01*
X71125583Y-87803711D01*
X71191719Y-87826245D01*
X71230763Y-87871300D01*
X71235373Y-87880347D01*
X71274728Y-87934516D01*
X71907036Y-87302207D01*
X71924075Y-87365793D01*
X71989901Y-87479807D01*
X72082993Y-87572899D01*
X72197007Y-87638725D01*
X72260590Y-87655762D01*
X71628282Y-88288069D01*
X71628282Y-88288070D01*
X71682449Y-88327424D01*
X71871782Y-88423895D01*
X72073870Y-88489557D01*
X72283754Y-88522800D01*
X72496246Y-88522800D01*
X72706127Y-88489557D01*
X72706130Y-88489557D01*
X72908217Y-88423895D01*
X73097554Y-88327422D01*
X73151716Y-88288070D01*
X73151717Y-88288070D01*
X73027147Y-88163500D01*
X74520435Y-88163500D01*
X75470500Y-88163500D01*
X75470500Y-87569696D01*
X74704405Y-87569696D01*
X74689406Y-87664394D01*
X74688551Y-87669181D01*
X74682811Y-87698044D01*
X74681769Y-87702796D01*
X74672621Y-87740913D01*
X74671391Y-87745629D01*
X74663389Y-87774006D01*
X74661974Y-87778670D01*
X74584191Y-88018063D01*
X74582595Y-88022664D01*
X74572396Y-88050309D01*
X74570621Y-88054845D01*
X74555619Y-88091061D01*
X74553669Y-88095519D01*
X74541340Y-88122263D01*
X74539214Y-88126645D01*
X74520435Y-88163500D01*
X73027147Y-88163500D01*
X72519408Y-87655762D01*
X72582993Y-87638725D01*
X72697007Y-87572899D01*
X72790099Y-87479807D01*
X72855925Y-87365793D01*
X72872962Y-87302209D01*
X73505270Y-87934517D01*
X73505270Y-87934516D01*
X73544622Y-87880354D01*
X73641095Y-87691017D01*
X73706757Y-87488930D01*
X73706757Y-87488927D01*
X73740000Y-87279046D01*
X73740000Y-87066553D01*
X73706757Y-86856672D01*
X73706757Y-86856669D01*
X73641095Y-86654582D01*
X73578226Y-86531195D01*
X73565330Y-86462526D01*
X73591606Y-86397785D01*
X73648713Y-86357528D01*
X73688711Y-86350900D01*
X76661903Y-86350900D01*
X76728942Y-86370585D01*
X76749584Y-86387219D01*
X76794381Y-86432016D01*
X76827866Y-86493339D01*
X76830700Y-86519697D01*
X76830700Y-87867470D01*
X76830701Y-87867476D01*
X76837108Y-87927083D01*
X76887402Y-88061928D01*
X76887406Y-88061935D01*
X76973652Y-88177144D01*
X76973655Y-88177147D01*
X77088864Y-88263393D01*
X77088871Y-88263397D01*
X77223717Y-88313691D01*
X77223716Y-88313691D01*
X77230644Y-88314435D01*
X77283327Y-88320100D01*
X79079072Y-88320099D01*
X79138683Y-88313691D01*
X79273531Y-88263396D01*
X79388746Y-88177146D01*
X79474996Y-88061931D01*
X79525291Y-87927083D01*
X79531700Y-87867473D01*
X79531699Y-87856912D01*
X79551379Y-87789875D01*
X79568018Y-87769226D01*
X80238237Y-87099008D01*
X80255275Y-87162593D01*
X80321101Y-87276607D01*
X80414193Y-87369699D01*
X80528207Y-87435525D01*
X80591790Y-87452562D01*
X79959482Y-88084869D01*
X79959482Y-88084870D01*
X80013649Y-88124224D01*
X80202982Y-88220695D01*
X80405070Y-88286357D01*
X80614954Y-88319600D01*
X80827446Y-88319600D01*
X81037327Y-88286357D01*
X81037330Y-88286357D01*
X81239417Y-88220695D01*
X81428754Y-88124222D01*
X81482916Y-88084870D01*
X81482917Y-88084870D01*
X80850608Y-87452562D01*
X80914193Y-87435525D01*
X81028207Y-87369699D01*
X81121299Y-87276607D01*
X81187125Y-87162593D01*
X81204162Y-87099008D01*
X81836470Y-87731317D01*
X81836470Y-87731316D01*
X81875822Y-87677155D01*
X81880432Y-87668107D01*
X81928405Y-87617309D01*
X81996225Y-87600512D01*
X82062361Y-87623047D01*
X82101404Y-87668104D01*
X82106149Y-87677417D01*
X82231090Y-87849386D01*
X82381413Y-87999709D01*
X82553379Y-88124648D01*
X82553381Y-88124649D01*
X82553384Y-88124651D01*
X82742788Y-88221157D01*
X82944957Y-88286846D01*
X83154913Y-88320100D01*
X83154914Y-88320100D01*
X83367486Y-88320100D01*
X83367487Y-88320100D01*
X83577443Y-88286846D01*
X83779612Y-88221157D01*
X83969016Y-88124651D01*
X84023772Y-88084869D01*
X84140986Y-87999709D01*
X84140988Y-87999706D01*
X84140992Y-87999704D01*
X84291304Y-87849392D01*
X84291306Y-87849388D01*
X84291309Y-87849386D01*
X84416248Y-87677420D01*
X84416250Y-87677417D01*
X84416251Y-87677416D01*
X84420714Y-87668654D01*
X84468688Y-87617859D01*
X84536508Y-87601063D01*
X84602644Y-87623599D01*
X84641684Y-87668654D01*
X84643797Y-87672800D01*
X84646151Y-87677420D01*
X84771090Y-87849386D01*
X84921413Y-87999709D01*
X85093379Y-88124648D01*
X85093381Y-88124649D01*
X85093384Y-88124651D01*
X85282788Y-88221157D01*
X85484957Y-88286846D01*
X85694913Y-88320100D01*
X85694914Y-88320100D01*
X85907486Y-88320100D01*
X85907487Y-88320100D01*
X86117443Y-88286846D01*
X86319612Y-88221157D01*
X86432770Y-88163500D01*
X88968500Y-88163500D01*
X90470500Y-88163500D01*
X90470500Y-87569696D01*
X88968500Y-87569696D01*
X88968500Y-88163500D01*
X86432770Y-88163500D01*
X86509016Y-88124651D01*
X86563772Y-88084869D01*
X86680986Y-87999709D01*
X86680988Y-87999706D01*
X86680992Y-87999704D01*
X86831304Y-87849392D01*
X86831306Y-87849388D01*
X86831309Y-87849386D01*
X86956248Y-87677420D01*
X86956250Y-87677417D01*
X86956251Y-87677416D01*
X87052757Y-87488012D01*
X87118446Y-87285843D01*
X87151700Y-87075887D01*
X87151700Y-86863313D01*
X87118446Y-86653357D01*
X87091913Y-86571696D01*
X88968500Y-86571696D01*
X90470500Y-86571696D01*
X91468500Y-86571696D01*
X92970500Y-86571696D01*
X92970500Y-86292822D01*
X92851459Y-86311677D01*
X92846636Y-86312344D01*
X92817403Y-86315804D01*
X92812565Y-86316281D01*
X92773486Y-86319359D01*
X92768621Y-86319646D01*
X92739169Y-86320804D01*
X92734297Y-86320900D01*
X92482503Y-86320900D01*
X92477631Y-86320804D01*
X92448179Y-86319646D01*
X92443314Y-86319359D01*
X92404235Y-86316281D01*
X92399397Y-86315804D01*
X92370164Y-86312344D01*
X92365341Y-86311677D01*
X92116672Y-86272292D01*
X92111877Y-86271436D01*
X92082977Y-86265687D01*
X92078217Y-86264642D01*
X92040100Y-86255489D01*
X92035395Y-86254262D01*
X92007053Y-86246269D01*
X92002393Y-86244855D01*
X91762960Y-86167058D01*
X91758363Y-86165464D01*
X91730753Y-86155279D01*
X91726225Y-86153507D01*
X91690008Y-86138509D01*
X91685539Y-86136554D01*
X91658764Y-86124211D01*
X91654381Y-86122086D01*
X91468500Y-86027374D01*
X91468500Y-86571696D01*
X90470500Y-86571696D01*
X90470500Y-85069696D01*
X88968500Y-85069696D01*
X88968500Y-86571696D01*
X87091913Y-86571696D01*
X87052757Y-86451188D01*
X86956251Y-86261784D01*
X86956249Y-86261781D01*
X86956248Y-86261779D01*
X86831309Y-86089813D01*
X86680986Y-85939490D01*
X86509020Y-85814551D01*
X86319614Y-85718044D01*
X86319613Y-85718043D01*
X86319612Y-85718043D01*
X86117443Y-85652354D01*
X86117441Y-85652353D01*
X86117440Y-85652353D01*
X85956157Y-85626808D01*
X85907487Y-85619100D01*
X85694913Y-85619100D01*
X85646242Y-85626808D01*
X85484960Y-85652353D01*
X85282785Y-85718044D01*
X85093380Y-85814551D01*
X84926419Y-85935855D01*
X84860613Y-85959335D01*
X84792559Y-85943509D01*
X84765853Y-85923218D01*
X82557116Y-83714481D01*
X83968500Y-83714481D01*
X84325715Y-84071696D01*
X85470500Y-84071696D01*
X86468500Y-84071696D01*
X87970500Y-84071696D01*
X88968500Y-84071696D01*
X90259900Y-84071696D01*
X90259900Y-83884519D01*
X89147235Y-82771854D01*
X89120187Y-82779102D01*
X89050337Y-82777440D01*
X88992474Y-82738279D01*
X88980706Y-82721330D01*
X88968500Y-82700189D01*
X88968500Y-84071696D01*
X87970500Y-84071696D01*
X87970500Y-82569696D01*
X86468500Y-82569696D01*
X86468500Y-84071696D01*
X85470500Y-84071696D01*
X85470500Y-82569696D01*
X83968500Y-82569696D01*
X83968500Y-83714481D01*
X82557116Y-83714481D01*
X80379619Y-81536984D01*
X80346134Y-81475661D01*
X80351118Y-81405969D01*
X80392990Y-81350036D01*
X80402203Y-81343764D01*
X80504745Y-81280515D01*
X80628718Y-81156542D01*
X80630565Y-81153548D01*
X80632369Y-81151924D01*
X80633198Y-81150877D01*
X80633376Y-81151018D01*
X80682510Y-81106821D01*
X80751473Y-81095596D01*
X80815556Y-81123436D01*
X80841643Y-81153541D01*
X80843688Y-81156856D01*
X80967744Y-81280912D01*
X81075368Y-81347294D01*
X81122092Y-81399241D01*
X81124830Y-81405375D01*
X81126821Y-81410181D01*
X81155758Y-81460300D01*
X81155759Y-81460304D01*
X81155760Y-81460304D01*
X81200030Y-81536984D01*
X81205879Y-81547114D01*
X81205881Y-81547117D01*
X81461425Y-81802661D01*
X81494910Y-81863984D01*
X81495361Y-81866150D01*
X81526261Y-82021491D01*
X81526264Y-82021501D01*
X81586602Y-82167172D01*
X81586609Y-82167185D01*
X81674210Y-82298288D01*
X81674213Y-82298292D01*
X81785707Y-82409786D01*
X81785711Y-82409789D01*
X81916814Y-82497390D01*
X81916827Y-82497397D01*
X82062498Y-82557735D01*
X82062503Y-82557737D01*
X82211869Y-82587448D01*
X82217153Y-82588499D01*
X82217156Y-82588500D01*
X82217158Y-82588500D01*
X82374844Y-82588500D01*
X82374845Y-82588499D01*
X82529497Y-82557737D01*
X82675179Y-82497394D01*
X82806289Y-82409789D01*
X82917789Y-82298289D01*
X83005394Y-82167179D01*
X83065737Y-82021497D01*
X83096500Y-81866842D01*
X83096500Y-81709158D01*
X83096500Y-81709155D01*
X83096499Y-81709148D01*
X83065738Y-81554510D01*
X83065737Y-81554503D01*
X83059186Y-81538687D01*
X83005397Y-81408827D01*
X83005390Y-81408814D01*
X82917789Y-81277711D01*
X82917786Y-81277707D01*
X82806292Y-81166213D01*
X82806288Y-81166210D01*
X82746207Y-81126065D01*
X83968500Y-81126065D01*
X83997145Y-81195222D01*
X83999335Y-81200899D01*
X84011737Y-81235560D01*
X84013646Y-81241338D01*
X84027872Y-81288233D01*
X84029495Y-81294097D01*
X84038445Y-81329823D01*
X84039779Y-81335765D01*
X84080104Y-81538492D01*
X84081145Y-81544489D01*
X84085181Y-81571696D01*
X85470500Y-81571696D01*
X86468500Y-81571696D01*
X87970500Y-81571696D01*
X87970500Y-80069696D01*
X86468500Y-80069696D01*
X86468500Y-81571696D01*
X85470500Y-81571696D01*
X85470500Y-80069696D01*
X83968500Y-80069696D01*
X83968500Y-81126065D01*
X82746207Y-81126065D01*
X82690233Y-81088664D01*
X82645428Y-81035052D01*
X82636721Y-80965727D01*
X82641412Y-80946578D01*
X82676399Y-80840997D01*
X82686900Y-80738209D01*
X82686899Y-79688192D01*
X82684068Y-79660482D01*
X82676399Y-79585403D01*
X82676398Y-79585400D01*
X82669634Y-79564987D01*
X82621214Y-79418866D01*
X82529112Y-79269544D01*
X82405056Y-79145488D01*
X82307626Y-79085393D01*
X82285420Y-79071696D01*
X84247165Y-79071696D01*
X85470500Y-79071696D01*
X85470500Y-78154100D01*
X84642409Y-78154100D01*
X84639945Y-78170711D01*
X84638904Y-78176708D01*
X84598579Y-78379435D01*
X84597245Y-78385377D01*
X84588295Y-78421103D01*
X84586672Y-78426967D01*
X84572446Y-78473862D01*
X84570537Y-78479640D01*
X84558135Y-78514301D01*
X84555945Y-78519978D01*
X84476852Y-78710928D01*
X84474386Y-78716492D01*
X84458645Y-78749774D01*
X84455909Y-78755209D01*
X84432808Y-78798430D01*
X84429809Y-78803725D01*
X84410874Y-78835318D01*
X84407616Y-78840463D01*
X84292783Y-79012322D01*
X84289278Y-79017298D01*
X84267345Y-79046871D01*
X84263601Y-79051669D01*
X84247165Y-79071696D01*
X82285420Y-79071696D01*
X82255736Y-79053387D01*
X82255735Y-79053386D01*
X82255734Y-79053386D01*
X82194172Y-79032986D01*
X82136729Y-78993214D01*
X82109906Y-78928698D01*
X82122221Y-78859922D01*
X82169765Y-78808722D01*
X82194171Y-78797577D01*
X82240534Y-78782214D01*
X82389856Y-78690112D01*
X82394229Y-78685738D01*
X82455549Y-78652252D01*
X82525240Y-78657233D01*
X82529365Y-78658856D01*
X82621298Y-78696935D01*
X82621303Y-78696937D01*
X82738741Y-78720297D01*
X82775953Y-78727699D01*
X82775956Y-78727700D01*
X82775958Y-78727700D01*
X82933644Y-78727700D01*
X82933645Y-78727699D01*
X83088297Y-78696937D01*
X83233979Y-78636594D01*
X83365089Y-78548989D01*
X83476589Y-78437489D01*
X83564194Y-78306379D01*
X83624537Y-78160697D01*
X83655300Y-78006042D01*
X83655300Y-77848358D01*
X83655300Y-77848355D01*
X83655299Y-77848353D01*
X83647175Y-77807512D01*
X83624537Y-77693703D01*
X83604858Y-77646193D01*
X83564197Y-77548027D01*
X83564190Y-77548014D01*
X83476589Y-77416911D01*
X83476586Y-77416907D01*
X83427460Y-77367781D01*
X83393975Y-77306458D01*
X83398959Y-77236766D01*
X83440831Y-77180833D01*
X83506295Y-77156416D01*
X83515141Y-77156100D01*
X86275491Y-77156100D01*
X86275507Y-77156101D01*
X86283103Y-77156101D01*
X86441214Y-77156101D01*
X86441217Y-77156101D01*
X86593945Y-77115177D01*
X86644064Y-77086239D01*
X86652525Y-77081353D01*
X86720419Y-77064877D01*
X86786448Y-77087723D01*
X86829091Y-77141285D01*
X86869802Y-77239572D01*
X86869809Y-77239585D01*
X86957410Y-77370688D01*
X86957413Y-77370692D01*
X87068907Y-77482186D01*
X87068911Y-77482189D01*
X87200014Y-77569790D01*
X87200027Y-77569797D01*
X87302249Y-77612138D01*
X87345703Y-77630137D01*
X87500353Y-77660899D01*
X87500356Y-77660900D01*
X87500358Y-77660900D01*
X87658044Y-77660900D01*
X87658045Y-77660899D01*
X87812697Y-77630137D01*
X87838118Y-77619606D01*
X87907587Y-77612138D01*
X87970067Y-77643413D01*
X87973252Y-77646487D01*
X89451965Y-79125200D01*
X89485450Y-79186523D01*
X89480466Y-79256215D01*
X89467387Y-79281771D01*
X89391943Y-79394681D01*
X89391937Y-79394692D01*
X89331599Y-79540363D01*
X89331596Y-79540375D01*
X89300835Y-79695018D01*
X89300835Y-79852711D01*
X89331596Y-80007354D01*
X89331599Y-80007366D01*
X89391937Y-80153037D01*
X89391944Y-80153050D01*
X89479937Y-80284739D01*
X89500815Y-80351416D01*
X89500835Y-80353630D01*
X89500835Y-81378665D01*
X89500834Y-81378683D01*
X89500834Y-81544389D01*
X89500833Y-81544389D01*
X89519342Y-81613464D01*
X89541758Y-81697120D01*
X89557238Y-81723931D01*
X89590860Y-81782167D01*
X89620814Y-81834050D01*
X89739684Y-81952920D01*
X89739690Y-81952925D01*
X91274641Y-83487876D01*
X91308126Y-83549199D01*
X91304892Y-83613873D01*
X91291153Y-83656157D01*
X91257900Y-83866113D01*
X91257900Y-84078687D01*
X91291154Y-84288643D01*
X91344348Y-84452358D01*
X91356844Y-84490814D01*
X91453351Y-84680220D01*
X91578290Y-84852186D01*
X91728613Y-85002509D01*
X91900579Y-85127448D01*
X91900581Y-85127449D01*
X91900584Y-85127451D01*
X92089988Y-85223957D01*
X92292157Y-85289646D01*
X92502113Y-85322900D01*
X92502114Y-85322900D01*
X92714686Y-85322900D01*
X92714687Y-85322900D01*
X92924643Y-85289646D01*
X93126812Y-85223957D01*
X93316216Y-85127451D01*
X93338907Y-85110965D01*
X93488186Y-85002509D01*
X93488188Y-85002506D01*
X93488192Y-85002504D01*
X93638504Y-84852192D01*
X93638506Y-84852188D01*
X93638509Y-84852186D01*
X93763448Y-84680220D01*
X93763447Y-84680220D01*
X93763451Y-84680216D01*
X93859957Y-84490812D01*
X93925646Y-84288643D01*
X93958900Y-84078687D01*
X93958900Y-83866113D01*
X93925646Y-83656157D01*
X93859957Y-83453988D01*
X93763451Y-83264584D01*
X93763449Y-83264581D01*
X93763448Y-83264579D01*
X93638509Y-83092613D01*
X93488186Y-82942290D01*
X93316220Y-82817351D01*
X93315515Y-82816991D01*
X93307454Y-82812885D01*
X93256659Y-82764912D01*
X93239863Y-82697092D01*
X93262399Y-82630956D01*
X93307454Y-82591915D01*
X93316216Y-82587451D01*
X93357117Y-82557735D01*
X93488186Y-82462509D01*
X93488188Y-82462506D01*
X93488192Y-82462504D01*
X93638504Y-82312192D01*
X93638506Y-82312188D01*
X93638509Y-82312186D01*
X93763448Y-82140220D01*
X93763447Y-82140220D01*
X93763451Y-82140216D01*
X93859957Y-81950812D01*
X93925646Y-81748643D01*
X93958900Y-81538687D01*
X93958900Y-81326113D01*
X93925646Y-81116157D01*
X93859957Y-80913988D01*
X93763451Y-80724584D01*
X93763449Y-80724581D01*
X93763448Y-80724579D01*
X93638509Y-80552613D01*
X93488186Y-80402290D01*
X93316217Y-80277349D01*
X93306904Y-80272604D01*
X93256107Y-80224630D01*
X93239312Y-80156809D01*
X93261849Y-80090674D01*
X93306907Y-80051632D01*
X93315955Y-80047022D01*
X93370116Y-80007670D01*
X93370117Y-80007670D01*
X92737808Y-79375362D01*
X92801393Y-79358325D01*
X92915407Y-79292499D01*
X93008499Y-79199407D01*
X93074325Y-79085393D01*
X93091362Y-79021809D01*
X93723670Y-79654117D01*
X93723670Y-79654116D01*
X93763022Y-79599954D01*
X93859495Y-79410617D01*
X93925157Y-79208530D01*
X93925157Y-79208527D01*
X93958400Y-78998646D01*
X93958400Y-78786153D01*
X93925157Y-78576272D01*
X93925157Y-78576269D01*
X93859495Y-78374182D01*
X93763024Y-78184849D01*
X93723670Y-78130682D01*
X93723669Y-78130682D01*
X93091362Y-78762990D01*
X93074325Y-78699407D01*
X93008499Y-78585393D01*
X92915407Y-78492301D01*
X92801393Y-78426475D01*
X92737809Y-78409437D01*
X93408027Y-77739218D01*
X93469350Y-77705733D01*
X93495707Y-77702899D01*
X93506272Y-77702899D01*
X93565883Y-77696491D01*
X93700731Y-77646196D01*
X93815946Y-77559946D01*
X93902196Y-77444731D01*
X93952491Y-77309883D01*
X93958900Y-77250273D01*
X93958899Y-75454528D01*
X93952491Y-75394917D01*
X93952490Y-75394915D01*
X93902197Y-75260071D01*
X93902193Y-75260064D01*
X93815947Y-75144855D01*
X93815944Y-75144852D01*
X93700735Y-75058606D01*
X93700728Y-75058602D01*
X93565882Y-75008308D01*
X93565883Y-75008308D01*
X93506283Y-75001901D01*
X93506281Y-75001900D01*
X93506273Y-75001900D01*
X93506264Y-75001900D01*
X91710529Y-75001900D01*
X91710523Y-75001901D01*
X91650917Y-75008308D01*
X91623238Y-75018632D01*
X91553546Y-75023615D01*
X91492224Y-74990128D01*
X91458740Y-74928805D01*
X91463726Y-74859113D01*
X91492224Y-74814769D01*
X94391520Y-71915476D01*
X94470577Y-71778544D01*
X94511501Y-71625817D01*
X94511501Y-71467702D01*
X94511501Y-71460107D01*
X94511500Y-71460089D01*
X94511500Y-65463474D01*
X94511499Y-65463469D01*
X94510902Y-65461239D01*
X94510898Y-65461223D01*
X94470577Y-65310744D01*
X94429915Y-65240316D01*
X94402412Y-65192678D01*
X94391521Y-65173814D01*
X94275385Y-65057678D01*
X94275374Y-65057668D01*
X93695061Y-64477355D01*
X93695059Y-64477352D01*
X93576188Y-64358481D01*
X93576180Y-64358475D01*
X93470068Y-64297212D01*
X93470067Y-64297211D01*
X93470067Y-64297212D01*
X93439256Y-64279423D01*
X93424447Y-64275455D01*
X93286528Y-64238499D01*
X93128414Y-64238499D01*
X93120818Y-64238499D01*
X93120802Y-64238500D01*
X91450057Y-64238500D01*
X91291942Y-64238500D01*
X91284848Y-64240401D01*
X91139214Y-64279423D01*
X91139209Y-64279426D01*
X91002290Y-64358475D01*
X91002282Y-64358481D01*
X90890478Y-64470286D01*
X90707582Y-64653181D01*
X90646259Y-64686666D01*
X90619901Y-64689500D01*
X89272129Y-64689500D01*
X89272123Y-64689501D01*
X89212516Y-64695908D01*
X89077671Y-64746202D01*
X89077669Y-64746203D01*
X89010711Y-64796329D01*
X88945247Y-64820746D01*
X88876974Y-64805895D01*
X88827568Y-64756490D01*
X88812400Y-64697062D01*
X88812400Y-62774071D01*
X89810400Y-62774071D01*
X89810400Y-63691500D01*
X90257878Y-63691500D01*
X90319697Y-63629682D01*
X90325618Y-63624137D01*
X90362529Y-63591766D01*
X90368799Y-63586620D01*
X90420652Y-63546829D01*
X90427251Y-63542100D01*
X90468090Y-63514812D01*
X90470500Y-63513313D01*
X90470500Y-63240500D01*
X91468500Y-63240500D01*
X92970500Y-63240500D01*
X92970500Y-62782327D01*
X92683525Y-62569696D01*
X91468500Y-62569696D01*
X91468500Y-63240500D01*
X90470500Y-63240500D01*
X90470500Y-62569696D01*
X89947881Y-62569696D01*
X89877590Y-62683654D01*
X89873626Y-62689682D01*
X89848587Y-62725440D01*
X89844279Y-62731226D01*
X89810400Y-62774071D01*
X88812400Y-62774071D01*
X88812400Y-62393849D01*
X88832085Y-62326810D01*
X88871302Y-62288311D01*
X88920403Y-62258026D01*
X89043426Y-62135003D01*
X89134762Y-61986925D01*
X89189487Y-61821775D01*
X89199900Y-61719848D01*
X89199900Y-60823291D01*
X91468500Y-60823291D01*
X91468500Y-61571696D01*
X92320277Y-61571696D01*
X92092014Y-60821693D01*
X91468500Y-60823291D01*
X89199900Y-60823291D01*
X89199900Y-60708152D01*
X89189487Y-60606225D01*
X89134762Y-60441075D01*
X89134758Y-60441069D01*
X89134757Y-60441066D01*
X89043428Y-60293000D01*
X89043425Y-60292996D01*
X88920403Y-60169974D01*
X88920399Y-60169971D01*
X88772333Y-60078642D01*
X88772327Y-60078639D01*
X88772325Y-60078638D01*
X88757839Y-60073838D01*
X88700396Y-60034067D01*
X88673573Y-59969551D01*
X88685888Y-59900775D01*
X88733431Y-59849575D01*
X88796526Y-59832133D01*
X92870379Y-59821696D01*
X92937468Y-59841209D01*
G37*
%TD.AperFunction*%
%TA.AperFunction,Conductor*%
G36*
X64661303Y-78626584D02*
G01*
X64667781Y-78632616D01*
X64973710Y-78938545D01*
X65007195Y-78999868D01*
X65006708Y-79054730D01*
X65005909Y-79058111D01*
X64999501Y-79117716D01*
X64999500Y-79117735D01*
X64999500Y-81613470D01*
X64999501Y-81613476D01*
X65005908Y-81673083D01*
X65056202Y-81807928D01*
X65056206Y-81807935D01*
X65142452Y-81923144D01*
X65142455Y-81923147D01*
X65257664Y-82009393D01*
X65257671Y-82009397D01*
X65392517Y-82059691D01*
X65392516Y-82059691D01*
X65399444Y-82060435D01*
X65452127Y-82066100D01*
X68049902Y-82066099D01*
X68116941Y-82085784D01*
X68137583Y-82102418D01*
X68949539Y-82914374D01*
X68949549Y-82914385D01*
X68953879Y-82918715D01*
X68953880Y-82918716D01*
X69065684Y-83030520D01*
X69131438Y-83068482D01*
X69152495Y-83080639D01*
X69152497Y-83080641D01*
X69190551Y-83102611D01*
X69202615Y-83109577D01*
X69355343Y-83150500D01*
X77195034Y-83150500D01*
X77262073Y-83170185D01*
X77263925Y-83171398D01*
X77395614Y-83259390D01*
X77395627Y-83259397D01*
X77532281Y-83316000D01*
X77541303Y-83319737D01*
X77695953Y-83350499D01*
X77695956Y-83350500D01*
X77695958Y-83350500D01*
X77853644Y-83350500D01*
X77853645Y-83350499D01*
X78008297Y-83319737D01*
X78153979Y-83259394D01*
X78285089Y-83171789D01*
X78361941Y-83094936D01*
X78423261Y-83061452D01*
X78492953Y-83066436D01*
X78537302Y-83094937D01*
X80850284Y-85407919D01*
X80883769Y-85469242D01*
X80878785Y-85538934D01*
X80836913Y-85594867D01*
X80771449Y-85619284D01*
X80762603Y-85619600D01*
X80614954Y-85619600D01*
X80405072Y-85652842D01*
X80405069Y-85652842D01*
X80202982Y-85718504D01*
X80013639Y-85814980D01*
X79959482Y-85854327D01*
X79959482Y-85854328D01*
X80591791Y-86486637D01*
X80528207Y-86503675D01*
X80414193Y-86569501D01*
X80321101Y-86662593D01*
X80255275Y-86776607D01*
X80238237Y-86840191D01*
X79568018Y-86169972D01*
X79534533Y-86108649D01*
X79531699Y-86082291D01*
X79531699Y-86071729D01*
X79531698Y-86071723D01*
X79531508Y-86069957D01*
X79525291Y-86012117D01*
X79524178Y-86009134D01*
X79474997Y-85877271D01*
X79474993Y-85877264D01*
X79388747Y-85762055D01*
X79388744Y-85762052D01*
X79273535Y-85675806D01*
X79273528Y-85675802D01*
X79138682Y-85625508D01*
X79138683Y-85625508D01*
X79079083Y-85619101D01*
X79079081Y-85619100D01*
X79079073Y-85619100D01*
X79079065Y-85619100D01*
X77731297Y-85619100D01*
X77664258Y-85599415D01*
X77643616Y-85582781D01*
X77449590Y-85388755D01*
X77449588Y-85388752D01*
X77330717Y-85269881D01*
X77330716Y-85269880D01*
X77243904Y-85219760D01*
X77243904Y-85219759D01*
X77243900Y-85219758D01*
X77193785Y-85190823D01*
X77041057Y-85149899D01*
X76882943Y-85149899D01*
X76875347Y-85149899D01*
X76875331Y-85149900D01*
X71193341Y-85149900D01*
X71167960Y-85156700D01*
X71167961Y-85156701D01*
X71040614Y-85190823D01*
X71040609Y-85190826D01*
X70903690Y-85269875D01*
X70903682Y-85269881D01*
X70791878Y-85381686D01*
X70334522Y-85839041D01*
X70273199Y-85872526D01*
X70208523Y-85869291D01*
X70166245Y-85855554D01*
X70026272Y-85833384D01*
X69956287Y-85822300D01*
X69743713Y-85822300D01*
X69695042Y-85830008D01*
X69533760Y-85855553D01*
X69331585Y-85921244D01*
X69142179Y-86017751D01*
X68970213Y-86142690D01*
X68819890Y-86293013D01*
X68694949Y-86464982D01*
X68690484Y-86473746D01*
X68642509Y-86524542D01*
X68574688Y-86541336D01*
X68508553Y-86518798D01*
X68469516Y-86473746D01*
X68465050Y-86464982D01*
X68340109Y-86293013D01*
X68189786Y-86142690D01*
X68017815Y-86017748D01*
X68017814Y-86017747D01*
X67978205Y-85997565D01*
X67927409Y-85949591D01*
X67910500Y-85887081D01*
X67910500Y-85110965D01*
X67930185Y-85043926D01*
X67931398Y-85042074D01*
X68019390Y-84910385D01*
X68019390Y-84910384D01*
X68019394Y-84910379D01*
X68079737Y-84764697D01*
X68110500Y-84610042D01*
X68110500Y-84452358D01*
X68110500Y-84452355D01*
X68110499Y-84452353D01*
X68095413Y-84376511D01*
X68079737Y-84297703D01*
X68075983Y-84288639D01*
X68019397Y-84152027D01*
X68019390Y-84152014D01*
X67931789Y-84020911D01*
X67931786Y-84020907D01*
X67820292Y-83909413D01*
X67820288Y-83909410D01*
X67689185Y-83821809D01*
X67689172Y-83821802D01*
X67543501Y-83761464D01*
X67543489Y-83761461D01*
X67388845Y-83730700D01*
X67388842Y-83730700D01*
X67231158Y-83730700D01*
X67231155Y-83730700D01*
X67076510Y-83761461D01*
X67076498Y-83761464D01*
X66930827Y-83821802D01*
X66930814Y-83821809D01*
X66799711Y-83909410D01*
X66799707Y-83909413D01*
X66762681Y-83946440D01*
X66701358Y-83979925D01*
X66631666Y-83974941D01*
X66587319Y-83946440D01*
X66550292Y-83909413D01*
X66550288Y-83909410D01*
X66419185Y-83821809D01*
X66419172Y-83821802D01*
X66273501Y-83761464D01*
X66273495Y-83761462D01*
X66253793Y-83757543D01*
X66191883Y-83725155D01*
X66157311Y-83664438D01*
X66156371Y-83611734D01*
X66157385Y-83606639D01*
X66170720Y-83539600D01*
X66180100Y-83492444D01*
X66180100Y-83334755D01*
X66180099Y-83334753D01*
X66166140Y-83264579D01*
X66149337Y-83180103D01*
X66137075Y-83150499D01*
X66088997Y-83034427D01*
X66088990Y-83034414D01*
X66001389Y-82903311D01*
X66001386Y-82903307D01*
X65889892Y-82791813D01*
X65889888Y-82791810D01*
X65758785Y-82704209D01*
X65758772Y-82704202D01*
X65613101Y-82643864D01*
X65613089Y-82643861D01*
X65458445Y-82613100D01*
X65458442Y-82613100D01*
X65300758Y-82613100D01*
X65300755Y-82613100D01*
X65146110Y-82643861D01*
X65146098Y-82643864D01*
X65000427Y-82704202D01*
X65000414Y-82704209D01*
X64869311Y-82791810D01*
X64869307Y-82791813D01*
X64757813Y-82903307D01*
X64757810Y-82903311D01*
X64683202Y-83014970D01*
X64629590Y-83059775D01*
X64560265Y-83068482D01*
X64497237Y-83038327D01*
X64460518Y-82978884D01*
X64456100Y-82946079D01*
X64456100Y-78720297D01*
X64475785Y-78653258D01*
X64528589Y-78607503D01*
X64597747Y-78597559D01*
X64661303Y-78626584D01*
G37*
%TD.AperFunction*%
%TA.AperFunction,Conductor*%
G36*
X57501458Y-79702920D02*
G01*
X57507636Y-79705288D01*
X57526103Y-79712937D01*
X57587622Y-79725174D01*
X57681449Y-79743838D01*
X57743360Y-79776223D01*
X57744939Y-79777774D01*
X58306381Y-80339216D01*
X58339866Y-80400539D01*
X58342700Y-80426895D01*
X58342700Y-80497487D01*
X58357479Y-80609751D01*
X58357482Y-80609762D01*
X58415342Y-80749450D01*
X58415343Y-80749452D01*
X58415344Y-80749453D01*
X58507390Y-80869410D01*
X58627347Y-80961456D01*
X58767041Y-81019319D01*
X58879313Y-81034100D01*
X60389700Y-81034099D01*
X60456739Y-81053784D01*
X60502494Y-81106587D01*
X60513700Y-81158099D01*
X60513700Y-82089100D01*
X60494015Y-82156139D01*
X60441211Y-82201894D01*
X60389700Y-82213100D01*
X60086799Y-82213100D01*
X60086780Y-82213101D01*
X59984003Y-82223600D01*
X59984000Y-82223601D01*
X59817468Y-82278785D01*
X59817463Y-82278787D01*
X59668145Y-82370887D01*
X59574127Y-82464905D01*
X59512803Y-82498389D01*
X59443112Y-82493405D01*
X59398765Y-82464904D01*
X59305145Y-82371284D01*
X59155924Y-82279243D01*
X59155919Y-82279241D01*
X58989497Y-82224094D01*
X58989490Y-82224093D01*
X58886786Y-82213600D01*
X58824300Y-82213600D01*
X58824300Y-83289600D01*
X58804615Y-83356639D01*
X58751811Y-83402394D01*
X58700300Y-83413600D01*
X58574300Y-83413600D01*
X58574300Y-83539600D01*
X58554615Y-83606639D01*
X58501811Y-83652394D01*
X58450300Y-83663600D01*
X57561801Y-83663600D01*
X57561801Y-83913586D01*
X57565164Y-83946498D01*
X57552395Y-84015191D01*
X57504514Y-84066075D01*
X57441806Y-84083100D01*
X55947800Y-84083100D01*
X55880761Y-84063415D01*
X55835006Y-84010611D01*
X55823800Y-83959100D01*
X55823800Y-83816000D01*
X54935300Y-83816000D01*
X54868261Y-83796315D01*
X54822506Y-83743511D01*
X54811300Y-83692000D01*
X54811300Y-83566000D01*
X54685300Y-83566000D01*
X54618261Y-83546315D01*
X54572506Y-83493511D01*
X54561300Y-83442000D01*
X54561300Y-83316000D01*
X55061300Y-83316000D01*
X55823799Y-83316000D01*
X55823799Y-83066028D01*
X55823798Y-83066013D01*
X55813305Y-82963302D01*
X55796840Y-82913613D01*
X57561800Y-82913613D01*
X57561800Y-83163600D01*
X58324300Y-83163600D01*
X58324300Y-82213600D01*
X58324299Y-82213599D01*
X58261828Y-82213600D01*
X58261811Y-82213601D01*
X58159102Y-82224094D01*
X57992680Y-82279241D01*
X57992675Y-82279243D01*
X57843454Y-82371284D01*
X57719484Y-82495254D01*
X57627443Y-82644475D01*
X57627441Y-82644480D01*
X57572294Y-82810902D01*
X57572293Y-82810909D01*
X57561800Y-82913613D01*
X55796840Y-82913613D01*
X55758158Y-82796880D01*
X55758156Y-82796875D01*
X55666115Y-82647654D01*
X55542145Y-82523684D01*
X55392924Y-82431643D01*
X55392919Y-82431641D01*
X55226497Y-82376494D01*
X55226490Y-82376493D01*
X55123786Y-82366000D01*
X55061300Y-82366000D01*
X55061300Y-83316000D01*
X54561300Y-83316000D01*
X54561300Y-82366000D01*
X54561299Y-82365999D01*
X54498828Y-82366000D01*
X54498811Y-82366001D01*
X54396102Y-82376494D01*
X54229680Y-82431641D01*
X54229675Y-82431643D01*
X54080457Y-82523682D01*
X53986834Y-82617305D01*
X53925510Y-82650789D01*
X53855819Y-82645805D01*
X53811472Y-82617304D01*
X53717455Y-82523287D01*
X53645702Y-82479029D01*
X53598978Y-82427081D01*
X53586800Y-82373491D01*
X53586800Y-81109529D01*
X53606485Y-81042490D01*
X53659289Y-80996735D01*
X53728447Y-80986791D01*
X53758251Y-80994967D01*
X53817041Y-81019319D01*
X53929313Y-81034100D01*
X55827086Y-81034099D01*
X55827088Y-81034099D01*
X55939351Y-81019320D01*
X55939350Y-81019320D01*
X55939359Y-81019319D01*
X56079053Y-80961456D01*
X56199010Y-80869410D01*
X56250492Y-80802316D01*
X56286869Y-80770415D01*
X56323178Y-80749453D01*
X56375709Y-80719124D01*
X56375708Y-80719124D01*
X56375716Y-80719120D01*
X56487520Y-80607316D01*
X56487521Y-80607314D01*
X56555062Y-80539772D01*
X56616383Y-80506289D01*
X56618550Y-80505838D01*
X56676485Y-80494313D01*
X56773897Y-80474937D01*
X56919579Y-80414594D01*
X57050689Y-80326989D01*
X57162189Y-80215489D01*
X57249794Y-80084379D01*
X57310137Y-79938697D01*
X57338588Y-79795666D01*
X57370973Y-79733755D01*
X57431688Y-79699181D01*
X57501458Y-79702920D01*
G37*
%TD.AperFunction*%
%TA.AperFunction,Conductor*%
G36*
X78713739Y-77175785D02*
G01*
X78759494Y-77228589D01*
X78770700Y-77280100D01*
X78770700Y-78147401D01*
X78770701Y-78147419D01*
X78781200Y-78250196D01*
X78781201Y-78250199D01*
X78836385Y-78416731D01*
X78836387Y-78416736D01*
X78851197Y-78440747D01*
X78928488Y-78566056D01*
X79052544Y-78690112D01*
X79201866Y-78782214D01*
X79264219Y-78802875D01*
X79321664Y-78842647D01*
X79348487Y-78907163D01*
X79336172Y-78975939D01*
X79288629Y-79027139D01*
X79264220Y-79038286D01*
X79217286Y-79053838D01*
X79217275Y-79053843D01*
X79068054Y-79145884D01*
X78944084Y-79269854D01*
X78852043Y-79419075D01*
X78852041Y-79419080D01*
X78796894Y-79585502D01*
X78796893Y-79585509D01*
X78789233Y-79660482D01*
X78762836Y-79725174D01*
X78705654Y-79765324D01*
X78635843Y-79768186D01*
X78578194Y-79735559D01*
X76796490Y-77953855D01*
X76763005Y-77892532D01*
X76767989Y-77822840D01*
X76769610Y-77818722D01*
X76814418Y-77710543D01*
X76817337Y-77703497D01*
X76848100Y-77548842D01*
X76848100Y-77391158D01*
X76848100Y-77391155D01*
X76848099Y-77391153D01*
X76830822Y-77304291D01*
X76837049Y-77234699D01*
X76879912Y-77179522D01*
X76945802Y-77156278D01*
X76952439Y-77156100D01*
X78646700Y-77156100D01*
X78713739Y-77175785D01*
G37*
%TD.AperFunction*%
%TA.AperFunction,Conductor*%
G36*
X91201783Y-75207724D02*
G01*
X91257716Y-75249596D01*
X91282133Y-75315060D01*
X91274632Y-75367236D01*
X91264309Y-75394915D01*
X91264308Y-75394916D01*
X91257901Y-75454516D01*
X91257901Y-75454523D01*
X91257900Y-75454535D01*
X91257900Y-77250270D01*
X91257901Y-77250276D01*
X91264308Y-77309883D01*
X91314602Y-77444728D01*
X91314606Y-77444735D01*
X91400852Y-77559944D01*
X91400855Y-77559947D01*
X91516064Y-77646193D01*
X91516071Y-77646197D01*
X91561018Y-77662961D01*
X91650917Y-77696491D01*
X91710527Y-77702900D01*
X91721085Y-77702899D01*
X91788123Y-77722579D01*
X91808772Y-77739218D01*
X92478991Y-78409437D01*
X92415407Y-78426475D01*
X92301393Y-78492301D01*
X92208301Y-78585393D01*
X92142475Y-78699407D01*
X92125437Y-78762991D01*
X91493128Y-78130682D01*
X91493127Y-78130682D01*
X91453780Y-78184839D01*
X91357304Y-78374182D01*
X91291642Y-78576269D01*
X91291642Y-78576272D01*
X91258400Y-78786153D01*
X91258400Y-78933803D01*
X91238715Y-79000842D01*
X91185911Y-79046597D01*
X91116753Y-79056541D01*
X91053197Y-79027516D01*
X91046719Y-79021484D01*
X88809543Y-76784308D01*
X88776058Y-76722985D01*
X88781042Y-76653293D01*
X88822914Y-76597360D01*
X88888378Y-76572943D01*
X88944675Y-76582065D01*
X89022103Y-76614137D01*
X89143603Y-76638305D01*
X89176753Y-76644899D01*
X89176756Y-76644900D01*
X89176758Y-76644900D01*
X89334444Y-76644900D01*
X89334445Y-76644899D01*
X89489097Y-76614137D01*
X89601766Y-76567467D01*
X89634772Y-76553797D01*
X89634772Y-76553796D01*
X89634779Y-76553794D01*
X89765889Y-76466189D01*
X89798610Y-76433467D01*
X89838841Y-76406587D01*
X89845135Y-76403979D01*
X89845145Y-76403977D01*
X89901109Y-76371666D01*
X89982076Y-76324920D01*
X90093880Y-76213116D01*
X90093880Y-76213114D01*
X90104084Y-76202911D01*
X90104087Y-76202906D01*
X91070771Y-75236223D01*
X91132091Y-75202740D01*
X91201783Y-75207724D01*
G37*
%TD.AperFunction*%
%TA.AperFunction,Conductor*%
G36*
X59434943Y-62951785D02*
G01*
X59480698Y-63004589D01*
X59490642Y-63073747D01*
X59474020Y-63120249D01*
X59457151Y-63148153D01*
X59451744Y-63157100D01*
X59446969Y-63164998D01*
X59423613Y-63239952D01*
X59399069Y-63318716D01*
X59393000Y-63385511D01*
X59393000Y-63811511D01*
X59373315Y-63878550D01*
X59356682Y-63899192D01*
X59223786Y-64032088D01*
X59111981Y-64143892D01*
X59111979Y-64143895D01*
X59109486Y-64148213D01*
X59083320Y-64193535D01*
X59056262Y-64240401D01*
X59032995Y-64280701D01*
X59032923Y-64280825D01*
X58991999Y-64433553D01*
X58991999Y-64433555D01*
X58991999Y-64601656D01*
X58992000Y-64601669D01*
X58992000Y-65633428D01*
X58991999Y-65633446D01*
X58991999Y-65799152D01*
X58991998Y-65799152D01*
X59000517Y-65830945D01*
X59032923Y-65951883D01*
X59032924Y-65951884D01*
X59048072Y-65978123D01*
X59048073Y-65978124D01*
X59111975Y-66088807D01*
X59111981Y-66088815D01*
X59230849Y-66207683D01*
X59230855Y-66207688D01*
X60464886Y-67441719D01*
X60498371Y-67503042D01*
X60493387Y-67572734D01*
X60451515Y-67628667D01*
X60386051Y-67653084D01*
X60377205Y-67653400D01*
X60104057Y-67653400D01*
X60037307Y-67659465D01*
X59883703Y-67707329D01*
X59746019Y-67790563D01*
X59632263Y-67904319D01*
X59549027Y-68042007D01*
X59501167Y-68195597D01*
X59501164Y-68195607D01*
X59498185Y-68228399D01*
X59498185Y-68228400D01*
X60683600Y-68228400D01*
X60750639Y-68248085D01*
X60796394Y-68300889D01*
X60807600Y-68352400D01*
X60807600Y-68604400D01*
X60787915Y-68671439D01*
X60735111Y-68717194D01*
X60683600Y-68728400D01*
X59498185Y-68728400D01*
X59501164Y-68761192D01*
X59501167Y-68761202D01*
X59549027Y-68914793D01*
X59576205Y-68959750D01*
X59594041Y-69027305D01*
X59572523Y-69093779D01*
X59518483Y-69138066D01*
X59470088Y-69147900D01*
X59356940Y-69147900D01*
X59316019Y-69158864D01*
X59316019Y-69158865D01*
X59278751Y-69168851D01*
X59204214Y-69188823D01*
X59204209Y-69188826D01*
X59067290Y-69267875D01*
X59067282Y-69267881D01*
X58955480Y-69379684D01*
X58955474Y-69379688D01*
X58913337Y-69421826D01*
X58852014Y-69455311D01*
X58849848Y-69455762D01*
X58694508Y-69486661D01*
X58694498Y-69486664D01*
X58548827Y-69547002D01*
X58548814Y-69547009D01*
X58417711Y-69634610D01*
X58417707Y-69634613D01*
X58306213Y-69746107D01*
X58306210Y-69746111D01*
X58218609Y-69877214D01*
X58218602Y-69877227D01*
X58158264Y-70022898D01*
X58158261Y-70022910D01*
X58127500Y-70177553D01*
X58127500Y-70335246D01*
X58158261Y-70489889D01*
X58158264Y-70489901D01*
X58218602Y-70635572D01*
X58218609Y-70635585D01*
X58306210Y-70766688D01*
X58306213Y-70766692D01*
X58417707Y-70878186D01*
X58417711Y-70878189D01*
X58548814Y-70965790D01*
X58548827Y-70965797D01*
X58685107Y-71022245D01*
X58694503Y-71026137D01*
X58849153Y-71056899D01*
X58849156Y-71056900D01*
X58849158Y-71056900D01*
X59006844Y-71056900D01*
X59006845Y-71056899D01*
X59161497Y-71026137D01*
X59307179Y-70965794D01*
X59307184Y-70965790D01*
X59312146Y-70963139D01*
X59380548Y-70948897D01*
X59445792Y-70973896D01*
X59487163Y-71030201D01*
X59494600Y-71072497D01*
X59494600Y-71228311D01*
X59474915Y-71295350D01*
X59458282Y-71315992D01*
X59325386Y-71448888D01*
X59213581Y-71560692D01*
X59213579Y-71560695D01*
X59199583Y-71584937D01*
X59179188Y-71620263D01*
X59134523Y-71697625D01*
X59093599Y-71850353D01*
X59093599Y-71850355D01*
X59093599Y-72018456D01*
X59093600Y-72018469D01*
X59093600Y-72560720D01*
X59093599Y-72560738D01*
X59093599Y-72726444D01*
X59093598Y-72726444D01*
X59109078Y-72784215D01*
X59134523Y-72879175D01*
X59155167Y-72914931D01*
X59163458Y-72929290D01*
X59163459Y-72929294D01*
X59163460Y-72929294D01*
X59194338Y-72982778D01*
X59213579Y-73016104D01*
X59213581Y-73016107D01*
X59332449Y-73134975D01*
X59332455Y-73134980D01*
X60527381Y-74329906D01*
X60560866Y-74391229D01*
X60563700Y-74417587D01*
X60563700Y-75509600D01*
X60544015Y-75576639D01*
X60491211Y-75622394D01*
X60439700Y-75633600D01*
X60078200Y-75633600D01*
X60078200Y-76304600D01*
X60058515Y-76371639D01*
X60005711Y-76417394D01*
X59954200Y-76428600D01*
X59828200Y-76428600D01*
X59819019Y-76437781D01*
X59757696Y-76471266D01*
X59731338Y-76474100D01*
X58874349Y-76474100D01*
X58874333Y-76474099D01*
X58866737Y-76474099D01*
X58708623Y-76474099D01*
X58604351Y-76502039D01*
X58555890Y-76515024D01*
X58555889Y-76515025D01*
X58505776Y-76543959D01*
X58505775Y-76543960D01*
X58464938Y-76567537D01*
X58418965Y-76594079D01*
X58418962Y-76594081D01*
X58041081Y-76971962D01*
X58041079Y-76971965D01*
X58031756Y-76988113D01*
X57991064Y-77058596D01*
X57990961Y-77058774D01*
X57990959Y-77058776D01*
X57962025Y-77108889D01*
X57962024Y-77108890D01*
X57949290Y-77156416D01*
X57921099Y-77261623D01*
X57921099Y-77261625D01*
X57921099Y-77429726D01*
X57921100Y-77429739D01*
X57921100Y-78018700D01*
X57901415Y-78085739D01*
X57848611Y-78131494D01*
X57797100Y-78142700D01*
X57680755Y-78142700D01*
X57526110Y-78173461D01*
X57526098Y-78173464D01*
X57380427Y-78233802D01*
X57380414Y-78233809D01*
X57249311Y-78321410D01*
X57249307Y-78321413D01*
X57137813Y-78432907D01*
X57137810Y-78432911D01*
X57050209Y-78564014D01*
X57050202Y-78564027D01*
X56989864Y-78709698D01*
X56989861Y-78709708D01*
X56961411Y-78852734D01*
X56929026Y-78914645D01*
X56868310Y-78949219D01*
X56798540Y-78945478D01*
X56792350Y-78943106D01*
X56773897Y-78935463D01*
X56773889Y-78935461D01*
X56619245Y-78904700D01*
X56619242Y-78904700D01*
X56487699Y-78904700D01*
X56420660Y-78885015D01*
X56374905Y-78832211D01*
X56363699Y-78780700D01*
X56363699Y-78709711D01*
X56348920Y-78597448D01*
X56348919Y-78597447D01*
X56348919Y-78597441D01*
X56305369Y-78492301D01*
X56291056Y-78457746D01*
X56253718Y-78409087D01*
X56228523Y-78343918D01*
X56242561Y-78275473D01*
X56253718Y-78258113D01*
X56291056Y-78209453D01*
X56301568Y-78184074D01*
X56348919Y-78069759D01*
X56363700Y-77957487D01*
X56363699Y-77439714D01*
X56363698Y-77439710D01*
X56348920Y-77327448D01*
X56348919Y-77327447D01*
X56348919Y-77327441D01*
X56312528Y-77239585D01*
X56291056Y-77187746D01*
X56253718Y-77139087D01*
X56228523Y-77073918D01*
X56242561Y-77005473D01*
X56253718Y-76988113D01*
X56291056Y-76939453D01*
X56304545Y-76906887D01*
X56348919Y-76799759D01*
X56363700Y-76687487D01*
X56363699Y-76169736D01*
X58343200Y-76169736D01*
X58343200Y-76178600D01*
X59578200Y-76178600D01*
X59578200Y-75633600D01*
X58879336Y-75633600D01*
X58767171Y-75648368D01*
X58767167Y-75648369D01*
X58627601Y-75706178D01*
X58507747Y-75798147D01*
X58415778Y-75918001D01*
X58357969Y-76057567D01*
X58357968Y-76057571D01*
X58343200Y-76169736D01*
X56363699Y-76169736D01*
X56363699Y-76169714D01*
X56361236Y-76151006D01*
X56348920Y-76057448D01*
X56348919Y-76057443D01*
X56348919Y-76057441D01*
X56291056Y-75917747D01*
X56199010Y-75797790D01*
X56079053Y-75705744D01*
X56079052Y-75705743D01*
X56079050Y-75705742D01*
X55939362Y-75647882D01*
X55939360Y-75647881D01*
X55939359Y-75647881D01*
X55925325Y-75646033D01*
X55827094Y-75633100D01*
X55827087Y-75633100D01*
X54983298Y-75633100D01*
X54916259Y-75613415D01*
X54895617Y-75596781D01*
X53800955Y-74502119D01*
X53370532Y-74071696D01*
X56468500Y-74071696D01*
X57970500Y-74071696D01*
X57970500Y-72569696D01*
X56468500Y-72569696D01*
X56468500Y-74071696D01*
X53370532Y-74071696D01*
X52546290Y-73247455D01*
X52512806Y-73186133D01*
X52517790Y-73116441D01*
X52559662Y-73060508D01*
X52625126Y-73036091D01*
X52693399Y-73050943D01*
X52698106Y-73053649D01*
X52708498Y-73059931D01*
X52862213Y-73107830D01*
X52929009Y-73113900D01*
X54336190Y-73113899D01*
X54336197Y-73113899D01*
X54402982Y-73107831D01*
X54402985Y-73107830D01*
X54402987Y-73107830D01*
X54556702Y-73059931D01*
X54694488Y-72976636D01*
X54808336Y-72862788D01*
X54891631Y-72725002D01*
X54939530Y-72571287D01*
X54945600Y-72504491D01*
X54945599Y-72072310D01*
X54945599Y-72072301D01*
X54939531Y-72005517D01*
X54939528Y-72005506D01*
X54891632Y-71851800D01*
X54891631Y-71851798D01*
X54853958Y-71789480D01*
X54810181Y-71717064D01*
X54792345Y-71649512D01*
X54810182Y-71588765D01*
X54820501Y-71571696D01*
X56468500Y-71571696D01*
X57699833Y-71571696D01*
X57583191Y-71455054D01*
X57578993Y-71450645D01*
X57554262Y-71423358D01*
X57550288Y-71418751D01*
X57519199Y-71380869D01*
X57515455Y-71376071D01*
X57493522Y-71346498D01*
X57490017Y-71341522D01*
X57375184Y-71169663D01*
X57371926Y-71164518D01*
X57352991Y-71132925D01*
X57349992Y-71127630D01*
X57326891Y-71084409D01*
X57324155Y-71078974D01*
X57308414Y-71045692D01*
X57305948Y-71040128D01*
X57226855Y-70849178D01*
X57224665Y-70843501D01*
X57212263Y-70808840D01*
X57210354Y-70803062D01*
X57196128Y-70756167D01*
X57194505Y-70750303D01*
X57185555Y-70714577D01*
X57184221Y-70708635D01*
X57143896Y-70505908D01*
X57142855Y-70499911D01*
X57137451Y-70463480D01*
X57136706Y-70457439D01*
X57131903Y-70408667D01*
X57131455Y-70402597D01*
X57129649Y-70365825D01*
X57129500Y-70359742D01*
X57129500Y-70153058D01*
X57129649Y-70146975D01*
X57131455Y-70110203D01*
X57131903Y-70104133D01*
X57135294Y-70069696D01*
X56468500Y-70069696D01*
X56468500Y-71571696D01*
X54820501Y-71571696D01*
X54891171Y-71454794D01*
X54891172Y-71454793D01*
X54939032Y-71301202D01*
X54939035Y-71301192D01*
X54942014Y-71268400D01*
X52323185Y-71268400D01*
X52324412Y-71281904D01*
X52310875Y-71350450D01*
X52262427Y-71400795D01*
X52194452Y-71416955D01*
X52128531Y-71393800D01*
X52113240Y-71380805D01*
X51500834Y-70768399D01*
X52323185Y-70768399D01*
X52323185Y-70768400D01*
X53382600Y-70768400D01*
X53882600Y-70768400D01*
X54942015Y-70768400D01*
X54942014Y-70768399D01*
X54939035Y-70735607D01*
X54939032Y-70735597D01*
X54891172Y-70582006D01*
X54891171Y-70582004D01*
X54809890Y-70447551D01*
X54792053Y-70379996D01*
X54809890Y-70319249D01*
X54891171Y-70184795D01*
X54891172Y-70184793D01*
X54939032Y-70031202D01*
X54939035Y-70031192D01*
X54942014Y-69998400D01*
X53882600Y-69998400D01*
X53882600Y-70768400D01*
X53382600Y-70768400D01*
X53382600Y-69998400D01*
X52323185Y-69998400D01*
X52326164Y-70031192D01*
X52326167Y-70031202D01*
X52374027Y-70184792D01*
X52455310Y-70319250D01*
X52473146Y-70386805D01*
X52455310Y-70447550D01*
X52374027Y-70582007D01*
X52326167Y-70735597D01*
X52326164Y-70735607D01*
X52323185Y-70768399D01*
X51500834Y-70768399D01*
X50230834Y-69498399D01*
X52323185Y-69498399D01*
X52323185Y-69498400D01*
X53382600Y-69498400D01*
X53882600Y-69498400D01*
X54942015Y-69498400D01*
X54942014Y-69498399D01*
X54939035Y-69465607D01*
X54939032Y-69465597D01*
X54891172Y-69312006D01*
X54891171Y-69312004D01*
X54809890Y-69177551D01*
X54792053Y-69109996D01*
X54803299Y-69071696D01*
X56468500Y-69071696D01*
X57570346Y-69071696D01*
X57578993Y-69062155D01*
X57583191Y-69057746D01*
X57729346Y-68911591D01*
X57733755Y-68907393D01*
X57761042Y-68882662D01*
X57765649Y-68878688D01*
X57803531Y-68847599D01*
X57808329Y-68843855D01*
X57837902Y-68821922D01*
X57842878Y-68818417D01*
X57970500Y-68733142D01*
X57970500Y-67569696D01*
X56468500Y-67569696D01*
X56468500Y-69071696D01*
X54803299Y-69071696D01*
X54809890Y-69049249D01*
X54891171Y-68914795D01*
X54891172Y-68914793D01*
X54939032Y-68761202D01*
X54939035Y-68761192D01*
X54942014Y-68728400D01*
X53882600Y-68728400D01*
X53882600Y-69498400D01*
X53382600Y-69498400D01*
X53382600Y-68728400D01*
X52323185Y-68728400D01*
X52326164Y-68761192D01*
X52326167Y-68761202D01*
X52374027Y-68914792D01*
X52455310Y-69049250D01*
X52473146Y-69116805D01*
X52455310Y-69177550D01*
X52374027Y-69312007D01*
X52326167Y-69465597D01*
X52326164Y-69465607D01*
X52323185Y-69498399D01*
X50230834Y-69498399D01*
X49542957Y-68810522D01*
X49509472Y-68749199D01*
X49512707Y-68684523D01*
X49526446Y-68642243D01*
X49559700Y-68432287D01*
X49559700Y-68384096D01*
X49579385Y-68317057D01*
X49596014Y-68296420D01*
X49664035Y-68228399D01*
X52323185Y-68228399D01*
X52323185Y-68228400D01*
X53382600Y-68228400D01*
X53882600Y-68228400D01*
X54942015Y-68228400D01*
X54942014Y-68228399D01*
X54939035Y-68195607D01*
X54939032Y-68195597D01*
X54891172Y-68042007D01*
X54807936Y-67904319D01*
X54694180Y-67790563D01*
X54556496Y-67707329D01*
X54402892Y-67659465D01*
X54336143Y-67653400D01*
X53882600Y-67653400D01*
X53882600Y-68228400D01*
X53382600Y-68228400D01*
X53382600Y-67653400D01*
X52929057Y-67653400D01*
X52862307Y-67659465D01*
X52708703Y-67707329D01*
X52571019Y-67790563D01*
X52457263Y-67904319D01*
X52374027Y-68042007D01*
X52326167Y-68195597D01*
X52326164Y-68195607D01*
X52323185Y-68228399D01*
X49664035Y-68228399D01*
X51320737Y-66571696D01*
X56468500Y-66571696D01*
X57970500Y-66571696D01*
X57970500Y-65069696D01*
X56468500Y-65069696D01*
X56468500Y-66571696D01*
X51320737Y-66571696D01*
X52315339Y-65577094D01*
X52376660Y-65543611D01*
X52446352Y-65548595D01*
X52467168Y-65558660D01*
X52469109Y-65559833D01*
X52469112Y-65559836D01*
X52606898Y-65643131D01*
X52760613Y-65691030D01*
X52827409Y-65697100D01*
X54234590Y-65697099D01*
X54234597Y-65697099D01*
X54301382Y-65691031D01*
X54301385Y-65691030D01*
X54301387Y-65691030D01*
X54455102Y-65643131D01*
X54592888Y-65559836D01*
X54706736Y-65445988D01*
X54790031Y-65308202D01*
X54837930Y-65154487D01*
X54844000Y-65087691D01*
X54843999Y-65081005D01*
X54863677Y-65013968D01*
X54880313Y-64993320D01*
X56905216Y-62968419D01*
X56966539Y-62934934D01*
X56992897Y-62932100D01*
X59367904Y-62932100D01*
X59434943Y-62951785D01*
G37*
%TD.AperFunction*%
%TA.AperFunction,Conductor*%
G36*
X88464012Y-70280422D02*
G01*
X88510444Y-70309679D01*
X88836241Y-70635476D01*
X88869726Y-70696799D01*
X88866492Y-70761473D01*
X88852753Y-70803757D01*
X88820190Y-71009356D01*
X88819500Y-71013713D01*
X88819500Y-71226287D01*
X88825908Y-71266746D01*
X88849983Y-71418751D01*
X88852754Y-71436243D01*
X88917459Y-71635385D01*
X88918444Y-71638414D01*
X89014951Y-71827820D01*
X89139890Y-71999786D01*
X89290213Y-72150109D01*
X89462182Y-72275050D01*
X89462184Y-72275051D01*
X89529579Y-72309390D01*
X89580375Y-72357364D01*
X89597171Y-72425184D01*
X89574634Y-72491320D01*
X89560966Y-72507556D01*
X86149744Y-75918781D01*
X86088421Y-75952266D01*
X86062063Y-75955100D01*
X77805934Y-75955100D01*
X77738895Y-75935415D01*
X77693140Y-75882611D01*
X77683196Y-75813453D01*
X77684317Y-75806909D01*
X77711699Y-75669246D01*
X77711700Y-75669244D01*
X77711700Y-75511555D01*
X77711699Y-75511553D01*
X77705382Y-75479796D01*
X77680937Y-75356903D01*
X77662874Y-75313294D01*
X77620597Y-75211227D01*
X77620590Y-75211214D01*
X77532989Y-75080111D01*
X77532986Y-75080107D01*
X77421492Y-74968613D01*
X77421488Y-74968610D01*
X77290385Y-74881009D01*
X77290376Y-74881004D01*
X77241262Y-74860661D01*
X77186859Y-74816820D01*
X77164794Y-74750526D01*
X77182073Y-74682827D01*
X77233210Y-74635216D01*
X77288715Y-74622100D01*
X79356901Y-74622100D01*
X79356917Y-74622101D01*
X79364513Y-74622101D01*
X79522624Y-74622101D01*
X79522627Y-74622101D01*
X79675355Y-74581177D01*
X79725474Y-74552239D01*
X79812286Y-74502120D01*
X79924090Y-74390316D01*
X79924090Y-74390314D01*
X79934298Y-74380107D01*
X79934300Y-74380104D01*
X80242708Y-74071696D01*
X84002533Y-74071696D01*
X85470500Y-74071696D01*
X86468500Y-74071696D01*
X86585444Y-74071696D01*
X87970500Y-72686637D01*
X87970500Y-72569696D01*
X86468500Y-72569696D01*
X86468500Y-74071696D01*
X85470500Y-74071696D01*
X85470500Y-72569696D01*
X85156196Y-72569696D01*
X85154094Y-72591039D01*
X85153349Y-72597080D01*
X85147945Y-72633511D01*
X85146904Y-72639508D01*
X85106579Y-72842235D01*
X85105245Y-72848177D01*
X85096295Y-72883903D01*
X85094672Y-72889767D01*
X85080446Y-72936662D01*
X85078537Y-72942440D01*
X85066135Y-72977101D01*
X85063945Y-72982778D01*
X84984852Y-73173728D01*
X84982386Y-73179292D01*
X84966645Y-73212574D01*
X84963909Y-73218009D01*
X84940808Y-73261230D01*
X84937809Y-73266525D01*
X84918874Y-73298118D01*
X84915616Y-73303263D01*
X84800783Y-73475122D01*
X84797278Y-73480098D01*
X84775345Y-73509671D01*
X84771601Y-73514469D01*
X84740512Y-73552351D01*
X84736538Y-73556958D01*
X84711807Y-73584245D01*
X84707609Y-73588654D01*
X84561454Y-73734809D01*
X84557045Y-73739007D01*
X84529758Y-73763738D01*
X84525151Y-73767712D01*
X84487269Y-73798801D01*
X84482471Y-73802545D01*
X84452898Y-73824478D01*
X84447922Y-73827983D01*
X84276063Y-73942816D01*
X84270918Y-73946074D01*
X84239325Y-73965009D01*
X84234030Y-73968008D01*
X84190809Y-73991109D01*
X84185374Y-73993845D01*
X84152092Y-74009586D01*
X84146528Y-74012052D01*
X84002533Y-74071696D01*
X80242708Y-74071696D01*
X80928598Y-73385805D01*
X80989919Y-73352322D01*
X81055277Y-73355781D01*
X81118703Y-73376799D01*
X81221491Y-73387300D01*
X81846508Y-73387299D01*
X81846516Y-73387298D01*
X81846519Y-73387298D01*
X81902802Y-73381548D01*
X81949297Y-73376799D01*
X82115834Y-73321614D01*
X82265156Y-73229512D01*
X82389212Y-73105456D01*
X82423785Y-73049404D01*
X82475733Y-73002679D01*
X82529324Y-72990500D01*
X82783034Y-72990500D01*
X82850073Y-73010185D01*
X82851925Y-73011398D01*
X82983614Y-73099390D01*
X82983627Y-73099397D01*
X83129298Y-73159735D01*
X83129303Y-73159737D01*
X83258017Y-73185340D01*
X83283953Y-73190499D01*
X83283956Y-73190500D01*
X83283958Y-73190500D01*
X83441644Y-73190500D01*
X83441645Y-73190499D01*
X83596297Y-73159737D01*
X83741979Y-73099394D01*
X83873089Y-73011789D01*
X83984589Y-72900289D01*
X84072194Y-72769179D01*
X84078283Y-72754480D01*
X84106855Y-72685499D01*
X84132537Y-72623497D01*
X84163300Y-72468842D01*
X84163300Y-72311158D01*
X84163300Y-72311155D01*
X84163299Y-72311153D01*
X84136821Y-72178040D01*
X84132537Y-72156503D01*
X84129889Y-72150109D01*
X84072197Y-72010827D01*
X84072190Y-72010814D01*
X83984589Y-71879711D01*
X83984586Y-71879707D01*
X83873092Y-71768213D01*
X83873088Y-71768210D01*
X83741985Y-71680609D01*
X83741972Y-71680602D01*
X83596301Y-71620264D01*
X83596289Y-71620261D01*
X83441645Y-71589500D01*
X83441642Y-71589500D01*
X83283958Y-71589500D01*
X83283955Y-71589500D01*
X83129310Y-71620261D01*
X83129298Y-71620264D01*
X82983627Y-71680602D01*
X82983614Y-71680609D01*
X82851925Y-71768602D01*
X82785247Y-71789480D01*
X82783034Y-71789500D01*
X82669469Y-71789500D01*
X82602430Y-71769815D01*
X82556675Y-71717011D01*
X82546111Y-71678101D01*
X82536499Y-71584003D01*
X82481314Y-71417466D01*
X82389212Y-71268144D01*
X82265156Y-71144088D01*
X82265152Y-71144085D01*
X82246785Y-71132756D01*
X82200060Y-71080808D01*
X82188839Y-71011846D01*
X82197319Y-70979770D01*
X82252937Y-70845497D01*
X82283700Y-70690842D01*
X82283700Y-70681498D01*
X82303385Y-70614459D01*
X82356189Y-70568704D01*
X82425347Y-70558760D01*
X82488903Y-70587785D01*
X82495381Y-70593817D01*
X82536884Y-70635320D01*
X82536886Y-70635321D01*
X82536890Y-70635324D01*
X82663870Y-70708635D01*
X82673816Y-70714377D01*
X82778933Y-70742543D01*
X82778932Y-70742543D01*
X82788993Y-70745238D01*
X82826542Y-70755300D01*
X82826543Y-70755300D01*
X86948634Y-70755300D01*
X87015673Y-70774985D01*
X87017525Y-70776198D01*
X87149214Y-70864190D01*
X87149227Y-70864197D01*
X87294898Y-70924535D01*
X87294903Y-70924537D01*
X87449553Y-70955299D01*
X87449556Y-70955300D01*
X87449558Y-70955300D01*
X87607244Y-70955300D01*
X87607245Y-70955299D01*
X87761897Y-70924537D01*
X87907579Y-70864194D01*
X88038689Y-70776589D01*
X88150189Y-70665089D01*
X88237794Y-70533979D01*
X88298137Y-70388297D01*
X88301145Y-70373170D01*
X88333528Y-70311260D01*
X88394243Y-70276684D01*
X88464012Y-70280422D01*
G37*
%TD.AperFunction*%
%TA.AperFunction,Conductor*%
G36*
X70395272Y-68270415D02*
G01*
X70395292Y-68270344D01*
X70403137Y-68272445D01*
X70403139Y-68272445D01*
X70403146Y-68272448D01*
X70422455Y-68274989D01*
X70486349Y-68303253D01*
X70495476Y-68312825D01*
X70495733Y-68312569D01*
X70737181Y-68554017D01*
X70770666Y-68615340D01*
X70773500Y-68641698D01*
X70773500Y-71586786D01*
X70773499Y-71586804D01*
X70773499Y-71752510D01*
X70773498Y-71752510D01*
X70773499Y-71752513D01*
X70814423Y-71905241D01*
X70843160Y-71955015D01*
X70893477Y-72042168D01*
X70893481Y-72042173D01*
X71012349Y-72161041D01*
X71012355Y-72161046D01*
X72810640Y-73959331D01*
X72844125Y-74020654D01*
X72839141Y-74090346D01*
X72797269Y-74146279D01*
X72731805Y-74170696D01*
X72706774Y-74169951D01*
X72601571Y-74156101D01*
X72601566Y-74156100D01*
X72601561Y-74156100D01*
X72601554Y-74156100D01*
X72114437Y-74156100D01*
X72003153Y-74170750D01*
X71995300Y-74172855D01*
X71994788Y-74170945D01*
X71935969Y-74177262D01*
X71920723Y-74172785D01*
X71920705Y-74172856D01*
X71912855Y-74170752D01*
X71912854Y-74170752D01*
X71801561Y-74156100D01*
X71314437Y-74156100D01*
X71203153Y-74170750D01*
X71195300Y-74172855D01*
X71194788Y-74170945D01*
X71135969Y-74177262D01*
X71120723Y-74172785D01*
X71120705Y-74172856D01*
X71112855Y-74170752D01*
X71112854Y-74170752D01*
X71001561Y-74156100D01*
X70514437Y-74156100D01*
X70403153Y-74170750D01*
X70395300Y-74172855D01*
X70394788Y-74170945D01*
X70335969Y-74177262D01*
X70320723Y-74172785D01*
X70320705Y-74172856D01*
X70312855Y-74170752D01*
X70312854Y-74170752D01*
X70201561Y-74156100D01*
X69714437Y-74156100D01*
X69603153Y-74170750D01*
X69595300Y-74172855D01*
X69594788Y-74170945D01*
X69535969Y-74177262D01*
X69520723Y-74172785D01*
X69520705Y-74172856D01*
X69512855Y-74170752D01*
X69512854Y-74170752D01*
X69401561Y-74156100D01*
X68914437Y-74156100D01*
X68803153Y-74170750D01*
X68795300Y-74172855D01*
X68794788Y-74170945D01*
X68735969Y-74177262D01*
X68720723Y-74172785D01*
X68720705Y-74172856D01*
X68712855Y-74170752D01*
X68712854Y-74170752D01*
X68698942Y-74168920D01*
X68601568Y-74156100D01*
X68130125Y-74156100D01*
X68063086Y-74136415D01*
X68017331Y-74083611D01*
X68007387Y-74014453D01*
X68036412Y-73950897D01*
X68082677Y-73917538D01*
X68095579Y-73912194D01*
X68226689Y-73824589D01*
X68338189Y-73713089D01*
X68425794Y-73581979D01*
X68486137Y-73436297D01*
X68516900Y-73281642D01*
X68516900Y-73123958D01*
X68516900Y-73123955D01*
X68516899Y-73123953D01*
X68513692Y-73107830D01*
X68486137Y-72969303D01*
X68480593Y-72955919D01*
X68425797Y-72823627D01*
X68425790Y-72823614D01*
X68338189Y-72692511D01*
X68338186Y-72692507D01*
X68226692Y-72581013D01*
X68226688Y-72581010D01*
X68095585Y-72493409D01*
X68095572Y-72493402D01*
X67949901Y-72433064D01*
X67949889Y-72433061D01*
X67795245Y-72402300D01*
X67795242Y-72402300D01*
X67637558Y-72402300D01*
X67637553Y-72402300D01*
X67571690Y-72415401D01*
X67502098Y-72409174D01*
X67446921Y-72366310D01*
X67423677Y-72300421D01*
X67423499Y-72293784D01*
X67423499Y-72178038D01*
X67409579Y-72072301D01*
X67408848Y-72066746D01*
X67408847Y-72066743D01*
X67406744Y-72058892D01*
X67408658Y-72058379D01*
X67402332Y-71999597D01*
X67406815Y-71984328D01*
X67406744Y-71984309D01*
X67408847Y-71976458D01*
X67411670Y-71955015D01*
X67423500Y-71865161D01*
X67423499Y-71378040D01*
X67422116Y-71367537D01*
X67408849Y-71266753D01*
X67408848Y-71266752D01*
X67408848Y-71266746D01*
X67408845Y-71266740D01*
X67406745Y-71258900D01*
X67408461Y-71258440D01*
X67402065Y-71198926D01*
X67406386Y-71184213D01*
X67406257Y-71184179D01*
X67408360Y-71176329D01*
X67422148Y-71071600D01*
X67369155Y-71071600D01*
X67302116Y-71051915D01*
X67270779Y-71023086D01*
X67270134Y-71022245D01*
X67260244Y-71009356D01*
X67143760Y-70919975D01*
X67102558Y-70863548D01*
X67098403Y-70793802D01*
X67132615Y-70732882D01*
X67143756Y-70723227D01*
X67260244Y-70633844D01*
X67270779Y-70620113D01*
X67327207Y-70578911D01*
X67369155Y-70571600D01*
X67422148Y-70571600D01*
X67408360Y-70466871D01*
X67406257Y-70459022D01*
X67408324Y-70458468D01*
X67402065Y-70400233D01*
X67406768Y-70384215D01*
X67408847Y-70376458D01*
X67414274Y-70335242D01*
X67423500Y-70265161D01*
X67423499Y-69778040D01*
X67408848Y-69666746D01*
X67408847Y-69666743D01*
X67406744Y-69658892D01*
X67408658Y-69658379D01*
X67402332Y-69599597D01*
X67406815Y-69584328D01*
X67406744Y-69584309D01*
X67408847Y-69576458D01*
X67408849Y-69576446D01*
X67423500Y-69465161D01*
X67423499Y-68978040D01*
X67422962Y-68973963D01*
X67419056Y-68944293D01*
X67408848Y-68866746D01*
X67408847Y-68866743D01*
X67406744Y-68858892D01*
X67408658Y-68858379D01*
X67402332Y-68799597D01*
X67406815Y-68784328D01*
X67406744Y-68784309D01*
X67408847Y-68776458D01*
X67408849Y-68776446D01*
X67423500Y-68665161D01*
X67423499Y-68411097D01*
X67443183Y-68344060D01*
X67495987Y-68298305D01*
X67547499Y-68287099D01*
X67633500Y-68287099D01*
X67700539Y-68306784D01*
X67746294Y-68359588D01*
X67757500Y-68411099D01*
X67757500Y-69592130D01*
X67757499Y-69592148D01*
X67757499Y-69757854D01*
X67757498Y-69757854D01*
X67798423Y-69910585D01*
X67827358Y-69960700D01*
X67827359Y-69960703D01*
X67864487Y-70025011D01*
X67877996Y-70075428D01*
X67880503Y-70075182D01*
X67881100Y-70081246D01*
X67911861Y-70235889D01*
X67911864Y-70235901D01*
X67972202Y-70381572D01*
X67972209Y-70381585D01*
X68059810Y-70512688D01*
X68059813Y-70512692D01*
X68171307Y-70624186D01*
X68171311Y-70624189D01*
X68302414Y-70711790D01*
X68302427Y-70711797D01*
X68439081Y-70768400D01*
X68448103Y-70772137D01*
X68557020Y-70793802D01*
X68602753Y-70802899D01*
X68602756Y-70802900D01*
X68602758Y-70802900D01*
X68760444Y-70802900D01*
X68760445Y-70802899D01*
X68915097Y-70772137D01*
X69054543Y-70714377D01*
X69060772Y-70711797D01*
X69060772Y-70711796D01*
X69060779Y-70711794D01*
X69191889Y-70624189D01*
X69303389Y-70512689D01*
X69390994Y-70381579D01*
X69397520Y-70365825D01*
X69432894Y-70280422D01*
X69451337Y-70235897D01*
X69480807Y-70087741D01*
X69513192Y-70025831D01*
X69573907Y-69991257D01*
X69578181Y-69990326D01*
X69644162Y-69977202D01*
X69789844Y-69916859D01*
X69920954Y-69829254D01*
X70032454Y-69717754D01*
X70120059Y-69586644D01*
X70180402Y-69440962D01*
X70211165Y-69286307D01*
X70211165Y-69128623D01*
X70211165Y-69128620D01*
X70211164Y-69128618D01*
X70199841Y-69071696D01*
X70180402Y-68973968D01*
X70162853Y-68931600D01*
X70120062Y-68828292D01*
X70120055Y-68828279D01*
X70032454Y-68697176D01*
X70032451Y-68697172D01*
X69920957Y-68585678D01*
X69920949Y-68585672D01*
X69813985Y-68514201D01*
X69769179Y-68460589D01*
X69760472Y-68391264D01*
X69790626Y-68328237D01*
X69850069Y-68291517D01*
X69882875Y-68287099D01*
X70201562Y-68287099D01*
X70235090Y-68282685D01*
X70312854Y-68272448D01*
X70312857Y-68272446D01*
X70320708Y-68270344D01*
X70321220Y-68272258D01*
X70380003Y-68265932D01*
X70395272Y-68270415D01*
G37*
%TD.AperFunction*%
%TA.AperFunction,Conductor*%
G36*
X85795696Y-59859505D02*
G01*
X85841586Y-59912192D01*
X85851707Y-59981325D01*
X85822845Y-60044954D01*
X85781333Y-60076372D01*
X85776474Y-60078637D01*
X85628400Y-60169971D01*
X85628396Y-60169974D01*
X85505374Y-60292996D01*
X85505371Y-60293000D01*
X85414042Y-60441066D01*
X85414037Y-60441077D01*
X85359313Y-60606223D01*
X85348900Y-60708144D01*
X85348900Y-61311459D01*
X85329215Y-61378498D01*
X85276411Y-61424253D01*
X85207253Y-61434197D01*
X85143697Y-61405172D01*
X85137219Y-61399140D01*
X85092292Y-61354213D01*
X85092288Y-61354210D01*
X84961185Y-61266609D01*
X84961172Y-61266602D01*
X84815501Y-61206264D01*
X84815489Y-61206261D01*
X84660845Y-61175500D01*
X84660842Y-61175500D01*
X84503158Y-61175500D01*
X84503155Y-61175500D01*
X84348510Y-61206261D01*
X84348498Y-61206264D01*
X84202827Y-61266602D01*
X84202814Y-61266609D01*
X84071711Y-61354210D01*
X84071707Y-61354213D01*
X83960213Y-61465707D01*
X83960210Y-61465711D01*
X83872609Y-61596814D01*
X83872602Y-61596827D01*
X83812264Y-61742498D01*
X83812261Y-61742510D01*
X83781500Y-61897153D01*
X83781500Y-62054846D01*
X83812261Y-62209489D01*
X83812264Y-62209501D01*
X83872361Y-62354588D01*
X83881800Y-62402040D01*
X83881800Y-64237891D01*
X83862115Y-64304930D01*
X83822898Y-64343429D01*
X83751144Y-64387687D01*
X83627089Y-64511742D01*
X83534987Y-64661063D01*
X83534985Y-64661068D01*
X83524067Y-64694016D01*
X83479801Y-64827603D01*
X83479801Y-64827604D01*
X83479800Y-64827604D01*
X83469300Y-64930383D01*
X83469300Y-65930401D01*
X83469301Y-65930419D01*
X83479800Y-66033196D01*
X83479801Y-66033199D01*
X83534985Y-66199731D01*
X83534987Y-66199736D01*
X83555500Y-66232993D01*
X83627088Y-66349056D01*
X83751144Y-66473112D01*
X83900466Y-66565214D01*
X84067003Y-66620399D01*
X84169791Y-66630900D01*
X84794808Y-66630899D01*
X84794816Y-66630898D01*
X84794819Y-66630898D01*
X84851102Y-66625148D01*
X84897597Y-66620399D01*
X85064134Y-66565214D01*
X85213456Y-66473112D01*
X85307119Y-66379449D01*
X85368442Y-66345964D01*
X85438134Y-66350948D01*
X85482481Y-66379449D01*
X85576144Y-66473112D01*
X85725466Y-66565214D01*
X85892003Y-66620399D01*
X85994791Y-66630900D01*
X86619808Y-66630899D01*
X86619816Y-66630898D01*
X86619819Y-66630898D01*
X86676102Y-66625148D01*
X86722597Y-66620399D01*
X86889134Y-66565214D01*
X87038456Y-66473112D01*
X87162512Y-66349056D01*
X87254614Y-66199734D01*
X87309799Y-66033197D01*
X87320300Y-65930409D01*
X87320299Y-64930392D01*
X87315984Y-64888155D01*
X87309799Y-64827603D01*
X87309798Y-64827600D01*
X87282826Y-64746204D01*
X87254614Y-64661066D01*
X87162512Y-64511744D01*
X87038456Y-64387688D01*
X87038452Y-64387685D01*
X86996303Y-64361687D01*
X86949578Y-64309739D01*
X86937400Y-64256149D01*
X86937400Y-62393849D01*
X86957085Y-62326810D01*
X86996302Y-62288311D01*
X87045403Y-62258026D01*
X87168426Y-62135003D01*
X87168858Y-62134301D01*
X87169281Y-62133921D01*
X87172907Y-62129336D01*
X87173690Y-62129955D01*
X87220802Y-62087575D01*
X87289764Y-62076349D01*
X87353848Y-62104188D01*
X87375742Y-62129455D01*
X87375893Y-62129336D01*
X87378543Y-62132687D01*
X87379940Y-62134299D01*
X87380374Y-62135003D01*
X87503397Y-62258026D01*
X87552497Y-62288311D01*
X87599221Y-62340257D01*
X87611400Y-62393849D01*
X87611400Y-66535230D01*
X87611399Y-66535248D01*
X87611399Y-66700954D01*
X87611398Y-66700954D01*
X87611399Y-66700957D01*
X87652323Y-66853685D01*
X87679553Y-66900848D01*
X87681258Y-66903800D01*
X87681259Y-66903804D01*
X87681260Y-66903804D01*
X87728867Y-66986264D01*
X87731379Y-66990614D01*
X87731381Y-66990617D01*
X87776261Y-67035497D01*
X87809746Y-67096820D01*
X87804762Y-67166512D01*
X87791683Y-67192068D01*
X87719043Y-67300781D01*
X87719037Y-67300792D01*
X87658699Y-67446463D01*
X87658696Y-67446475D01*
X87627935Y-67601118D01*
X87627935Y-67758811D01*
X87658696Y-67913454D01*
X87658698Y-67913462D01*
X87678160Y-67960447D01*
X87685629Y-68029917D01*
X87654354Y-68092396D01*
X87594265Y-68128048D01*
X87563599Y-68131900D01*
X87402001Y-68131900D01*
X87334962Y-68112215D01*
X87289207Y-68059411D01*
X87284295Y-68046904D01*
X87256514Y-67963066D01*
X87164412Y-67813744D01*
X87040356Y-67689688D01*
X86891034Y-67597586D01*
X86891033Y-67597585D01*
X86891032Y-67597585D01*
X86890759Y-67597458D01*
X86890602Y-67597320D01*
X86884887Y-67593795D01*
X86885489Y-67592818D01*
X86838319Y-67551287D01*
X86827657Y-67527969D01*
X86827268Y-67528131D01*
X86764597Y-67376827D01*
X86764590Y-67376814D01*
X86676989Y-67245711D01*
X86676986Y-67245707D01*
X86565492Y-67134213D01*
X86565488Y-67134210D01*
X86434385Y-67046609D01*
X86434372Y-67046602D01*
X86288701Y-66986264D01*
X86288689Y-66986261D01*
X86134045Y-66955500D01*
X86134042Y-66955500D01*
X85976358Y-66955500D01*
X85976355Y-66955500D01*
X85821710Y-66986261D01*
X85821698Y-66986264D01*
X85676027Y-67046602D01*
X85676014Y-67046609D01*
X85544911Y-67134210D01*
X85544907Y-67134213D01*
X85433413Y-67245707D01*
X85433410Y-67245711D01*
X85345809Y-67376814D01*
X85345802Y-67376827D01*
X85285464Y-67522498D01*
X85285461Y-67522507D01*
X85282893Y-67535421D01*
X85250507Y-67597332D01*
X85189790Y-67631905D01*
X85120021Y-67628164D01*
X85096179Y-67616766D01*
X85065830Y-67598046D01*
X85065819Y-67598041D01*
X84899397Y-67542894D01*
X84899390Y-67542893D01*
X84796686Y-67532400D01*
X84734200Y-67532400D01*
X84734200Y-68608400D01*
X84714515Y-68675439D01*
X84661711Y-68721194D01*
X84610200Y-68732400D01*
X84484200Y-68732400D01*
X84484200Y-68858400D01*
X84464515Y-68925439D01*
X84411711Y-68971194D01*
X84360200Y-68982400D01*
X83471701Y-68982400D01*
X83471701Y-69232386D01*
X83482193Y-69335095D01*
X83500817Y-69391295D01*
X83503219Y-69461124D01*
X83467488Y-69521166D01*
X83404967Y-69552359D01*
X83383111Y-69554300D01*
X83205697Y-69554300D01*
X83138658Y-69534615D01*
X83118016Y-69517981D01*
X82481718Y-68881683D01*
X82448233Y-68820360D01*
X82445399Y-68794002D01*
X82445399Y-68232413D01*
X83471700Y-68232413D01*
X83471700Y-68482400D01*
X84234200Y-68482400D01*
X84234200Y-67532400D01*
X84234199Y-67532399D01*
X84171728Y-67532400D01*
X84171711Y-67532401D01*
X84069002Y-67542894D01*
X83902580Y-67598041D01*
X83902575Y-67598043D01*
X83753354Y-67690084D01*
X83629384Y-67814054D01*
X83537343Y-67963275D01*
X83537341Y-67963280D01*
X83482194Y-68129702D01*
X83482193Y-68129709D01*
X83471700Y-68232413D01*
X82445399Y-68232413D01*
X82445399Y-68181598D01*
X82445398Y-68181581D01*
X82434899Y-68078803D01*
X82434898Y-68078800D01*
X82379714Y-67912266D01*
X82287612Y-67762944D01*
X82163556Y-67638888D01*
X82051377Y-67569696D01*
X82014236Y-67546787D01*
X82014231Y-67546785D01*
X82002486Y-67542893D01*
X81847697Y-67491601D01*
X81847695Y-67491600D01*
X81744910Y-67481100D01*
X81119898Y-67481100D01*
X81119880Y-67481101D01*
X81017103Y-67491600D01*
X81017100Y-67491601D01*
X80850568Y-67546785D01*
X80850563Y-67546787D01*
X80701245Y-67638887D01*
X80607227Y-67732905D01*
X80545903Y-67766389D01*
X80476212Y-67761405D01*
X80431865Y-67732904D01*
X80338245Y-67639284D01*
X80189024Y-67547243D01*
X80189019Y-67547241D01*
X80022597Y-67492094D01*
X80022590Y-67492093D01*
X79919886Y-67481600D01*
X79857400Y-67481600D01*
X79857400Y-69881599D01*
X79861307Y-69885506D01*
X79915039Y-69901284D01*
X79960794Y-69954088D01*
X79972000Y-70005599D01*
X79972000Y-70922438D01*
X79959000Y-70966710D01*
X79959000Y-72062800D01*
X79939315Y-72129839D01*
X79886511Y-72175594D01*
X79835000Y-72186800D01*
X79709000Y-72186800D01*
X79709000Y-72312800D01*
X79689315Y-72379839D01*
X79636511Y-72425594D01*
X79585000Y-72436800D01*
X78696501Y-72436800D01*
X78696501Y-72686786D01*
X78706994Y-72789497D01*
X78762141Y-72955919D01*
X78762143Y-72955924D01*
X78854184Y-73105145D01*
X78958458Y-73209419D01*
X78991943Y-73270742D01*
X78986959Y-73340434D01*
X78945087Y-73396367D01*
X78879623Y-73420784D01*
X78870777Y-73421100D01*
X75657642Y-73421100D01*
X75590603Y-73401415D01*
X75582156Y-73395476D01*
X75483761Y-73319975D01*
X75442558Y-73263547D01*
X75438403Y-73193801D01*
X75472615Y-73132881D01*
X75483746Y-73123235D01*
X75600244Y-73033844D01*
X75610779Y-73020113D01*
X75667207Y-72978911D01*
X75709155Y-72971600D01*
X75762148Y-72971600D01*
X75748360Y-72866871D01*
X75746257Y-72859022D01*
X75748324Y-72858468D01*
X75742065Y-72800233D01*
X75746768Y-72784215D01*
X75748847Y-72776458D01*
X75749806Y-72769179D01*
X75763500Y-72665161D01*
X75763499Y-72178040D01*
X75748848Y-72066746D01*
X75748847Y-72066743D01*
X75746744Y-72058892D01*
X75748658Y-72058379D01*
X75742332Y-71999597D01*
X75746815Y-71984327D01*
X75746744Y-71984308D01*
X75748845Y-71976462D01*
X75748846Y-71976458D01*
X75748848Y-71976454D01*
X75750884Y-71960988D01*
X75779147Y-71897096D01*
X75786116Y-71889518D01*
X75988823Y-71686813D01*
X78696500Y-71686813D01*
X78696500Y-71936800D01*
X79459000Y-71936800D01*
X79459000Y-70986800D01*
X79458999Y-70986799D01*
X79396528Y-70986800D01*
X79396511Y-70986801D01*
X79293802Y-70997294D01*
X79127380Y-71052441D01*
X79127375Y-71052443D01*
X78978154Y-71144484D01*
X78854184Y-71268454D01*
X78762143Y-71417675D01*
X78762141Y-71417680D01*
X78706994Y-71584102D01*
X78706993Y-71584109D01*
X78696500Y-71686813D01*
X75988823Y-71686813D01*
X76044520Y-71631116D01*
X76123577Y-71494184D01*
X76134157Y-71454701D01*
X77156204Y-71454701D01*
X77166574Y-71448347D01*
X77327858Y-71366168D01*
X77345835Y-71358722D01*
X77517990Y-71302786D01*
X77536910Y-71298244D01*
X77715695Y-71269927D01*
X77735093Y-71268400D01*
X77760243Y-71268400D01*
X77823933Y-71076195D01*
X77826400Y-71069418D01*
X77842510Y-71028866D01*
X77845365Y-71022245D01*
X77869913Y-70969598D01*
X77873151Y-70963151D01*
X77893869Y-70924726D01*
X77897476Y-70918479D01*
X77970500Y-70800087D01*
X77970500Y-70219904D01*
X77951730Y-70196167D01*
X77947422Y-70190381D01*
X77922382Y-70154621D01*
X77918417Y-70148593D01*
X77869753Y-70069696D01*
X77162500Y-70069696D01*
X77162500Y-71154945D01*
X77162501Y-71154984D01*
X77162501Y-71374141D01*
X77162236Y-71382251D01*
X77159024Y-71431257D01*
X77158228Y-71439335D01*
X77156204Y-71454701D01*
X76134157Y-71454701D01*
X76164501Y-71341457D01*
X76164501Y-71183342D01*
X76164501Y-71175747D01*
X76164500Y-71175729D01*
X76164500Y-69181586D01*
X78594901Y-69181586D01*
X78605394Y-69284297D01*
X78660541Y-69450719D01*
X78660543Y-69450724D01*
X78752584Y-69599945D01*
X78876554Y-69723915D01*
X79025775Y-69815956D01*
X79025780Y-69815958D01*
X79192202Y-69871105D01*
X79192209Y-69871106D01*
X79294919Y-69881599D01*
X79357399Y-69881598D01*
X79357400Y-69881598D01*
X79357400Y-68931600D01*
X78594901Y-68931600D01*
X78594901Y-69181586D01*
X76164500Y-69181586D01*
X76164500Y-69071696D01*
X77162500Y-69071696D01*
X77596901Y-69071696D01*
X77596901Y-68731054D01*
X77606340Y-68683601D01*
X77607168Y-68681601D01*
X77606339Y-68679599D01*
X77596900Y-68632146D01*
X77596900Y-68181613D01*
X78594900Y-68181613D01*
X78594900Y-68431600D01*
X79357400Y-68431600D01*
X79357400Y-67481600D01*
X79357399Y-67481599D01*
X79294928Y-67481600D01*
X79294911Y-67481601D01*
X79192202Y-67492094D01*
X79025780Y-67547241D01*
X79025775Y-67547243D01*
X78876554Y-67639284D01*
X78752584Y-67763254D01*
X78660543Y-67912475D01*
X78660541Y-67912480D01*
X78605394Y-68078902D01*
X78605393Y-68078909D01*
X78594900Y-68181613D01*
X77596900Y-68181613D01*
X77596900Y-68168926D01*
X77596940Y-68165774D01*
X77597425Y-68146703D01*
X77597545Y-68143549D01*
X77598837Y-68118178D01*
X77599038Y-68115027D01*
X77600495Y-68095978D01*
X77600776Y-68092832D01*
X77615330Y-67950376D01*
X77616201Y-67943667D01*
X77622576Y-67903233D01*
X77623812Y-67896582D01*
X77635214Y-67843333D01*
X77636808Y-67836765D01*
X77647538Y-67797297D01*
X77649489Y-67790824D01*
X77722333Y-67570995D01*
X77722806Y-67569696D01*
X77162500Y-67569696D01*
X77162500Y-69071696D01*
X76164500Y-69071696D01*
X76164500Y-65596909D01*
X76184185Y-65529870D01*
X76236989Y-65484115D01*
X76306147Y-65474171D01*
X76335952Y-65482348D01*
X76450682Y-65529870D01*
X76474503Y-65539737D01*
X76519035Y-65548595D01*
X76629849Y-65570638D01*
X76691760Y-65603023D01*
X76693339Y-65604574D01*
X77299539Y-66210774D01*
X77299549Y-66210785D01*
X77303879Y-66215115D01*
X77303880Y-66215116D01*
X77415684Y-66326920D01*
X77415686Y-66326921D01*
X77415690Y-66326924D01*
X77508081Y-66380265D01*
X77552616Y-66405977D01*
X77664419Y-66435934D01*
X77705342Y-66446900D01*
X77705343Y-66446900D01*
X79064902Y-66446900D01*
X79119736Y-66462450D01*
X79120618Y-66460560D01*
X79127159Y-66463610D01*
X79127166Y-66463614D01*
X79293703Y-66518799D01*
X79396491Y-66529300D01*
X80021508Y-66529299D01*
X80021516Y-66529298D01*
X80021519Y-66529298D01*
X80077802Y-66523548D01*
X80124297Y-66518799D01*
X80290834Y-66463614D01*
X80440156Y-66371512D01*
X80533819Y-66277849D01*
X80595142Y-66244364D01*
X80664834Y-66249348D01*
X80709181Y-66277849D01*
X80802844Y-66371512D01*
X80952166Y-66463614D01*
X81118703Y-66518799D01*
X81221491Y-66529300D01*
X81846508Y-66529299D01*
X81846516Y-66529298D01*
X81846519Y-66529298D01*
X81902802Y-66523548D01*
X81949297Y-66518799D01*
X82115834Y-66463614D01*
X82265156Y-66371512D01*
X82389212Y-66247456D01*
X82481314Y-66098134D01*
X82536499Y-65931597D01*
X82547000Y-65828809D01*
X82546999Y-64828792D01*
X82546981Y-64828620D01*
X82536499Y-64726003D01*
X82536498Y-64726000D01*
X82526526Y-64695908D01*
X82481314Y-64559466D01*
X82389212Y-64410144D01*
X82265156Y-64286088D01*
X82153112Y-64216979D01*
X82115836Y-64193987D01*
X82115831Y-64193985D01*
X82091782Y-64186016D01*
X81949297Y-64138801D01*
X81949295Y-64138800D01*
X81846516Y-64128300D01*
X81234097Y-64128300D01*
X81167058Y-64108615D01*
X81146416Y-64091981D01*
X81053219Y-63998784D01*
X81019734Y-63937461D01*
X81016900Y-63911103D01*
X81016900Y-62495449D01*
X81036585Y-62428410D01*
X81075802Y-62389911D01*
X81124903Y-62359626D01*
X81247926Y-62236603D01*
X81248655Y-62235421D01*
X81249366Y-62234781D01*
X81252407Y-62230936D01*
X81253063Y-62231455D01*
X81300601Y-62188697D01*
X81369564Y-62177473D01*
X81433646Y-62205315D01*
X81455661Y-62230723D01*
X81455788Y-62230623D01*
X81458013Y-62233438D01*
X81459733Y-62235422D01*
X81460265Y-62236285D01*
X81460269Y-62236290D01*
X81583208Y-62359229D01*
X81731185Y-62450503D01*
X81731190Y-62450505D01*
X81896226Y-62505192D01*
X81998084Y-62515599D01*
X81998097Y-62515600D01*
X82041400Y-62515600D01*
X82541400Y-62515600D01*
X82584703Y-62515600D01*
X82584715Y-62515599D01*
X82686573Y-62505192D01*
X82851609Y-62450505D01*
X82851614Y-62450503D01*
X82999591Y-62359229D01*
X83122529Y-62236291D01*
X83213803Y-62088314D01*
X83213805Y-62088309D01*
X83268492Y-61923273D01*
X83278899Y-61821415D01*
X83278900Y-61821402D01*
X83278900Y-61565600D01*
X82541400Y-61565600D01*
X82541400Y-62515600D01*
X82041400Y-62515600D01*
X82041400Y-61065600D01*
X82541400Y-61065600D01*
X83278900Y-61065600D01*
X83278900Y-60809797D01*
X83278899Y-60809784D01*
X83268492Y-60707926D01*
X83213805Y-60542890D01*
X83213803Y-60542885D01*
X83122529Y-60394908D01*
X82999591Y-60271970D01*
X82851614Y-60180696D01*
X82851609Y-60180694D01*
X82686573Y-60126007D01*
X82584715Y-60115600D01*
X82541400Y-60115600D01*
X82541400Y-61065600D01*
X82041400Y-61065600D01*
X82041400Y-60115600D01*
X81998084Y-60115600D01*
X81896226Y-60126007D01*
X81731190Y-60180694D01*
X81731185Y-60180696D01*
X81583208Y-60271970D01*
X81460269Y-60394909D01*
X81460264Y-60394915D01*
X81459729Y-60395784D01*
X81459206Y-60396254D01*
X81455788Y-60400577D01*
X81455049Y-60399992D01*
X81407779Y-60442506D01*
X81338816Y-60453725D01*
X81274735Y-60425878D01*
X81252486Y-60400201D01*
X81252407Y-60400264D01*
X81251011Y-60398498D01*
X81248658Y-60395783D01*
X81247928Y-60394599D01*
X81124903Y-60271574D01*
X81124899Y-60271571D01*
X80976833Y-60180242D01*
X80976827Y-60180239D01*
X80976825Y-60180238D01*
X80945841Y-60169971D01*
X80811676Y-60125513D01*
X80709755Y-60115100D01*
X80709748Y-60115100D01*
X80123052Y-60115100D01*
X80123044Y-60115100D01*
X80021123Y-60125513D01*
X79855977Y-60180237D01*
X79855966Y-60180242D01*
X79707900Y-60271571D01*
X79707896Y-60271574D01*
X79584874Y-60394596D01*
X79584871Y-60394600D01*
X79493542Y-60542666D01*
X79493537Y-60542677D01*
X79438813Y-60707823D01*
X79428400Y-60809744D01*
X79428400Y-61821455D01*
X79438813Y-61923376D01*
X79493537Y-62088522D01*
X79493542Y-62088533D01*
X79584871Y-62236599D01*
X79584874Y-62236603D01*
X79707897Y-62359626D01*
X79756997Y-62389911D01*
X79803721Y-62441857D01*
X79815900Y-62495449D01*
X79815900Y-64004300D01*
X79796215Y-64071339D01*
X79743411Y-64117094D01*
X79691900Y-64128300D01*
X79409097Y-64128300D01*
X79342058Y-64108615D01*
X79321416Y-64091981D01*
X77504758Y-62275323D01*
X77471273Y-62214000D01*
X77476257Y-62144308D01*
X77486897Y-62122551D01*
X77526014Y-62059134D01*
X77581199Y-61892597D01*
X77591700Y-61789809D01*
X77591699Y-60739792D01*
X77588467Y-60708157D01*
X77581199Y-60637003D01*
X77581198Y-60637000D01*
X77566888Y-60593815D01*
X77526014Y-60470466D01*
X77433912Y-60321144D01*
X77309856Y-60197088D01*
X77217088Y-60139869D01*
X77160536Y-60104987D01*
X77160527Y-60104983D01*
X77156228Y-60103559D01*
X77098783Y-60063785D01*
X77071962Y-59999269D01*
X77084278Y-59930493D01*
X77131822Y-59879294D01*
X77194914Y-59861854D01*
X85728607Y-59839992D01*
X85795696Y-59859505D01*
G37*
%TD.AperFunction*%
%TA.AperFunction,Conductor*%
G36*
X63710686Y-59916083D02*
G01*
X63756576Y-59968770D01*
X63766697Y-60037903D01*
X63737835Y-60101532D01*
X63709013Y-60126108D01*
X63675654Y-60146684D01*
X63551684Y-60270654D01*
X63459643Y-60419875D01*
X63459641Y-60419880D01*
X63404494Y-60586302D01*
X63404493Y-60586309D01*
X63394000Y-60689013D01*
X63394000Y-60964000D01*
X64270000Y-60964000D01*
X64337039Y-60983685D01*
X64382794Y-61036489D01*
X64394000Y-61088000D01*
X64394000Y-61340000D01*
X64374315Y-61407039D01*
X64321511Y-61452794D01*
X64270000Y-61464000D01*
X63394001Y-61464000D01*
X63394001Y-61607100D01*
X63374316Y-61674139D01*
X63321512Y-61719894D01*
X63270001Y-61731100D01*
X62043512Y-61731100D01*
X61976473Y-61711415D01*
X61930718Y-61658611D01*
X61920774Y-61589453D01*
X61937395Y-61542950D01*
X61964572Y-61497993D01*
X62012432Y-61344402D01*
X62012435Y-61344392D01*
X62015414Y-61311600D01*
X59396585Y-61311600D01*
X59399564Y-61344392D01*
X59399567Y-61344402D01*
X59447427Y-61497993D01*
X59474605Y-61542950D01*
X59492441Y-61610505D01*
X59470923Y-61676979D01*
X59416883Y-61721266D01*
X59368488Y-61731100D01*
X54868512Y-61731100D01*
X54801473Y-61711415D01*
X54755718Y-61658611D01*
X54745774Y-61589453D01*
X54762395Y-61542950D01*
X54789572Y-61497993D01*
X54837432Y-61344402D01*
X54837435Y-61344392D01*
X54840414Y-61311600D01*
X52221585Y-61311600D01*
X52224564Y-61344392D01*
X52224567Y-61344402D01*
X52272427Y-61497992D01*
X52353418Y-61631966D01*
X52371254Y-61699520D01*
X52353418Y-61760266D01*
X52271969Y-61894997D01*
X52224069Y-62048716D01*
X52218000Y-62115511D01*
X52218000Y-62547698D01*
X52224068Y-62614482D01*
X52224071Y-62614493D01*
X52271967Y-62768198D01*
X52271968Y-62768200D01*
X52271969Y-62768202D01*
X52353418Y-62902935D01*
X52371254Y-62970487D01*
X52353418Y-63031233D01*
X52272427Y-63165207D01*
X52224567Y-63318797D01*
X52224564Y-63318807D01*
X52221585Y-63351599D01*
X52221585Y-63351600D01*
X53407000Y-63351600D01*
X53474039Y-63371285D01*
X53519794Y-63424089D01*
X53531000Y-63475600D01*
X53531000Y-63727600D01*
X53511315Y-63794639D01*
X53458511Y-63840394D01*
X53407000Y-63851600D01*
X52221585Y-63851600D01*
X52224564Y-63884392D01*
X52224567Y-63884402D01*
X52272427Y-64037993D01*
X52299605Y-64082950D01*
X52317441Y-64150505D01*
X52295923Y-64216979D01*
X52241883Y-64261266D01*
X52193488Y-64271100D01*
X52092541Y-64271100D01*
X52076285Y-64275455D01*
X52076286Y-64275456D01*
X51939814Y-64312023D01*
X51939809Y-64312026D01*
X51802890Y-64391075D01*
X51802882Y-64391081D01*
X49770881Y-66423083D01*
X49709558Y-66456568D01*
X49639866Y-66451584D01*
X49583933Y-66409712D01*
X49559516Y-66344248D01*
X49559200Y-66335402D01*
X49559200Y-66036000D01*
X48642212Y-66036000D01*
X48675125Y-65978993D01*
X48709200Y-65851826D01*
X48709200Y-65720174D01*
X48675125Y-65593007D01*
X48642212Y-65536000D01*
X49559200Y-65536000D01*
X49559200Y-64888172D01*
X49559199Y-64888155D01*
X49552798Y-64828627D01*
X49552796Y-64828620D01*
X49502554Y-64693913D01*
X49502550Y-64693906D01*
X49416390Y-64578812D01*
X49416387Y-64578809D01*
X49301293Y-64492649D01*
X49301286Y-64492645D01*
X49166579Y-64442403D01*
X49166572Y-64442401D01*
X49107044Y-64436000D01*
X48459200Y-64436000D01*
X48459200Y-65352988D01*
X48402193Y-65320075D01*
X48275026Y-65286000D01*
X48143374Y-65286000D01*
X48016207Y-65320075D01*
X47959200Y-65352988D01*
X47959200Y-64436000D01*
X47311355Y-64436000D01*
X47251827Y-64442401D01*
X47251820Y-64442403D01*
X47117113Y-64492645D01*
X47117106Y-64492649D01*
X47002012Y-64578809D01*
X47002009Y-64578812D01*
X46915849Y-64693906D01*
X46915845Y-64693913D01*
X46865603Y-64828620D01*
X46865601Y-64828627D01*
X46859200Y-64888155D01*
X46859200Y-65536000D01*
X47776188Y-65536000D01*
X47743275Y-65593007D01*
X47709200Y-65720174D01*
X47709200Y-65851826D01*
X47743275Y-65978993D01*
X47776188Y-66036000D01*
X46859200Y-66036000D01*
X46859200Y-66683844D01*
X46865601Y-66743372D01*
X46865603Y-66743379D01*
X46915845Y-66878086D01*
X46915849Y-66878093D01*
X47002009Y-66993187D01*
X47002012Y-66993190D01*
X47117106Y-67079350D01*
X47117113Y-67079354D01*
X47248670Y-67128422D01*
X47304604Y-67170293D01*
X47329021Y-67235758D01*
X47314169Y-67304031D01*
X47293019Y-67332285D01*
X47179089Y-67446215D01*
X47054151Y-67618179D01*
X46957644Y-67807585D01*
X46891953Y-68009760D01*
X46858700Y-68219713D01*
X46858700Y-68432286D01*
X46891953Y-68642239D01*
X46891953Y-68642241D01*
X46891954Y-68642243D01*
X46957389Y-68843631D01*
X46957644Y-68844414D01*
X47054151Y-69033820D01*
X47179090Y-69205786D01*
X47329413Y-69356109D01*
X47501379Y-69481048D01*
X47501381Y-69481049D01*
X47501384Y-69481051D01*
X47690788Y-69577557D01*
X47892957Y-69643246D01*
X48102913Y-69676500D01*
X48102914Y-69676500D01*
X48315486Y-69676500D01*
X48315487Y-69676500D01*
X48525443Y-69643246D01*
X48567723Y-69629507D01*
X48637562Y-69627511D01*
X48693722Y-69659757D01*
X51507784Y-72473819D01*
X51541269Y-72535142D01*
X51536285Y-72604834D01*
X51494413Y-72660767D01*
X51428949Y-72685184D01*
X51420103Y-72685500D01*
X49932099Y-72685500D01*
X49865060Y-72665815D01*
X49819305Y-72613011D01*
X49808099Y-72561500D01*
X49808099Y-71488129D01*
X49808098Y-71488123D01*
X49806039Y-71468970D01*
X49801691Y-71428517D01*
X49800275Y-71424721D01*
X49751397Y-71293671D01*
X49751393Y-71293664D01*
X49665147Y-71178455D01*
X49665144Y-71178452D01*
X49549935Y-71092206D01*
X49549928Y-71092202D01*
X49415082Y-71041908D01*
X49415083Y-71041908D01*
X49355483Y-71035501D01*
X49355481Y-71035500D01*
X49355473Y-71035500D01*
X49355464Y-71035500D01*
X46859729Y-71035500D01*
X46859723Y-71035501D01*
X46800116Y-71041908D01*
X46665271Y-71092202D01*
X46665264Y-71092206D01*
X46550055Y-71178452D01*
X46550052Y-71178455D01*
X46463806Y-71293664D01*
X46463803Y-71293669D01*
X46460682Y-71302039D01*
X46418810Y-71357972D01*
X46353346Y-71382389D01*
X46285073Y-71367537D01*
X46235668Y-71318132D01*
X46220500Y-71258705D01*
X46220500Y-62666349D01*
X47218500Y-62666349D01*
X47218500Y-63442240D01*
X47221295Y-63441977D01*
X47241344Y-63440364D01*
X47244658Y-63440142D01*
X47271345Y-63438713D01*
X47274661Y-63438580D01*
X47294709Y-63438044D01*
X47298023Y-63438000D01*
X47970500Y-63438000D01*
X48968500Y-63438000D01*
X49120377Y-63438000D01*
X49123691Y-63438044D01*
X49143739Y-63438580D01*
X49147055Y-63438713D01*
X49173742Y-63440142D01*
X49177056Y-63440364D01*
X49197105Y-63441977D01*
X49200417Y-63442289D01*
X49304269Y-63453455D01*
X49311938Y-63454522D01*
X49358116Y-63462428D01*
X49365701Y-63463972D01*
X49426412Y-63478315D01*
X49433895Y-63480332D01*
X49478764Y-63493942D01*
X49486104Y-63496421D01*
X49683461Y-63570030D01*
X49691641Y-63573419D01*
X49740377Y-63595677D01*
X49748291Y-63599638D01*
X49757322Y-63604569D01*
X49861544Y-63500348D01*
X49876340Y-63487711D01*
X50022784Y-63381314D01*
X50039374Y-63371147D01*
X50200658Y-63288968D01*
X50218635Y-63281522D01*
X50390790Y-63225586D01*
X50409710Y-63221044D01*
X50470500Y-63211415D01*
X50470500Y-62569696D01*
X48968500Y-62569696D01*
X48968500Y-63438000D01*
X47970500Y-63438000D01*
X47970500Y-62569696D01*
X47296823Y-62569696D01*
X47218500Y-62666349D01*
X46220500Y-62666349D01*
X46220500Y-62156551D01*
X46240185Y-62089512D01*
X46248155Y-62078489D01*
X47177070Y-60932168D01*
X48968500Y-60932168D01*
X48968500Y-61571696D01*
X50470500Y-61571696D01*
X50470500Y-60928320D01*
X48968500Y-60932168D01*
X47177070Y-60932168D01*
X47274772Y-60811599D01*
X52221585Y-60811599D01*
X52221585Y-60811600D01*
X53281000Y-60811600D01*
X53781000Y-60811600D01*
X54840415Y-60811600D01*
X54840414Y-60811599D01*
X59396585Y-60811599D01*
X59396585Y-60811600D01*
X60456000Y-60811600D01*
X60956000Y-60811600D01*
X62015415Y-60811600D01*
X62015414Y-60811599D01*
X62012435Y-60778807D01*
X62012432Y-60778797D01*
X61964572Y-60625207D01*
X61881336Y-60487519D01*
X61767580Y-60373763D01*
X61629896Y-60290529D01*
X61476292Y-60242665D01*
X61409543Y-60236600D01*
X60956000Y-60236600D01*
X60956000Y-60811600D01*
X60456000Y-60811600D01*
X60456000Y-60236600D01*
X60002457Y-60236600D01*
X59935707Y-60242665D01*
X59782103Y-60290529D01*
X59644419Y-60373763D01*
X59530663Y-60487519D01*
X59447427Y-60625207D01*
X59399567Y-60778797D01*
X59399564Y-60778807D01*
X59396585Y-60811599D01*
X54840414Y-60811599D01*
X54837435Y-60778807D01*
X54837432Y-60778797D01*
X54789572Y-60625207D01*
X54706336Y-60487519D01*
X54592580Y-60373763D01*
X54454896Y-60290529D01*
X54301292Y-60242665D01*
X54234543Y-60236600D01*
X53781000Y-60236600D01*
X53781000Y-60811600D01*
X53281000Y-60811600D01*
X53281000Y-60236600D01*
X52827457Y-60236600D01*
X52760707Y-60242665D01*
X52607103Y-60290529D01*
X52469419Y-60373763D01*
X52355663Y-60487519D01*
X52272427Y-60625207D01*
X52224567Y-60778797D01*
X52224564Y-60778807D01*
X52221585Y-60811599D01*
X47274772Y-60811599D01*
X47946656Y-59982466D01*
X48004154Y-59942777D01*
X48042676Y-59936537D01*
X48057044Y-59936500D01*
X48057384Y-59936500D01*
X48129104Y-59936500D01*
X48131946Y-59936308D01*
X63643598Y-59896570D01*
X63710686Y-59916083D01*
G37*
%TD.AperFunction*%
%TA.AperFunction,Conductor*%
G36*
X72795271Y-68270415D02*
G01*
X72795291Y-68270344D01*
X72803141Y-68272447D01*
X72803144Y-68272447D01*
X72803146Y-68272448D01*
X72914439Y-68287100D01*
X73168501Y-68287099D01*
X73235539Y-68306783D01*
X73281294Y-68359587D01*
X73292500Y-68411099D01*
X73292500Y-68665162D01*
X73307150Y-68776446D01*
X73309255Y-68784300D01*
X73307345Y-68784811D01*
X73313662Y-68843631D01*
X73309185Y-68858876D01*
X73309256Y-68858895D01*
X73307152Y-68866746D01*
X73292500Y-68978031D01*
X73292500Y-69465162D01*
X73307150Y-69576446D01*
X73309255Y-69584300D01*
X73307345Y-69584811D01*
X73313662Y-69643631D01*
X73309185Y-69658876D01*
X73309256Y-69658895D01*
X73307152Y-69666746D01*
X73292500Y-69778031D01*
X73292500Y-69890700D01*
X73272815Y-69957739D01*
X73220011Y-70003494D01*
X73168500Y-70014700D01*
X73123955Y-70014700D01*
X72969310Y-70045461D01*
X72969298Y-70045464D01*
X72823627Y-70105802D01*
X72823614Y-70105809D01*
X72692511Y-70193410D01*
X72692507Y-70193413D01*
X72581013Y-70304907D01*
X72581010Y-70304911D01*
X72493409Y-70436014D01*
X72493402Y-70436027D01*
X72433064Y-70581698D01*
X72433061Y-70581710D01*
X72402300Y-70736353D01*
X72402300Y-70894046D01*
X72433061Y-71048689D01*
X72433064Y-71048701D01*
X72493402Y-71194372D01*
X72493409Y-71194385D01*
X72581010Y-71325488D01*
X72581013Y-71325492D01*
X72692507Y-71436986D01*
X72692511Y-71436989D01*
X72823614Y-71524590D01*
X72823627Y-71524597D01*
X72910777Y-71560695D01*
X72969303Y-71584937D01*
X73113099Y-71613540D01*
X73123953Y-71615699D01*
X73123956Y-71615700D01*
X73168500Y-71615700D01*
X73235539Y-71635385D01*
X73281294Y-71688189D01*
X73292500Y-71739699D01*
X73292500Y-71865161D01*
X73307150Y-71976446D01*
X73309255Y-71984300D01*
X73307345Y-71984811D01*
X73313662Y-72043631D01*
X73309185Y-72058876D01*
X73309256Y-72058895D01*
X73307152Y-72066746D01*
X73292500Y-72178031D01*
X73292500Y-72443359D01*
X73272815Y-72510398D01*
X73220011Y-72556153D01*
X73150853Y-72566097D01*
X73087297Y-72537072D01*
X73080819Y-72531040D01*
X72010819Y-71461040D01*
X71977334Y-71399717D01*
X71974500Y-71373359D01*
X71974500Y-68430660D01*
X71974501Y-68430647D01*
X71974501Y-68410071D01*
X71994186Y-68343032D01*
X72046990Y-68297277D01*
X72110324Y-68287791D01*
X72110387Y-68286834D01*
X72114418Y-68287097D01*
X72114439Y-68287100D01*
X72601560Y-68287099D01*
X72601561Y-68287099D01*
X72618433Y-68284877D01*
X72712854Y-68272448D01*
X72712857Y-68272446D01*
X72720708Y-68270344D01*
X72721221Y-68272259D01*
X72779994Y-68265930D01*
X72795271Y-68270415D01*
G37*
%TD.AperFunction*%
%TA.AperFunction,Conductor*%
G36*
X92244075Y-66232993D02*
G01*
X92309901Y-66347007D01*
X92402993Y-66440099D01*
X92517007Y-66505925D01*
X92580589Y-66522962D01*
X91948282Y-67155269D01*
X91948282Y-67155270D01*
X92002452Y-67194626D01*
X92002451Y-67194626D01*
X92011495Y-67199234D01*
X92062292Y-67247208D01*
X92079087Y-67315029D01*
X92056550Y-67381164D01*
X92011499Y-67420202D01*
X92002182Y-67424949D01*
X91830213Y-67549890D01*
X91679890Y-67700213D01*
X91554949Y-67872182D01*
X91550484Y-67880946D01*
X91502509Y-67931742D01*
X91434688Y-67948536D01*
X91368553Y-67925998D01*
X91329516Y-67880946D01*
X91325050Y-67872182D01*
X91200109Y-67700213D01*
X91086569Y-67586673D01*
X91053084Y-67525350D01*
X91058068Y-67455658D01*
X91099940Y-67399725D01*
X91130915Y-67382810D01*
X91262331Y-67333796D01*
X91377546Y-67247546D01*
X91463796Y-67132331D01*
X91514091Y-66997483D01*
X91520500Y-66937873D01*
X91520499Y-66927312D01*
X91540179Y-66860275D01*
X91556818Y-66839626D01*
X92227036Y-66169407D01*
X92244075Y-66232993D01*
G37*
%TD.AperFunction*%
%TD*%
M02*
