%TF.GenerationSoftware,KiCad,Pcbnew,9.0.1*%
%TF.CreationDate,2025-07-02T13:22:09+05:30*%
%TF.ProjectId,4. MCU data logger,342e204d-4355-4206-9461-7461206c6f67,1*%
%TF.SameCoordinates,Original*%
%TF.FileFunction,Soldermask,Top*%
%TF.FilePolarity,Negative*%
%FSLAX46Y46*%
G04 Gerber Fmt 4.6, Leading zero omitted, Abs format (unit mm)*
G04 Created by KiCad (PCBNEW 9.0.1) date 2025-07-02 13:22:09*
%MOMM*%
%LPD*%
G01*
G04 APERTURE LIST*
G04 Aperture macros list*
%AMRoundRect*
0 Rectangle with rounded corners*
0 $1 Rounding radius*
0 $2 $3 $4 $5 $6 $7 $8 $9 X,Y pos of 4 corners*
0 Add a 4 corners polygon primitive as box body*
4,1,4,$2,$3,$4,$5,$6,$7,$8,$9,$2,$3,0*
0 Add four circle primitives for the rounded corners*
1,1,$1+$1,$2,$3*
1,1,$1+$1,$4,$5*
1,1,$1+$1,$6,$7*
1,1,$1+$1,$8,$9*
0 Add four rect primitives between the rounded corners*
20,1,$1+$1,$2,$3,$4,$5,0*
20,1,$1+$1,$4,$5,$6,$7,0*
20,1,$1+$1,$6,$7,$8,$9,0*
20,1,$1+$1,$8,$9,$2,$3,0*%
G04 Aperture macros list end*
%ADD10RoundRect,0.243750X-0.243750X-0.456250X0.243750X-0.456250X0.243750X0.456250X-0.243750X0.456250X0*%
%ADD11RoundRect,0.162500X-0.650000X-0.162500X0.650000X-0.162500X0.650000X0.162500X-0.650000X0.162500X0*%
%ADD12R,1.700000X1.700000*%
%ADD13C,1.700000*%
%ADD14RoundRect,0.094250X-0.742750X-0.282750X0.742750X-0.282750X0.742750X0.282750X-0.742750X0.282750X0*%
%ADD15RoundRect,0.094250X-0.282750X-0.742750X0.282750X-0.742750X0.282750X0.742750X-0.282750X0.742750X0*%
%ADD16C,2.100000*%
%ADD17RoundRect,0.250000X-0.250000X-0.475000X0.250000X-0.475000X0.250000X0.475000X-0.250000X0.475000X0*%
%ADD18RoundRect,0.250000X0.250000X0.475000X-0.250000X0.475000X-0.250000X-0.475000X0.250000X-0.475000X0*%
%ADD19RoundRect,0.250000X-0.262500X-0.450000X0.262500X-0.450000X0.262500X0.450000X-0.262500X0.450000X0*%
%ADD20RoundRect,0.250000X0.262500X0.450000X-0.262500X0.450000X-0.262500X-0.450000X0.262500X-0.450000X0*%
%ADD21R,2.400000X3.500000*%
%ADD22RoundRect,0.099250X-0.987750X-0.297750X0.987750X-0.297750X0.987750X0.297750X-0.987750X0.297750X0*%
%ADD23R,3.500000X2.400000*%
G04 APERTURE END LIST*
D10*
%TO.C,D2*%
X80416400Y-61315600D03*
X82291400Y-61315600D03*
%TD*%
D11*
%TO.C,U1*%
X53632600Y-68478400D03*
X53632600Y-69748400D03*
X53632600Y-71018400D03*
X53632600Y-72288400D03*
X60807600Y-72288400D03*
X60807600Y-71018400D03*
X60807600Y-69748400D03*
X60807600Y-68478400D03*
%TD*%
D12*
%TO.C,J4*%
X90170000Y-66040000D03*
D13*
X92710000Y-66040000D03*
X90170000Y-68580000D03*
X92710000Y-68580000D03*
X90170000Y-71120000D03*
X92710000Y-71120000D03*
%TD*%
D14*
%TO.C,U4*%
X66188000Y-68421600D03*
X66188000Y-69221600D03*
X66188000Y-70021600D03*
X66188000Y-70821600D03*
X66188000Y-71621600D03*
X66188000Y-72421600D03*
X66188000Y-73221600D03*
X66188000Y-74021600D03*
D15*
X67558000Y-75391600D03*
X68358000Y-75391600D03*
X69158000Y-75391600D03*
X69958000Y-75391600D03*
X70758000Y-75391600D03*
X71558000Y-75391600D03*
X72358000Y-75391600D03*
X73158000Y-75391600D03*
D14*
X74528000Y-74021600D03*
X74528000Y-73221600D03*
X74528000Y-72421600D03*
X74528000Y-71621600D03*
X74528000Y-70821600D03*
X74528000Y-70021600D03*
X74528000Y-69221600D03*
X74528000Y-68421600D03*
D15*
X73158000Y-67051600D03*
X72358000Y-67051600D03*
X71558000Y-67051600D03*
X70758000Y-67051600D03*
X69958000Y-67051600D03*
X69158000Y-67051600D03*
X68358000Y-67051600D03*
X67558000Y-67051600D03*
%TD*%
D16*
%TO.C,H1*%
X45262800Y-59334400D03*
%TD*%
%TO.C,H2*%
X95453200Y-59334400D03*
%TD*%
D10*
%TO.C,D1*%
X86336900Y-61214000D03*
X88211900Y-61214000D03*
%TD*%
D17*
%TO.C,C2*%
X79786400Y-80213200D03*
X81686400Y-80213200D03*
%TD*%
D11*
%TO.C,U2*%
X53531000Y-61061600D03*
X53531000Y-62331600D03*
X53531000Y-63601600D03*
X53531000Y-64871600D03*
X60706000Y-64871600D03*
X60706000Y-63601600D03*
X60706000Y-62331600D03*
X60706000Y-61061600D03*
%TD*%
D18*
%TO.C,C5*%
X76591200Y-61264800D03*
X74691200Y-61264800D03*
%TD*%
D19*
%TO.C,R4*%
X79709000Y-72186800D03*
X81534000Y-72186800D03*
%TD*%
D12*
%TO.C,J1*%
X92608400Y-76352400D03*
D13*
X92608400Y-78892400D03*
X92608400Y-81432400D03*
X92608400Y-83972400D03*
%TD*%
D19*
%TO.C,R5*%
X84484200Y-68732400D03*
X86309200Y-68732400D03*
%TD*%
D20*
%TO.C,R7*%
X81534000Y-65328800D03*
X79709000Y-65328800D03*
%TD*%
D19*
%TO.C,R6*%
X84482300Y-65430400D03*
X86307300Y-65430400D03*
%TD*%
D21*
%TO.C,Y1*%
X48107600Y-78486000D03*
X48107600Y-73286000D03*
%TD*%
D12*
%TO.C,J2*%
X78181200Y-86969600D03*
D13*
X80721200Y-86969600D03*
X83261200Y-86969600D03*
X85801200Y-86969600D03*
%TD*%
D16*
%TO.C,H4*%
X95453200Y-89662000D03*
%TD*%
D12*
%TO.C,BT1*%
X48209200Y-65786000D03*
D13*
X48209200Y-68326000D03*
%TD*%
D17*
%TO.C,C4*%
X79771200Y-77622400D03*
X81671200Y-77622400D03*
%TD*%
D22*
%TO.C,U5*%
X54878200Y-76428600D03*
X54878200Y-77698600D03*
X54878200Y-78968600D03*
X54878200Y-80238600D03*
X59828200Y-80238600D03*
X59828200Y-78968600D03*
X59828200Y-77698600D03*
X59828200Y-76428600D03*
%TD*%
D17*
%TO.C,C1*%
X64394000Y-61214000D03*
X66294000Y-61214000D03*
%TD*%
D19*
%TO.C,R2*%
X58574300Y-83413600D03*
X60399300Y-83413600D03*
%TD*%
D12*
%TO.C,J3*%
X52070000Y-87172800D03*
D13*
X54610000Y-87172800D03*
X57150000Y-87172800D03*
X59690000Y-87172800D03*
X62230000Y-87172800D03*
X64770000Y-87172800D03*
X67310000Y-87172800D03*
X69850000Y-87172800D03*
X72390000Y-87172800D03*
%TD*%
D17*
%TO.C,C3*%
X69204800Y-61214000D03*
X71104800Y-61214000D03*
%TD*%
D23*
%TO.C,Y2*%
X72450000Y-80365600D03*
X67250000Y-80365600D03*
%TD*%
D19*
%TO.C,R3*%
X79607400Y-68681600D03*
X81432400Y-68681600D03*
%TD*%
D20*
%TO.C,R1*%
X54811300Y-83566000D03*
X52986300Y-83566000D03*
%TD*%
D16*
%TO.C,H3*%
X45262800Y-89662000D03*
%TD*%
M02*
