%TF.GenerationSoftware,KiCad,Pcbnew,9.0.1*%
%TF.CreationDate,2025-07-02T13:22:09+05:30*%
%TF.ProjectId,4. MCU data logger,342e204d-4355-4206-9461-7461206c6f67,1*%
%TF.SameCoordinates,Original*%
%TF.FileFunction,Legend,Top*%
%TF.FilePolarity,Positive*%
%FSLAX46Y46*%
G04 Gerber Fmt 4.6, Leading zero omitted, Abs format (unit mm)*
G04 Created by KiCad (PCBNEW 9.0.1) date 2025-07-02 13:22:09*
%MOMM*%
%LPD*%
G01*
G04 APERTURE LIST*
%ADD10C,0.100000*%
%ADD11C,0.120000*%
%ADD12C,0.127000*%
%ADD13C,0.200000*%
G04 APERTURE END LIST*
D10*
X50150895Y-66660020D02*
X50950895Y-66393353D01*
X50950895Y-66393353D02*
X50150895Y-66126687D01*
X50874704Y-65402877D02*
X50912800Y-65440973D01*
X50912800Y-65440973D02*
X50950895Y-65555258D01*
X50950895Y-65555258D02*
X50950895Y-65631449D01*
X50950895Y-65631449D02*
X50912800Y-65745735D01*
X50912800Y-65745735D02*
X50836609Y-65821925D01*
X50836609Y-65821925D02*
X50760419Y-65860020D01*
X50760419Y-65860020D02*
X50608038Y-65898116D01*
X50608038Y-65898116D02*
X50493752Y-65898116D01*
X50493752Y-65898116D02*
X50341371Y-65860020D01*
X50341371Y-65860020D02*
X50265180Y-65821925D01*
X50265180Y-65821925D02*
X50188990Y-65745735D01*
X50188990Y-65745735D02*
X50150895Y-65631449D01*
X50150895Y-65631449D02*
X50150895Y-65555258D01*
X50150895Y-65555258D02*
X50188990Y-65440973D01*
X50188990Y-65440973D02*
X50227085Y-65402877D01*
X50874704Y-64602877D02*
X50912800Y-64640973D01*
X50912800Y-64640973D02*
X50950895Y-64755258D01*
X50950895Y-64755258D02*
X50950895Y-64831449D01*
X50950895Y-64831449D02*
X50912800Y-64945735D01*
X50912800Y-64945735D02*
X50836609Y-65021925D01*
X50836609Y-65021925D02*
X50760419Y-65060020D01*
X50760419Y-65060020D02*
X50608038Y-65098116D01*
X50608038Y-65098116D02*
X50493752Y-65098116D01*
X50493752Y-65098116D02*
X50341371Y-65060020D01*
X50341371Y-65060020D02*
X50265180Y-65021925D01*
X50265180Y-65021925D02*
X50188990Y-64945735D01*
X50188990Y-64945735D02*
X50150895Y-64831449D01*
X50150895Y-64831449D02*
X50150895Y-64755258D01*
X50150895Y-64755258D02*
X50188990Y-64640973D01*
X50188990Y-64640973D02*
X50227085Y-64602877D01*
X50188990Y-69030687D02*
X50150895Y-69106877D01*
X50150895Y-69106877D02*
X50150895Y-69221163D01*
X50150895Y-69221163D02*
X50188990Y-69335449D01*
X50188990Y-69335449D02*
X50265180Y-69411639D01*
X50265180Y-69411639D02*
X50341371Y-69449734D01*
X50341371Y-69449734D02*
X50493752Y-69487830D01*
X50493752Y-69487830D02*
X50608038Y-69487830D01*
X50608038Y-69487830D02*
X50760419Y-69449734D01*
X50760419Y-69449734D02*
X50836609Y-69411639D01*
X50836609Y-69411639D02*
X50912800Y-69335449D01*
X50912800Y-69335449D02*
X50950895Y-69221163D01*
X50950895Y-69221163D02*
X50950895Y-69144972D01*
X50950895Y-69144972D02*
X50912800Y-69030687D01*
X50912800Y-69030687D02*
X50874704Y-68992591D01*
X50874704Y-68992591D02*
X50608038Y-68992591D01*
X50608038Y-68992591D02*
X50608038Y-69144972D01*
X50950895Y-68649734D02*
X50150895Y-68649734D01*
X50150895Y-68649734D02*
X50950895Y-68192591D01*
X50950895Y-68192591D02*
X50150895Y-68192591D01*
X50950895Y-67811639D02*
X50150895Y-67811639D01*
X50150895Y-67811639D02*
X50150895Y-67621163D01*
X50150895Y-67621163D02*
X50188990Y-67506877D01*
X50188990Y-67506877D02*
X50265180Y-67430687D01*
X50265180Y-67430687D02*
X50341371Y-67392592D01*
X50341371Y-67392592D02*
X50493752Y-67354496D01*
X50493752Y-67354496D02*
X50608038Y-67354496D01*
X50608038Y-67354496D02*
X50760419Y-67392592D01*
X50760419Y-67392592D02*
X50836609Y-67430687D01*
X50836609Y-67430687D02*
X50912800Y-67506877D01*
X50912800Y-67506877D02*
X50950895Y-67621163D01*
X50950895Y-67621163D02*
X50950895Y-67811639D01*
X83185000Y-76758800D02*
X89179400Y-76758800D01*
X89179400Y-81280000D01*
X83185000Y-81280000D01*
X83185000Y-76758800D01*
X90435200Y-82331830D02*
X90473295Y-82217544D01*
X90473295Y-82217544D02*
X90473295Y-82027068D01*
X90473295Y-82027068D02*
X90435200Y-81950877D01*
X90435200Y-81950877D02*
X90397104Y-81912782D01*
X90397104Y-81912782D02*
X90320914Y-81874687D01*
X90320914Y-81874687D02*
X90244723Y-81874687D01*
X90244723Y-81874687D02*
X90168533Y-81912782D01*
X90168533Y-81912782D02*
X90130438Y-81950877D01*
X90130438Y-81950877D02*
X90092342Y-82027068D01*
X90092342Y-82027068D02*
X90054247Y-82179449D01*
X90054247Y-82179449D02*
X90016152Y-82255639D01*
X90016152Y-82255639D02*
X89978057Y-82293734D01*
X89978057Y-82293734D02*
X89901866Y-82331830D01*
X89901866Y-82331830D02*
X89825676Y-82331830D01*
X89825676Y-82331830D02*
X89749485Y-82293734D01*
X89749485Y-82293734D02*
X89711390Y-82255639D01*
X89711390Y-82255639D02*
X89673295Y-82179449D01*
X89673295Y-82179449D02*
X89673295Y-81988972D01*
X89673295Y-81988972D02*
X89711390Y-81874687D01*
X90473295Y-81531829D02*
X89673295Y-81531829D01*
X89673295Y-81531829D02*
X89673295Y-81341353D01*
X89673295Y-81341353D02*
X89711390Y-81227067D01*
X89711390Y-81227067D02*
X89787580Y-81150877D01*
X89787580Y-81150877D02*
X89863771Y-81112782D01*
X89863771Y-81112782D02*
X90016152Y-81074686D01*
X90016152Y-81074686D02*
X90130438Y-81074686D01*
X90130438Y-81074686D02*
X90282819Y-81112782D01*
X90282819Y-81112782D02*
X90359009Y-81150877D01*
X90359009Y-81150877D02*
X90435200Y-81227067D01*
X90435200Y-81227067D02*
X90473295Y-81341353D01*
X90473295Y-81341353D02*
X90473295Y-81531829D01*
X90244723Y-80769925D02*
X90244723Y-80388972D01*
X90473295Y-80846115D02*
X89673295Y-80579448D01*
X89673295Y-80579448D02*
X90473295Y-80312782D01*
X87437465Y-88174400D02*
X87580322Y-88222019D01*
X87580322Y-88222019D02*
X87818417Y-88222019D01*
X87818417Y-88222019D02*
X87913655Y-88174400D01*
X87913655Y-88174400D02*
X87961274Y-88126780D01*
X87961274Y-88126780D02*
X88008893Y-88031542D01*
X88008893Y-88031542D02*
X88008893Y-87936304D01*
X88008893Y-87936304D02*
X87961274Y-87841066D01*
X87961274Y-87841066D02*
X87913655Y-87793447D01*
X87913655Y-87793447D02*
X87818417Y-87745828D01*
X87818417Y-87745828D02*
X87627941Y-87698209D01*
X87627941Y-87698209D02*
X87532703Y-87650590D01*
X87532703Y-87650590D02*
X87485084Y-87602971D01*
X87485084Y-87602971D02*
X87437465Y-87507733D01*
X87437465Y-87507733D02*
X87437465Y-87412495D01*
X87437465Y-87412495D02*
X87485084Y-87317257D01*
X87485084Y-87317257D02*
X87532703Y-87269638D01*
X87532703Y-87269638D02*
X87627941Y-87222019D01*
X87627941Y-87222019D02*
X87866036Y-87222019D01*
X87866036Y-87222019D02*
X88008893Y-87269638D01*
X88437465Y-87698209D02*
X88770798Y-87698209D01*
X88913655Y-88222019D02*
X88437465Y-88222019D01*
X88437465Y-88222019D02*
X88437465Y-87222019D01*
X88437465Y-87222019D02*
X88913655Y-87222019D01*
X89913655Y-88222019D02*
X89580322Y-87745828D01*
X89342227Y-88222019D02*
X89342227Y-87222019D01*
X89342227Y-87222019D02*
X89723179Y-87222019D01*
X89723179Y-87222019D02*
X89818417Y-87269638D01*
X89818417Y-87269638D02*
X89866036Y-87317257D01*
X89866036Y-87317257D02*
X89913655Y-87412495D01*
X89913655Y-87412495D02*
X89913655Y-87555352D01*
X89913655Y-87555352D02*
X89866036Y-87650590D01*
X89866036Y-87650590D02*
X89818417Y-87698209D01*
X89818417Y-87698209D02*
X89723179Y-87745828D01*
X89723179Y-87745828D02*
X89342227Y-87745828D01*
X90342227Y-88222019D02*
X90342227Y-87222019D01*
X90770798Y-87936304D02*
X91246988Y-87936304D01*
X90675560Y-88222019D02*
X91008893Y-87222019D01*
X91008893Y-87222019D02*
X91342226Y-88222019D01*
X92151750Y-88222019D02*
X91675560Y-88222019D01*
X91675560Y-88222019D02*
X91675560Y-87222019D01*
X85181179Y-84136095D02*
X85638322Y-84136095D01*
X85409750Y-84936095D02*
X85409750Y-84136095D01*
X85828798Y-84136095D02*
X86362132Y-84936095D01*
X86362132Y-84136095D02*
X85828798Y-84936095D01*
X90333600Y-84770230D02*
X90371695Y-84655944D01*
X90371695Y-84655944D02*
X90371695Y-84465468D01*
X90371695Y-84465468D02*
X90333600Y-84389277D01*
X90333600Y-84389277D02*
X90295504Y-84351182D01*
X90295504Y-84351182D02*
X90219314Y-84313087D01*
X90219314Y-84313087D02*
X90143123Y-84313087D01*
X90143123Y-84313087D02*
X90066933Y-84351182D01*
X90066933Y-84351182D02*
X90028838Y-84389277D01*
X90028838Y-84389277D02*
X89990742Y-84465468D01*
X89990742Y-84465468D02*
X89952647Y-84617849D01*
X89952647Y-84617849D02*
X89914552Y-84694039D01*
X89914552Y-84694039D02*
X89876457Y-84732134D01*
X89876457Y-84732134D02*
X89800266Y-84770230D01*
X89800266Y-84770230D02*
X89724076Y-84770230D01*
X89724076Y-84770230D02*
X89647885Y-84732134D01*
X89647885Y-84732134D02*
X89609790Y-84694039D01*
X89609790Y-84694039D02*
X89571695Y-84617849D01*
X89571695Y-84617849D02*
X89571695Y-84427372D01*
X89571695Y-84427372D02*
X89609790Y-84313087D01*
X90295504Y-83513086D02*
X90333600Y-83551182D01*
X90333600Y-83551182D02*
X90371695Y-83665467D01*
X90371695Y-83665467D02*
X90371695Y-83741658D01*
X90371695Y-83741658D02*
X90333600Y-83855944D01*
X90333600Y-83855944D02*
X90257409Y-83932134D01*
X90257409Y-83932134D02*
X90181219Y-83970229D01*
X90181219Y-83970229D02*
X90028838Y-84008325D01*
X90028838Y-84008325D02*
X89914552Y-84008325D01*
X89914552Y-84008325D02*
X89762171Y-83970229D01*
X89762171Y-83970229D02*
X89685980Y-83932134D01*
X89685980Y-83932134D02*
X89609790Y-83855944D01*
X89609790Y-83855944D02*
X89571695Y-83741658D01*
X89571695Y-83741658D02*
X89571695Y-83665467D01*
X89571695Y-83665467D02*
X89609790Y-83551182D01*
X89609790Y-83551182D02*
X89647885Y-83513086D01*
X90371695Y-83170229D02*
X89571695Y-83170229D01*
X90371695Y-82713086D02*
X89914552Y-83055944D01*
X89571695Y-82713086D02*
X90028838Y-83170229D01*
X83161808Y-84910695D02*
X82895141Y-84529742D01*
X82704665Y-84910695D02*
X82704665Y-84110695D01*
X82704665Y-84110695D02*
X83009427Y-84110695D01*
X83009427Y-84110695D02*
X83085617Y-84148790D01*
X83085617Y-84148790D02*
X83123712Y-84186885D01*
X83123712Y-84186885D02*
X83161808Y-84263076D01*
X83161808Y-84263076D02*
X83161808Y-84377361D01*
X83161808Y-84377361D02*
X83123712Y-84453552D01*
X83123712Y-84453552D02*
X83085617Y-84491647D01*
X83085617Y-84491647D02*
X83009427Y-84529742D01*
X83009427Y-84529742D02*
X82704665Y-84529742D01*
X83428474Y-84110695D02*
X83961808Y-84910695D01*
X83961808Y-84110695D02*
X83428474Y-84910695D01*
X59857322Y-84682161D02*
X59857322Y-85215495D01*
X59666846Y-84377400D02*
X59476369Y-84948828D01*
X59476369Y-84948828D02*
X59971608Y-84948828D01*
X69356912Y-84402790D02*
X69280722Y-84364695D01*
X69280722Y-84364695D02*
X69166436Y-84364695D01*
X69166436Y-84364695D02*
X69052150Y-84402790D01*
X69052150Y-84402790D02*
X68975960Y-84478980D01*
X68975960Y-84478980D02*
X68937865Y-84555171D01*
X68937865Y-84555171D02*
X68899769Y-84707552D01*
X68899769Y-84707552D02*
X68899769Y-84821838D01*
X68899769Y-84821838D02*
X68937865Y-84974219D01*
X68937865Y-84974219D02*
X68975960Y-85050409D01*
X68975960Y-85050409D02*
X69052150Y-85126600D01*
X69052150Y-85126600D02*
X69166436Y-85164695D01*
X69166436Y-85164695D02*
X69242627Y-85164695D01*
X69242627Y-85164695D02*
X69356912Y-85126600D01*
X69356912Y-85126600D02*
X69395008Y-85088504D01*
X69395008Y-85088504D02*
X69395008Y-84821838D01*
X69395008Y-84821838D02*
X69242627Y-84821838D01*
X69737865Y-85164695D02*
X69737865Y-84364695D01*
X69737865Y-84364695D02*
X70195008Y-85164695D01*
X70195008Y-85164695D02*
X70195008Y-84364695D01*
X70575960Y-85164695D02*
X70575960Y-84364695D01*
X70575960Y-84364695D02*
X70766436Y-84364695D01*
X70766436Y-84364695D02*
X70880722Y-84402790D01*
X70880722Y-84402790D02*
X70956912Y-84478980D01*
X70956912Y-84478980D02*
X70995007Y-84555171D01*
X70995007Y-84555171D02*
X71033103Y-84707552D01*
X71033103Y-84707552D02*
X71033103Y-84821838D01*
X71033103Y-84821838D02*
X70995007Y-84974219D01*
X70995007Y-84974219D02*
X70956912Y-85050409D01*
X70956912Y-85050409D02*
X70880722Y-85126600D01*
X70880722Y-85126600D02*
X70766436Y-85164695D01*
X70766436Y-85164695D02*
X70575960Y-85164695D01*
X67007474Y-84313895D02*
X67540808Y-84313895D01*
X67540808Y-84313895D02*
X67197950Y-85113895D01*
X77281712Y-84199590D02*
X77205522Y-84161495D01*
X77205522Y-84161495D02*
X77091236Y-84161495D01*
X77091236Y-84161495D02*
X76976950Y-84199590D01*
X76976950Y-84199590D02*
X76900760Y-84275780D01*
X76900760Y-84275780D02*
X76862665Y-84351971D01*
X76862665Y-84351971D02*
X76824569Y-84504352D01*
X76824569Y-84504352D02*
X76824569Y-84618638D01*
X76824569Y-84618638D02*
X76862665Y-84771019D01*
X76862665Y-84771019D02*
X76900760Y-84847209D01*
X76900760Y-84847209D02*
X76976950Y-84923400D01*
X76976950Y-84923400D02*
X77091236Y-84961495D01*
X77091236Y-84961495D02*
X77167427Y-84961495D01*
X77167427Y-84961495D02*
X77281712Y-84923400D01*
X77281712Y-84923400D02*
X77319808Y-84885304D01*
X77319808Y-84885304D02*
X77319808Y-84618638D01*
X77319808Y-84618638D02*
X77167427Y-84618638D01*
X77662665Y-84961495D02*
X77662665Y-84161495D01*
X77662665Y-84161495D02*
X78119808Y-84961495D01*
X78119808Y-84961495D02*
X78119808Y-84161495D01*
X78500760Y-84961495D02*
X78500760Y-84161495D01*
X78500760Y-84161495D02*
X78691236Y-84161495D01*
X78691236Y-84161495D02*
X78805522Y-84199590D01*
X78805522Y-84199590D02*
X78881712Y-84275780D01*
X78881712Y-84275780D02*
X78919807Y-84351971D01*
X78919807Y-84351971D02*
X78957903Y-84504352D01*
X78957903Y-84504352D02*
X78957903Y-84618638D01*
X78957903Y-84618638D02*
X78919807Y-84771019D01*
X78919807Y-84771019D02*
X78881712Y-84847209D01*
X78881712Y-84847209D02*
X78805522Y-84923400D01*
X78805522Y-84923400D02*
X78691236Y-84961495D01*
X78691236Y-84961495D02*
X78500760Y-84961495D01*
X92505884Y-74294419D02*
X92505884Y-73294419D01*
X92934455Y-73389657D02*
X92982074Y-73342038D01*
X92982074Y-73342038D02*
X93077312Y-73294419D01*
X93077312Y-73294419D02*
X93315407Y-73294419D01*
X93315407Y-73294419D02*
X93410645Y-73342038D01*
X93410645Y-73342038D02*
X93458264Y-73389657D01*
X93458264Y-73389657D02*
X93505883Y-73484895D01*
X93505883Y-73484895D02*
X93505883Y-73580133D01*
X93505883Y-73580133D02*
X93458264Y-73722990D01*
X93458264Y-73722990D02*
X92886836Y-74294419D01*
X92886836Y-74294419D02*
X93505883Y-74294419D01*
X94505883Y-74199180D02*
X94458264Y-74246800D01*
X94458264Y-74246800D02*
X94315407Y-74294419D01*
X94315407Y-74294419D02*
X94220169Y-74294419D01*
X94220169Y-74294419D02*
X94077312Y-74246800D01*
X94077312Y-74246800D02*
X93982074Y-74151561D01*
X93982074Y-74151561D02*
X93934455Y-74056323D01*
X93934455Y-74056323D02*
X93886836Y-73865847D01*
X93886836Y-73865847D02*
X93886836Y-73722990D01*
X93886836Y-73722990D02*
X93934455Y-73532514D01*
X93934455Y-73532514D02*
X93982074Y-73437276D01*
X93982074Y-73437276D02*
X94077312Y-73342038D01*
X94077312Y-73342038D02*
X94220169Y-73294419D01*
X94220169Y-73294419D02*
X94315407Y-73294419D01*
X94315407Y-73294419D02*
X94458264Y-73342038D01*
X94458264Y-73342038D02*
X94505883Y-73389657D01*
X91134284Y-63956619D02*
X91134284Y-62956619D01*
X92181902Y-63861380D02*
X92134283Y-63909000D01*
X92134283Y-63909000D02*
X91991426Y-63956619D01*
X91991426Y-63956619D02*
X91896188Y-63956619D01*
X91896188Y-63956619D02*
X91753331Y-63909000D01*
X91753331Y-63909000D02*
X91658093Y-63813761D01*
X91658093Y-63813761D02*
X91610474Y-63718523D01*
X91610474Y-63718523D02*
X91562855Y-63528047D01*
X91562855Y-63528047D02*
X91562855Y-63385190D01*
X91562855Y-63385190D02*
X91610474Y-63194714D01*
X91610474Y-63194714D02*
X91658093Y-63099476D01*
X91658093Y-63099476D02*
X91753331Y-63004238D01*
X91753331Y-63004238D02*
X91896188Y-62956619D01*
X91896188Y-62956619D02*
X91991426Y-62956619D01*
X91991426Y-62956619D02*
X92134283Y-63004238D01*
X92134283Y-63004238D02*
X92181902Y-63051857D01*
X92562855Y-63909000D02*
X92705712Y-63956619D01*
X92705712Y-63956619D02*
X92943807Y-63956619D01*
X92943807Y-63956619D02*
X93039045Y-63909000D01*
X93039045Y-63909000D02*
X93086664Y-63861380D01*
X93086664Y-63861380D02*
X93134283Y-63766142D01*
X93134283Y-63766142D02*
X93134283Y-63670904D01*
X93134283Y-63670904D02*
X93086664Y-63575666D01*
X93086664Y-63575666D02*
X93039045Y-63528047D01*
X93039045Y-63528047D02*
X92943807Y-63480428D01*
X92943807Y-63480428D02*
X92753331Y-63432809D01*
X92753331Y-63432809D02*
X92658093Y-63385190D01*
X92658093Y-63385190D02*
X92610474Y-63337571D01*
X92610474Y-63337571D02*
X92562855Y-63242333D01*
X92562855Y-63242333D02*
X92562855Y-63147095D01*
X92562855Y-63147095D02*
X92610474Y-63051857D01*
X92610474Y-63051857D02*
X92658093Y-63004238D01*
X92658093Y-63004238D02*
X92753331Y-62956619D01*
X92753331Y-62956619D02*
X92991426Y-62956619D01*
X92991426Y-62956619D02*
X93134283Y-63004238D01*
X93562855Y-63956619D02*
X93562855Y-62956619D01*
X93562855Y-62956619D02*
X93943807Y-62956619D01*
X93943807Y-62956619D02*
X94039045Y-63004238D01*
X94039045Y-63004238D02*
X94086664Y-63051857D01*
X94086664Y-63051857D02*
X94134283Y-63147095D01*
X94134283Y-63147095D02*
X94134283Y-63289952D01*
X94134283Y-63289952D02*
X94086664Y-63385190D01*
X94086664Y-63385190D02*
X94039045Y-63432809D01*
X94039045Y-63432809D02*
X93943807Y-63480428D01*
X93943807Y-63480428D02*
X93562855Y-63480428D01*
X83950788Y-77655850D02*
X83950788Y-76955850D01*
X84684121Y-77589183D02*
X84650788Y-77622517D01*
X84650788Y-77622517D02*
X84550788Y-77655850D01*
X84550788Y-77655850D02*
X84484121Y-77655850D01*
X84484121Y-77655850D02*
X84384121Y-77622517D01*
X84384121Y-77622517D02*
X84317455Y-77555850D01*
X84317455Y-77555850D02*
X84284121Y-77489183D01*
X84284121Y-77489183D02*
X84250788Y-77355850D01*
X84250788Y-77355850D02*
X84250788Y-77255850D01*
X84250788Y-77255850D02*
X84284121Y-77122517D01*
X84284121Y-77122517D02*
X84317455Y-77055850D01*
X84317455Y-77055850D02*
X84384121Y-76989183D01*
X84384121Y-76989183D02*
X84484121Y-76955850D01*
X84484121Y-76955850D02*
X84550788Y-76955850D01*
X84550788Y-76955850D02*
X84650788Y-76989183D01*
X84650788Y-76989183D02*
X84684121Y-77022517D01*
X84950788Y-77622517D02*
X85050788Y-77655850D01*
X85050788Y-77655850D02*
X85217455Y-77655850D01*
X85217455Y-77655850D02*
X85284121Y-77622517D01*
X85284121Y-77622517D02*
X85317455Y-77589183D01*
X85317455Y-77589183D02*
X85350788Y-77522517D01*
X85350788Y-77522517D02*
X85350788Y-77455850D01*
X85350788Y-77455850D02*
X85317455Y-77389183D01*
X85317455Y-77389183D02*
X85284121Y-77355850D01*
X85284121Y-77355850D02*
X85217455Y-77322517D01*
X85217455Y-77322517D02*
X85084121Y-77289183D01*
X85084121Y-77289183D02*
X85017455Y-77255850D01*
X85017455Y-77255850D02*
X84984121Y-77222517D01*
X84984121Y-77222517D02*
X84950788Y-77155850D01*
X84950788Y-77155850D02*
X84950788Y-77089183D01*
X84950788Y-77089183D02*
X84984121Y-77022517D01*
X84984121Y-77022517D02*
X85017455Y-76989183D01*
X85017455Y-76989183D02*
X85084121Y-76955850D01*
X85084121Y-76955850D02*
X85250788Y-76955850D01*
X85250788Y-76955850D02*
X85350788Y-76989183D01*
X85650788Y-77655850D02*
X85650788Y-76955850D01*
X85650788Y-76955850D02*
X85917455Y-76955850D01*
X85917455Y-76955850D02*
X85984122Y-76989183D01*
X85984122Y-76989183D02*
X86017455Y-77022517D01*
X86017455Y-77022517D02*
X86050788Y-77089183D01*
X86050788Y-77089183D02*
X86050788Y-77189183D01*
X86050788Y-77189183D02*
X86017455Y-77255850D01*
X86017455Y-77255850D02*
X85984122Y-77289183D01*
X85984122Y-77289183D02*
X85917455Y-77322517D01*
X85917455Y-77322517D02*
X85650788Y-77322517D01*
X83417455Y-78782811D02*
X83417455Y-78082811D01*
X83417455Y-78082811D02*
X83650789Y-78582811D01*
X83650789Y-78582811D02*
X83884122Y-78082811D01*
X83884122Y-78082811D02*
X83884122Y-78782811D01*
X84217455Y-78782811D02*
X84217455Y-78082811D01*
X84517455Y-78749478D02*
X84617455Y-78782811D01*
X84617455Y-78782811D02*
X84784122Y-78782811D01*
X84784122Y-78782811D02*
X84850788Y-78749478D01*
X84850788Y-78749478D02*
X84884122Y-78716144D01*
X84884122Y-78716144D02*
X84917455Y-78649478D01*
X84917455Y-78649478D02*
X84917455Y-78582811D01*
X84917455Y-78582811D02*
X84884122Y-78516144D01*
X84884122Y-78516144D02*
X84850788Y-78482811D01*
X84850788Y-78482811D02*
X84784122Y-78449478D01*
X84784122Y-78449478D02*
X84650788Y-78416144D01*
X84650788Y-78416144D02*
X84584122Y-78382811D01*
X84584122Y-78382811D02*
X84550788Y-78349478D01*
X84550788Y-78349478D02*
X84517455Y-78282811D01*
X84517455Y-78282811D02*
X84517455Y-78216144D01*
X84517455Y-78216144D02*
X84550788Y-78149478D01*
X84550788Y-78149478D02*
X84584122Y-78116144D01*
X84584122Y-78116144D02*
X84650788Y-78082811D01*
X84650788Y-78082811D02*
X84817455Y-78082811D01*
X84817455Y-78082811D02*
X84917455Y-78116144D01*
X85350789Y-78082811D02*
X85484122Y-78082811D01*
X85484122Y-78082811D02*
X85550789Y-78116144D01*
X85550789Y-78116144D02*
X85617455Y-78182811D01*
X85617455Y-78182811D02*
X85650789Y-78316144D01*
X85650789Y-78316144D02*
X85650789Y-78549478D01*
X85650789Y-78549478D02*
X85617455Y-78682811D01*
X85617455Y-78682811D02*
X85550789Y-78749478D01*
X85550789Y-78749478D02*
X85484122Y-78782811D01*
X85484122Y-78782811D02*
X85350789Y-78782811D01*
X85350789Y-78782811D02*
X85284122Y-78749478D01*
X85284122Y-78749478D02*
X85217455Y-78682811D01*
X85217455Y-78682811D02*
X85184122Y-78549478D01*
X85184122Y-78549478D02*
X85184122Y-78316144D01*
X85184122Y-78316144D02*
X85217455Y-78182811D01*
X85217455Y-78182811D02*
X85284122Y-78116144D01*
X85284122Y-78116144D02*
X85350789Y-78082811D01*
X86117455Y-79016144D02*
X86117455Y-78016144D01*
X86517455Y-78082811D02*
X86750789Y-78782811D01*
X86750789Y-78782811D02*
X86984122Y-78082811D01*
X87617455Y-78716144D02*
X87584122Y-78749478D01*
X87584122Y-78749478D02*
X87484122Y-78782811D01*
X87484122Y-78782811D02*
X87417455Y-78782811D01*
X87417455Y-78782811D02*
X87317455Y-78749478D01*
X87317455Y-78749478D02*
X87250789Y-78682811D01*
X87250789Y-78682811D02*
X87217455Y-78616144D01*
X87217455Y-78616144D02*
X87184122Y-78482811D01*
X87184122Y-78482811D02*
X87184122Y-78382811D01*
X87184122Y-78382811D02*
X87217455Y-78249478D01*
X87217455Y-78249478D02*
X87250789Y-78182811D01*
X87250789Y-78182811D02*
X87317455Y-78116144D01*
X87317455Y-78116144D02*
X87417455Y-78082811D01*
X87417455Y-78082811D02*
X87484122Y-78082811D01*
X87484122Y-78082811D02*
X87584122Y-78116144D01*
X87584122Y-78116144D02*
X87617455Y-78149478D01*
X88317455Y-78716144D02*
X88284122Y-78749478D01*
X88284122Y-78749478D02*
X88184122Y-78782811D01*
X88184122Y-78782811D02*
X88117455Y-78782811D01*
X88117455Y-78782811D02*
X88017455Y-78749478D01*
X88017455Y-78749478D02*
X87950789Y-78682811D01*
X87950789Y-78682811D02*
X87917455Y-78616144D01*
X87917455Y-78616144D02*
X87884122Y-78482811D01*
X87884122Y-78482811D02*
X87884122Y-78382811D01*
X87884122Y-78382811D02*
X87917455Y-78249478D01*
X87917455Y-78249478D02*
X87950789Y-78182811D01*
X87950789Y-78182811D02*
X88017455Y-78116144D01*
X88017455Y-78116144D02*
X88117455Y-78082811D01*
X88117455Y-78082811D02*
X88184122Y-78082811D01*
X88184122Y-78082811D02*
X88284122Y-78116144D01*
X88284122Y-78116144D02*
X88317455Y-78149478D01*
X83384122Y-79876439D02*
X83484122Y-79909772D01*
X83484122Y-79909772D02*
X83650789Y-79909772D01*
X83650789Y-79909772D02*
X83717455Y-79876439D01*
X83717455Y-79876439D02*
X83750789Y-79843105D01*
X83750789Y-79843105D02*
X83784122Y-79776439D01*
X83784122Y-79776439D02*
X83784122Y-79709772D01*
X83784122Y-79709772D02*
X83750789Y-79643105D01*
X83750789Y-79643105D02*
X83717455Y-79609772D01*
X83717455Y-79609772D02*
X83650789Y-79576439D01*
X83650789Y-79576439D02*
X83517455Y-79543105D01*
X83517455Y-79543105D02*
X83450789Y-79509772D01*
X83450789Y-79509772D02*
X83417455Y-79476439D01*
X83417455Y-79476439D02*
X83384122Y-79409772D01*
X83384122Y-79409772D02*
X83384122Y-79343105D01*
X83384122Y-79343105D02*
X83417455Y-79276439D01*
X83417455Y-79276439D02*
X83450789Y-79243105D01*
X83450789Y-79243105D02*
X83517455Y-79209772D01*
X83517455Y-79209772D02*
X83684122Y-79209772D01*
X83684122Y-79209772D02*
X83784122Y-79243105D01*
X84484122Y-79843105D02*
X84450789Y-79876439D01*
X84450789Y-79876439D02*
X84350789Y-79909772D01*
X84350789Y-79909772D02*
X84284122Y-79909772D01*
X84284122Y-79909772D02*
X84184122Y-79876439D01*
X84184122Y-79876439D02*
X84117456Y-79809772D01*
X84117456Y-79809772D02*
X84084122Y-79743105D01*
X84084122Y-79743105D02*
X84050789Y-79609772D01*
X84050789Y-79609772D02*
X84050789Y-79509772D01*
X84050789Y-79509772D02*
X84084122Y-79376439D01*
X84084122Y-79376439D02*
X84117456Y-79309772D01*
X84117456Y-79309772D02*
X84184122Y-79243105D01*
X84184122Y-79243105D02*
X84284122Y-79209772D01*
X84284122Y-79209772D02*
X84350789Y-79209772D01*
X84350789Y-79209772D02*
X84450789Y-79243105D01*
X84450789Y-79243105D02*
X84484122Y-79276439D01*
X84784122Y-79909772D02*
X84784122Y-79209772D01*
X85184122Y-79909772D02*
X84884122Y-79509772D01*
X85184122Y-79209772D02*
X84784122Y-79609772D01*
X86184122Y-80143105D02*
X86184122Y-79143105D01*
X86684122Y-79909772D02*
X86684122Y-79209772D01*
X86684122Y-79209772D02*
X86917456Y-79709772D01*
X86917456Y-79709772D02*
X87150789Y-79209772D01*
X87150789Y-79209772D02*
X87150789Y-79909772D01*
X87617456Y-79209772D02*
X87750789Y-79209772D01*
X87750789Y-79209772D02*
X87817456Y-79243105D01*
X87817456Y-79243105D02*
X87884122Y-79309772D01*
X87884122Y-79309772D02*
X87917456Y-79443105D01*
X87917456Y-79443105D02*
X87917456Y-79676439D01*
X87917456Y-79676439D02*
X87884122Y-79809772D01*
X87884122Y-79809772D02*
X87817456Y-79876439D01*
X87817456Y-79876439D02*
X87750789Y-79909772D01*
X87750789Y-79909772D02*
X87617456Y-79909772D01*
X87617456Y-79909772D02*
X87550789Y-79876439D01*
X87550789Y-79876439D02*
X87484122Y-79809772D01*
X87484122Y-79809772D02*
X87450789Y-79676439D01*
X87450789Y-79676439D02*
X87450789Y-79443105D01*
X87450789Y-79443105D02*
X87484122Y-79309772D01*
X87484122Y-79309772D02*
X87550789Y-79243105D01*
X87550789Y-79243105D02*
X87617456Y-79209772D01*
X88184122Y-79876439D02*
X88284122Y-79909772D01*
X88284122Y-79909772D02*
X88450789Y-79909772D01*
X88450789Y-79909772D02*
X88517455Y-79876439D01*
X88517455Y-79876439D02*
X88550789Y-79843105D01*
X88550789Y-79843105D02*
X88584122Y-79776439D01*
X88584122Y-79776439D02*
X88584122Y-79709772D01*
X88584122Y-79709772D02*
X88550789Y-79643105D01*
X88550789Y-79643105D02*
X88517455Y-79609772D01*
X88517455Y-79609772D02*
X88450789Y-79576439D01*
X88450789Y-79576439D02*
X88317455Y-79543105D01*
X88317455Y-79543105D02*
X88250789Y-79509772D01*
X88250789Y-79509772D02*
X88217455Y-79476439D01*
X88217455Y-79476439D02*
X88184122Y-79409772D01*
X88184122Y-79409772D02*
X88184122Y-79343105D01*
X88184122Y-79343105D02*
X88217455Y-79276439D01*
X88217455Y-79276439D02*
X88250789Y-79243105D01*
X88250789Y-79243105D02*
X88317455Y-79209772D01*
X88317455Y-79209772D02*
X88484122Y-79209772D01*
X88484122Y-79209772D02*
X88584122Y-79243105D01*
X88884122Y-79909772D02*
X88884122Y-79209772D01*
X83817455Y-81036733D02*
X83584122Y-80703400D01*
X83417455Y-81036733D02*
X83417455Y-80336733D01*
X83417455Y-80336733D02*
X83684122Y-80336733D01*
X83684122Y-80336733D02*
X83750789Y-80370066D01*
X83750789Y-80370066D02*
X83784122Y-80403400D01*
X83784122Y-80403400D02*
X83817455Y-80470066D01*
X83817455Y-80470066D02*
X83817455Y-80570066D01*
X83817455Y-80570066D02*
X83784122Y-80636733D01*
X83784122Y-80636733D02*
X83750789Y-80670066D01*
X83750789Y-80670066D02*
X83684122Y-80703400D01*
X83684122Y-80703400D02*
X83417455Y-80703400D01*
X84117455Y-80670066D02*
X84350789Y-80670066D01*
X84450789Y-81036733D02*
X84117455Y-81036733D01*
X84117455Y-81036733D02*
X84117455Y-80336733D01*
X84117455Y-80336733D02*
X84450789Y-80336733D01*
X84717455Y-81003400D02*
X84817455Y-81036733D01*
X84817455Y-81036733D02*
X84984122Y-81036733D01*
X84984122Y-81036733D02*
X85050788Y-81003400D01*
X85050788Y-81003400D02*
X85084122Y-80970066D01*
X85084122Y-80970066D02*
X85117455Y-80903400D01*
X85117455Y-80903400D02*
X85117455Y-80836733D01*
X85117455Y-80836733D02*
X85084122Y-80770066D01*
X85084122Y-80770066D02*
X85050788Y-80736733D01*
X85050788Y-80736733D02*
X84984122Y-80703400D01*
X84984122Y-80703400D02*
X84850788Y-80670066D01*
X84850788Y-80670066D02*
X84784122Y-80636733D01*
X84784122Y-80636733D02*
X84750788Y-80603400D01*
X84750788Y-80603400D02*
X84717455Y-80536733D01*
X84717455Y-80536733D02*
X84717455Y-80470066D01*
X84717455Y-80470066D02*
X84750788Y-80403400D01*
X84750788Y-80403400D02*
X84784122Y-80370066D01*
X84784122Y-80370066D02*
X84850788Y-80336733D01*
X84850788Y-80336733D02*
X85017455Y-80336733D01*
X85017455Y-80336733D02*
X85117455Y-80370066D01*
X85417455Y-80670066D02*
X85650789Y-80670066D01*
X85750789Y-81036733D02*
X85417455Y-81036733D01*
X85417455Y-81036733D02*
X85417455Y-80336733D01*
X85417455Y-80336733D02*
X85750789Y-80336733D01*
X85950788Y-80336733D02*
X86350788Y-80336733D01*
X86150788Y-81036733D02*
X86150788Y-80336733D01*
X86750788Y-81270066D02*
X86750788Y-80270066D01*
X87617455Y-80370066D02*
X87550788Y-80336733D01*
X87550788Y-80336733D02*
X87450788Y-80336733D01*
X87450788Y-80336733D02*
X87350788Y-80370066D01*
X87350788Y-80370066D02*
X87284122Y-80436733D01*
X87284122Y-80436733D02*
X87250788Y-80503400D01*
X87250788Y-80503400D02*
X87217455Y-80636733D01*
X87217455Y-80636733D02*
X87217455Y-80736733D01*
X87217455Y-80736733D02*
X87250788Y-80870066D01*
X87250788Y-80870066D02*
X87284122Y-80936733D01*
X87284122Y-80936733D02*
X87350788Y-81003400D01*
X87350788Y-81003400D02*
X87450788Y-81036733D01*
X87450788Y-81036733D02*
X87517455Y-81036733D01*
X87517455Y-81036733D02*
X87617455Y-81003400D01*
X87617455Y-81003400D02*
X87650788Y-80970066D01*
X87650788Y-80970066D02*
X87650788Y-80736733D01*
X87650788Y-80736733D02*
X87517455Y-80736733D01*
X87950788Y-81036733D02*
X87950788Y-80336733D01*
X87950788Y-80336733D02*
X88350788Y-81036733D01*
X88350788Y-81036733D02*
X88350788Y-80336733D01*
X88684121Y-81036733D02*
X88684121Y-80336733D01*
X88684121Y-80336733D02*
X88850788Y-80336733D01*
X88850788Y-80336733D02*
X88950788Y-80370066D01*
X88950788Y-80370066D02*
X89017455Y-80436733D01*
X89017455Y-80436733D02*
X89050788Y-80503400D01*
X89050788Y-80503400D02*
X89084121Y-80636733D01*
X89084121Y-80636733D02*
X89084121Y-80736733D01*
X89084121Y-80736733D02*
X89050788Y-80870066D01*
X89050788Y-80870066D02*
X89017455Y-80936733D01*
X89017455Y-80936733D02*
X88950788Y-81003400D01*
X88950788Y-81003400D02*
X88850788Y-81036733D01*
X88850788Y-81036733D02*
X88684121Y-81036733D01*
X89533590Y-76591487D02*
X89495495Y-76667677D01*
X89495495Y-76667677D02*
X89495495Y-76781963D01*
X89495495Y-76781963D02*
X89533590Y-76896249D01*
X89533590Y-76896249D02*
X89609780Y-76972439D01*
X89609780Y-76972439D02*
X89685971Y-77010534D01*
X89685971Y-77010534D02*
X89838352Y-77048630D01*
X89838352Y-77048630D02*
X89952638Y-77048630D01*
X89952638Y-77048630D02*
X90105019Y-77010534D01*
X90105019Y-77010534D02*
X90181209Y-76972439D01*
X90181209Y-76972439D02*
X90257400Y-76896249D01*
X90257400Y-76896249D02*
X90295495Y-76781963D01*
X90295495Y-76781963D02*
X90295495Y-76705772D01*
X90295495Y-76705772D02*
X90257400Y-76591487D01*
X90257400Y-76591487D02*
X90219304Y-76553391D01*
X90219304Y-76553391D02*
X89952638Y-76553391D01*
X89952638Y-76553391D02*
X89952638Y-76705772D01*
X90295495Y-76210534D02*
X89495495Y-76210534D01*
X89495495Y-76210534D02*
X90295495Y-75753391D01*
X90295495Y-75753391D02*
X89495495Y-75753391D01*
X90295495Y-75372439D02*
X89495495Y-75372439D01*
X89495495Y-75372439D02*
X89495495Y-75181963D01*
X89495495Y-75181963D02*
X89533590Y-75067677D01*
X89533590Y-75067677D02*
X89609780Y-74991487D01*
X89609780Y-74991487D02*
X89685971Y-74953392D01*
X89685971Y-74953392D02*
X89838352Y-74915296D01*
X89838352Y-74915296D02*
X89952638Y-74915296D01*
X89952638Y-74915296D02*
X90105019Y-74953392D01*
X90105019Y-74953392D02*
X90181209Y-74991487D01*
X90181209Y-74991487D02*
X90257400Y-75067677D01*
X90257400Y-75067677D02*
X90295495Y-75181963D01*
X90295495Y-75181963D02*
X90295495Y-75372439D01*
X62486217Y-84415495D02*
X62105265Y-84415495D01*
X62105265Y-84415495D02*
X62067169Y-84796447D01*
X62067169Y-84796447D02*
X62105265Y-84758352D01*
X62105265Y-84758352D02*
X62181455Y-84720257D01*
X62181455Y-84720257D02*
X62371931Y-84720257D01*
X62371931Y-84720257D02*
X62448122Y-84758352D01*
X62448122Y-84758352D02*
X62486217Y-84796447D01*
X62486217Y-84796447D02*
X62524312Y-84872638D01*
X62524312Y-84872638D02*
X62524312Y-85063114D01*
X62524312Y-85063114D02*
X62486217Y-85139304D01*
X62486217Y-85139304D02*
X62448122Y-85177400D01*
X62448122Y-85177400D02*
X62371931Y-85215495D01*
X62371931Y-85215495D02*
X62181455Y-85215495D01*
X62181455Y-85215495D02*
X62105265Y-85177400D01*
X62105265Y-85177400D02*
X62067169Y-85139304D01*
X71795379Y-84263095D02*
X72062046Y-85063095D01*
X72062046Y-85063095D02*
X72328712Y-84263095D01*
X73052522Y-84986904D02*
X73014426Y-85025000D01*
X73014426Y-85025000D02*
X72900141Y-85063095D01*
X72900141Y-85063095D02*
X72823950Y-85063095D01*
X72823950Y-85063095D02*
X72709664Y-85025000D01*
X72709664Y-85025000D02*
X72633474Y-84948809D01*
X72633474Y-84948809D02*
X72595379Y-84872619D01*
X72595379Y-84872619D02*
X72557283Y-84720238D01*
X72557283Y-84720238D02*
X72557283Y-84605952D01*
X72557283Y-84605952D02*
X72595379Y-84453571D01*
X72595379Y-84453571D02*
X72633474Y-84377380D01*
X72633474Y-84377380D02*
X72709664Y-84301190D01*
X72709664Y-84301190D02*
X72823950Y-84263095D01*
X72823950Y-84263095D02*
X72900141Y-84263095D01*
X72900141Y-84263095D02*
X73014426Y-84301190D01*
X73014426Y-84301190D02*
X73052522Y-84339285D01*
X73852522Y-84986904D02*
X73814426Y-85025000D01*
X73814426Y-85025000D02*
X73700141Y-85063095D01*
X73700141Y-85063095D02*
X73623950Y-85063095D01*
X73623950Y-85063095D02*
X73509664Y-85025000D01*
X73509664Y-85025000D02*
X73433474Y-84948809D01*
X73433474Y-84948809D02*
X73395379Y-84872619D01*
X73395379Y-84872619D02*
X73357283Y-84720238D01*
X73357283Y-84720238D02*
X73357283Y-84605952D01*
X73357283Y-84605952D02*
X73395379Y-84453571D01*
X73395379Y-84453571D02*
X73433474Y-84377380D01*
X73433474Y-84377380D02*
X73509664Y-84301190D01*
X73509664Y-84301190D02*
X73623950Y-84263095D01*
X73623950Y-84263095D02*
X73700141Y-84263095D01*
X73700141Y-84263095D02*
X73814426Y-84301190D01*
X73814426Y-84301190D02*
X73852522Y-84339285D01*
X74561238Y-87521906D02*
X74513619Y-87617144D01*
X74513619Y-87617144D02*
X74513619Y-87760001D01*
X74513619Y-87760001D02*
X74561238Y-87902858D01*
X74561238Y-87902858D02*
X74656476Y-87998096D01*
X74656476Y-87998096D02*
X74751714Y-88045715D01*
X74751714Y-88045715D02*
X74942190Y-88093334D01*
X74942190Y-88093334D02*
X75085047Y-88093334D01*
X75085047Y-88093334D02*
X75275523Y-88045715D01*
X75275523Y-88045715D02*
X75370761Y-87998096D01*
X75370761Y-87998096D02*
X75466000Y-87902858D01*
X75466000Y-87902858D02*
X75513619Y-87760001D01*
X75513619Y-87760001D02*
X75513619Y-87664763D01*
X75513619Y-87664763D02*
X75466000Y-87521906D01*
X75466000Y-87521906D02*
X75418380Y-87474287D01*
X75418380Y-87474287D02*
X75085047Y-87474287D01*
X75085047Y-87474287D02*
X75085047Y-87664763D01*
X75513619Y-87045715D02*
X74513619Y-87045715D01*
X74513619Y-87045715D02*
X74513619Y-86664763D01*
X74513619Y-86664763D02*
X74561238Y-86569525D01*
X74561238Y-86569525D02*
X74608857Y-86521906D01*
X74608857Y-86521906D02*
X74704095Y-86474287D01*
X74704095Y-86474287D02*
X74846952Y-86474287D01*
X74846952Y-86474287D02*
X74942190Y-86521906D01*
X74942190Y-86521906D02*
X74989809Y-86569525D01*
X74989809Y-86569525D02*
X75037428Y-86664763D01*
X75037428Y-86664763D02*
X75037428Y-87045715D01*
X75513619Y-86045715D02*
X74513619Y-86045715D01*
X74513619Y-85379049D02*
X74513619Y-85188573D01*
X74513619Y-85188573D02*
X74561238Y-85093335D01*
X74561238Y-85093335D02*
X74656476Y-84998097D01*
X74656476Y-84998097D02*
X74846952Y-84950478D01*
X74846952Y-84950478D02*
X75180285Y-84950478D01*
X75180285Y-84950478D02*
X75370761Y-84998097D01*
X75370761Y-84998097D02*
X75466000Y-85093335D01*
X75466000Y-85093335D02*
X75513619Y-85188573D01*
X75513619Y-85188573D02*
X75513619Y-85379049D01*
X75513619Y-85379049D02*
X75466000Y-85474287D01*
X75466000Y-85474287D02*
X75370761Y-85569525D01*
X75370761Y-85569525D02*
X75180285Y-85617144D01*
X75180285Y-85617144D02*
X74846952Y-85617144D01*
X74846952Y-85617144D02*
X74656476Y-85569525D01*
X74656476Y-85569525D02*
X74561238Y-85474287D01*
X74561238Y-85474287D02*
X74513619Y-85379049D01*
X79847179Y-84136095D02*
X80113846Y-84936095D01*
X80113846Y-84936095D02*
X80380512Y-84136095D01*
X81104322Y-84859904D02*
X81066226Y-84898000D01*
X81066226Y-84898000D02*
X80951941Y-84936095D01*
X80951941Y-84936095D02*
X80875750Y-84936095D01*
X80875750Y-84936095D02*
X80761464Y-84898000D01*
X80761464Y-84898000D02*
X80685274Y-84821809D01*
X80685274Y-84821809D02*
X80647179Y-84745619D01*
X80647179Y-84745619D02*
X80609083Y-84593238D01*
X80609083Y-84593238D02*
X80609083Y-84478952D01*
X80609083Y-84478952D02*
X80647179Y-84326571D01*
X80647179Y-84326571D02*
X80685274Y-84250380D01*
X80685274Y-84250380D02*
X80761464Y-84174190D01*
X80761464Y-84174190D02*
X80875750Y-84136095D01*
X80875750Y-84136095D02*
X80951941Y-84136095D01*
X80951941Y-84136095D02*
X81066226Y-84174190D01*
X81066226Y-84174190D02*
X81104322Y-84212285D01*
X81904322Y-84859904D02*
X81866226Y-84898000D01*
X81866226Y-84898000D02*
X81751941Y-84936095D01*
X81751941Y-84936095D02*
X81675750Y-84936095D01*
X81675750Y-84936095D02*
X81561464Y-84898000D01*
X81561464Y-84898000D02*
X81485274Y-84821809D01*
X81485274Y-84821809D02*
X81447179Y-84745619D01*
X81447179Y-84745619D02*
X81409083Y-84593238D01*
X81409083Y-84593238D02*
X81409083Y-84478952D01*
X81409083Y-84478952D02*
X81447179Y-84326571D01*
X81447179Y-84326571D02*
X81485274Y-84250380D01*
X81485274Y-84250380D02*
X81561464Y-84174190D01*
X81561464Y-84174190D02*
X81675750Y-84136095D01*
X81675750Y-84136095D02*
X81751941Y-84136095D01*
X81751941Y-84136095D02*
X81866226Y-84174190D01*
X81866226Y-84174190D02*
X81904322Y-84212285D01*
X65089722Y-84491695D02*
X64937341Y-84491695D01*
X64937341Y-84491695D02*
X64861150Y-84529790D01*
X64861150Y-84529790D02*
X64823055Y-84567885D01*
X64823055Y-84567885D02*
X64746865Y-84682171D01*
X64746865Y-84682171D02*
X64708769Y-84834552D01*
X64708769Y-84834552D02*
X64708769Y-85139314D01*
X64708769Y-85139314D02*
X64746865Y-85215504D01*
X64746865Y-85215504D02*
X64784960Y-85253600D01*
X64784960Y-85253600D02*
X64861150Y-85291695D01*
X64861150Y-85291695D02*
X65013531Y-85291695D01*
X65013531Y-85291695D02*
X65089722Y-85253600D01*
X65089722Y-85253600D02*
X65127817Y-85215504D01*
X65127817Y-85215504D02*
X65165912Y-85139314D01*
X65165912Y-85139314D02*
X65165912Y-84948838D01*
X65165912Y-84948838D02*
X65127817Y-84872647D01*
X65127817Y-84872647D02*
X65089722Y-84834552D01*
X65089722Y-84834552D02*
X65013531Y-84796457D01*
X65013531Y-84796457D02*
X64861150Y-84796457D01*
X64861150Y-84796457D02*
X64784960Y-84834552D01*
X64784960Y-84834552D02*
X64746865Y-84872647D01*
X64746865Y-84872647D02*
X64708769Y-84948838D01*
X89673295Y-79741020D02*
X90473295Y-79474353D01*
X90473295Y-79474353D02*
X89673295Y-79207687D01*
X90397104Y-78483877D02*
X90435200Y-78521973D01*
X90435200Y-78521973D02*
X90473295Y-78636258D01*
X90473295Y-78636258D02*
X90473295Y-78712449D01*
X90473295Y-78712449D02*
X90435200Y-78826735D01*
X90435200Y-78826735D02*
X90359009Y-78902925D01*
X90359009Y-78902925D02*
X90282819Y-78941020D01*
X90282819Y-78941020D02*
X90130438Y-78979116D01*
X90130438Y-78979116D02*
X90016152Y-78979116D01*
X90016152Y-78979116D02*
X89863771Y-78941020D01*
X89863771Y-78941020D02*
X89787580Y-78902925D01*
X89787580Y-78902925D02*
X89711390Y-78826735D01*
X89711390Y-78826735D02*
X89673295Y-78712449D01*
X89673295Y-78712449D02*
X89673295Y-78636258D01*
X89673295Y-78636258D02*
X89711390Y-78521973D01*
X89711390Y-78521973D02*
X89749485Y-78483877D01*
X90397104Y-77683877D02*
X90435200Y-77721973D01*
X90435200Y-77721973D02*
X90473295Y-77836258D01*
X90473295Y-77836258D02*
X90473295Y-77912449D01*
X90473295Y-77912449D02*
X90435200Y-78026735D01*
X90435200Y-78026735D02*
X90359009Y-78102925D01*
X90359009Y-78102925D02*
X90282819Y-78141020D01*
X90282819Y-78141020D02*
X90130438Y-78179116D01*
X90130438Y-78179116D02*
X90016152Y-78179116D01*
X90016152Y-78179116D02*
X89863771Y-78141020D01*
X89863771Y-78141020D02*
X89787580Y-78102925D01*
X89787580Y-78102925D02*
X89711390Y-78026735D01*
X89711390Y-78026735D02*
X89673295Y-77912449D01*
X89673295Y-77912449D02*
X89673295Y-77836258D01*
X89673295Y-77836258D02*
X89711390Y-77721973D01*
X89711390Y-77721973D02*
X89749485Y-77683877D01*
X54396369Y-84491685D02*
X54434465Y-84453590D01*
X54434465Y-84453590D02*
X54510655Y-84415495D01*
X54510655Y-84415495D02*
X54701131Y-84415495D01*
X54701131Y-84415495D02*
X54777322Y-84453590D01*
X54777322Y-84453590D02*
X54815417Y-84491685D01*
X54815417Y-84491685D02*
X54853512Y-84567876D01*
X54853512Y-84567876D02*
X54853512Y-84644066D01*
X54853512Y-84644066D02*
X54815417Y-84758352D01*
X54815417Y-84758352D02*
X54358274Y-85215495D01*
X54358274Y-85215495D02*
X54853512Y-85215495D01*
X56923674Y-84440895D02*
X57418912Y-84440895D01*
X57418912Y-84440895D02*
X57152246Y-84745657D01*
X57152246Y-84745657D02*
X57266531Y-84745657D01*
X57266531Y-84745657D02*
X57342722Y-84783752D01*
X57342722Y-84783752D02*
X57380817Y-84821847D01*
X57380817Y-84821847D02*
X57418912Y-84898038D01*
X57418912Y-84898038D02*
X57418912Y-85088514D01*
X57418912Y-85088514D02*
X57380817Y-85164704D01*
X57380817Y-85164704D02*
X57342722Y-85202800D01*
X57342722Y-85202800D02*
X57266531Y-85240895D01*
X57266531Y-85240895D02*
X57037960Y-85240895D01*
X57037960Y-85240895D02*
X56961769Y-85202800D01*
X56961769Y-85202800D02*
X56923674Y-85164704D01*
X52516712Y-85291695D02*
X52059569Y-85291695D01*
X52288141Y-85291695D02*
X52288141Y-84491695D01*
X52288141Y-84491695D02*
X52211950Y-84605980D01*
X52211950Y-84605980D02*
X52135760Y-84682171D01*
X52135760Y-84682171D02*
X52059569Y-84720266D01*
X79950533Y-63361433D02*
X79950533Y-62661433D01*
X79950533Y-62661433D02*
X80117200Y-62661433D01*
X80117200Y-62661433D02*
X80217200Y-62694766D01*
X80217200Y-62694766D02*
X80283867Y-62761433D01*
X80283867Y-62761433D02*
X80317200Y-62828100D01*
X80317200Y-62828100D02*
X80350533Y-62961433D01*
X80350533Y-62961433D02*
X80350533Y-63061433D01*
X80350533Y-63061433D02*
X80317200Y-63194766D01*
X80317200Y-63194766D02*
X80283867Y-63261433D01*
X80283867Y-63261433D02*
X80217200Y-63328100D01*
X80217200Y-63328100D02*
X80117200Y-63361433D01*
X80117200Y-63361433D02*
X79950533Y-63361433D01*
X80617200Y-62728100D02*
X80650533Y-62694766D01*
X80650533Y-62694766D02*
X80717200Y-62661433D01*
X80717200Y-62661433D02*
X80883867Y-62661433D01*
X80883867Y-62661433D02*
X80950533Y-62694766D01*
X80950533Y-62694766D02*
X80983867Y-62728100D01*
X80983867Y-62728100D02*
X81017200Y-62794766D01*
X81017200Y-62794766D02*
X81017200Y-62861433D01*
X81017200Y-62861433D02*
X80983867Y-62961433D01*
X80983867Y-62961433D02*
X80583867Y-63361433D01*
X80583867Y-63361433D02*
X81017200Y-63361433D01*
X81908714Y-63356895D02*
X81527762Y-63356895D01*
X81527762Y-63356895D02*
X81527762Y-62556895D01*
X82175381Y-62937847D02*
X82442047Y-62937847D01*
X82556333Y-63356895D02*
X82175381Y-63356895D01*
X82175381Y-63356895D02*
X82175381Y-62556895D01*
X82175381Y-62556895D02*
X82556333Y-62556895D01*
X82899191Y-63356895D02*
X82899191Y-62556895D01*
X82899191Y-62556895D02*
X83089667Y-62556895D01*
X83089667Y-62556895D02*
X83203953Y-62594990D01*
X83203953Y-62594990D02*
X83280143Y-62671180D01*
X83280143Y-62671180D02*
X83318238Y-62747371D01*
X83318238Y-62747371D02*
X83356334Y-62899752D01*
X83356334Y-62899752D02*
X83356334Y-63014038D01*
X83356334Y-63014038D02*
X83318238Y-63166419D01*
X83318238Y-63166419D02*
X83280143Y-63242609D01*
X83280143Y-63242609D02*
X83203953Y-63318800D01*
X83203953Y-63318800D02*
X83089667Y-63356895D01*
X83089667Y-63356895D02*
X82899191Y-63356895D01*
X52552666Y-66623833D02*
X52552666Y-67190500D01*
X52552666Y-67190500D02*
X52586000Y-67257166D01*
X52586000Y-67257166D02*
X52619333Y-67290500D01*
X52619333Y-67290500D02*
X52686000Y-67323833D01*
X52686000Y-67323833D02*
X52819333Y-67323833D01*
X52819333Y-67323833D02*
X52886000Y-67290500D01*
X52886000Y-67290500D02*
X52919333Y-67257166D01*
X52919333Y-67257166D02*
X52952666Y-67190500D01*
X52952666Y-67190500D02*
X52952666Y-66623833D01*
X53652666Y-67323833D02*
X53252666Y-67323833D01*
X53452666Y-67323833D02*
X53452666Y-66623833D01*
X53452666Y-66623833D02*
X53385999Y-66723833D01*
X53385999Y-66723833D02*
X53319333Y-66790500D01*
X53319333Y-66790500D02*
X53252666Y-66823833D01*
X54362956Y-66595485D02*
X54401052Y-66557390D01*
X54401052Y-66557390D02*
X54477242Y-66519295D01*
X54477242Y-66519295D02*
X54667718Y-66519295D01*
X54667718Y-66519295D02*
X54743909Y-66557390D01*
X54743909Y-66557390D02*
X54782004Y-66595485D01*
X54782004Y-66595485D02*
X54820099Y-66671676D01*
X54820099Y-66671676D02*
X54820099Y-66747866D01*
X54820099Y-66747866D02*
X54782004Y-66862152D01*
X54782004Y-66862152D02*
X54324861Y-67319295D01*
X54324861Y-67319295D02*
X54820099Y-67319295D01*
X55505814Y-66785961D02*
X55505814Y-67319295D01*
X55315338Y-66481200D02*
X55124861Y-67052628D01*
X55124861Y-67052628D02*
X55620100Y-67052628D01*
X56305814Y-67319295D02*
X55924862Y-67319295D01*
X55924862Y-67319295D02*
X55924862Y-66519295D01*
X57029624Y-67243104D02*
X56991528Y-67281200D01*
X56991528Y-67281200D02*
X56877243Y-67319295D01*
X56877243Y-67319295D02*
X56801052Y-67319295D01*
X56801052Y-67319295D02*
X56686766Y-67281200D01*
X56686766Y-67281200D02*
X56610576Y-67205009D01*
X56610576Y-67205009D02*
X56572481Y-67128819D01*
X56572481Y-67128819D02*
X56534385Y-66976438D01*
X56534385Y-66976438D02*
X56534385Y-66862152D01*
X56534385Y-66862152D02*
X56572481Y-66709771D01*
X56572481Y-66709771D02*
X56610576Y-66633580D01*
X56610576Y-66633580D02*
X56686766Y-66557390D01*
X56686766Y-66557390D02*
X56801052Y-66519295D01*
X56801052Y-66519295D02*
X56877243Y-66519295D01*
X56877243Y-66519295D02*
X56991528Y-66557390D01*
X56991528Y-66557390D02*
X57029624Y-66595485D01*
X57791528Y-67319295D02*
X57334385Y-67319295D01*
X57562957Y-67319295D02*
X57562957Y-66519295D01*
X57562957Y-66519295D02*
X57486766Y-66633580D01*
X57486766Y-66633580D02*
X57410576Y-66709771D01*
X57410576Y-66709771D02*
X57334385Y-66747866D01*
X58286767Y-66519295D02*
X58362957Y-66519295D01*
X58362957Y-66519295D02*
X58439148Y-66557390D01*
X58439148Y-66557390D02*
X58477243Y-66595485D01*
X58477243Y-66595485D02*
X58515338Y-66671676D01*
X58515338Y-66671676D02*
X58553433Y-66824057D01*
X58553433Y-66824057D02*
X58553433Y-67014533D01*
X58553433Y-67014533D02*
X58515338Y-67166914D01*
X58515338Y-67166914D02*
X58477243Y-67243104D01*
X58477243Y-67243104D02*
X58439148Y-67281200D01*
X58439148Y-67281200D02*
X58362957Y-67319295D01*
X58362957Y-67319295D02*
X58286767Y-67319295D01*
X58286767Y-67319295D02*
X58210576Y-67281200D01*
X58210576Y-67281200D02*
X58172481Y-67243104D01*
X58172481Y-67243104D02*
X58134386Y-67166914D01*
X58134386Y-67166914D02*
X58096290Y-67014533D01*
X58096290Y-67014533D02*
X58096290Y-66824057D01*
X58096290Y-66824057D02*
X58134386Y-66671676D01*
X58134386Y-66671676D02*
X58172481Y-66595485D01*
X58172481Y-66595485D02*
X58210576Y-66557390D01*
X58210576Y-66557390D02*
X58286767Y-66519295D01*
X58858195Y-66595485D02*
X58896291Y-66557390D01*
X58896291Y-66557390D02*
X58972481Y-66519295D01*
X58972481Y-66519295D02*
X59162957Y-66519295D01*
X59162957Y-66519295D02*
X59239148Y-66557390D01*
X59239148Y-66557390D02*
X59277243Y-66595485D01*
X59277243Y-66595485D02*
X59315338Y-66671676D01*
X59315338Y-66671676D02*
X59315338Y-66747866D01*
X59315338Y-66747866D02*
X59277243Y-66862152D01*
X59277243Y-66862152D02*
X58820100Y-67319295D01*
X58820100Y-67319295D02*
X59315338Y-67319295D01*
X60039148Y-66519295D02*
X59658196Y-66519295D01*
X59658196Y-66519295D02*
X59620100Y-66900247D01*
X59620100Y-66900247D02*
X59658196Y-66862152D01*
X59658196Y-66862152D02*
X59734386Y-66824057D01*
X59734386Y-66824057D02*
X59924862Y-66824057D01*
X59924862Y-66824057D02*
X60001053Y-66862152D01*
X60001053Y-66862152D02*
X60039148Y-66900247D01*
X60039148Y-66900247D02*
X60077243Y-66976438D01*
X60077243Y-66976438D02*
X60077243Y-67166914D01*
X60077243Y-67166914D02*
X60039148Y-67243104D01*
X60039148Y-67243104D02*
X60001053Y-67281200D01*
X60001053Y-67281200D02*
X59924862Y-67319295D01*
X59924862Y-67319295D02*
X59734386Y-67319295D01*
X59734386Y-67319295D02*
X59658196Y-67281200D01*
X59658196Y-67281200D02*
X59620100Y-67243104D01*
X88666666Y-63372633D02*
X88666666Y-63872633D01*
X88666666Y-63872633D02*
X88633333Y-63972633D01*
X88633333Y-63972633D02*
X88566666Y-64039300D01*
X88566666Y-64039300D02*
X88466666Y-64072633D01*
X88466666Y-64072633D02*
X88400000Y-64072633D01*
X89299999Y-63605966D02*
X89299999Y-64072633D01*
X89133333Y-63339300D02*
X88966666Y-63839300D01*
X88966666Y-63839300D02*
X89399999Y-63839300D01*
X65252666Y-65201433D02*
X65252666Y-65768100D01*
X65252666Y-65768100D02*
X65286000Y-65834766D01*
X65286000Y-65834766D02*
X65319333Y-65868100D01*
X65319333Y-65868100D02*
X65386000Y-65901433D01*
X65386000Y-65901433D02*
X65519333Y-65901433D01*
X65519333Y-65901433D02*
X65586000Y-65868100D01*
X65586000Y-65868100D02*
X65619333Y-65834766D01*
X65619333Y-65834766D02*
X65652666Y-65768100D01*
X65652666Y-65768100D02*
X65652666Y-65201433D01*
X66285999Y-65434766D02*
X66285999Y-65901433D01*
X66119333Y-65168100D02*
X65952666Y-65668100D01*
X65952666Y-65668100D02*
X66385999Y-65668100D01*
X66948656Y-65642923D02*
X67329609Y-65642923D01*
X66872466Y-65871495D02*
X67139133Y-65071495D01*
X67139133Y-65071495D02*
X67405799Y-65871495D01*
X67558180Y-65071495D02*
X68015323Y-65071495D01*
X67786751Y-65871495D02*
X67786751Y-65071495D01*
X68281990Y-65871495D02*
X68281990Y-65071495D01*
X68281990Y-65071495D02*
X68548656Y-65642923D01*
X68548656Y-65642923D02*
X68815323Y-65071495D01*
X68815323Y-65071495D02*
X68815323Y-65871495D01*
X69196276Y-65452447D02*
X69462942Y-65452447D01*
X69577228Y-65871495D02*
X69196276Y-65871495D01*
X69196276Y-65871495D02*
X69196276Y-65071495D01*
X69196276Y-65071495D02*
X69577228Y-65071495D01*
X70339133Y-65109590D02*
X70262943Y-65071495D01*
X70262943Y-65071495D02*
X70148657Y-65071495D01*
X70148657Y-65071495D02*
X70034371Y-65109590D01*
X70034371Y-65109590D02*
X69958181Y-65185780D01*
X69958181Y-65185780D02*
X69920086Y-65261971D01*
X69920086Y-65261971D02*
X69881990Y-65414352D01*
X69881990Y-65414352D02*
X69881990Y-65528638D01*
X69881990Y-65528638D02*
X69920086Y-65681019D01*
X69920086Y-65681019D02*
X69958181Y-65757209D01*
X69958181Y-65757209D02*
X70034371Y-65833400D01*
X70034371Y-65833400D02*
X70148657Y-65871495D01*
X70148657Y-65871495D02*
X70224848Y-65871495D01*
X70224848Y-65871495D02*
X70339133Y-65833400D01*
X70339133Y-65833400D02*
X70377229Y-65795304D01*
X70377229Y-65795304D02*
X70377229Y-65528638D01*
X70377229Y-65528638D02*
X70224848Y-65528638D01*
X70681990Y-65642923D02*
X71062943Y-65642923D01*
X70605800Y-65871495D02*
X70872467Y-65071495D01*
X70872467Y-65071495D02*
X71139133Y-65871495D01*
X71329609Y-65071495D02*
X71824847Y-65071495D01*
X71824847Y-65071495D02*
X71558181Y-65376257D01*
X71558181Y-65376257D02*
X71672466Y-65376257D01*
X71672466Y-65376257D02*
X71748657Y-65414352D01*
X71748657Y-65414352D02*
X71786752Y-65452447D01*
X71786752Y-65452447D02*
X71824847Y-65528638D01*
X71824847Y-65528638D02*
X71824847Y-65719114D01*
X71824847Y-65719114D02*
X71786752Y-65795304D01*
X71786752Y-65795304D02*
X71748657Y-65833400D01*
X71748657Y-65833400D02*
X71672466Y-65871495D01*
X71672466Y-65871495D02*
X71443895Y-65871495D01*
X71443895Y-65871495D02*
X71367704Y-65833400D01*
X71367704Y-65833400D02*
X71329609Y-65795304D01*
X72129609Y-65147685D02*
X72167705Y-65109590D01*
X72167705Y-65109590D02*
X72243895Y-65071495D01*
X72243895Y-65071495D02*
X72434371Y-65071495D01*
X72434371Y-65071495D02*
X72510562Y-65109590D01*
X72510562Y-65109590D02*
X72548657Y-65147685D01*
X72548657Y-65147685D02*
X72586752Y-65223876D01*
X72586752Y-65223876D02*
X72586752Y-65300066D01*
X72586752Y-65300066D02*
X72548657Y-65414352D01*
X72548657Y-65414352D02*
X72091514Y-65871495D01*
X72091514Y-65871495D02*
X72586752Y-65871495D01*
X73043895Y-65414352D02*
X72967705Y-65376257D01*
X72967705Y-65376257D02*
X72929610Y-65338161D01*
X72929610Y-65338161D02*
X72891514Y-65261971D01*
X72891514Y-65261971D02*
X72891514Y-65223876D01*
X72891514Y-65223876D02*
X72929610Y-65147685D01*
X72929610Y-65147685D02*
X72967705Y-65109590D01*
X72967705Y-65109590D02*
X73043895Y-65071495D01*
X73043895Y-65071495D02*
X73196276Y-65071495D01*
X73196276Y-65071495D02*
X73272467Y-65109590D01*
X73272467Y-65109590D02*
X73310562Y-65147685D01*
X73310562Y-65147685D02*
X73348657Y-65223876D01*
X73348657Y-65223876D02*
X73348657Y-65261971D01*
X73348657Y-65261971D02*
X73310562Y-65338161D01*
X73310562Y-65338161D02*
X73272467Y-65376257D01*
X73272467Y-65376257D02*
X73196276Y-65414352D01*
X73196276Y-65414352D02*
X73043895Y-65414352D01*
X73043895Y-65414352D02*
X72967705Y-65452447D01*
X72967705Y-65452447D02*
X72929610Y-65490542D01*
X72929610Y-65490542D02*
X72891514Y-65566733D01*
X72891514Y-65566733D02*
X72891514Y-65719114D01*
X72891514Y-65719114D02*
X72929610Y-65795304D01*
X72929610Y-65795304D02*
X72967705Y-65833400D01*
X72967705Y-65833400D02*
X73043895Y-65871495D01*
X73043895Y-65871495D02*
X73196276Y-65871495D01*
X73196276Y-65871495D02*
X73272467Y-65833400D01*
X73272467Y-65833400D02*
X73310562Y-65795304D01*
X73310562Y-65795304D02*
X73348657Y-65719114D01*
X73348657Y-65719114D02*
X73348657Y-65566733D01*
X73348657Y-65566733D02*
X73310562Y-65490542D01*
X73310562Y-65490542D02*
X73272467Y-65452447D01*
X73272467Y-65452447D02*
X73196276Y-65414352D01*
X73691515Y-65871495D02*
X73691515Y-65071495D01*
X73691515Y-65071495D02*
X73996277Y-65071495D01*
X73996277Y-65071495D02*
X74072467Y-65109590D01*
X74072467Y-65109590D02*
X74110562Y-65147685D01*
X74110562Y-65147685D02*
X74148658Y-65223876D01*
X74148658Y-65223876D02*
X74148658Y-65338161D01*
X74148658Y-65338161D02*
X74110562Y-65414352D01*
X74110562Y-65414352D02*
X74072467Y-65452447D01*
X74072467Y-65452447D02*
X73996277Y-65490542D01*
X73996277Y-65490542D02*
X73691515Y-65490542D01*
X74491515Y-65566733D02*
X75101039Y-65566733D01*
X75443895Y-65642923D02*
X75824848Y-65642923D01*
X75367705Y-65871495D02*
X75634372Y-65071495D01*
X75634372Y-65071495D02*
X75901038Y-65871495D01*
X76167705Y-65071495D02*
X76167705Y-65719114D01*
X76167705Y-65719114D02*
X76205800Y-65795304D01*
X76205800Y-65795304D02*
X76243895Y-65833400D01*
X76243895Y-65833400D02*
X76320086Y-65871495D01*
X76320086Y-65871495D02*
X76472467Y-65871495D01*
X76472467Y-65871495D02*
X76548657Y-65833400D01*
X76548657Y-65833400D02*
X76586752Y-65795304D01*
X76586752Y-65795304D02*
X76624848Y-65719114D01*
X76624848Y-65719114D02*
X76624848Y-65071495D01*
X47472666Y-61405633D02*
X47472666Y-60705633D01*
X47472666Y-61038966D02*
X47872666Y-61038966D01*
X47872666Y-61405633D02*
X47872666Y-60705633D01*
X48572666Y-61405633D02*
X48172666Y-61405633D01*
X48372666Y-61405633D02*
X48372666Y-60705633D01*
X48372666Y-60705633D02*
X48305999Y-60805633D01*
X48305999Y-60805633D02*
X48239333Y-60872300D01*
X48239333Y-60872300D02*
X48172666Y-60905633D01*
X92837066Y-62142233D02*
X92837066Y-61442233D01*
X92837066Y-61775566D02*
X93237066Y-61775566D01*
X93237066Y-62142233D02*
X93237066Y-61442233D01*
X93537066Y-61508900D02*
X93570399Y-61475566D01*
X93570399Y-61475566D02*
X93637066Y-61442233D01*
X93637066Y-61442233D02*
X93803733Y-61442233D01*
X93803733Y-61442233D02*
X93870399Y-61475566D01*
X93870399Y-61475566D02*
X93903733Y-61508900D01*
X93903733Y-61508900D02*
X93937066Y-61575566D01*
X93937066Y-61575566D02*
X93937066Y-61642233D01*
X93937066Y-61642233D02*
X93903733Y-61742233D01*
X93903733Y-61742233D02*
X93503733Y-62142233D01*
X93503733Y-62142233D02*
X93937066Y-62142233D01*
X85792533Y-63158233D02*
X85792533Y-62458233D01*
X85792533Y-62458233D02*
X85959200Y-62458233D01*
X85959200Y-62458233D02*
X86059200Y-62491566D01*
X86059200Y-62491566D02*
X86125867Y-62558233D01*
X86125867Y-62558233D02*
X86159200Y-62624900D01*
X86159200Y-62624900D02*
X86192533Y-62758233D01*
X86192533Y-62758233D02*
X86192533Y-62858233D01*
X86192533Y-62858233D02*
X86159200Y-62991566D01*
X86159200Y-62991566D02*
X86125867Y-63058233D01*
X86125867Y-63058233D02*
X86059200Y-63124900D01*
X86059200Y-63124900D02*
X85959200Y-63158233D01*
X85959200Y-63158233D02*
X85792533Y-63158233D01*
X86859200Y-63158233D02*
X86459200Y-63158233D01*
X86659200Y-63158233D02*
X86659200Y-62458233D01*
X86659200Y-62458233D02*
X86592533Y-62558233D01*
X86592533Y-62558233D02*
X86525867Y-62624900D01*
X86525867Y-62624900D02*
X86459200Y-62658233D01*
X87877714Y-63356895D02*
X87496762Y-63356895D01*
X87496762Y-63356895D02*
X87496762Y-62556895D01*
X88144381Y-62937847D02*
X88411047Y-62937847D01*
X88525333Y-63356895D02*
X88144381Y-63356895D01*
X88144381Y-63356895D02*
X88144381Y-62556895D01*
X88144381Y-62556895D02*
X88525333Y-62556895D01*
X88868191Y-63356895D02*
X88868191Y-62556895D01*
X88868191Y-62556895D02*
X89058667Y-62556895D01*
X89058667Y-62556895D02*
X89172953Y-62594990D01*
X89172953Y-62594990D02*
X89249143Y-62671180D01*
X89249143Y-62671180D02*
X89287238Y-62747371D01*
X89287238Y-62747371D02*
X89325334Y-62899752D01*
X89325334Y-62899752D02*
X89325334Y-63014038D01*
X89325334Y-63014038D02*
X89287238Y-63166419D01*
X89287238Y-63166419D02*
X89249143Y-63242609D01*
X89249143Y-63242609D02*
X89172953Y-63318800D01*
X89172953Y-63318800D02*
X89058667Y-63356895D01*
X89058667Y-63356895D02*
X88868191Y-63356895D01*
X79690133Y-82141566D02*
X79656800Y-82174900D01*
X79656800Y-82174900D02*
X79556800Y-82208233D01*
X79556800Y-82208233D02*
X79490133Y-82208233D01*
X79490133Y-82208233D02*
X79390133Y-82174900D01*
X79390133Y-82174900D02*
X79323467Y-82108233D01*
X79323467Y-82108233D02*
X79290133Y-82041566D01*
X79290133Y-82041566D02*
X79256800Y-81908233D01*
X79256800Y-81908233D02*
X79256800Y-81808233D01*
X79256800Y-81808233D02*
X79290133Y-81674900D01*
X79290133Y-81674900D02*
X79323467Y-81608233D01*
X79323467Y-81608233D02*
X79390133Y-81541566D01*
X79390133Y-81541566D02*
X79490133Y-81508233D01*
X79490133Y-81508233D02*
X79556800Y-81508233D01*
X79556800Y-81508233D02*
X79656800Y-81541566D01*
X79656800Y-81541566D02*
X79690133Y-81574900D01*
X79956800Y-81574900D02*
X79990133Y-81541566D01*
X79990133Y-81541566D02*
X80056800Y-81508233D01*
X80056800Y-81508233D02*
X80223467Y-81508233D01*
X80223467Y-81508233D02*
X80290133Y-81541566D01*
X80290133Y-81541566D02*
X80323467Y-81574900D01*
X80323467Y-81574900D02*
X80356800Y-81641566D01*
X80356800Y-81641566D02*
X80356800Y-81708233D01*
X80356800Y-81708233D02*
X80323467Y-81808233D01*
X80323467Y-81808233D02*
X79923467Y-82208233D01*
X79923467Y-82208233D02*
X80356800Y-82208233D01*
X81413542Y-82203695D02*
X80956399Y-82203695D01*
X81184971Y-82203695D02*
X81184971Y-81403695D01*
X81184971Y-81403695D02*
X81108780Y-81517980D01*
X81108780Y-81517980D02*
X81032590Y-81594171D01*
X81032590Y-81594171D02*
X80956399Y-81632266D01*
X81908781Y-81403695D02*
X81984971Y-81403695D01*
X81984971Y-81403695D02*
X82061162Y-81441790D01*
X82061162Y-81441790D02*
X82099257Y-81479885D01*
X82099257Y-81479885D02*
X82137352Y-81556076D01*
X82137352Y-81556076D02*
X82175447Y-81708457D01*
X82175447Y-81708457D02*
X82175447Y-81898933D01*
X82175447Y-81898933D02*
X82137352Y-82051314D01*
X82137352Y-82051314D02*
X82099257Y-82127504D01*
X82099257Y-82127504D02*
X82061162Y-82165600D01*
X82061162Y-82165600D02*
X81984971Y-82203695D01*
X81984971Y-82203695D02*
X81908781Y-82203695D01*
X81908781Y-82203695D02*
X81832590Y-82165600D01*
X81832590Y-82165600D02*
X81794495Y-82127504D01*
X81794495Y-82127504D02*
X81756400Y-82051314D01*
X81756400Y-82051314D02*
X81718304Y-81898933D01*
X81718304Y-81898933D02*
X81718304Y-81708457D01*
X81718304Y-81708457D02*
X81756400Y-81556076D01*
X81756400Y-81556076D02*
X81794495Y-81479885D01*
X81794495Y-81479885D02*
X81832590Y-81441790D01*
X81832590Y-81441790D02*
X81908781Y-81403695D01*
X82670686Y-81403695D02*
X82746876Y-81403695D01*
X82746876Y-81403695D02*
X82823067Y-81441790D01*
X82823067Y-81441790D02*
X82861162Y-81479885D01*
X82861162Y-81479885D02*
X82899257Y-81556076D01*
X82899257Y-81556076D02*
X82937352Y-81708457D01*
X82937352Y-81708457D02*
X82937352Y-81898933D01*
X82937352Y-81898933D02*
X82899257Y-82051314D01*
X82899257Y-82051314D02*
X82861162Y-82127504D01*
X82861162Y-82127504D02*
X82823067Y-82165600D01*
X82823067Y-82165600D02*
X82746876Y-82203695D01*
X82746876Y-82203695D02*
X82670686Y-82203695D01*
X82670686Y-82203695D02*
X82594495Y-82165600D01*
X82594495Y-82165600D02*
X82556400Y-82127504D01*
X82556400Y-82127504D02*
X82518305Y-82051314D01*
X82518305Y-82051314D02*
X82480209Y-81898933D01*
X82480209Y-81898933D02*
X82480209Y-81708457D01*
X82480209Y-81708457D02*
X82518305Y-81556076D01*
X82518305Y-81556076D02*
X82556400Y-81479885D01*
X82556400Y-81479885D02*
X82594495Y-81441790D01*
X82594495Y-81441790D02*
X82670686Y-81403695D01*
X83889734Y-81670361D02*
X83889734Y-82203695D01*
X83889734Y-81746552D02*
X83927829Y-81708457D01*
X83927829Y-81708457D02*
X84004019Y-81670361D01*
X84004019Y-81670361D02*
X84118305Y-81670361D01*
X84118305Y-81670361D02*
X84194496Y-81708457D01*
X84194496Y-81708457D02*
X84232591Y-81784647D01*
X84232591Y-81784647D02*
X84232591Y-82203695D01*
X84880210Y-81784647D02*
X84613544Y-81784647D01*
X84613544Y-82203695D02*
X84613544Y-81403695D01*
X84613544Y-81403695D02*
X84994496Y-81403695D01*
X50876266Y-59918233D02*
X50876266Y-60484900D01*
X50876266Y-60484900D02*
X50909600Y-60551566D01*
X50909600Y-60551566D02*
X50942933Y-60584900D01*
X50942933Y-60584900D02*
X51009600Y-60618233D01*
X51009600Y-60618233D02*
X51142933Y-60618233D01*
X51142933Y-60618233D02*
X51209600Y-60584900D01*
X51209600Y-60584900D02*
X51242933Y-60551566D01*
X51242933Y-60551566D02*
X51276266Y-60484900D01*
X51276266Y-60484900D02*
X51276266Y-59918233D01*
X51576266Y-59984900D02*
X51609599Y-59951566D01*
X51609599Y-59951566D02*
X51676266Y-59918233D01*
X51676266Y-59918233D02*
X51842933Y-59918233D01*
X51842933Y-59918233D02*
X51909599Y-59951566D01*
X51909599Y-59951566D02*
X51942933Y-59984900D01*
X51942933Y-59984900D02*
X51976266Y-60051566D01*
X51976266Y-60051566D02*
X51976266Y-60118233D01*
X51976266Y-60118233D02*
X51942933Y-60218233D01*
X51942933Y-60218233D02*
X51542933Y-60618233D01*
X51542933Y-60618233D02*
X51976266Y-60618233D01*
X51203085Y-66865143D02*
X51164990Y-66827047D01*
X51164990Y-66827047D02*
X51126895Y-66750857D01*
X51126895Y-66750857D02*
X51126895Y-66560381D01*
X51126895Y-66560381D02*
X51164990Y-66484190D01*
X51164990Y-66484190D02*
X51203085Y-66446095D01*
X51203085Y-66446095D02*
X51279276Y-66408000D01*
X51279276Y-66408000D02*
X51355466Y-66408000D01*
X51355466Y-66408000D02*
X51469752Y-66446095D01*
X51469752Y-66446095D02*
X51926895Y-66903238D01*
X51926895Y-66903238D02*
X51926895Y-66408000D01*
X51393561Y-65722285D02*
X51926895Y-65722285D01*
X51088800Y-65912761D02*
X51660228Y-66103238D01*
X51660228Y-66103238D02*
X51660228Y-65607999D01*
X51926895Y-64922285D02*
X51926895Y-65303237D01*
X51926895Y-65303237D02*
X51126895Y-65303237D01*
X51850704Y-64198475D02*
X51888800Y-64236571D01*
X51888800Y-64236571D02*
X51926895Y-64350856D01*
X51926895Y-64350856D02*
X51926895Y-64427047D01*
X51926895Y-64427047D02*
X51888800Y-64541333D01*
X51888800Y-64541333D02*
X51812609Y-64617523D01*
X51812609Y-64617523D02*
X51736419Y-64655618D01*
X51736419Y-64655618D02*
X51584038Y-64693714D01*
X51584038Y-64693714D02*
X51469752Y-64693714D01*
X51469752Y-64693714D02*
X51317371Y-64655618D01*
X51317371Y-64655618D02*
X51241180Y-64617523D01*
X51241180Y-64617523D02*
X51164990Y-64541333D01*
X51164990Y-64541333D02*
X51126895Y-64427047D01*
X51126895Y-64427047D02*
X51126895Y-64350856D01*
X51126895Y-64350856D02*
X51164990Y-64236571D01*
X51164990Y-64236571D02*
X51203085Y-64198475D01*
X51926895Y-63436571D02*
X51926895Y-63893714D01*
X51926895Y-63665142D02*
X51126895Y-63665142D01*
X51126895Y-63665142D02*
X51241180Y-63741333D01*
X51241180Y-63741333D02*
X51317371Y-63817523D01*
X51317371Y-63817523D02*
X51355466Y-63893714D01*
X51126895Y-62941332D02*
X51126895Y-62865142D01*
X51126895Y-62865142D02*
X51164990Y-62788951D01*
X51164990Y-62788951D02*
X51203085Y-62750856D01*
X51203085Y-62750856D02*
X51279276Y-62712761D01*
X51279276Y-62712761D02*
X51431657Y-62674666D01*
X51431657Y-62674666D02*
X51622133Y-62674666D01*
X51622133Y-62674666D02*
X51774514Y-62712761D01*
X51774514Y-62712761D02*
X51850704Y-62750856D01*
X51850704Y-62750856D02*
X51888800Y-62788951D01*
X51888800Y-62788951D02*
X51926895Y-62865142D01*
X51926895Y-62865142D02*
X51926895Y-62941332D01*
X51926895Y-62941332D02*
X51888800Y-63017523D01*
X51888800Y-63017523D02*
X51850704Y-63055618D01*
X51850704Y-63055618D02*
X51774514Y-63093713D01*
X51774514Y-63093713D02*
X51622133Y-63131809D01*
X51622133Y-63131809D02*
X51431657Y-63131809D01*
X51431657Y-63131809D02*
X51279276Y-63093713D01*
X51279276Y-63093713D02*
X51203085Y-63055618D01*
X51203085Y-63055618D02*
X51164990Y-63017523D01*
X51164990Y-63017523D02*
X51126895Y-62941332D01*
X51203085Y-62369904D02*
X51164990Y-62331808D01*
X51164990Y-62331808D02*
X51126895Y-62255618D01*
X51126895Y-62255618D02*
X51126895Y-62065142D01*
X51126895Y-62065142D02*
X51164990Y-61988951D01*
X51164990Y-61988951D02*
X51203085Y-61950856D01*
X51203085Y-61950856D02*
X51279276Y-61912761D01*
X51279276Y-61912761D02*
X51355466Y-61912761D01*
X51355466Y-61912761D02*
X51469752Y-61950856D01*
X51469752Y-61950856D02*
X51926895Y-62407999D01*
X51926895Y-62407999D02*
X51926895Y-61912761D01*
X51126895Y-61188951D02*
X51126895Y-61569903D01*
X51126895Y-61569903D02*
X51507847Y-61607999D01*
X51507847Y-61607999D02*
X51469752Y-61569903D01*
X51469752Y-61569903D02*
X51431657Y-61493713D01*
X51431657Y-61493713D02*
X51431657Y-61303237D01*
X51431657Y-61303237D02*
X51469752Y-61227046D01*
X51469752Y-61227046D02*
X51507847Y-61188951D01*
X51507847Y-61188951D02*
X51584038Y-61150856D01*
X51584038Y-61150856D02*
X51774514Y-61150856D01*
X51774514Y-61150856D02*
X51850704Y-61188951D01*
X51850704Y-61188951D02*
X51888800Y-61227046D01*
X51888800Y-61227046D02*
X51926895Y-61303237D01*
X51926895Y-61303237D02*
X51926895Y-61493713D01*
X51926895Y-61493713D02*
X51888800Y-61569903D01*
X51888800Y-61569903D02*
X51850704Y-61607999D01*
X74406933Y-63193166D02*
X74373600Y-63226500D01*
X74373600Y-63226500D02*
X74273600Y-63259833D01*
X74273600Y-63259833D02*
X74206933Y-63259833D01*
X74206933Y-63259833D02*
X74106933Y-63226500D01*
X74106933Y-63226500D02*
X74040267Y-63159833D01*
X74040267Y-63159833D02*
X74006933Y-63093166D01*
X74006933Y-63093166D02*
X73973600Y-62959833D01*
X73973600Y-62959833D02*
X73973600Y-62859833D01*
X73973600Y-62859833D02*
X74006933Y-62726500D01*
X74006933Y-62726500D02*
X74040267Y-62659833D01*
X74040267Y-62659833D02*
X74106933Y-62593166D01*
X74106933Y-62593166D02*
X74206933Y-62559833D01*
X74206933Y-62559833D02*
X74273600Y-62559833D01*
X74273600Y-62559833D02*
X74373600Y-62593166D01*
X74373600Y-62593166D02*
X74406933Y-62626500D01*
X75040267Y-62559833D02*
X74706933Y-62559833D01*
X74706933Y-62559833D02*
X74673600Y-62893166D01*
X74673600Y-62893166D02*
X74706933Y-62859833D01*
X74706933Y-62859833D02*
X74773600Y-62826500D01*
X74773600Y-62826500D02*
X74940267Y-62826500D01*
X74940267Y-62826500D02*
X75006933Y-62859833D01*
X75006933Y-62859833D02*
X75040267Y-62893166D01*
X75040267Y-62893166D02*
X75073600Y-62959833D01*
X75073600Y-62959833D02*
X75073600Y-63126500D01*
X75073600Y-63126500D02*
X75040267Y-63193166D01*
X75040267Y-63193166D02*
X75006933Y-63226500D01*
X75006933Y-63226500D02*
X74940267Y-63259833D01*
X74940267Y-63259833D02*
X74773600Y-63259833D01*
X74773600Y-63259833D02*
X74706933Y-63226500D01*
X74706933Y-63226500D02*
X74673600Y-63193166D01*
X75774713Y-62506085D02*
X75812809Y-62467990D01*
X75812809Y-62467990D02*
X75888999Y-62429895D01*
X75888999Y-62429895D02*
X76079475Y-62429895D01*
X76079475Y-62429895D02*
X76155666Y-62467990D01*
X76155666Y-62467990D02*
X76193761Y-62506085D01*
X76193761Y-62506085D02*
X76231856Y-62582276D01*
X76231856Y-62582276D02*
X76231856Y-62658466D01*
X76231856Y-62658466D02*
X76193761Y-62772752D01*
X76193761Y-62772752D02*
X75736618Y-63229895D01*
X75736618Y-63229895D02*
X76231856Y-63229895D01*
X76536618Y-62506085D02*
X76574714Y-62467990D01*
X76574714Y-62467990D02*
X76650904Y-62429895D01*
X76650904Y-62429895D02*
X76841380Y-62429895D01*
X76841380Y-62429895D02*
X76917571Y-62467990D01*
X76917571Y-62467990D02*
X76955666Y-62506085D01*
X76955666Y-62506085D02*
X76993761Y-62582276D01*
X76993761Y-62582276D02*
X76993761Y-62658466D01*
X76993761Y-62658466D02*
X76955666Y-62772752D01*
X76955666Y-62772752D02*
X76498523Y-63229895D01*
X76498523Y-63229895D02*
X76993761Y-63229895D01*
X77336619Y-62696561D02*
X77336619Y-63496561D01*
X77336619Y-62734657D02*
X77412809Y-62696561D01*
X77412809Y-62696561D02*
X77565190Y-62696561D01*
X77565190Y-62696561D02*
X77641381Y-62734657D01*
X77641381Y-62734657D02*
X77679476Y-62772752D01*
X77679476Y-62772752D02*
X77717571Y-62848942D01*
X77717571Y-62848942D02*
X77717571Y-63077514D01*
X77717571Y-63077514D02*
X77679476Y-63153704D01*
X77679476Y-63153704D02*
X77641381Y-63191800D01*
X77641381Y-63191800D02*
X77565190Y-63229895D01*
X77565190Y-63229895D02*
X77412809Y-63229895D01*
X77412809Y-63229895D02*
X77336619Y-63191800D01*
X78327095Y-62810847D02*
X78060429Y-62810847D01*
X78060429Y-63229895D02*
X78060429Y-62429895D01*
X78060429Y-62429895D02*
X78441381Y-62429895D01*
X80504833Y-70855433D02*
X80271500Y-70522100D01*
X80104833Y-70855433D02*
X80104833Y-70155433D01*
X80104833Y-70155433D02*
X80371500Y-70155433D01*
X80371500Y-70155433D02*
X80438167Y-70188766D01*
X80438167Y-70188766D02*
X80471500Y-70222100D01*
X80471500Y-70222100D02*
X80504833Y-70288766D01*
X80504833Y-70288766D02*
X80504833Y-70388766D01*
X80504833Y-70388766D02*
X80471500Y-70455433D01*
X80471500Y-70455433D02*
X80438167Y-70488766D01*
X80438167Y-70488766D02*
X80371500Y-70522100D01*
X80371500Y-70522100D02*
X80104833Y-70522100D01*
X81104833Y-70388766D02*
X81104833Y-70855433D01*
X80938167Y-70122100D02*
X80771500Y-70622100D01*
X80771500Y-70622100D02*
X81204833Y-70622100D01*
X79802452Y-73668361D02*
X79802452Y-74201695D01*
X79611976Y-73363600D02*
X79421499Y-73935028D01*
X79421499Y-73935028D02*
X79916738Y-73935028D01*
X80221500Y-74125504D02*
X80259595Y-74163600D01*
X80259595Y-74163600D02*
X80221500Y-74201695D01*
X80221500Y-74201695D02*
X80183404Y-74163600D01*
X80183404Y-74163600D02*
X80221500Y-74125504D01*
X80221500Y-74125504D02*
X80221500Y-74201695D01*
X80526261Y-73401695D02*
X81059595Y-73401695D01*
X81059595Y-73401695D02*
X80716737Y-74201695D01*
X81364357Y-74201695D02*
X81364357Y-73401695D01*
X81821500Y-74201695D02*
X81478642Y-73744552D01*
X81821500Y-73401695D02*
X81364357Y-73858838D01*
X91054266Y-73591033D02*
X91054266Y-74091033D01*
X91054266Y-74091033D02*
X91020933Y-74191033D01*
X91020933Y-74191033D02*
X90954266Y-74257700D01*
X90954266Y-74257700D02*
X90854266Y-74291033D01*
X90854266Y-74291033D02*
X90787600Y-74291033D01*
X91754266Y-74291033D02*
X91354266Y-74291033D01*
X91554266Y-74291033D02*
X91554266Y-73591033D01*
X91554266Y-73591033D02*
X91487599Y-73691033D01*
X91487599Y-73691033D02*
X91420933Y-73757700D01*
X91420933Y-73757700D02*
X91354266Y-73791033D01*
X84363733Y-67679433D02*
X84130400Y-67346100D01*
X83963733Y-67679433D02*
X83963733Y-66979433D01*
X83963733Y-66979433D02*
X84230400Y-66979433D01*
X84230400Y-66979433D02*
X84297067Y-67012766D01*
X84297067Y-67012766D02*
X84330400Y-67046100D01*
X84330400Y-67046100D02*
X84363733Y-67112766D01*
X84363733Y-67112766D02*
X84363733Y-67212766D01*
X84363733Y-67212766D02*
X84330400Y-67279433D01*
X84330400Y-67279433D02*
X84297067Y-67312766D01*
X84297067Y-67312766D02*
X84230400Y-67346100D01*
X84230400Y-67346100D02*
X83963733Y-67346100D01*
X84997067Y-66979433D02*
X84663733Y-66979433D01*
X84663733Y-66979433D02*
X84630400Y-67312766D01*
X84630400Y-67312766D02*
X84663733Y-67279433D01*
X84663733Y-67279433D02*
X84730400Y-67246100D01*
X84730400Y-67246100D02*
X84897067Y-67246100D01*
X84897067Y-67246100D02*
X84963733Y-67279433D01*
X84963733Y-67279433D02*
X84997067Y-67312766D01*
X84997067Y-67312766D02*
X85030400Y-67379433D01*
X85030400Y-67379433D02*
X85030400Y-67546100D01*
X85030400Y-67546100D02*
X84997067Y-67612766D01*
X84997067Y-67612766D02*
X84963733Y-67646100D01*
X84963733Y-67646100D02*
X84897067Y-67679433D01*
X84897067Y-67679433D02*
X84730400Y-67679433D01*
X84730400Y-67679433D02*
X84663733Y-67646100D01*
X84663733Y-67646100D02*
X84630400Y-67612766D01*
X86188618Y-67674895D02*
X85731475Y-67674895D01*
X85960047Y-67674895D02*
X85960047Y-66874895D01*
X85960047Y-66874895D02*
X85883856Y-66989180D01*
X85883856Y-66989180D02*
X85807666Y-67065371D01*
X85807666Y-67065371D02*
X85731475Y-67103466D01*
X86683857Y-66874895D02*
X86760047Y-66874895D01*
X86760047Y-66874895D02*
X86836238Y-66912990D01*
X86836238Y-66912990D02*
X86874333Y-66951085D01*
X86874333Y-66951085D02*
X86912428Y-67027276D01*
X86912428Y-67027276D02*
X86950523Y-67179657D01*
X86950523Y-67179657D02*
X86950523Y-67370133D01*
X86950523Y-67370133D02*
X86912428Y-67522514D01*
X86912428Y-67522514D02*
X86874333Y-67598704D01*
X86874333Y-67598704D02*
X86836238Y-67636800D01*
X86836238Y-67636800D02*
X86760047Y-67674895D01*
X86760047Y-67674895D02*
X86683857Y-67674895D01*
X86683857Y-67674895D02*
X86607666Y-67636800D01*
X86607666Y-67636800D02*
X86569571Y-67598704D01*
X86569571Y-67598704D02*
X86531476Y-67522514D01*
X86531476Y-67522514D02*
X86493380Y-67370133D01*
X86493380Y-67370133D02*
X86493380Y-67179657D01*
X86493380Y-67179657D02*
X86531476Y-67027276D01*
X86531476Y-67027276D02*
X86569571Y-66951085D01*
X86569571Y-66951085D02*
X86607666Y-66912990D01*
X86607666Y-66912990D02*
X86683857Y-66874895D01*
X87293381Y-67674895D02*
X87293381Y-66874895D01*
X87750524Y-67674895D02*
X87407666Y-67217752D01*
X87750524Y-66874895D02*
X87293381Y-67332038D01*
X79588533Y-64326633D02*
X79355200Y-63993300D01*
X79188533Y-64326633D02*
X79188533Y-63626633D01*
X79188533Y-63626633D02*
X79455200Y-63626633D01*
X79455200Y-63626633D02*
X79521867Y-63659966D01*
X79521867Y-63659966D02*
X79555200Y-63693300D01*
X79555200Y-63693300D02*
X79588533Y-63759966D01*
X79588533Y-63759966D02*
X79588533Y-63859966D01*
X79588533Y-63859966D02*
X79555200Y-63926633D01*
X79555200Y-63926633D02*
X79521867Y-63959966D01*
X79521867Y-63959966D02*
X79455200Y-63993300D01*
X79455200Y-63993300D02*
X79188533Y-63993300D01*
X79821867Y-63626633D02*
X80288533Y-63626633D01*
X80288533Y-63626633D02*
X79988533Y-64326633D01*
X80759428Y-63572895D02*
X81254666Y-63572895D01*
X81254666Y-63572895D02*
X80988000Y-63877657D01*
X80988000Y-63877657D02*
X81102285Y-63877657D01*
X81102285Y-63877657D02*
X81178476Y-63915752D01*
X81178476Y-63915752D02*
X81216571Y-63953847D01*
X81216571Y-63953847D02*
X81254666Y-64030038D01*
X81254666Y-64030038D02*
X81254666Y-64220514D01*
X81254666Y-64220514D02*
X81216571Y-64296704D01*
X81216571Y-64296704D02*
X81178476Y-64334800D01*
X81178476Y-64334800D02*
X81102285Y-64372895D01*
X81102285Y-64372895D02*
X80873714Y-64372895D01*
X80873714Y-64372895D02*
X80797523Y-64334800D01*
X80797523Y-64334800D02*
X80759428Y-64296704D01*
X81521333Y-63572895D02*
X82016571Y-63572895D01*
X82016571Y-63572895D02*
X81749905Y-63877657D01*
X81749905Y-63877657D02*
X81864190Y-63877657D01*
X81864190Y-63877657D02*
X81940381Y-63915752D01*
X81940381Y-63915752D02*
X81978476Y-63953847D01*
X81978476Y-63953847D02*
X82016571Y-64030038D01*
X82016571Y-64030038D02*
X82016571Y-64220514D01*
X82016571Y-64220514D02*
X81978476Y-64296704D01*
X81978476Y-64296704D02*
X81940381Y-64334800D01*
X81940381Y-64334800D02*
X81864190Y-64372895D01*
X81864190Y-64372895D02*
X81635619Y-64372895D01*
X81635619Y-64372895D02*
X81559428Y-64334800D01*
X81559428Y-64334800D02*
X81521333Y-64296704D01*
X82511810Y-63572895D02*
X82588000Y-63572895D01*
X82588000Y-63572895D02*
X82664191Y-63610990D01*
X82664191Y-63610990D02*
X82702286Y-63649085D01*
X82702286Y-63649085D02*
X82740381Y-63725276D01*
X82740381Y-63725276D02*
X82778476Y-63877657D01*
X82778476Y-63877657D02*
X82778476Y-64068133D01*
X82778476Y-64068133D02*
X82740381Y-64220514D01*
X82740381Y-64220514D02*
X82702286Y-64296704D01*
X82702286Y-64296704D02*
X82664191Y-64334800D01*
X82664191Y-64334800D02*
X82588000Y-64372895D01*
X82588000Y-64372895D02*
X82511810Y-64372895D01*
X82511810Y-64372895D02*
X82435619Y-64334800D01*
X82435619Y-64334800D02*
X82397524Y-64296704D01*
X82397524Y-64296704D02*
X82359429Y-64220514D01*
X82359429Y-64220514D02*
X82321333Y-64068133D01*
X82321333Y-64068133D02*
X82321333Y-63877657D01*
X82321333Y-63877657D02*
X82359429Y-63725276D01*
X82359429Y-63725276D02*
X82397524Y-63649085D01*
X82397524Y-63649085D02*
X82435619Y-63610990D01*
X82435619Y-63610990D02*
X82511810Y-63572895D01*
X84109733Y-64326633D02*
X83876400Y-63993300D01*
X83709733Y-64326633D02*
X83709733Y-63626633D01*
X83709733Y-63626633D02*
X83976400Y-63626633D01*
X83976400Y-63626633D02*
X84043067Y-63659966D01*
X84043067Y-63659966D02*
X84076400Y-63693300D01*
X84076400Y-63693300D02*
X84109733Y-63759966D01*
X84109733Y-63759966D02*
X84109733Y-63859966D01*
X84109733Y-63859966D02*
X84076400Y-63926633D01*
X84076400Y-63926633D02*
X84043067Y-63959966D01*
X84043067Y-63959966D02*
X83976400Y-63993300D01*
X83976400Y-63993300D02*
X83709733Y-63993300D01*
X84709733Y-63626633D02*
X84576400Y-63626633D01*
X84576400Y-63626633D02*
X84509733Y-63659966D01*
X84509733Y-63659966D02*
X84476400Y-63693300D01*
X84476400Y-63693300D02*
X84409733Y-63793300D01*
X84409733Y-63793300D02*
X84376400Y-63926633D01*
X84376400Y-63926633D02*
X84376400Y-64193300D01*
X84376400Y-64193300D02*
X84409733Y-64259966D01*
X84409733Y-64259966D02*
X84443067Y-64293300D01*
X84443067Y-64293300D02*
X84509733Y-64326633D01*
X84509733Y-64326633D02*
X84643067Y-64326633D01*
X84643067Y-64326633D02*
X84709733Y-64293300D01*
X84709733Y-64293300D02*
X84743067Y-64259966D01*
X84743067Y-64259966D02*
X84776400Y-64193300D01*
X84776400Y-64193300D02*
X84776400Y-64026633D01*
X84776400Y-64026633D02*
X84743067Y-63959966D01*
X84743067Y-63959966D02*
X84709733Y-63926633D01*
X84709733Y-63926633D02*
X84643067Y-63893300D01*
X84643067Y-63893300D02*
X84509733Y-63893300D01*
X84509733Y-63893300D02*
X84443067Y-63926633D01*
X84443067Y-63926633D02*
X84409733Y-63959966D01*
X84409733Y-63959966D02*
X84376400Y-64026633D01*
X85458428Y-63572895D02*
X85953666Y-63572895D01*
X85953666Y-63572895D02*
X85687000Y-63877657D01*
X85687000Y-63877657D02*
X85801285Y-63877657D01*
X85801285Y-63877657D02*
X85877476Y-63915752D01*
X85877476Y-63915752D02*
X85915571Y-63953847D01*
X85915571Y-63953847D02*
X85953666Y-64030038D01*
X85953666Y-64030038D02*
X85953666Y-64220514D01*
X85953666Y-64220514D02*
X85915571Y-64296704D01*
X85915571Y-64296704D02*
X85877476Y-64334800D01*
X85877476Y-64334800D02*
X85801285Y-64372895D01*
X85801285Y-64372895D02*
X85572714Y-64372895D01*
X85572714Y-64372895D02*
X85496523Y-64334800D01*
X85496523Y-64334800D02*
X85458428Y-64296704D01*
X86220333Y-63572895D02*
X86715571Y-63572895D01*
X86715571Y-63572895D02*
X86448905Y-63877657D01*
X86448905Y-63877657D02*
X86563190Y-63877657D01*
X86563190Y-63877657D02*
X86639381Y-63915752D01*
X86639381Y-63915752D02*
X86677476Y-63953847D01*
X86677476Y-63953847D02*
X86715571Y-64030038D01*
X86715571Y-64030038D02*
X86715571Y-64220514D01*
X86715571Y-64220514D02*
X86677476Y-64296704D01*
X86677476Y-64296704D02*
X86639381Y-64334800D01*
X86639381Y-64334800D02*
X86563190Y-64372895D01*
X86563190Y-64372895D02*
X86334619Y-64372895D01*
X86334619Y-64372895D02*
X86258428Y-64334800D01*
X86258428Y-64334800D02*
X86220333Y-64296704D01*
X87210810Y-63572895D02*
X87287000Y-63572895D01*
X87287000Y-63572895D02*
X87363191Y-63610990D01*
X87363191Y-63610990D02*
X87401286Y-63649085D01*
X87401286Y-63649085D02*
X87439381Y-63725276D01*
X87439381Y-63725276D02*
X87477476Y-63877657D01*
X87477476Y-63877657D02*
X87477476Y-64068133D01*
X87477476Y-64068133D02*
X87439381Y-64220514D01*
X87439381Y-64220514D02*
X87401286Y-64296704D01*
X87401286Y-64296704D02*
X87363191Y-64334800D01*
X87363191Y-64334800D02*
X87287000Y-64372895D01*
X87287000Y-64372895D02*
X87210810Y-64372895D01*
X87210810Y-64372895D02*
X87134619Y-64334800D01*
X87134619Y-64334800D02*
X87096524Y-64296704D01*
X87096524Y-64296704D02*
X87058429Y-64220514D01*
X87058429Y-64220514D02*
X87020333Y-64068133D01*
X87020333Y-64068133D02*
X87020333Y-63877657D01*
X87020333Y-63877657D02*
X87058429Y-63725276D01*
X87058429Y-63725276D02*
X87096524Y-63649085D01*
X87096524Y-63649085D02*
X87134619Y-63610990D01*
X87134619Y-63610990D02*
X87210810Y-63572895D01*
X46555067Y-81163700D02*
X46555067Y-81497033D01*
X46321733Y-80797033D02*
X46555067Y-81163700D01*
X46555067Y-81163700D02*
X46788400Y-80797033D01*
X47388400Y-81497033D02*
X46988400Y-81497033D01*
X47188400Y-81497033D02*
X47188400Y-80797033D01*
X47188400Y-80797033D02*
X47121733Y-80897033D01*
X47121733Y-80897033D02*
X47055067Y-80963700D01*
X47055067Y-80963700D02*
X46988400Y-80997033D01*
X50161695Y-80239571D02*
X50161695Y-79744333D01*
X50161695Y-79744333D02*
X50466457Y-80010999D01*
X50466457Y-80010999D02*
X50466457Y-79896714D01*
X50466457Y-79896714D02*
X50504552Y-79820523D01*
X50504552Y-79820523D02*
X50542647Y-79782428D01*
X50542647Y-79782428D02*
X50618838Y-79744333D01*
X50618838Y-79744333D02*
X50809314Y-79744333D01*
X50809314Y-79744333D02*
X50885504Y-79782428D01*
X50885504Y-79782428D02*
X50923600Y-79820523D01*
X50923600Y-79820523D02*
X50961695Y-79896714D01*
X50961695Y-79896714D02*
X50961695Y-80125285D01*
X50961695Y-80125285D02*
X50923600Y-80201476D01*
X50923600Y-80201476D02*
X50885504Y-80239571D01*
X50237885Y-79439571D02*
X50199790Y-79401475D01*
X50199790Y-79401475D02*
X50161695Y-79325285D01*
X50161695Y-79325285D02*
X50161695Y-79134809D01*
X50161695Y-79134809D02*
X50199790Y-79058618D01*
X50199790Y-79058618D02*
X50237885Y-79020523D01*
X50237885Y-79020523D02*
X50314076Y-78982428D01*
X50314076Y-78982428D02*
X50390266Y-78982428D01*
X50390266Y-78982428D02*
X50504552Y-79020523D01*
X50504552Y-79020523D02*
X50961695Y-79477666D01*
X50961695Y-79477666D02*
X50961695Y-78982428D01*
X50885504Y-78639570D02*
X50923600Y-78601475D01*
X50923600Y-78601475D02*
X50961695Y-78639570D01*
X50961695Y-78639570D02*
X50923600Y-78677666D01*
X50923600Y-78677666D02*
X50885504Y-78639570D01*
X50885504Y-78639570D02*
X50961695Y-78639570D01*
X50161695Y-78334809D02*
X50161695Y-77801475D01*
X50161695Y-77801475D02*
X50961695Y-78144333D01*
X50161695Y-77153856D02*
X50161695Y-77306237D01*
X50161695Y-77306237D02*
X50199790Y-77382428D01*
X50199790Y-77382428D02*
X50237885Y-77420523D01*
X50237885Y-77420523D02*
X50352171Y-77496713D01*
X50352171Y-77496713D02*
X50504552Y-77534809D01*
X50504552Y-77534809D02*
X50809314Y-77534809D01*
X50809314Y-77534809D02*
X50885504Y-77496713D01*
X50885504Y-77496713D02*
X50923600Y-77458618D01*
X50923600Y-77458618D02*
X50961695Y-77382428D01*
X50961695Y-77382428D02*
X50961695Y-77230047D01*
X50961695Y-77230047D02*
X50923600Y-77153856D01*
X50923600Y-77153856D02*
X50885504Y-77115761D01*
X50885504Y-77115761D02*
X50809314Y-77077666D01*
X50809314Y-77077666D02*
X50618838Y-77077666D01*
X50618838Y-77077666D02*
X50542647Y-77115761D01*
X50542647Y-77115761D02*
X50504552Y-77153856D01*
X50504552Y-77153856D02*
X50466457Y-77230047D01*
X50466457Y-77230047D02*
X50466457Y-77382428D01*
X50466457Y-77382428D02*
X50504552Y-77458618D01*
X50504552Y-77458618D02*
X50542647Y-77496713D01*
X50542647Y-77496713D02*
X50618838Y-77534809D01*
X50504552Y-76620523D02*
X50466457Y-76696713D01*
X50466457Y-76696713D02*
X50428361Y-76734808D01*
X50428361Y-76734808D02*
X50352171Y-76772904D01*
X50352171Y-76772904D02*
X50314076Y-76772904D01*
X50314076Y-76772904D02*
X50237885Y-76734808D01*
X50237885Y-76734808D02*
X50199790Y-76696713D01*
X50199790Y-76696713D02*
X50161695Y-76620523D01*
X50161695Y-76620523D02*
X50161695Y-76468142D01*
X50161695Y-76468142D02*
X50199790Y-76391951D01*
X50199790Y-76391951D02*
X50237885Y-76353856D01*
X50237885Y-76353856D02*
X50314076Y-76315761D01*
X50314076Y-76315761D02*
X50352171Y-76315761D01*
X50352171Y-76315761D02*
X50428361Y-76353856D01*
X50428361Y-76353856D02*
X50466457Y-76391951D01*
X50466457Y-76391951D02*
X50504552Y-76468142D01*
X50504552Y-76468142D02*
X50504552Y-76620523D01*
X50504552Y-76620523D02*
X50542647Y-76696713D01*
X50542647Y-76696713D02*
X50580742Y-76734808D01*
X50580742Y-76734808D02*
X50656933Y-76772904D01*
X50656933Y-76772904D02*
X50809314Y-76772904D01*
X50809314Y-76772904D02*
X50885504Y-76734808D01*
X50885504Y-76734808D02*
X50923600Y-76696713D01*
X50923600Y-76696713D02*
X50961695Y-76620523D01*
X50961695Y-76620523D02*
X50961695Y-76468142D01*
X50961695Y-76468142D02*
X50923600Y-76391951D01*
X50923600Y-76391951D02*
X50885504Y-76353856D01*
X50885504Y-76353856D02*
X50809314Y-76315761D01*
X50809314Y-76315761D02*
X50656933Y-76315761D01*
X50656933Y-76315761D02*
X50580742Y-76353856D01*
X50580742Y-76353856D02*
X50542647Y-76391951D01*
X50542647Y-76391951D02*
X50504552Y-76468142D01*
X50961695Y-75363379D02*
X50161695Y-75363379D01*
X50961695Y-74906236D02*
X50504552Y-75249094D01*
X50161695Y-74906236D02*
X50618838Y-75363379D01*
X50961695Y-74563379D02*
X50161695Y-74563379D01*
X50542647Y-74563379D02*
X50542647Y-74106236D01*
X50961695Y-74106236D02*
X50161695Y-74106236D01*
X50428361Y-73801475D02*
X50428361Y-73382427D01*
X50428361Y-73382427D02*
X50961695Y-73801475D01*
X50961695Y-73801475D02*
X50961695Y-73382427D01*
X75611066Y-87604233D02*
X75611066Y-88104233D01*
X75611066Y-88104233D02*
X75577733Y-88204233D01*
X75577733Y-88204233D02*
X75511066Y-88270900D01*
X75511066Y-88270900D02*
X75411066Y-88304233D01*
X75411066Y-88304233D02*
X75344400Y-88304233D01*
X75911066Y-87670900D02*
X75944399Y-87637566D01*
X75944399Y-87637566D02*
X76011066Y-87604233D01*
X76011066Y-87604233D02*
X76177733Y-87604233D01*
X76177733Y-87604233D02*
X76244399Y-87637566D01*
X76244399Y-87637566D02*
X76277733Y-87670900D01*
X76277733Y-87670900D02*
X76311066Y-87737566D01*
X76311066Y-87737566D02*
X76311066Y-87804233D01*
X76311066Y-87804233D02*
X76277733Y-87904233D01*
X76277733Y-87904233D02*
X75877733Y-88304233D01*
X75877733Y-88304233D02*
X76311066Y-88304233D01*
X93548266Y-86837975D02*
X93548266Y-86137975D01*
X93548266Y-86471308D02*
X93948266Y-86471308D01*
X93948266Y-86837975D02*
X93948266Y-86137975D01*
X94581599Y-86371308D02*
X94581599Y-86837975D01*
X94414933Y-86104642D02*
X94248266Y-86604642D01*
X94248266Y-86604642D02*
X94681599Y-86604642D01*
X47659200Y-63357966D02*
X47759200Y-63391300D01*
X47759200Y-63391300D02*
X47792533Y-63424633D01*
X47792533Y-63424633D02*
X47825866Y-63491300D01*
X47825866Y-63491300D02*
X47825866Y-63591300D01*
X47825866Y-63591300D02*
X47792533Y-63657966D01*
X47792533Y-63657966D02*
X47759200Y-63691300D01*
X47759200Y-63691300D02*
X47692533Y-63724633D01*
X47692533Y-63724633D02*
X47425866Y-63724633D01*
X47425866Y-63724633D02*
X47425866Y-63024633D01*
X47425866Y-63024633D02*
X47659200Y-63024633D01*
X47659200Y-63024633D02*
X47725866Y-63057966D01*
X47725866Y-63057966D02*
X47759200Y-63091300D01*
X47759200Y-63091300D02*
X47792533Y-63157966D01*
X47792533Y-63157966D02*
X47792533Y-63224633D01*
X47792533Y-63224633D02*
X47759200Y-63291300D01*
X47759200Y-63291300D02*
X47725866Y-63324633D01*
X47725866Y-63324633D02*
X47659200Y-63357966D01*
X47659200Y-63357966D02*
X47425866Y-63357966D01*
X48025866Y-63024633D02*
X48425866Y-63024633D01*
X48225866Y-63724633D02*
X48225866Y-63024633D01*
X49025866Y-63724633D02*
X48625866Y-63724633D01*
X48825866Y-63724633D02*
X48825866Y-63024633D01*
X48825866Y-63024633D02*
X48759199Y-63124633D01*
X48759199Y-63124633D02*
X48692533Y-63191300D01*
X48692533Y-63191300D02*
X48625866Y-63224633D01*
X79283733Y-76299566D02*
X79250400Y-76332900D01*
X79250400Y-76332900D02*
X79150400Y-76366233D01*
X79150400Y-76366233D02*
X79083733Y-76366233D01*
X79083733Y-76366233D02*
X78983733Y-76332900D01*
X78983733Y-76332900D02*
X78917067Y-76266233D01*
X78917067Y-76266233D02*
X78883733Y-76199566D01*
X78883733Y-76199566D02*
X78850400Y-76066233D01*
X78850400Y-76066233D02*
X78850400Y-75966233D01*
X78850400Y-75966233D02*
X78883733Y-75832900D01*
X78883733Y-75832900D02*
X78917067Y-75766233D01*
X78917067Y-75766233D02*
X78983733Y-75699566D01*
X78983733Y-75699566D02*
X79083733Y-75666233D01*
X79083733Y-75666233D02*
X79150400Y-75666233D01*
X79150400Y-75666233D02*
X79250400Y-75699566D01*
X79250400Y-75699566D02*
X79283733Y-75732900D01*
X79883733Y-75899566D02*
X79883733Y-76366233D01*
X79717067Y-75632900D02*
X79550400Y-76132900D01*
X79550400Y-76132900D02*
X79983733Y-76132900D01*
X80600713Y-75587085D02*
X80638809Y-75548990D01*
X80638809Y-75548990D02*
X80714999Y-75510895D01*
X80714999Y-75510895D02*
X80905475Y-75510895D01*
X80905475Y-75510895D02*
X80981666Y-75548990D01*
X80981666Y-75548990D02*
X81019761Y-75587085D01*
X81019761Y-75587085D02*
X81057856Y-75663276D01*
X81057856Y-75663276D02*
X81057856Y-75739466D01*
X81057856Y-75739466D02*
X81019761Y-75853752D01*
X81019761Y-75853752D02*
X80562618Y-76310895D01*
X80562618Y-76310895D02*
X81057856Y-76310895D01*
X81362618Y-75587085D02*
X81400714Y-75548990D01*
X81400714Y-75548990D02*
X81476904Y-75510895D01*
X81476904Y-75510895D02*
X81667380Y-75510895D01*
X81667380Y-75510895D02*
X81743571Y-75548990D01*
X81743571Y-75548990D02*
X81781666Y-75587085D01*
X81781666Y-75587085D02*
X81819761Y-75663276D01*
X81819761Y-75663276D02*
X81819761Y-75739466D01*
X81819761Y-75739466D02*
X81781666Y-75853752D01*
X81781666Y-75853752D02*
X81324523Y-76310895D01*
X81324523Y-76310895D02*
X81819761Y-76310895D01*
X82162619Y-75777561D02*
X82162619Y-76577561D01*
X82162619Y-75815657D02*
X82238809Y-75777561D01*
X82238809Y-75777561D02*
X82391190Y-75777561D01*
X82391190Y-75777561D02*
X82467381Y-75815657D01*
X82467381Y-75815657D02*
X82505476Y-75853752D01*
X82505476Y-75853752D02*
X82543571Y-75929942D01*
X82543571Y-75929942D02*
X82543571Y-76158514D01*
X82543571Y-76158514D02*
X82505476Y-76234704D01*
X82505476Y-76234704D02*
X82467381Y-76272800D01*
X82467381Y-76272800D02*
X82391190Y-76310895D01*
X82391190Y-76310895D02*
X82238809Y-76310895D01*
X82238809Y-76310895D02*
X82162619Y-76272800D01*
X83153095Y-75891847D02*
X82886429Y-75891847D01*
X82886429Y-76310895D02*
X82886429Y-75510895D01*
X82886429Y-75510895D02*
X83267381Y-75510895D01*
X53670266Y-74599433D02*
X53670266Y-75166100D01*
X53670266Y-75166100D02*
X53703600Y-75232766D01*
X53703600Y-75232766D02*
X53736933Y-75266100D01*
X53736933Y-75266100D02*
X53803600Y-75299433D01*
X53803600Y-75299433D02*
X53936933Y-75299433D01*
X53936933Y-75299433D02*
X54003600Y-75266100D01*
X54003600Y-75266100D02*
X54036933Y-75232766D01*
X54036933Y-75232766D02*
X54070266Y-75166100D01*
X54070266Y-75166100D02*
X54070266Y-74599433D01*
X54736933Y-74599433D02*
X54403599Y-74599433D01*
X54403599Y-74599433D02*
X54370266Y-74932766D01*
X54370266Y-74932766D02*
X54403599Y-74899433D01*
X54403599Y-74899433D02*
X54470266Y-74866100D01*
X54470266Y-74866100D02*
X54636933Y-74866100D01*
X54636933Y-74866100D02*
X54703599Y-74899433D01*
X54703599Y-74899433D02*
X54736933Y-74932766D01*
X54736933Y-74932766D02*
X54770266Y-74999433D01*
X54770266Y-74999433D02*
X54770266Y-75166100D01*
X54770266Y-75166100D02*
X54736933Y-75232766D01*
X54736933Y-75232766D02*
X54703599Y-75266100D01*
X54703599Y-75266100D02*
X54636933Y-75299433D01*
X54636933Y-75299433D02*
X54470266Y-75299433D01*
X54470266Y-75299433D02*
X54403599Y-75266100D01*
X54403599Y-75266100D02*
X54370266Y-75232766D01*
X55543799Y-75269495D02*
X55543799Y-74469495D01*
X55543799Y-74469495D02*
X55734275Y-74469495D01*
X55734275Y-74469495D02*
X55848561Y-74507590D01*
X55848561Y-74507590D02*
X55924751Y-74583780D01*
X55924751Y-74583780D02*
X55962846Y-74659971D01*
X55962846Y-74659971D02*
X56000942Y-74812352D01*
X56000942Y-74812352D02*
X56000942Y-74926638D01*
X56000942Y-74926638D02*
X55962846Y-75079019D01*
X55962846Y-75079019D02*
X55924751Y-75155209D01*
X55924751Y-75155209D02*
X55848561Y-75231400D01*
X55848561Y-75231400D02*
X55734275Y-75269495D01*
X55734275Y-75269495D02*
X55543799Y-75269495D01*
X56305703Y-75231400D02*
X56419989Y-75269495D01*
X56419989Y-75269495D02*
X56610465Y-75269495D01*
X56610465Y-75269495D02*
X56686656Y-75231400D01*
X56686656Y-75231400D02*
X56724751Y-75193304D01*
X56724751Y-75193304D02*
X56762846Y-75117114D01*
X56762846Y-75117114D02*
X56762846Y-75040923D01*
X56762846Y-75040923D02*
X56724751Y-74964733D01*
X56724751Y-74964733D02*
X56686656Y-74926638D01*
X56686656Y-74926638D02*
X56610465Y-74888542D01*
X56610465Y-74888542D02*
X56458084Y-74850447D01*
X56458084Y-74850447D02*
X56381894Y-74812352D01*
X56381894Y-74812352D02*
X56343799Y-74774257D01*
X56343799Y-74774257D02*
X56305703Y-74698066D01*
X56305703Y-74698066D02*
X56305703Y-74621876D01*
X56305703Y-74621876D02*
X56343799Y-74545685D01*
X56343799Y-74545685D02*
X56381894Y-74507590D01*
X56381894Y-74507590D02*
X56458084Y-74469495D01*
X56458084Y-74469495D02*
X56648561Y-74469495D01*
X56648561Y-74469495D02*
X56762846Y-74507590D01*
X57524751Y-75269495D02*
X57067608Y-75269495D01*
X57296180Y-75269495D02*
X57296180Y-74469495D01*
X57296180Y-74469495D02*
X57219989Y-74583780D01*
X57219989Y-74583780D02*
X57143799Y-74659971D01*
X57143799Y-74659971D02*
X57067608Y-74698066D01*
X57791418Y-74469495D02*
X58286656Y-74469495D01*
X58286656Y-74469495D02*
X58019990Y-74774257D01*
X58019990Y-74774257D02*
X58134275Y-74774257D01*
X58134275Y-74774257D02*
X58210466Y-74812352D01*
X58210466Y-74812352D02*
X58248561Y-74850447D01*
X58248561Y-74850447D02*
X58286656Y-74926638D01*
X58286656Y-74926638D02*
X58286656Y-75117114D01*
X58286656Y-75117114D02*
X58248561Y-75193304D01*
X58248561Y-75193304D02*
X58210466Y-75231400D01*
X58210466Y-75231400D02*
X58134275Y-75269495D01*
X58134275Y-75269495D02*
X57905704Y-75269495D01*
X57905704Y-75269495D02*
X57829513Y-75231400D01*
X57829513Y-75231400D02*
X57791418Y-75193304D01*
X58553323Y-74469495D02*
X59048561Y-74469495D01*
X59048561Y-74469495D02*
X58781895Y-74774257D01*
X58781895Y-74774257D02*
X58896180Y-74774257D01*
X58896180Y-74774257D02*
X58972371Y-74812352D01*
X58972371Y-74812352D02*
X59010466Y-74850447D01*
X59010466Y-74850447D02*
X59048561Y-74926638D01*
X59048561Y-74926638D02*
X59048561Y-75117114D01*
X59048561Y-75117114D02*
X59010466Y-75193304D01*
X59010466Y-75193304D02*
X58972371Y-75231400D01*
X58972371Y-75231400D02*
X58896180Y-75269495D01*
X58896180Y-75269495D02*
X58667609Y-75269495D01*
X58667609Y-75269495D02*
X58591418Y-75231400D01*
X58591418Y-75231400D02*
X58553323Y-75193304D01*
X59315228Y-74469495D02*
X59848562Y-74469495D01*
X59848562Y-74469495D02*
X59505704Y-75269495D01*
X60115228Y-75231400D02*
X60229514Y-75269495D01*
X60229514Y-75269495D02*
X60419990Y-75269495D01*
X60419990Y-75269495D02*
X60496181Y-75231400D01*
X60496181Y-75231400D02*
X60534276Y-75193304D01*
X60534276Y-75193304D02*
X60572371Y-75117114D01*
X60572371Y-75117114D02*
X60572371Y-75040923D01*
X60572371Y-75040923D02*
X60534276Y-74964733D01*
X60534276Y-74964733D02*
X60496181Y-74926638D01*
X60496181Y-74926638D02*
X60419990Y-74888542D01*
X60419990Y-74888542D02*
X60267609Y-74850447D01*
X60267609Y-74850447D02*
X60191419Y-74812352D01*
X60191419Y-74812352D02*
X60153324Y-74774257D01*
X60153324Y-74774257D02*
X60115228Y-74698066D01*
X60115228Y-74698066D02*
X60115228Y-74621876D01*
X60115228Y-74621876D02*
X60153324Y-74545685D01*
X60153324Y-74545685D02*
X60191419Y-74507590D01*
X60191419Y-74507590D02*
X60267609Y-74469495D01*
X60267609Y-74469495D02*
X60458086Y-74469495D01*
X60458086Y-74469495D02*
X60572371Y-74507590D01*
X60724753Y-75345685D02*
X61334276Y-75345685D01*
X64246933Y-63193166D02*
X64213600Y-63226500D01*
X64213600Y-63226500D02*
X64113600Y-63259833D01*
X64113600Y-63259833D02*
X64046933Y-63259833D01*
X64046933Y-63259833D02*
X63946933Y-63226500D01*
X63946933Y-63226500D02*
X63880267Y-63159833D01*
X63880267Y-63159833D02*
X63846933Y-63093166D01*
X63846933Y-63093166D02*
X63813600Y-62959833D01*
X63813600Y-62959833D02*
X63813600Y-62859833D01*
X63813600Y-62859833D02*
X63846933Y-62726500D01*
X63846933Y-62726500D02*
X63880267Y-62659833D01*
X63880267Y-62659833D02*
X63946933Y-62593166D01*
X63946933Y-62593166D02*
X64046933Y-62559833D01*
X64046933Y-62559833D02*
X64113600Y-62559833D01*
X64113600Y-62559833D02*
X64213600Y-62593166D01*
X64213600Y-62593166D02*
X64246933Y-62626500D01*
X64913600Y-63259833D02*
X64513600Y-63259833D01*
X64713600Y-63259833D02*
X64713600Y-62559833D01*
X64713600Y-62559833D02*
X64646933Y-62659833D01*
X64646933Y-62659833D02*
X64580267Y-62726500D01*
X64580267Y-62726500D02*
X64513600Y-62759833D01*
X65487714Y-62556895D02*
X65563904Y-62556895D01*
X65563904Y-62556895D02*
X65640095Y-62594990D01*
X65640095Y-62594990D02*
X65678190Y-62633085D01*
X65678190Y-62633085D02*
X65716285Y-62709276D01*
X65716285Y-62709276D02*
X65754380Y-62861657D01*
X65754380Y-62861657D02*
X65754380Y-63052133D01*
X65754380Y-63052133D02*
X65716285Y-63204514D01*
X65716285Y-63204514D02*
X65678190Y-63280704D01*
X65678190Y-63280704D02*
X65640095Y-63318800D01*
X65640095Y-63318800D02*
X65563904Y-63356895D01*
X65563904Y-63356895D02*
X65487714Y-63356895D01*
X65487714Y-63356895D02*
X65411523Y-63318800D01*
X65411523Y-63318800D02*
X65373428Y-63280704D01*
X65373428Y-63280704D02*
X65335333Y-63204514D01*
X65335333Y-63204514D02*
X65297237Y-63052133D01*
X65297237Y-63052133D02*
X65297237Y-62861657D01*
X65297237Y-62861657D02*
X65335333Y-62709276D01*
X65335333Y-62709276D02*
X65373428Y-62633085D01*
X65373428Y-62633085D02*
X65411523Y-62594990D01*
X65411523Y-62594990D02*
X65487714Y-62556895D01*
X66097238Y-63280704D02*
X66135333Y-63318800D01*
X66135333Y-63318800D02*
X66097238Y-63356895D01*
X66097238Y-63356895D02*
X66059142Y-63318800D01*
X66059142Y-63318800D02*
X66097238Y-63280704D01*
X66097238Y-63280704D02*
X66097238Y-63356895D01*
X66897237Y-63356895D02*
X66440094Y-63356895D01*
X66668666Y-63356895D02*
X66668666Y-62556895D01*
X66668666Y-62556895D02*
X66592475Y-62671180D01*
X66592475Y-62671180D02*
X66516285Y-62747371D01*
X66516285Y-62747371D02*
X66440094Y-62785466D01*
X67582952Y-62823561D02*
X67582952Y-63356895D01*
X67240095Y-62823561D02*
X67240095Y-63242609D01*
X67240095Y-63242609D02*
X67278190Y-63318800D01*
X67278190Y-63318800D02*
X67354380Y-63356895D01*
X67354380Y-63356895D02*
X67468666Y-63356895D01*
X67468666Y-63356895D02*
X67544857Y-63318800D01*
X67544857Y-63318800D02*
X67582952Y-63280704D01*
X68230571Y-62937847D02*
X67963905Y-62937847D01*
X67963905Y-63356895D02*
X67963905Y-62556895D01*
X67963905Y-62556895D02*
X68344857Y-62556895D01*
X58303333Y-82208233D02*
X58070000Y-81874900D01*
X57903333Y-82208233D02*
X57903333Y-81508233D01*
X57903333Y-81508233D02*
X58170000Y-81508233D01*
X58170000Y-81508233D02*
X58236667Y-81541566D01*
X58236667Y-81541566D02*
X58270000Y-81574900D01*
X58270000Y-81574900D02*
X58303333Y-81641566D01*
X58303333Y-81641566D02*
X58303333Y-81741566D01*
X58303333Y-81741566D02*
X58270000Y-81808233D01*
X58270000Y-81808233D02*
X58236667Y-81841566D01*
X58236667Y-81841566D02*
X58170000Y-81874900D01*
X58170000Y-81874900D02*
X57903333Y-81874900D01*
X58570000Y-81574900D02*
X58603333Y-81541566D01*
X58603333Y-81541566D02*
X58670000Y-81508233D01*
X58670000Y-81508233D02*
X58836667Y-81508233D01*
X58836667Y-81508233D02*
X58903333Y-81541566D01*
X58903333Y-81541566D02*
X58936667Y-81574900D01*
X58936667Y-81574900D02*
X58970000Y-81641566D01*
X58970000Y-81641566D02*
X58970000Y-81708233D01*
X58970000Y-81708233D02*
X58936667Y-81808233D01*
X58936667Y-81808233D02*
X58536667Y-82208233D01*
X58536667Y-82208233D02*
X58970000Y-82208233D01*
X59925018Y-82229095D02*
X59467875Y-82229095D01*
X59696447Y-82229095D02*
X59696447Y-81429095D01*
X59696447Y-81429095D02*
X59620256Y-81543380D01*
X59620256Y-81543380D02*
X59544066Y-81619571D01*
X59544066Y-81619571D02*
X59467875Y-81657666D01*
X60420257Y-81429095D02*
X60496447Y-81429095D01*
X60496447Y-81429095D02*
X60572638Y-81467190D01*
X60572638Y-81467190D02*
X60610733Y-81505285D01*
X60610733Y-81505285D02*
X60648828Y-81581476D01*
X60648828Y-81581476D02*
X60686923Y-81733857D01*
X60686923Y-81733857D02*
X60686923Y-81924333D01*
X60686923Y-81924333D02*
X60648828Y-82076714D01*
X60648828Y-82076714D02*
X60610733Y-82152904D01*
X60610733Y-82152904D02*
X60572638Y-82191000D01*
X60572638Y-82191000D02*
X60496447Y-82229095D01*
X60496447Y-82229095D02*
X60420257Y-82229095D01*
X60420257Y-82229095D02*
X60344066Y-82191000D01*
X60344066Y-82191000D02*
X60305971Y-82152904D01*
X60305971Y-82152904D02*
X60267876Y-82076714D01*
X60267876Y-82076714D02*
X60229780Y-81924333D01*
X60229780Y-81924333D02*
X60229780Y-81733857D01*
X60229780Y-81733857D02*
X60267876Y-81581476D01*
X60267876Y-81581476D02*
X60305971Y-81505285D01*
X60305971Y-81505285D02*
X60344066Y-81467190D01*
X60344066Y-81467190D02*
X60420257Y-81429095D01*
X61029781Y-82229095D02*
X61029781Y-81429095D01*
X61486924Y-82229095D02*
X61144066Y-81771952D01*
X61486924Y-81429095D02*
X61029781Y-81886238D01*
X49449066Y-87807433D02*
X49449066Y-88307433D01*
X49449066Y-88307433D02*
X49415733Y-88407433D01*
X49415733Y-88407433D02*
X49349066Y-88474100D01*
X49349066Y-88474100D02*
X49249066Y-88507433D01*
X49249066Y-88507433D02*
X49182400Y-88507433D01*
X49715733Y-87807433D02*
X50149066Y-87807433D01*
X50149066Y-87807433D02*
X49915733Y-88074100D01*
X49915733Y-88074100D02*
X50015733Y-88074100D01*
X50015733Y-88074100D02*
X50082399Y-88107433D01*
X50082399Y-88107433D02*
X50115733Y-88140766D01*
X50115733Y-88140766D02*
X50149066Y-88207433D01*
X50149066Y-88207433D02*
X50149066Y-88374100D01*
X50149066Y-88374100D02*
X50115733Y-88440766D01*
X50115733Y-88440766D02*
X50082399Y-88474100D01*
X50082399Y-88474100D02*
X50015733Y-88507433D01*
X50015733Y-88507433D02*
X49815733Y-88507433D01*
X49815733Y-88507433D02*
X49749066Y-88474100D01*
X49749066Y-88474100D02*
X49715733Y-88440766D01*
X68971333Y-63193166D02*
X68938000Y-63226500D01*
X68938000Y-63226500D02*
X68838000Y-63259833D01*
X68838000Y-63259833D02*
X68771333Y-63259833D01*
X68771333Y-63259833D02*
X68671333Y-63226500D01*
X68671333Y-63226500D02*
X68604667Y-63159833D01*
X68604667Y-63159833D02*
X68571333Y-63093166D01*
X68571333Y-63093166D02*
X68538000Y-62959833D01*
X68538000Y-62959833D02*
X68538000Y-62859833D01*
X68538000Y-62859833D02*
X68571333Y-62726500D01*
X68571333Y-62726500D02*
X68604667Y-62659833D01*
X68604667Y-62659833D02*
X68671333Y-62593166D01*
X68671333Y-62593166D02*
X68771333Y-62559833D01*
X68771333Y-62559833D02*
X68838000Y-62559833D01*
X68838000Y-62559833D02*
X68938000Y-62593166D01*
X68938000Y-62593166D02*
X68971333Y-62626500D01*
X69204667Y-62559833D02*
X69638000Y-62559833D01*
X69638000Y-62559833D02*
X69404667Y-62826500D01*
X69404667Y-62826500D02*
X69504667Y-62826500D01*
X69504667Y-62826500D02*
X69571333Y-62859833D01*
X69571333Y-62859833D02*
X69604667Y-62893166D01*
X69604667Y-62893166D02*
X69638000Y-62959833D01*
X69638000Y-62959833D02*
X69638000Y-63126500D01*
X69638000Y-63126500D02*
X69604667Y-63193166D01*
X69604667Y-63193166D02*
X69571333Y-63226500D01*
X69571333Y-63226500D02*
X69504667Y-63259833D01*
X69504667Y-63259833D02*
X69304667Y-63259833D01*
X69304667Y-63259833D02*
X69238000Y-63226500D01*
X69238000Y-63226500D02*
X69204667Y-63193166D01*
X70440714Y-62458895D02*
X70516904Y-62458895D01*
X70516904Y-62458895D02*
X70593095Y-62496990D01*
X70593095Y-62496990D02*
X70631190Y-62535085D01*
X70631190Y-62535085D02*
X70669285Y-62611276D01*
X70669285Y-62611276D02*
X70707380Y-62763657D01*
X70707380Y-62763657D02*
X70707380Y-62954133D01*
X70707380Y-62954133D02*
X70669285Y-63106514D01*
X70669285Y-63106514D02*
X70631190Y-63182704D01*
X70631190Y-63182704D02*
X70593095Y-63220800D01*
X70593095Y-63220800D02*
X70516904Y-63258895D01*
X70516904Y-63258895D02*
X70440714Y-63258895D01*
X70440714Y-63258895D02*
X70364523Y-63220800D01*
X70364523Y-63220800D02*
X70326428Y-63182704D01*
X70326428Y-63182704D02*
X70288333Y-63106514D01*
X70288333Y-63106514D02*
X70250237Y-62954133D01*
X70250237Y-62954133D02*
X70250237Y-62763657D01*
X70250237Y-62763657D02*
X70288333Y-62611276D01*
X70288333Y-62611276D02*
X70326428Y-62535085D01*
X70326428Y-62535085D02*
X70364523Y-62496990D01*
X70364523Y-62496990D02*
X70440714Y-62458895D01*
X71050238Y-63182704D02*
X71088333Y-63220800D01*
X71088333Y-63220800D02*
X71050238Y-63258895D01*
X71050238Y-63258895D02*
X71012142Y-63220800D01*
X71012142Y-63220800D02*
X71050238Y-63182704D01*
X71050238Y-63182704D02*
X71050238Y-63258895D01*
X71850237Y-63258895D02*
X71393094Y-63258895D01*
X71621666Y-63258895D02*
X71621666Y-62458895D01*
X71621666Y-62458895D02*
X71545475Y-62573180D01*
X71545475Y-62573180D02*
X71469285Y-62649371D01*
X71469285Y-62649371D02*
X71393094Y-62687466D01*
X72535952Y-62725561D02*
X72535952Y-63258895D01*
X72193095Y-62725561D02*
X72193095Y-63144609D01*
X72193095Y-63144609D02*
X72231190Y-63220800D01*
X72231190Y-63220800D02*
X72307380Y-63258895D01*
X72307380Y-63258895D02*
X72421666Y-63258895D01*
X72421666Y-63258895D02*
X72497857Y-63220800D01*
X72497857Y-63220800D02*
X72535952Y-63182704D01*
X73183571Y-62839847D02*
X72916905Y-62839847D01*
X72916905Y-63258895D02*
X72916905Y-62458895D01*
X72916905Y-62458895D02*
X73297857Y-62458895D01*
X65452667Y-82789300D02*
X65452667Y-83122633D01*
X65219333Y-82422633D02*
X65452667Y-82789300D01*
X65452667Y-82789300D02*
X65686000Y-82422633D01*
X65886000Y-82489300D02*
X65919333Y-82455966D01*
X65919333Y-82455966D02*
X65986000Y-82422633D01*
X65986000Y-82422633D02*
X66152667Y-82422633D01*
X66152667Y-82422633D02*
X66219333Y-82455966D01*
X66219333Y-82455966D02*
X66252667Y-82489300D01*
X66252667Y-82489300D02*
X66286000Y-82555966D01*
X66286000Y-82555966D02*
X66286000Y-82622633D01*
X66286000Y-82622633D02*
X66252667Y-82722633D01*
X66252667Y-82722633D02*
X65852667Y-83122633D01*
X65852667Y-83122633D02*
X66286000Y-83122633D01*
X67532456Y-83448295D02*
X67075313Y-83448295D01*
X67303885Y-83448295D02*
X67303885Y-82648295D01*
X67303885Y-82648295D02*
X67227694Y-82762580D01*
X67227694Y-82762580D02*
X67151504Y-82838771D01*
X67151504Y-82838771D02*
X67075313Y-82876866D01*
X68218171Y-82648295D02*
X68065790Y-82648295D01*
X68065790Y-82648295D02*
X67989599Y-82686390D01*
X67989599Y-82686390D02*
X67951504Y-82724485D01*
X67951504Y-82724485D02*
X67875314Y-82838771D01*
X67875314Y-82838771D02*
X67837218Y-82991152D01*
X67837218Y-82991152D02*
X67837218Y-83295914D01*
X67837218Y-83295914D02*
X67875314Y-83372104D01*
X67875314Y-83372104D02*
X67913409Y-83410200D01*
X67913409Y-83410200D02*
X67989599Y-83448295D01*
X67989599Y-83448295D02*
X68141980Y-83448295D01*
X68141980Y-83448295D02*
X68218171Y-83410200D01*
X68218171Y-83410200D02*
X68256266Y-83372104D01*
X68256266Y-83372104D02*
X68294361Y-83295914D01*
X68294361Y-83295914D02*
X68294361Y-83105438D01*
X68294361Y-83105438D02*
X68256266Y-83029247D01*
X68256266Y-83029247D02*
X68218171Y-82991152D01*
X68218171Y-82991152D02*
X68141980Y-82953057D01*
X68141980Y-82953057D02*
X67989599Y-82953057D01*
X67989599Y-82953057D02*
X67913409Y-82991152D01*
X67913409Y-82991152D02*
X67875314Y-83029247D01*
X67875314Y-83029247D02*
X67837218Y-83105438D01*
X69246743Y-83448295D02*
X69246743Y-82648295D01*
X69246743Y-82648295D02*
X69513409Y-83219723D01*
X69513409Y-83219723D02*
X69780076Y-82648295D01*
X69780076Y-82648295D02*
X69780076Y-83448295D01*
X70161029Y-83448295D02*
X70161029Y-82648295D01*
X70161029Y-83029247D02*
X70618172Y-83029247D01*
X70618172Y-83448295D02*
X70618172Y-82648295D01*
X70922933Y-82914961D02*
X71341981Y-82914961D01*
X71341981Y-82914961D02*
X70922933Y-83448295D01*
X70922933Y-83448295D02*
X71341981Y-83448295D01*
X79334533Y-67577833D02*
X79101200Y-67244500D01*
X78934533Y-67577833D02*
X78934533Y-66877833D01*
X78934533Y-66877833D02*
X79201200Y-66877833D01*
X79201200Y-66877833D02*
X79267867Y-66911166D01*
X79267867Y-66911166D02*
X79301200Y-66944500D01*
X79301200Y-66944500D02*
X79334533Y-67011166D01*
X79334533Y-67011166D02*
X79334533Y-67111166D01*
X79334533Y-67111166D02*
X79301200Y-67177833D01*
X79301200Y-67177833D02*
X79267867Y-67211166D01*
X79267867Y-67211166D02*
X79201200Y-67244500D01*
X79201200Y-67244500D02*
X78934533Y-67244500D01*
X79567867Y-66877833D02*
X80001200Y-66877833D01*
X80001200Y-66877833D02*
X79767867Y-67144500D01*
X79767867Y-67144500D02*
X79867867Y-67144500D01*
X79867867Y-67144500D02*
X79934533Y-67177833D01*
X79934533Y-67177833D02*
X79967867Y-67211166D01*
X79967867Y-67211166D02*
X80001200Y-67277833D01*
X80001200Y-67277833D02*
X80001200Y-67444500D01*
X80001200Y-67444500D02*
X79967867Y-67511166D01*
X79967867Y-67511166D02*
X79934533Y-67544500D01*
X79934533Y-67544500D02*
X79867867Y-67577833D01*
X79867867Y-67577833D02*
X79667867Y-67577833D01*
X79667867Y-67577833D02*
X79601200Y-67544500D01*
X79601200Y-67544500D02*
X79567867Y-67511166D01*
X80714952Y-67141561D02*
X80714952Y-67674895D01*
X80524476Y-66836800D02*
X80333999Y-67408228D01*
X80333999Y-67408228D02*
X80829238Y-67408228D01*
X81134000Y-67598704D02*
X81172095Y-67636800D01*
X81172095Y-67636800D02*
X81134000Y-67674895D01*
X81134000Y-67674895D02*
X81095904Y-67636800D01*
X81095904Y-67636800D02*
X81134000Y-67598704D01*
X81134000Y-67598704D02*
X81134000Y-67674895D01*
X81438761Y-66874895D02*
X81972095Y-66874895D01*
X81972095Y-66874895D02*
X81629237Y-67674895D01*
X82276857Y-67674895D02*
X82276857Y-66874895D01*
X82734000Y-67674895D02*
X82391142Y-67217752D01*
X82734000Y-66874895D02*
X82276857Y-67332038D01*
X52715333Y-82309833D02*
X52482000Y-81976500D01*
X52315333Y-82309833D02*
X52315333Y-81609833D01*
X52315333Y-81609833D02*
X52582000Y-81609833D01*
X52582000Y-81609833D02*
X52648667Y-81643166D01*
X52648667Y-81643166D02*
X52682000Y-81676500D01*
X52682000Y-81676500D02*
X52715333Y-81743166D01*
X52715333Y-81743166D02*
X52715333Y-81843166D01*
X52715333Y-81843166D02*
X52682000Y-81909833D01*
X52682000Y-81909833D02*
X52648667Y-81943166D01*
X52648667Y-81943166D02*
X52582000Y-81976500D01*
X52582000Y-81976500D02*
X52315333Y-81976500D01*
X53382000Y-82309833D02*
X52982000Y-82309833D01*
X53182000Y-82309833D02*
X53182000Y-81609833D01*
X53182000Y-81609833D02*
X53115333Y-81709833D01*
X53115333Y-81709833D02*
X53048667Y-81776500D01*
X53048667Y-81776500D02*
X52982000Y-81809833D01*
X54311618Y-82330695D02*
X53854475Y-82330695D01*
X54083047Y-82330695D02*
X54083047Y-81530695D01*
X54083047Y-81530695D02*
X54006856Y-81644980D01*
X54006856Y-81644980D02*
X53930666Y-81721171D01*
X53930666Y-81721171D02*
X53854475Y-81759266D01*
X54806857Y-81530695D02*
X54883047Y-81530695D01*
X54883047Y-81530695D02*
X54959238Y-81568790D01*
X54959238Y-81568790D02*
X54997333Y-81606885D01*
X54997333Y-81606885D02*
X55035428Y-81683076D01*
X55035428Y-81683076D02*
X55073523Y-81835457D01*
X55073523Y-81835457D02*
X55073523Y-82025933D01*
X55073523Y-82025933D02*
X55035428Y-82178314D01*
X55035428Y-82178314D02*
X54997333Y-82254504D01*
X54997333Y-82254504D02*
X54959238Y-82292600D01*
X54959238Y-82292600D02*
X54883047Y-82330695D01*
X54883047Y-82330695D02*
X54806857Y-82330695D01*
X54806857Y-82330695D02*
X54730666Y-82292600D01*
X54730666Y-82292600D02*
X54692571Y-82254504D01*
X54692571Y-82254504D02*
X54654476Y-82178314D01*
X54654476Y-82178314D02*
X54616380Y-82025933D01*
X54616380Y-82025933D02*
X54616380Y-81835457D01*
X54616380Y-81835457D02*
X54654476Y-81683076D01*
X54654476Y-81683076D02*
X54692571Y-81606885D01*
X54692571Y-81606885D02*
X54730666Y-81568790D01*
X54730666Y-81568790D02*
X54806857Y-81530695D01*
X55416381Y-82330695D02*
X55416381Y-81530695D01*
X55873524Y-82330695D02*
X55530666Y-81873552D01*
X55873524Y-81530695D02*
X55416381Y-81987838D01*
X45390227Y-86990375D02*
X45390227Y-86290375D01*
X45390227Y-86623708D02*
X45790227Y-86623708D01*
X45790227Y-86990375D02*
X45790227Y-86290375D01*
X46056894Y-86290375D02*
X46490227Y-86290375D01*
X46490227Y-86290375D02*
X46256894Y-86557042D01*
X46256894Y-86557042D02*
X46356894Y-86557042D01*
X46356894Y-86557042D02*
X46423560Y-86590375D01*
X46423560Y-86590375D02*
X46456894Y-86623708D01*
X46456894Y-86623708D02*
X46490227Y-86690375D01*
X46490227Y-86690375D02*
X46490227Y-86857042D01*
X46490227Y-86857042D02*
X46456894Y-86923708D01*
X46456894Y-86923708D02*
X46423560Y-86957042D01*
X46423560Y-86957042D02*
X46356894Y-86990375D01*
X46356894Y-86990375D02*
X46156894Y-86990375D01*
X46156894Y-86990375D02*
X46090227Y-86957042D01*
X46090227Y-86957042D02*
X46056894Y-86923708D01*
D11*
%TO.C,D2*%
X79668900Y-60355600D02*
X79668900Y-62275600D01*
X79668900Y-62275600D02*
X82353900Y-62275600D01*
X82353900Y-60355600D02*
X79668900Y-60355600D01*
%TO.C,U1*%
X54460100Y-67623400D02*
X54460100Y-67893400D01*
X54460100Y-73143400D02*
X54460100Y-72873400D01*
X57220100Y-67623400D02*
X54460100Y-67623400D01*
X57220100Y-67623400D02*
X59980100Y-67623400D01*
X57220100Y-73143400D02*
X54460100Y-73143400D01*
X57220100Y-73143400D02*
X59980100Y-73143400D01*
X59980100Y-67623400D02*
X59980100Y-67893400D01*
X59980100Y-73143400D02*
X59980100Y-72873400D01*
X53695100Y-67893400D02*
X53455100Y-67563400D01*
X53935100Y-67563400D01*
X53695100Y-67893400D01*
G36*
X53695100Y-67893400D02*
G01*
X53455100Y-67563400D01*
X53935100Y-67563400D01*
X53695100Y-67893400D01*
G37*
%TO.C,J4*%
X88790000Y-64660000D02*
X90170000Y-64660000D01*
X88790000Y-66040000D02*
X88790000Y-64660000D01*
X88790000Y-67310000D02*
X88790000Y-72500000D01*
X88790000Y-67310000D02*
X91440000Y-67310000D01*
X88790000Y-72500000D02*
X94090000Y-72500000D01*
X91440000Y-64660000D02*
X94090000Y-64660000D01*
X91440000Y-67310000D02*
X91440000Y-64660000D01*
X94090000Y-64660000D02*
X94090000Y-72500000D01*
D12*
%TO.C,U4*%
X66858000Y-67721600D02*
X66858000Y-67826600D01*
X66858000Y-67721600D02*
X66963000Y-67721600D01*
X66858000Y-74721600D02*
X66858000Y-74616600D01*
X66858000Y-74721600D02*
X66963000Y-74721600D01*
X73858000Y-67721600D02*
X73753000Y-67721600D01*
X73858000Y-67721600D02*
X73858000Y-67826600D01*
X73858000Y-74721600D02*
X73753000Y-74721600D01*
X73858000Y-74721600D02*
X73858000Y-74616600D01*
D13*
X64618000Y-68421600D02*
G75*
G02*
X64418000Y-68421600I-100000J0D01*
G01*
X64418000Y-68421600D02*
G75*
G02*
X64618000Y-68421600I100000J0D01*
G01*
D11*
%TO.C,D1*%
X85589400Y-60254000D02*
X85589400Y-62174000D01*
X85589400Y-62174000D02*
X88274400Y-62174000D01*
X88274400Y-60254000D02*
X85589400Y-60254000D01*
%TO.C,C2*%
X80475148Y-79478200D02*
X80997652Y-79478200D01*
X80475148Y-80948200D02*
X80997652Y-80948200D01*
%TO.C,U2*%
X54358500Y-60206600D02*
X54358500Y-60476600D01*
X54358500Y-65726600D02*
X54358500Y-65456600D01*
X57118500Y-60206600D02*
X54358500Y-60206600D01*
X57118500Y-60206600D02*
X59878500Y-60206600D01*
X57118500Y-65726600D02*
X54358500Y-65726600D01*
X57118500Y-65726600D02*
X59878500Y-65726600D01*
X59878500Y-60206600D02*
X59878500Y-60476600D01*
X59878500Y-65726600D02*
X59878500Y-65456600D01*
X53593500Y-60476600D02*
X53353500Y-60146600D01*
X53833500Y-60146600D01*
X53593500Y-60476600D01*
G36*
X53593500Y-60476600D02*
G01*
X53353500Y-60146600D01*
X53833500Y-60146600D01*
X53593500Y-60476600D01*
G37*
%TO.C,C5*%
X75902452Y-60529800D02*
X75379948Y-60529800D01*
X75902452Y-61999800D02*
X75379948Y-61999800D01*
%TO.C,R4*%
X80394436Y-71451800D02*
X80848564Y-71451800D01*
X80394436Y-72921800D02*
X80848564Y-72921800D01*
%TO.C,J1*%
X91228400Y-74972400D02*
X92608400Y-74972400D01*
X91228400Y-76352400D02*
X91228400Y-74972400D01*
X91228400Y-77622400D02*
X91228400Y-85352400D01*
X91228400Y-77622400D02*
X93988400Y-77622400D01*
X91228400Y-85352400D02*
X93988400Y-85352400D01*
X93988400Y-77622400D02*
X93988400Y-85352400D01*
%TO.C,R5*%
X85169636Y-67997400D02*
X85623764Y-67997400D01*
X85169636Y-69467400D02*
X85623764Y-69467400D01*
%TO.C,R7*%
X80848564Y-64593800D02*
X80394436Y-64593800D01*
X80848564Y-66063800D02*
X80394436Y-66063800D01*
%TO.C,R6*%
X85167736Y-64695400D02*
X85621864Y-64695400D01*
X85167736Y-66165400D02*
X85621864Y-66165400D01*
%TO.C,Y1*%
X46307600Y-73186000D02*
X46307600Y-80436000D01*
X46307600Y-80436000D02*
X49907600Y-80436000D01*
X49907600Y-80436000D02*
X49907600Y-73186000D01*
%TO.C,J2*%
X76801200Y-88349600D02*
X76801200Y-86969600D01*
X78181200Y-88349600D02*
X76801200Y-88349600D01*
X79451200Y-85589600D02*
X87181200Y-85589600D01*
X79451200Y-88349600D02*
X79451200Y-85589600D01*
X79451200Y-88349600D02*
X87181200Y-88349600D01*
X87181200Y-88349600D02*
X87181200Y-85589600D01*
%TO.C,BT1*%
X46829200Y-64406000D02*
X48209200Y-64406000D01*
X46829200Y-65786000D02*
X46829200Y-64406000D01*
X46829200Y-67056000D02*
X46829200Y-69706000D01*
X46829200Y-67056000D02*
X49589200Y-67056000D01*
X46829200Y-69706000D02*
X49589200Y-69706000D01*
X49589200Y-67056000D02*
X49589200Y-69706000D01*
%TO.C,C4*%
X80459948Y-76887400D02*
X80982452Y-76887400D01*
X80459948Y-78357400D02*
X80982452Y-78357400D01*
D12*
%TO.C,U5*%
X55353200Y-75813600D02*
X59353200Y-75813600D01*
X55353200Y-80853600D02*
X59353200Y-80853600D01*
D13*
X53008200Y-75838600D02*
G75*
G02*
X52808200Y-75838600I-100000J0D01*
G01*
X52808200Y-75838600D02*
G75*
G02*
X53008200Y-75838600I100000J0D01*
G01*
D11*
%TO.C,C1*%
X65082748Y-60479000D02*
X65605252Y-60479000D01*
X65082748Y-61949000D02*
X65605252Y-61949000D01*
%TO.C,R2*%
X59259736Y-82678600D02*
X59713864Y-82678600D01*
X59259736Y-84148600D02*
X59713864Y-84148600D01*
%TO.C,J3*%
X50690000Y-88552800D02*
X50690000Y-87172800D01*
X52070000Y-88552800D02*
X50690000Y-88552800D01*
X53340000Y-85792800D02*
X73770000Y-85792800D01*
X53340000Y-88552800D02*
X53340000Y-85792800D01*
X53340000Y-88552800D02*
X73770000Y-88552800D01*
X73770000Y-88552800D02*
X73770000Y-85792800D01*
%TO.C,C3*%
X69893548Y-60479000D02*
X70416052Y-60479000D01*
X69893548Y-61949000D02*
X70416052Y-61949000D01*
%TO.C,Y2*%
X67150000Y-82165600D02*
X74400000Y-82165600D01*
X74400000Y-78565600D02*
X67150000Y-78565600D01*
X74400000Y-82165600D02*
X74400000Y-78565600D01*
%TO.C,R3*%
X80292836Y-67946600D02*
X80746964Y-67946600D01*
X80292836Y-69416600D02*
X80746964Y-69416600D01*
%TO.C,R1*%
X54125864Y-82831000D02*
X53671736Y-82831000D01*
X54125864Y-84301000D02*
X53671736Y-84301000D01*
%TD*%
M02*
